<?xml version="1.0" encoding="UTF-8" standalone="no"?>
<!DOCTYPE svg PUBLIC "-//W3C//DTD SVG 1.1//EN"
 "http://www.w3.org/Graphics/SVG/1.1/DTD/svg11.dtd">
<!-- Generated by graphviz version 2.40.1 (20161225.0304)
 -->
<!-- Title: dependencies Pages: 1 -->
<svg width="554pt" height="284pt"
 viewBox="0.00 0.00 554.00 284.00" xmlns="http://www.w3.org/2000/svg" xmlns:xlink="http://www.w3.org/1999/xlink">
<g id="graph0" class="graph" transform="scale(1 1) rotate(0) translate(4 280)">
<title>dependencies</title>
<polygon fill="#ffffff" stroke="transparent" points="-4,4 -4,-280 550,-280 550,4 -4,4"/>
<text text-anchor="start" x="252.0091" y="-42.4" font-family="sans-serif" font-weight="bold" font-size="14.00" fill="#000000">Legend</text>
<polygon fill="#ffffb3" stroke="transparent" points="39,-10 39,-30 59,-30 59,-10 39,-10"/>
<text text-anchor="start" x="62.629" y="-15.4" font-family="sans-serif" font-size="14.00" fill="#000000"> &#160;Declarations</text>
<polygon fill="#8dd3c7" stroke="transparent" points="152,-10 152,-30 172,-30 172,-10 152,-10"/>
<text text-anchor="start" x="175.7251" y="-15.4" font-family="sans-serif" font-size="14.00" fill="#000000"> &#160;Module</text>
<polygon fill="#80b1d3" stroke="transparent" points="238,-10 238,-30 258,-30 258,-10 238,-10"/>
<text text-anchor="start" x="261.7812" y="-15.4" font-family="sans-serif" font-size="14.00" fill="#000000"> &#160;Bootstrap</text>
<polygon fill="#fdb462" stroke="transparent" points="335,-10 335,-30 355,-30 355,-10 335,-10"/>
<text text-anchor="start" x="358.6732" y="-15.4" font-family="sans-serif" font-size="14.00" fill="#000000"> &#160;Providers</text>
<polygon fill="#fb8072" stroke="transparent" points="431,-10 431,-30 451,-30 451,-10 431,-10"/>
<text text-anchor="start" x="454.7258" y="-15.4" font-family="sans-serif" font-size="14.00" fill="#000000"> &#160;Exports</text>
<g id="clust1" class="cluster">
<title>cluster_PermissionsGridModule</title>
<polygon fill="none" stroke="#000000" stroke-dasharray="1,5" points="8,-70 8,-268 538,-268 538,-70 8,-70"/>
</g>
<g id="clust2" class="cluster">
<title>cluster_PermissionsGridModule_declarations</title>
<polygon fill="none" stroke="#000000" points="340,-78 340,-130 530,-130 530,-78 340,-78"/>
</g>
<g id="clust4" class="cluster">
<title>cluster_PermissionsGridModule_imports</title>
<polygon fill="none" stroke="#000000" points="20,-78 20,-130 332,-130 332,-78 20,-78"/>
</g>
<g id="clust5" class="cluster">
<title>cluster_PermissionsGridModule_exports</title>
<polygon fill="none" stroke="#000000" points="16,-208 16,-260 530,-260 530,-208 16,-208"/>
</g>
<!-- PermissionsGridComponent -->
<g id="node1" class="node">
<title>PermissionsGridComponent</title>
<polygon fill="#ffffb3" stroke="#000000" points="522.1539,-122 347.8461,-122 347.8461,-86 522.1539,-86 522.1539,-122"/>
<text text-anchor="middle" x="435" y="-99.8" font-family="Times,serif" font-size="14.00" fill="#000000">PermissionsGridComponent</text>
</g>
<!-- PermissionsGridModule -->
<g id="node2" class="node">
<title>PermissionsGridModule</title>
<polygon fill="#8dd3c7" stroke="#000000" points="358.3711,-187 355.3711,-191 334.3711,-191 331.3711,-187 205.6289,-187 205.6289,-151 358.3711,-151 358.3711,-187"/>
<text text-anchor="middle" x="282" y="-164.8" font-family="Times,serif" font-size="14.00" fill="#000000">PermissionsGridModule</text>
</g>
<!-- PermissionsGridComponent&#45;&gt;PermissionsGridModule -->
<g id="edge1" class="edge">
<title>PermissionsGridComponent&#45;&gt;PermissionsGridModule</title>
<path fill="none" stroke="#000000" d="M353.0544,-122.1061C353.0544,-122.1061 353.0544,-140.991 353.0544,-140.991"/>
<polygon fill="#000000" stroke="#000000" points="349.5544,-140.9909 353.0544,-150.991 356.5544,-140.991 349.5544,-140.9909"/>
</g>
<!-- EntityGridModule  -->
<g id="node5" class="node">
<title>EntityGridModule </title>
<polygon fill="#fb8072" stroke="#000000" points="522.432,-252 399.568,-252 399.568,-216 522.432,-216 522.432,-252"/>
<text text-anchor="middle" x="461" y="-229.8" font-family="Times,serif" font-size="14.00" fill="#000000">EntityGridModule </text>
</g>
<!-- PermissionsGridModule&#45;&gt;EntityGridModule  -->
<g id="edge4" class="edge">
<title>PermissionsGridModule&#45;&gt;EntityGridModule </title>
<path fill="none" stroke="#000000" stroke-dasharray="5,2" d="M358.4016,-169C407.0344,-169 460.9304,-169 460.9304,-169 460.9304,-169 460.9304,-205.8939 460.9304,-205.8939"/>
<polygon fill="#000000" stroke="#000000" points="457.4305,-205.8938 460.9304,-215.8939 464.4305,-205.8939 457.4305,-205.8938"/>
</g>
<!-- PermissionModalModule  -->
<g id="node6" class="node">
<title>PermissionModalModule </title>
<polygon fill="#fb8072" stroke="#000000" points="381.8185,-252 220.1815,-252 220.1815,-216 381.8185,-216 381.8185,-252"/>
<text text-anchor="middle" x="301" y="-229.8" font-family="Times,serif" font-size="14.00" fill="#000000">PermissionModalModule </text>
</g>
<!-- PermissionsGridModule&#45;&gt;PermissionModalModule  -->
<g id="edge5" class="edge">
<title>PermissionsGridModule&#45;&gt;PermissionModalModule </title>
<path fill="none" stroke="#000000" stroke-dasharray="5,2" d="M289.2632,-187.1061C289.2632,-187.1061 289.2632,-205.991 289.2632,-205.991"/>
<polygon fill="#000000" stroke="#000000" points="285.7632,-205.9909 289.2632,-215.991 292.7632,-205.991 285.7632,-205.9909"/>
</g>
<!-- PermissionsGridComponent  -->
<g id="node7" class="node">
<title>PermissionsGridComponent </title>
<polygon fill="#fb8072" stroke="#000000" points="202.1537,-252 23.8463,-252 23.8463,-216 202.1537,-216 202.1537,-252"/>
<text text-anchor="middle" x="113" y="-229.8" font-family="Times,serif" font-size="14.00" fill="#000000">PermissionsGridComponent </text>
</g>
<!-- PermissionsGridModule&#45;&gt;PermissionsGridComponent  -->
<g id="edge6" class="edge">
<title>PermissionsGridModule&#45;&gt;PermissionsGridComponent </title>
<path fill="none" stroke="#000000" stroke-dasharray="5,2" d="M212.8277,-187.1061C212.8277,-206.3391 212.8277,-234 212.8277,-234 212.8277,-234 211.7593,-234 211.7593,-234"/>
<polygon fill="#000000" stroke="#000000" points="212.1444,-230.5001 202.1443,-234 212.1443,-237.5001 212.1444,-230.5001"/>
</g>
<!-- EntityGridModule -->
<g id="node3" class="node">
<title>EntityGridModule</title>
<polygon fill="#8dd3c7" stroke="#000000" points="323.9328,-122 320.9328,-126 299.9328,-126 296.9328,-122 204.0672,-122 204.0672,-86 323.9328,-86 323.9328,-122"/>
<text text-anchor="middle" x="264" y="-99.8" font-family="Times,serif" font-size="14.00" fill="#000000">EntityGridModule</text>
</g>
<!-- EntityGridModule&#45;&gt;PermissionsGridModule -->
<g id="edge2" class="edge">
<title>EntityGridModule&#45;&gt;PermissionsGridModule</title>
<path fill="none" stroke="#000000" d="M264.6403,-122.1061C264.6403,-122.1061 264.6403,-140.991 264.6403,-140.991"/>
<polygon fill="#000000" stroke="#000000" points="261.1403,-140.9909 264.6403,-150.991 268.1403,-140.991 261.1403,-140.9909"/>
</g>
<!-- PermissionModalModule -->
<g id="node4" class="node">
<title>PermissionModalModule</title>
<polygon fill="#8dd3c7" stroke="#000000" points="186.3187,-122 183.3187,-126 162.3187,-126 159.3187,-122 27.6813,-122 27.6813,-86 186.3187,-86 186.3187,-122"/>
<text text-anchor="middle" x="107" y="-99.8" font-family="Times,serif" font-size="14.00" fill="#000000">PermissionModalModule</text>
</g>
<!-- PermissionModalModule&#45;&gt;PermissionsGridModule -->
<g id="edge3" class="edge">
<title>PermissionModalModule&#45;&gt;PermissionsGridModule</title>
<path fill="none" stroke="#000000" d="M107,-122.1061C107,-141.3391 107,-169 107,-169 107,-169 195.497,-169 195.497,-169"/>
<polygon fill="#000000" stroke="#000000" points="195.4971,-172.5001 205.497,-169 195.497,-165.5001 195.4971,-172.5001"/>
</g>
</g>
</svg>
