<?xml version="1.0" encoding="UTF-8" standalone="no"?>
<!DOCTYPE svg PUBLIC "-//W3C//DTD SVG 1.1//EN"
 "http://www.w3.org/Graphics/SVG/1.1/DTD/svg11.dtd">
<!-- Generated by graphviz version 2.40.1 (20161225.0304)
 -->
<!-- Title: dependencies Pages: 1 -->
<svg width="696pt" height="284pt"
 viewBox="0.00 0.00 696.00 284.00" xmlns="http://www.w3.org/2000/svg" xmlns:xlink="http://www.w3.org/1999/xlink">
<g id="graph0" class="graph" transform="scale(1 1) rotate(0) translate(4 280)">
<title>dependencies</title>
<polygon fill="#ffffff" stroke="transparent" points="-4,4 -4,-280 692,-280 692,4 -4,4"/>
<text text-anchor="start" x="323.0091" y="-42.4" font-family="sans-serif" font-weight="bold" font-size="14.00" fill="#000000">Legend</text>
<polygon fill="#ffffb3" stroke="transparent" points="110,-10 110,-30 130,-30 130,-10 110,-10"/>
<text text-anchor="start" x="133.629" y="-15.4" font-family="sans-serif" font-size="14.00" fill="#000000"> &#160;Declarations</text>
<polygon fill="#8dd3c7" stroke="transparent" points="223,-10 223,-30 243,-30 243,-10 223,-10"/>
<text text-anchor="start" x="246.7251" y="-15.4" font-family="sans-serif" font-size="14.00" fill="#000000"> &#160;Module</text>
<polygon fill="#80b1d3" stroke="transparent" points="309,-10 309,-30 329,-30 329,-10 309,-10"/>
<text text-anchor="start" x="332.7812" y="-15.4" font-family="sans-serif" font-size="14.00" fill="#000000"> &#160;Bootstrap</text>
<polygon fill="#fdb462" stroke="transparent" points="406,-10 406,-30 426,-30 426,-10 406,-10"/>
<text text-anchor="start" x="429.6732" y="-15.4" font-family="sans-serif" font-size="14.00" fill="#000000"> &#160;Providers</text>
<polygon fill="#fb8072" stroke="transparent" points="502,-10 502,-30 522,-30 522,-10 502,-10"/>
<text text-anchor="start" x="525.7258" y="-15.4" font-family="sans-serif" font-size="14.00" fill="#000000"> &#160;Exports</text>
<g id="clust1" class="cluster">
<title>cluster_PermissionsGridModule</title>
<polygon fill="none" stroke="#000000" stroke-dasharray="1,5" points="8,-70 8,-268 680,-268 680,-70 8,-70"/>
</g>
<g id="clust2" class="cluster">
<title>cluster_PermissionsGridModule_declarations</title>
<polygon fill="none" stroke="#000000" points="482,-78 482,-130 672,-130 672,-78 482,-78"/>
</g>
<g id="clust4" class="cluster">
<title>cluster_PermissionsGridModule_imports</title>
<polygon fill="none" stroke="#000000" points="16,-78 16,-130 474,-130 474,-78 16,-78"/>
</g>
<g id="clust5" class="cluster">
<title>cluster_PermissionsGridModule_exports</title>
<polygon fill="none" stroke="#000000" points="68,-208 68,-260 582,-260 582,-208 68,-208"/>
</g>
<!-- PermissionsGridComponent -->
<g id="node1" class="node">
<title>PermissionsGridComponent</title>
<polygon fill="#ffffb3" stroke="#000000" points="664.1539,-122 489.8461,-122 489.8461,-86 664.1539,-86 664.1539,-122"/>
<text text-anchor="middle" x="577" y="-99.8" font-family="Times,serif" font-size="14.00" fill="#000000">PermissionsGridComponent</text>
</g>
<!-- PermissionsGridModule -->
<g id="node2" class="node">
<title>PermissionsGridModule</title>
<polygon fill="#8dd3c7" stroke="#000000" points="429.3711,-187 426.3711,-191 405.3711,-191 402.3711,-187 276.6289,-187 276.6289,-151 429.3711,-151 429.3711,-187"/>
<text text-anchor="middle" x="353" y="-164.8" font-family="Times,serif" font-size="14.00" fill="#000000">PermissionsGridModule</text>
</g>
<!-- PermissionsGridComponent&#45;&gt;PermissionsGridModule -->
<g id="edge1" class="edge">
<title>PermissionsGridComponent&#45;&gt;PermissionsGridModule</title>
<path fill="none" stroke="#000000" d="M532.0696,-122.0225C532.0696,-139.3734 532.0696,-163 532.0696,-163 532.0696,-163 439.461,-163 439.461,-163"/>
<polygon fill="#000000" stroke="#000000" points="439.4611,-159.5001 429.461,-163 439.461,-166.5001 439.4611,-159.5001"/>
</g>
<!-- EntityGridModule  -->
<g id="node6" class="node">
<title>EntityGridModule </title>
<polygon fill="#fb8072" stroke="#000000" points="574.432,-252 451.568,-252 451.568,-216 574.432,-216 574.432,-252"/>
<text text-anchor="middle" x="513" y="-229.8" font-family="Times,serif" font-size="14.00" fill="#000000">EntityGridModule </text>
</g>
<!-- PermissionsGridModule&#45;&gt;EntityGridModule  -->
<g id="edge5" class="edge">
<title>PermissionsGridModule&#45;&gt;EntityGridModule </title>
<path fill="none" stroke="#000000" stroke-dasharray="5,2" d="M429.4829,-175C446.0017,-175 458.625,-175 458.625,-175 458.625,-175 458.625,-205.9775 458.625,-205.9775"/>
<polygon fill="#000000" stroke="#000000" points="455.1251,-205.9774 458.625,-215.9775 462.1251,-205.9775 455.1251,-205.9774"/>
</g>
<!-- PermissionModalModule  -->
<g id="node7" class="node">
<title>PermissionModalModule </title>
<polygon fill="#fb8072" stroke="#000000" points="433.8185,-252 272.1815,-252 272.1815,-216 433.8185,-216 433.8185,-252"/>
<text text-anchor="middle" x="353" y="-229.8" font-family="Times,serif" font-size="14.00" fill="#000000">PermissionModalModule </text>
</g>
<!-- PermissionsGridModule&#45;&gt;PermissionModalModule  -->
<g id="edge6" class="edge">
<title>PermissionsGridModule&#45;&gt;PermissionModalModule </title>
<path fill="none" stroke="#000000" stroke-dasharray="5,2" d="M353,-187.1061C353,-187.1061 353,-205.991 353,-205.991"/>
<polygon fill="#000000" stroke="#000000" points="349.5001,-205.9909 353,-215.991 356.5001,-205.991 349.5001,-205.9909"/>
</g>
<!-- PermissionsGridComponent  -->
<g id="node8" class="node">
<title>PermissionsGridComponent </title>
<polygon fill="#fb8072" stroke="#000000" points="254.1537,-252 75.8463,-252 75.8463,-216 254.1537,-216 254.1537,-252"/>
<text text-anchor="middle" x="165" y="-229.8" font-family="Times,serif" font-size="14.00" fill="#000000">PermissionsGridComponent </text>
</g>
<!-- PermissionsGridModule&#45;&gt;PermissionsGridComponent  -->
<g id="edge7" class="edge">
<title>PermissionsGridModule&#45;&gt;PermissionsGridComponent </title>
<path fill="none" stroke="#000000" stroke-dasharray="5,2" d="M276.2884,-175C243.2081,-175 211.9588,-175 211.9588,-175 211.9588,-175 211.9588,-205.9775 211.9588,-205.9775"/>
<polygon fill="#000000" stroke="#000000" points="208.4589,-205.9774 211.9588,-215.9775 215.4589,-205.9775 208.4589,-205.9774"/>
</g>
<!-- EntityGridModule -->
<g id="node3" class="node">
<title>EntityGridModule</title>
<polygon fill="#8dd3c7" stroke="#000000" points="465.9328,-122 462.9328,-126 441.9328,-126 438.9328,-122 346.0672,-122 346.0672,-86 465.9328,-86 465.9328,-122"/>
<text text-anchor="middle" x="406" y="-99.8" font-family="Times,serif" font-size="14.00" fill="#000000">EntityGridModule</text>
</g>
<!-- EntityGridModule&#45;&gt;PermissionsGridModule -->
<g id="edge2" class="edge">
<title>EntityGridModule&#45;&gt;PermissionsGridModule</title>
<path fill="none" stroke="#000000" d="M387.8597,-122.1061C387.8597,-122.1061 387.8597,-140.991 387.8597,-140.991"/>
<polygon fill="#000000" stroke="#000000" points="384.3598,-140.9909 387.8597,-150.991 391.3598,-140.991 384.3598,-140.9909"/>
</g>
<!-- PermissionModalModule -->
<g id="node4" class="node">
<title>PermissionModalModule</title>
<polygon fill="#8dd3c7" stroke="#000000" points="328.3187,-122 325.3187,-126 304.3187,-126 301.3187,-122 169.6813,-122 169.6813,-86 328.3187,-86 328.3187,-122"/>
<text text-anchor="middle" x="249" y="-99.8" font-family="Times,serif" font-size="14.00" fill="#000000">PermissionModalModule</text>
</g>
<!-- PermissionModalModule&#45;&gt;PermissionsGridModule -->
<g id="edge3" class="edge">
<title>PermissionModalModule&#45;&gt;PermissionsGridModule</title>
<path fill="none" stroke="#000000" d="M302.3619,-122.1061C302.3619,-122.1061 302.3619,-140.991 302.3619,-140.991"/>
<polygon fill="#000000" stroke="#000000" points="298.8619,-140.9909 302.3619,-150.991 305.8619,-140.991 298.8619,-140.9909"/>
</g>
<!-- WebModalsModule -->
<g id="node5" class="node">
<title>WebModalsModule</title>
<polygon fill="#8dd3c7" stroke="#000000" points="151.9734,-122 148.9734,-126 127.9734,-126 124.9734,-122 24.0266,-122 24.0266,-86 151.9734,-86 151.9734,-122"/>
<text text-anchor="middle" x="88" y="-99.8" font-family="Times,serif" font-size="14.00" fill="#000000">WebModalsModule</text>
</g>
<!-- WebModalsModule&#45;&gt;PermissionsGridModule -->
<g id="edge4" class="edge">
<title>WebModalsModule&#45;&gt;PermissionsGridModule</title>
<path fill="none" stroke="#000000" d="M113.955,-122.0225C113.955,-139.3734 113.955,-163 113.955,-163 113.955,-163 266.3783,-163 266.3783,-163"/>
<polygon fill="#000000" stroke="#000000" points="266.3783,-166.5001 276.3783,-163 266.3783,-159.5001 266.3783,-166.5001"/>
</g>
</g>
</svg>
