<?xml version="1.0" encoding="UTF-8" standalone="no"?>
<!DOCTYPE svg PUBLIC "-//W3C//DTD SVG 1.1//EN"
 "http://www.w3.org/Graphics/SVG/1.1/DTD/svg11.dtd">
<!-- Generated by graphviz version 2.40.1 (20161225.0304)
 -->
<!-- Title: dependencies Pages: 1 -->
<svg width="610pt" height="284pt"
 viewBox="0.00 0.00 610.00 284.00" xmlns="http://www.w3.org/2000/svg" xmlns:xlink="http://www.w3.org/1999/xlink">
<g id="graph0" class="graph" transform="scale(1 1) rotate(0) translate(4 280)">
<title>dependencies</title>
<polygon fill="#ffffff" stroke="transparent" points="-4,4 -4,-280 606,-280 606,4 -4,4"/>
<text text-anchor="start" x="280.0091" y="-42.4" font-family="sans-serif" font-weight="bold" font-size="14.00" fill="#000000">Legend</text>
<polygon fill="#ffffb3" stroke="transparent" points="67,-10 67,-30 87,-30 87,-10 67,-10"/>
<text text-anchor="start" x="90.629" y="-15.4" font-family="sans-serif" font-size="14.00" fill="#000000"> &#160;Declarations</text>
<polygon fill="#8dd3c7" stroke="transparent" points="180,-10 180,-30 200,-30 200,-10 180,-10"/>
<text text-anchor="start" x="203.7251" y="-15.4" font-family="sans-serif" font-size="14.00" fill="#000000"> &#160;Module</text>
<polygon fill="#80b1d3" stroke="transparent" points="266,-10 266,-30 286,-30 286,-10 266,-10"/>
<text text-anchor="start" x="289.7812" y="-15.4" font-family="sans-serif" font-size="14.00" fill="#000000"> &#160;Bootstrap</text>
<polygon fill="#fdb462" stroke="transparent" points="363,-10 363,-30 383,-30 383,-10 363,-10"/>
<text text-anchor="start" x="386.6732" y="-15.4" font-family="sans-serif" font-size="14.00" fill="#000000"> &#160;Providers</text>
<polygon fill="#fb8072" stroke="transparent" points="459,-10 459,-30 479,-30 479,-10 459,-10"/>
<text text-anchor="start" x="482.7258" y="-15.4" font-family="sans-serif" font-size="14.00" fill="#000000"> &#160;Exports</text>
<g id="clust1" class="cluster">
<title>cluster_ContentTypeInputModule</title>
<polygon fill="none" stroke="#000000" stroke-dasharray="1,5" points="8,-70 8,-268 594,-268 594,-70 8,-70"/>
</g>
<g id="clust2" class="cluster">
<title>cluster_ContentTypeInputModule_declarations</title>
<polygon fill="none" stroke="#000000" points="386,-78 386,-130 586,-130 586,-78 386,-78"/>
</g>
<g id="clust4" class="cluster">
<title>cluster_ContentTypeInputModule_imports</title>
<polygon fill="none" stroke="#000000" points="20,-78 20,-130 378,-130 378,-78 20,-78"/>
</g>
<g id="clust5" class="cluster">
<title>cluster_ContentTypeInputModule_exports</title>
<polygon fill="none" stroke="#000000" points="16,-208 16,-260 586,-260 586,-208 16,-208"/>
</g>
<!-- ContentTypeInputComponent -->
<g id="node1" class="node">
<title>ContentTypeInputComponent</title>
<polygon fill="#ffffb3" stroke="#000000" points="577.9832,-122 394.0168,-122 394.0168,-86 577.9832,-86 577.9832,-122"/>
<text text-anchor="middle" x="486" y="-99.8" font-family="Times,serif" font-size="14.00" fill="#000000">ContentTypeInputComponent</text>
</g>
<!-- ContentTypeInputModule -->
<g id="node2" class="node">
<title>ContentTypeInputModule</title>
<polygon fill="#8dd3c7" stroke="#000000" points="351.2007,-187 348.2007,-191 327.2007,-191 324.2007,-187 188.7993,-187 188.7993,-151 351.2007,-151 351.2007,-187"/>
<text text-anchor="middle" x="270" y="-164.8" font-family="Times,serif" font-size="14.00" fill="#000000">ContentTypeInputModule</text>
</g>
<!-- ContentTypeInputComponent&#45;&gt;ContentTypeInputModule -->
<g id="edge1" class="edge">
<title>ContentTypeInputComponent&#45;&gt;ContentTypeInputModule</title>
<path fill="none" stroke="#000000" d="M455.2528,-122.0225C455.2528,-139.3734 455.2528,-163 455.2528,-163 455.2528,-163 361.2546,-163 361.2546,-163"/>
<polygon fill="#000000" stroke="#000000" points="361.2546,-159.5001 351.2546,-163 361.2545,-166.5001 361.2546,-159.5001"/>
</g>
<!-- ContentTypeInputComponent  -->
<g id="node5" class="node">
<title>ContentTypeInputComponent </title>
<polygon fill="#fb8072" stroke="#000000" points="577.9838,-252 390.0162,-252 390.0162,-216 577.9838,-216 577.9838,-252"/>
<text text-anchor="middle" x="484" y="-229.8" font-family="Times,serif" font-size="14.00" fill="#000000">ContentTypeInputComponent </text>
</g>
<!-- ContentTypeInputModule&#45;&gt;ContentTypeInputComponent  -->
<g id="edge4" class="edge">
<title>ContentTypeInputModule&#45;&gt;ContentTypeInputComponent </title>
<path fill="none" stroke="#000000" stroke-dasharray="5,2" d="M351.3956,-175C423.1947,-175 516.4972,-175 516.4972,-175 516.4972,-175 516.4972,-205.9775 516.4972,-205.9775"/>
<polygon fill="#000000" stroke="#000000" points="512.9973,-205.9774 516.4972,-215.9775 519.9973,-205.9775 512.9973,-205.9774"/>
</g>
<!-- ContentTypesGridModalModule  -->
<g id="node6" class="node">
<title>ContentTypesGridModalModule </title>
<polygon fill="#fb8072" stroke="#000000" points="371.8017,-252 168.1983,-252 168.1983,-216 371.8017,-216 371.8017,-252"/>
<text text-anchor="middle" x="270" y="-229.8" font-family="Times,serif" font-size="14.00" fill="#000000">ContentTypesGridModalModule </text>
</g>
<!-- ContentTypeInputModule&#45;&gt;ContentTypesGridModalModule  -->
<g id="edge5" class="edge">
<title>ContentTypeInputModule&#45;&gt;ContentTypesGridModalModule </title>
<path fill="none" stroke="#000000" stroke-dasharray="5,2" d="M270,-187.1061C270,-187.1061 270,-205.991 270,-205.991"/>
<polygon fill="#000000" stroke="#000000" points="266.5001,-205.9909 270,-215.991 273.5001,-205.991 266.5001,-205.9909"/>
</g>
<!-- EntityInputModule  -->
<g id="node7" class="node">
<title>EntityInputModule </title>
<polygon fill="#fb8072" stroke="#000000" points="150.3255,-252 23.6745,-252 23.6745,-216 150.3255,-216 150.3255,-252"/>
<text text-anchor="middle" x="87" y="-229.8" font-family="Times,serif" font-size="14.00" fill="#000000">EntityInputModule </text>
</g>
<!-- ContentTypeInputModule&#45;&gt;EntityInputModule  -->
<g id="edge6" class="edge">
<title>ContentTypeInputModule&#45;&gt;EntityInputModule </title>
<path fill="none" stroke="#000000" stroke-dasharray="5,2" d="M188.8367,-175C133.0599,-175 69.0291,-175 69.0291,-175 69.0291,-175 69.0291,-205.9775 69.0291,-205.9775"/>
<polygon fill="#000000" stroke="#000000" points="65.5292,-205.9774 69.0291,-215.9775 72.5292,-205.9775 65.5292,-205.9774"/>
</g>
<!-- ContentTypesGridModalModule -->
<g id="node3" class="node">
<title>ContentTypesGridModalModule</title>
<polygon fill="#8dd3c7" stroke="#000000" points="370.3018,-122 367.3018,-126 346.3018,-126 343.3018,-122 169.6982,-122 169.6982,-86 370.3018,-86 370.3018,-122"/>
<text text-anchor="middle" x="270" y="-99.8" font-family="Times,serif" font-size="14.00" fill="#000000">ContentTypesGridModalModule</text>
</g>
<!-- ContentTypesGridModalModule&#45;&gt;ContentTypeInputModule -->
<g id="edge2" class="edge">
<title>ContentTypesGridModalModule&#45;&gt;ContentTypeInputModule</title>
<path fill="none" stroke="#000000" d="M270,-122.1061C270,-122.1061 270,-140.991 270,-140.991"/>
<polygon fill="#000000" stroke="#000000" points="266.5001,-140.9909 270,-150.991 273.5001,-140.991 266.5001,-140.9909"/>
</g>
<!-- EntityInputModule -->
<g id="node4" class="node">
<title>EntityInputModule</title>
<polygon fill="#8dd3c7" stroke="#000000" points="151.8258,-122 148.8258,-126 127.8258,-126 124.8258,-122 28.1742,-122 28.1742,-86 151.8258,-86 151.8258,-122"/>
<text text-anchor="middle" x="90" y="-99.8" font-family="Times,serif" font-size="14.00" fill="#000000">EntityInputModule</text>
</g>
<!-- EntityInputModule&#45;&gt;ContentTypeInputModule -->
<g id="edge3" class="edge">
<title>EntityInputModule&#45;&gt;ContentTypeInputModule</title>
<path fill="none" stroke="#000000" d="M109.7209,-122.0225C109.7209,-139.3734 109.7209,-163 109.7209,-163 109.7209,-163 178.4518,-163 178.4518,-163"/>
<polygon fill="#000000" stroke="#000000" points="178.4518,-166.5001 188.4518,-163 178.4518,-159.5001 178.4518,-166.5001"/>
</g>
</g>
</svg>
