<?xml version="1.0" encoding="UTF-8" standalone="no"?>
<!DOCTYPE svg PUBLIC "-//W3C//DTD SVG 1.1//EN"
 "http://www.w3.org/Graphics/SVG/1.1/DTD/svg11.dtd">
<!-- Generated by graphviz version 2.40.1 (20161225.0304)
 -->
<!-- Title: dependencies Pages: 1 -->
<svg width="568pt" height="284pt"
 viewBox="0.00 0.00 568.00 284.00" xmlns="http://www.w3.org/2000/svg" xmlns:xlink="http://www.w3.org/1999/xlink">
<g id="graph0" class="graph" transform="scale(1 1) rotate(0) translate(4 280)">
<title>dependencies</title>
<polygon fill="#ffffff" stroke="transparent" points="-4,4 -4,-280 564,-280 564,4 -4,4"/>
<text text-anchor="start" x="259.0091" y="-42.4" font-family="sans-serif" font-weight="bold" font-size="14.00" fill="#000000">Legend</text>
<polygon fill="#ffffb3" stroke="transparent" points="46,-10 46,-30 66,-30 66,-10 46,-10"/>
<text text-anchor="start" x="69.629" y="-15.4" font-family="sans-serif" font-size="14.00" fill="#000000"> &#160;Declarations</text>
<polygon fill="#8dd3c7" stroke="transparent" points="159,-10 159,-30 179,-30 179,-10 159,-10"/>
<text text-anchor="start" x="182.7251" y="-15.4" font-family="sans-serif" font-size="14.00" fill="#000000"> &#160;Module</text>
<polygon fill="#80b1d3" stroke="transparent" points="245,-10 245,-30 265,-30 265,-10 245,-10"/>
<text text-anchor="start" x="268.7812" y="-15.4" font-family="sans-serif" font-size="14.00" fill="#000000"> &#160;Bootstrap</text>
<polygon fill="#fdb462" stroke="transparent" points="342,-10 342,-30 362,-30 362,-10 342,-10"/>
<text text-anchor="start" x="365.6732" y="-15.4" font-family="sans-serif" font-size="14.00" fill="#000000"> &#160;Providers</text>
<polygon fill="#fb8072" stroke="transparent" points="438,-10 438,-30 458,-30 458,-10 438,-10"/>
<text text-anchor="start" x="461.7258" y="-15.4" font-family="sans-serif" font-size="14.00" fill="#000000"> &#160;Exports</text>
<g id="clust1" class="cluster">
<title>cluster_UserModalModule</title>
<polygon fill="none" stroke="#000000" stroke-dasharray="1,5" points="8,-70 8,-268 552,-268 552,-70 8,-70"/>
</g>
<g id="clust2" class="cluster">
<title>cluster_UserModalModule_declarations</title>
<polygon fill="none" stroke="#000000" points="378,-78 378,-130 538,-130 538,-78 378,-78"/>
</g>
<g id="clust4" class="cluster">
<title>cluster_UserModalModule_imports</title>
<polygon fill="none" stroke="#000000" points="16,-78 16,-130 370,-130 370,-78 16,-78"/>
</g>
<g id="clust5" class="cluster">
<title>cluster_UserModalModule_exports</title>
<polygon fill="none" stroke="#000000" points="16,-208 16,-260 544,-260 544,-208 16,-208"/>
</g>
<!-- UserModalComponent -->
<g id="node1" class="node">
<title>UserModalComponent</title>
<polygon fill="#ffffb3" stroke="#000000" points="530.3089,-122 385.6911,-122 385.6911,-86 530.3089,-86 530.3089,-122"/>
<text text-anchor="middle" x="458" y="-99.8" font-family="Times,serif" font-size="14.00" fill="#000000">UserModalComponent</text>
</g>
<!-- UserModalModule -->
<g id="node2" class="node">
<title>UserModalModule</title>
<polygon fill="#8dd3c7" stroke="#000000" points="334.0269,-187 331.0269,-191 310.0269,-191 307.0269,-187 211.9731,-187 211.9731,-151 334.0269,-151 334.0269,-187"/>
<text text-anchor="middle" x="273" y="-164.8" font-family="Times,serif" font-size="14.00" fill="#000000">UserModalModule</text>
</g>
<!-- UserModalComponent&#45;&gt;UserModalModule -->
<g id="edge1" class="edge">
<title>UserModalComponent&#45;&gt;UserModalModule</title>
<path fill="none" stroke="#000000" d="M458,-122.0225C458,-139.3734 458,-163 458,-163 458,-163 344.0886,-163 344.0886,-163"/>
<polygon fill="#000000" stroke="#000000" points="344.0887,-159.5001 334.0886,-163 344.0886,-166.5001 344.0887,-159.5001"/>
</g>
<!-- PromptFormModalModule  -->
<g id="node5" class="node">
<title>PromptFormModalModule </title>
<polygon fill="#fb8072" stroke="#000000" points="535.6579,-252 364.3421,-252 364.3421,-216 535.6579,-216 535.6579,-252"/>
<text text-anchor="middle" x="450" y="-229.8" font-family="Times,serif" font-size="14.00" fill="#000000">PromptFormModalModule </text>
</g>
<!-- UserModalModule&#45;&gt;PromptFormModalModule  -->
<g id="edge4" class="edge">
<title>UserModalModule&#45;&gt;PromptFormModalModule </title>
<path fill="none" stroke="#000000" stroke-dasharray="5,2" d="M334.1803,-175C355.932,-175 375.1334,-175 375.1334,-175 375.1334,-175 375.1334,-205.9775 375.1334,-205.9775"/>
<polygon fill="#000000" stroke="#000000" points="371.6335,-205.9774 375.1334,-215.9775 378.6335,-205.9775 371.6335,-205.9774"/>
</g>
<!-- UserGroupsGridModule  -->
<g id="node6" class="node">
<title>UserGroupsGridModule </title>
<polygon fill="#fb8072" stroke="#000000" points="346.3462,-252 189.6538,-252 189.6538,-216 346.3462,-216 346.3462,-252"/>
<text text-anchor="middle" x="268" y="-229.8" font-family="Times,serif" font-size="14.00" fill="#000000">UserGroupsGridModule </text>
</g>
<!-- UserModalModule&#45;&gt;UserGroupsGridModule  -->
<g id="edge5" class="edge">
<title>UserModalModule&#45;&gt;UserGroupsGridModule </title>
<path fill="none" stroke="#000000" stroke-dasharray="5,2" d="M273,-187.1061C273,-187.1061 273,-205.991 273,-205.991"/>
<polygon fill="#000000" stroke="#000000" points="269.5001,-205.9909 273,-215.991 276.5001,-205.991 269.5001,-205.9909"/>
</g>
<!-- UserModalComponent  -->
<g id="node7" class="node">
<title>UserModalComponent </title>
<polygon fill="#fb8072" stroke="#000000" points="171.8087,-252 24.1913,-252 24.1913,-216 171.8087,-216 171.8087,-252"/>
<text text-anchor="middle" x="98" y="-229.8" font-family="Times,serif" font-size="14.00" fill="#000000">UserModalComponent </text>
</g>
<!-- UserModalModule&#45;&gt;UserModalComponent  -->
<g id="edge6" class="edge">
<title>UserModalModule&#45;&gt;UserModalComponent </title>
<path fill="none" stroke="#000000" stroke-dasharray="5,2" d="M211.7463,-175C153.0628,-175 73.3652,-175 73.3652,-175 73.3652,-175 73.3652,-205.9775 73.3652,-205.9775"/>
<polygon fill="#000000" stroke="#000000" points="69.8651,-205.9775 73.3652,-215.9775 76.8651,-205.9774 69.8651,-205.9775"/>
</g>
<!-- PromptFormModalModule -->
<g id="node3" class="node">
<title>PromptFormModalModule</title>
<polygon fill="#8dd3c7" stroke="#000000" points="361.6581,-122 358.6581,-126 337.6581,-126 334.6581,-122 194.3419,-122 194.3419,-86 361.6581,-86 361.6581,-122"/>
<text text-anchor="middle" x="278" y="-99.8" font-family="Times,serif" font-size="14.00" fill="#000000">PromptFormModalModule</text>
</g>
<!-- PromptFormModalModule&#45;&gt;UserModalModule -->
<g id="edge2" class="edge">
<title>PromptFormModalModule&#45;&gt;UserModalModule</title>
<path fill="none" stroke="#000000" d="M273,-122.1061C273,-122.1061 273,-140.991 273,-140.991"/>
<polygon fill="#000000" stroke="#000000" points="269.5001,-140.9909 273,-150.991 276.5001,-140.991 269.5001,-140.9909"/>
</g>
<!-- UserGroupsGridModule -->
<g id="node4" class="node">
<title>UserGroupsGridModule</title>
<polygon fill="#8dd3c7" stroke="#000000" points="176.3459,-122 173.3459,-126 152.3459,-126 149.3459,-122 23.6541,-122 23.6541,-86 176.3459,-86 176.3459,-122"/>
<text text-anchor="middle" x="100" y="-99.8" font-family="Times,serif" font-size="14.00" fill="#000000">UserGroupsGridModule</text>
</g>
<!-- UserGroupsGridModule&#45;&gt;UserModalModule -->
<g id="edge3" class="edge">
<title>UserGroupsGridModule&#45;&gt;UserModalModule</title>
<path fill="none" stroke="#000000" d="M122.6348,-122.0225C122.6348,-139.3734 122.6348,-163 122.6348,-163 122.6348,-163 201.8407,-163 201.8407,-163"/>
<polygon fill="#000000" stroke="#000000" points="201.8407,-166.5001 211.8407,-163 201.8407,-159.5001 201.8407,-166.5001"/>
</g>
</g>
</svg>
