<?xml version="1.0" encoding="UTF-8" standalone="no"?>
<!DOCTYPE svg PUBLIC "-//W3C//DTD SVG 1.1//EN"
 "http://www.w3.org/Graphics/SVG/1.1/DTD/svg11.dtd">
<!-- Generated by graphviz version 2.40.1 (20161225.0304)
 -->
<!-- Title: dependencies Pages: 1 -->
<svg width="545pt" height="284pt"
 viewBox="0.00 0.00 545.00 284.00" xmlns="http://www.w3.org/2000/svg" xmlns:xlink="http://www.w3.org/1999/xlink">
<g id="graph0" class="graph" transform="scale(1 1) rotate(0) translate(4 280)">
<title>dependencies</title>
<polygon fill="#ffffff" stroke="transparent" points="-4,4 -4,-280 541,-280 541,4 -4,4"/>
<text text-anchor="start" x="247.5091" y="-42.4" font-family="sans-serif" font-weight="bold" font-size="14.00" fill="#000000">Legend</text>
<polygon fill="#ffffb3" stroke="transparent" points="34.5,-10 34.5,-30 54.5,-30 54.5,-10 34.5,-10"/>
<text text-anchor="start" x="58.129" y="-15.4" font-family="sans-serif" font-size="14.00" fill="#000000"> &#160;Declarations</text>
<polygon fill="#8dd3c7" stroke="transparent" points="147.5,-10 147.5,-30 167.5,-30 167.5,-10 147.5,-10"/>
<text text-anchor="start" x="171.2251" y="-15.4" font-family="sans-serif" font-size="14.00" fill="#000000"> &#160;Module</text>
<polygon fill="#80b1d3" stroke="transparent" points="233.5,-10 233.5,-30 253.5,-30 253.5,-10 233.5,-10"/>
<text text-anchor="start" x="257.2812" y="-15.4" font-family="sans-serif" font-size="14.00" fill="#000000"> &#160;Bootstrap</text>
<polygon fill="#fdb462" stroke="transparent" points="330.5,-10 330.5,-30 350.5,-30 350.5,-10 330.5,-10"/>
<text text-anchor="start" x="354.1732" y="-15.4" font-family="sans-serif" font-size="14.00" fill="#000000"> &#160;Providers</text>
<polygon fill="#fb8072" stroke="transparent" points="426.5,-10 426.5,-30 446.5,-30 446.5,-10 426.5,-10"/>
<text text-anchor="start" x="450.2258" y="-15.4" font-family="sans-serif" font-size="14.00" fill="#000000"> &#160;Exports</text>
<g id="clust1" class="cluster">
<title>cluster_GroupSelectModule</title>
<polygon fill="none" stroke="#000000" stroke-dasharray="1,5" points="8,-70 8,-268 529,-268 529,-70 8,-70"/>
</g>
<g id="clust2" class="cluster">
<title>cluster_GroupSelectModule_declarations</title>
<polygon fill="none" stroke="#000000" points="353,-78 353,-130 521,-130 521,-78 353,-78"/>
</g>
<g id="clust4" class="cluster">
<title>cluster_GroupSelectModule_imports</title>
<polygon fill="none" stroke="#000000" points="21,-78 21,-130 345,-130 345,-78 21,-78"/>
</g>
<g id="clust5" class="cluster">
<title>cluster_GroupSelectModule_exports</title>
<polygon fill="none" stroke="#000000" points="16,-208 16,-260 521,-260 521,-208 16,-208"/>
</g>
<!-- GroupSelectComponent -->
<g id="node1" class="node">
<title>GroupSelectComponent</title>
<polygon fill="#ffffb3" stroke="#000000" points="512.8075,-122 361.1925,-122 361.1925,-86 512.8075,-86 512.8075,-122"/>
<text text-anchor="middle" x="437" y="-99.8" font-family="Times,serif" font-size="14.00" fill="#000000">GroupSelectComponent</text>
</g>
<!-- GroupSelectModule -->
<g id="node2" class="node">
<title>GroupSelectModule</title>
<polygon fill="#8dd3c7" stroke="#000000" points="343.5255,-187 340.5255,-191 319.5255,-191 316.5255,-187 214.4745,-187 214.4745,-151 343.5255,-151 343.5255,-187"/>
<text text-anchor="middle" x="279" y="-164.8" font-family="Times,serif" font-size="14.00" fill="#000000">GroupSelectModule</text>
</g>
<!-- GroupSelectComponent&#45;&gt;GroupSelectModule -->
<g id="edge1" class="edge">
<title>GroupSelectComponent&#45;&gt;GroupSelectModule</title>
<path fill="none" stroke="#000000" d="M372.3314,-122.0225C372.3314,-139.3734 372.3314,-163 372.3314,-163 372.3314,-163 353.5673,-163 353.5673,-163"/>
<polygon fill="#000000" stroke="#000000" points="353.5673,-159.5001 343.5673,-163 353.5673,-166.5001 353.5673,-159.5001"/>
</g>
<!-- EntitySelectModule  -->
<g id="node5" class="node">
<title>EntitySelectModule </title>
<polygon fill="#fb8072" stroke="#000000" points="512.9827,-252 381.0173,-252 381.0173,-216 512.9827,-216 512.9827,-252"/>
<text text-anchor="middle" x="447" y="-229.8" font-family="Times,serif" font-size="14.00" fill="#000000">EntitySelectModule </text>
</g>
<!-- GroupSelectModule&#45;&gt;EntitySelectModule  -->
<g id="edge4" class="edge">
<title>GroupSelectModule&#45;&gt;EntitySelectModule </title>
<path fill="none" stroke="#000000" stroke-dasharray="5,2" d="M343.9363,-175C391.1992,-175 446.9564,-175 446.9564,-175 446.9564,-175 446.9564,-205.9775 446.9564,-205.9775"/>
<polygon fill="#000000" stroke="#000000" points="443.4564,-205.9774 446.9564,-215.9775 450.4564,-205.9775 443.4564,-205.9774"/>
</g>
<!-- GroupSelectComponent  -->
<g id="node6" class="node">
<title>GroupSelectComponent </title>
<polygon fill="#fb8072" stroke="#000000" points="363.3073,-252 208.6927,-252 208.6927,-216 363.3073,-216 363.3073,-252"/>
<text text-anchor="middle" x="286" y="-229.8" font-family="Times,serif" font-size="14.00" fill="#000000">GroupSelectComponent </text>
</g>
<!-- GroupSelectModule&#45;&gt;GroupSelectComponent  -->
<g id="edge5" class="edge">
<title>GroupSelectModule&#45;&gt;GroupSelectComponent </title>
<path fill="none" stroke="#000000" stroke-dasharray="5,2" d="M279,-187.1061C279,-187.1061 279,-205.991 279,-205.991"/>
<polygon fill="#000000" stroke="#000000" points="275.5001,-205.9909 279,-215.991 282.5001,-205.991 275.5001,-205.9909"/>
</g>
<!-- GroupsGridModalModule  -->
<g id="node7" class="node">
<title>GroupsGridModalModule </title>
<polygon fill="#fb8072" stroke="#000000" points="190.4699,-252 23.5301,-252 23.5301,-216 190.4699,-216 190.4699,-252"/>
<text text-anchor="middle" x="107" y="-229.8" font-family="Times,serif" font-size="14.00" fill="#000000">GroupsGridModalModule </text>
</g>
<!-- GroupSelectModule&#45;&gt;GroupsGridModalModule  -->
<g id="edge6" class="edge">
<title>GroupSelectModule&#45;&gt;GroupsGridModalModule </title>
<path fill="none" stroke="#000000" stroke-dasharray="5,2" d="M214.3607,-175C157.0657,-175 82.4218,-175 82.4218,-175 82.4218,-175 82.4218,-205.9775 82.4218,-205.9775"/>
<polygon fill="#000000" stroke="#000000" points="78.9219,-205.9774 82.4218,-215.9775 85.9219,-205.9775 78.9219,-205.9774"/>
</g>
<!-- EntitySelectModule -->
<g id="node3" class="node">
<title>EntitySelectModule</title>
<polygon fill="#8dd3c7" stroke="#000000" points="336.9818,-122 333.9818,-126 312.9818,-126 309.9818,-122 209.0182,-122 209.0182,-86 336.9818,-86 336.9818,-122"/>
<text text-anchor="middle" x="273" y="-99.8" font-family="Times,serif" font-size="14.00" fill="#000000">EntitySelectModule</text>
</g>
<!-- EntitySelectModule&#45;&gt;GroupSelectModule -->
<g id="edge2" class="edge">
<title>EntitySelectModule&#45;&gt;GroupSelectModule</title>
<path fill="none" stroke="#000000" d="M275.6143,-122.1061C275.6143,-122.1061 275.6143,-140.991 275.6143,-140.991"/>
<polygon fill="#000000" stroke="#000000" points="272.1144,-140.9909 275.6143,-150.991 279.1144,-140.991 272.1144,-140.9909"/>
</g>
<!-- GroupsGridModalModule -->
<g id="node4" class="node">
<title>GroupsGridModalModule</title>
<polygon fill="#8dd3c7" stroke="#000000" points="191.4692,-122 188.4692,-126 167.4692,-126 164.4692,-122 28.5308,-122 28.5308,-86 191.4692,-86 191.4692,-122"/>
<text text-anchor="middle" x="110" y="-99.8" font-family="Times,serif" font-size="14.00" fill="#000000">GroupsGridModalModule</text>
</g>
<!-- GroupsGridModalModule&#45;&gt;GroupSelectModule -->
<g id="edge3" class="edge">
<title>GroupsGridModalModule&#45;&gt;GroupSelectModule</title>
<path fill="none" stroke="#000000" d="M136.3282,-122.0225C136.3282,-139.3734 136.3282,-163 136.3282,-163 136.3282,-163 204.3431,-163 204.3431,-163"/>
<polygon fill="#000000" stroke="#000000" points="204.3432,-166.5001 214.3431,-163 204.3431,-159.5001 204.3432,-166.5001"/>
</g>
</g>
</svg>
