<?xml version="1.0" encoding="UTF-8" standalone="no"?>
<!DOCTYPE svg PUBLIC "-//W3C//DTD SVG 1.1//EN"
 "http://www.w3.org/Graphics/SVG/1.1/DTD/svg11.dtd">
<!-- Generated by graphviz version 2.40.1 (20161225.0304)
 -->
<!-- Title: dependencies Pages: 1 -->
<svg width="624pt" height="284pt"
 viewBox="0.00 0.00 624.00 284.00" xmlns="http://www.w3.org/2000/svg" xmlns:xlink="http://www.w3.org/1999/xlink">
<g id="graph0" class="graph" transform="scale(1 1) rotate(0) translate(4 280)">
<title>dependencies</title>
<polygon fill="#ffffff" stroke="transparent" points="-4,4 -4,-280 620,-280 620,4 -4,4"/>
<text text-anchor="start" x="287.0091" y="-42.4" font-family="sans-serif" font-weight="bold" font-size="14.00" fill="#000000">Legend</text>
<polygon fill="#ffffb3" stroke="transparent" points="74,-10 74,-30 94,-30 94,-10 74,-10"/>
<text text-anchor="start" x="97.629" y="-15.4" font-family="sans-serif" font-size="14.00" fill="#000000"> &#160;Declarations</text>
<polygon fill="#8dd3c7" stroke="transparent" points="187,-10 187,-30 207,-30 207,-10 187,-10"/>
<text text-anchor="start" x="210.7251" y="-15.4" font-family="sans-serif" font-size="14.00" fill="#000000"> &#160;Module</text>
<polygon fill="#80b1d3" stroke="transparent" points="273,-10 273,-30 293,-30 293,-10 273,-10"/>
<text text-anchor="start" x="296.7812" y="-15.4" font-family="sans-serif" font-size="14.00" fill="#000000"> &#160;Bootstrap</text>
<polygon fill="#fdb462" stroke="transparent" points="370,-10 370,-30 390,-30 390,-10 370,-10"/>
<text text-anchor="start" x="393.6732" y="-15.4" font-family="sans-serif" font-size="14.00" fill="#000000"> &#160;Providers</text>
<polygon fill="#fb8072" stroke="transparent" points="466,-10 466,-30 486,-30 486,-10 466,-10"/>
<text text-anchor="start" x="489.7258" y="-15.4" font-family="sans-serif" font-size="14.00" fill="#000000"> &#160;Exports</text>
<g id="clust1" class="cluster">
<title>cluster_UsersGridModule</title>
<polygon fill="none" stroke="#000000" stroke-dasharray="1,5" points="8,-70 8,-268 608,-268 608,-70 8,-70"/>
</g>
<g id="clust2" class="cluster">
<title>cluster_UsersGridModule_declarations</title>
<polygon fill="none" stroke="#000000" points="446,-78 446,-130 600,-130 600,-78 446,-78"/>
</g>
<g id="clust4" class="cluster">
<title>cluster_UsersGridModule_imports</title>
<polygon fill="none" stroke="#000000" points="16,-78 16,-130 438,-130 438,-78 16,-78"/>
</g>
<g id="clust5" class="cluster">
<title>cluster_UsersGridModule_exports</title>
<polygon fill="none" stroke="#000000" points="77,-208 77,-260 519,-260 519,-208 77,-208"/>
</g>
<!-- UsersGridComponent -->
<g id="node1" class="node">
<title>UsersGridComponent</title>
<polygon fill="#ffffb3" stroke="#000000" points="592.3613,-122 453.6387,-122 453.6387,-86 592.3613,-86 592.3613,-122"/>
<text text-anchor="middle" x="523" y="-99.8" font-family="Times,serif" font-size="14.00" fill="#000000">UsersGridComponent</text>
</g>
<!-- UsersGridModule -->
<g id="node2" class="node">
<title>UsersGridModule</title>
<polygon fill="#8dd3c7" stroke="#000000" points="366.5786,-187 363.5786,-191 342.5786,-191 339.5786,-187 249.4214,-187 249.4214,-151 366.5786,-151 366.5786,-187"/>
<text text-anchor="middle" x="308" y="-164.8" font-family="Times,serif" font-size="14.00" fill="#000000">UsersGridModule</text>
</g>
<!-- UsersGridComponent&#45;&gt;UsersGridModule -->
<g id="edge1" class="edge">
<title>UsersGridComponent&#45;&gt;UsersGridModule</title>
<path fill="none" stroke="#000000" d="M482.5177,-122.0225C482.5177,-139.3734 482.5177,-163 482.5177,-163 482.5177,-163 376.5974,-163 376.5974,-163"/>
<polygon fill="#000000" stroke="#000000" points="376.5974,-159.5001 366.5974,-163 376.5973,-166.5001 376.5974,-159.5001"/>
</g>
<!-- EntityGridModule  -->
<g id="node6" class="node">
<title>EntityGridModule </title>
<polygon fill="#fb8072" stroke="#000000" points="511.432,-252 388.568,-252 388.568,-216 511.432,-216 511.432,-252"/>
<text text-anchor="middle" x="450" y="-229.8" font-family="Times,serif" font-size="14.00" fill="#000000">EntityGridModule </text>
</g>
<!-- UsersGridModule&#45;&gt;EntityGridModule  -->
<g id="edge5" class="edge">
<title>UsersGridModule&#45;&gt;EntityGridModule </title>
<path fill="none" stroke="#000000" stroke-dasharray="5,2" d="M366.8248,-175C389.0716,-175 409.125,-175 409.125,-175 409.125,-175 409.125,-205.9775 409.125,-205.9775"/>
<polygon fill="#000000" stroke="#000000" points="405.6251,-205.9774 409.125,-215.9775 412.6251,-205.9775 405.6251,-205.9774"/>
</g>
<!-- UserModalModule  -->
<g id="node7" class="node">
<title>UserModalModule </title>
<polygon fill="#fb8072" stroke="#000000" points="371.026,-252 244.974,-252 244.974,-216 371.026,-216 371.026,-252"/>
<text text-anchor="middle" x="308" y="-229.8" font-family="Times,serif" font-size="14.00" fill="#000000">UserModalModule </text>
</g>
<!-- UsersGridModule&#45;&gt;UserModalModule  -->
<g id="edge6" class="edge">
<title>UsersGridModule&#45;&gt;UserModalModule </title>
<path fill="none" stroke="#000000" stroke-dasharray="5,2" d="M308,-187.1061C308,-187.1061 308,-205.991 308,-205.991"/>
<polygon fill="#000000" stroke="#000000" points="304.5001,-205.9909 308,-215.991 311.5001,-205.991 304.5001,-205.9909"/>
</g>
<!-- UsersGridComponent  -->
<g id="node8" class="node">
<title>UsersGridComponent </title>
<polygon fill="#fb8072" stroke="#000000" points="227.3617,-252 84.6383,-252 84.6383,-216 227.3617,-216 227.3617,-252"/>
<text text-anchor="middle" x="156" y="-229.8" font-family="Times,serif" font-size="14.00" fill="#000000">UsersGridComponent </text>
</g>
<!-- UsersGridModule&#45;&gt;UsersGridComponent  -->
<g id="edge7" class="edge">
<title>UsersGridModule&#45;&gt;UsersGridComponent </title>
<path fill="none" stroke="#000000" stroke-dasharray="5,2" d="M249.3812,-175C223.3369,-175 198.4588,-175 198.4588,-175 198.4588,-175 198.4588,-205.9775 198.4588,-205.9775"/>
<polygon fill="#000000" stroke="#000000" points="194.9589,-205.9774 198.4588,-215.9775 201.9589,-205.9775 194.9589,-205.9774"/>
</g>
<!-- EntityGridModule -->
<g id="node3" class="node">
<title>EntityGridModule</title>
<polygon fill="#8dd3c7" stroke="#000000" points="429.9328,-122 426.9328,-126 405.9328,-126 402.9328,-122 310.0672,-122 310.0672,-86 429.9328,-86 429.9328,-122"/>
<text text-anchor="middle" x="370" y="-99.8" font-family="Times,serif" font-size="14.00" fill="#000000">EntityGridModule</text>
</g>
<!-- EntityGridModule&#45;&gt;UsersGridModule -->
<g id="edge2" class="edge">
<title>EntityGridModule&#45;&gt;UsersGridModule</title>
<path fill="none" stroke="#000000" d="M338.4117,-122.1061C338.4117,-122.1061 338.4117,-140.991 338.4117,-140.991"/>
<polygon fill="#000000" stroke="#000000" points="334.9117,-140.9909 338.4117,-150.991 341.9117,-140.991 334.9117,-140.9909"/>
</g>
<!-- UserModalModule -->
<g id="node4" class="node">
<title>UserModalModule</title>
<polygon fill="#8dd3c7" stroke="#000000" points="292.0269,-122 289.0269,-126 268.0269,-126 265.0269,-122 169.9731,-122 169.9731,-86 292.0269,-86 292.0269,-122"/>
<text text-anchor="middle" x="231" y="-99.8" font-family="Times,serif" font-size="14.00" fill="#000000">UserModalModule</text>
</g>
<!-- UserModalModule&#45;&gt;UsersGridModule -->
<g id="edge3" class="edge">
<title>UserModalModule&#45;&gt;UsersGridModule</title>
<path fill="none" stroke="#000000" d="M270.8619,-122.1061C270.8619,-122.1061 270.8619,-140.991 270.8619,-140.991"/>
<polygon fill="#000000" stroke="#000000" points="267.3619,-140.9909 270.8619,-150.991 274.3619,-140.991 267.3619,-140.9909"/>
</g>
<!-- WebModalsModule -->
<g id="node5" class="node">
<title>WebModalsModule</title>
<polygon fill="#8dd3c7" stroke="#000000" points="151.9734,-122 148.9734,-126 127.9734,-126 124.9734,-122 24.0266,-122 24.0266,-86 151.9734,-86 151.9734,-122"/>
<text text-anchor="middle" x="88" y="-99.8" font-family="Times,serif" font-size="14.00" fill="#000000">WebModalsModule</text>
</g>
<!-- WebModalsModule&#45;&gt;UsersGridModule -->
<g id="edge4" class="edge">
<title>WebModalsModule&#45;&gt;UsersGridModule</title>
<path fill="none" stroke="#000000" d="M118.4031,-122.0225C118.4031,-139.3734 118.4031,-163 118.4031,-163 118.4031,-163 239.3088,-163 239.3088,-163"/>
<polygon fill="#000000" stroke="#000000" points="239.3088,-166.5001 249.3088,-163 239.3087,-159.5001 239.3088,-166.5001"/>
</g>
</g>
</svg>
