<?xml version="1.0" encoding="UTF-8" standalone="no"?>
<!DOCTYPE svg PUBLIC "-//W3C//DTD SVG 1.1//EN"
 "http://www.w3.org/Graphics/SVG/1.1/DTD/svg11.dtd">
<!-- Generated by graphviz version 2.40.1 (20161225.0304)
 -->
<!-- Title: dependencies Pages: 1 -->
<svg width="504pt" height="284pt"
 viewBox="0.00 0.00 504.00 284.00" xmlns="http://www.w3.org/2000/svg" xmlns:xlink="http://www.w3.org/1999/xlink">
<g id="graph0" class="graph" transform="scale(1 1) rotate(0) translate(4 280)">
<title>dependencies</title>
<polygon fill="#ffffff" stroke="transparent" points="-4,4 -4,-280 500,-280 500,4 -4,4"/>
<text text-anchor="start" x="227.0091" y="-42.4" font-family="sans-serif" font-weight="bold" font-size="14.00" fill="#000000">Legend</text>
<polygon fill="#ffffb3" stroke="transparent" points="14,-10 14,-30 34,-30 34,-10 14,-10"/>
<text text-anchor="start" x="37.629" y="-15.4" font-family="sans-serif" font-size="14.00" fill="#000000"> &#160;Declarations</text>
<polygon fill="#8dd3c7" stroke="transparent" points="127,-10 127,-30 147,-30 147,-10 127,-10"/>
<text text-anchor="start" x="150.7251" y="-15.4" font-family="sans-serif" font-size="14.00" fill="#000000"> &#160;Module</text>
<polygon fill="#80b1d3" stroke="transparent" points="213,-10 213,-30 233,-30 233,-10 213,-10"/>
<text text-anchor="start" x="236.7812" y="-15.4" font-family="sans-serif" font-size="14.00" fill="#000000"> &#160;Bootstrap</text>
<polygon fill="#fdb462" stroke="transparent" points="310,-10 310,-30 330,-30 330,-10 310,-10"/>
<text text-anchor="start" x="333.6732" y="-15.4" font-family="sans-serif" font-size="14.00" fill="#000000"> &#160;Providers</text>
<polygon fill="#fb8072" stroke="transparent" points="406,-10 406,-30 426,-30 426,-10 406,-10"/>
<text text-anchor="start" x="429.7258" y="-15.4" font-family="sans-serif" font-size="14.00" fill="#000000"> &#160;Exports</text>
<g id="clust1" class="cluster">
<title>cluster_UsersGridModule</title>
<polygon fill="none" stroke="#000000" stroke-dasharray="1,5" points="19,-70 19,-268 477,-268 477,-70 19,-70"/>
</g>
<g id="clust2" class="cluster">
<title>cluster_UsersGridModule_declarations</title>
<polygon fill="none" stroke="#000000" points="315,-78 315,-130 469,-130 469,-78 315,-78"/>
</g>
<g id="clust4" class="cluster">
<title>cluster_UsersGridModule_imports</title>
<polygon fill="none" stroke="#000000" points="31,-78 31,-130 307,-130 307,-78 31,-78"/>
</g>
<g id="clust5" class="cluster">
<title>cluster_UsersGridModule_exports</title>
<polygon fill="none" stroke="#000000" points="27,-208 27,-260 469,-260 469,-208 27,-208"/>
</g>
<!-- UsersGridComponent -->
<g id="node1" class="node">
<title>UsersGridComponent</title>
<polygon fill="#ffffb3" stroke="#000000" points="461.3613,-122 322.6387,-122 322.6387,-86 461.3613,-86 461.3613,-122"/>
<text text-anchor="middle" x="392" y="-99.8" font-family="Times,serif" font-size="14.00" fill="#000000">UsersGridComponent</text>
</g>
<!-- UsersGridModule -->
<g id="node2" class="node">
<title>UsersGridModule</title>
<polygon fill="#8dd3c7" stroke="#000000" points="306.5786,-187 303.5786,-191 282.5786,-191 279.5786,-187 189.4214,-187 189.4214,-151 306.5786,-151 306.5786,-187"/>
<text text-anchor="middle" x="248" y="-164.8" font-family="Times,serif" font-size="14.00" fill="#000000">UsersGridModule</text>
</g>
<!-- UsersGridComponent&#45;&gt;UsersGridModule -->
<g id="edge1" class="edge">
<title>UsersGridComponent&#45;&gt;UsersGridModule</title>
<path fill="none" stroke="#000000" d="M322.4623,-104C310.9245,-104 302.6277,-104 302.6277,-104 302.6277,-104 302.6277,-140.8939 302.6277,-140.8939"/>
<polygon fill="#000000" stroke="#000000" points="299.1277,-140.8938 302.6277,-150.8939 306.1277,-140.8939 299.1277,-140.8938"/>
</g>
<!-- EntityGridModule  -->
<g id="node5" class="node">
<title>EntityGridModule </title>
<polygon fill="#fb8072" stroke="#000000" points="461.432,-252 338.568,-252 338.568,-216 461.432,-216 461.432,-252"/>
<text text-anchor="middle" x="400" y="-229.8" font-family="Times,serif" font-size="14.00" fill="#000000">EntityGridModule </text>
</g>
<!-- UsersGridModule&#45;&gt;EntityGridModule  -->
<g id="edge4" class="edge">
<title>UsersGridModule&#45;&gt;EntityGridModule </title>
<path fill="none" stroke="#000000" stroke-dasharray="5,2" d="M306.7603,-169C349.5281,-169 399.9823,-169 399.9823,-169 399.9823,-169 399.9823,-205.8939 399.9823,-205.8939"/>
<polygon fill="#000000" stroke="#000000" points="396.4824,-205.8938 399.9823,-215.8939 403.4824,-205.8939 396.4824,-205.8938"/>
</g>
<!-- UserModalModule  -->
<g id="node6" class="node">
<title>UserModalModule </title>
<polygon fill="#fb8072" stroke="#000000" points="321.026,-252 194.974,-252 194.974,-216 321.026,-216 321.026,-252"/>
<text text-anchor="middle" x="258" y="-229.8" font-family="Times,serif" font-size="14.00" fill="#000000">UserModalModule </text>
</g>
<!-- UsersGridModule&#45;&gt;UserModalModule  -->
<g id="edge5" class="edge">
<title>UsersGridModule&#45;&gt;UserModalModule </title>
<path fill="none" stroke="#000000" stroke-dasharray="5,2" d="M250.7632,-187.1061C250.7632,-187.1061 250.7632,-205.991 250.7632,-205.991"/>
<polygon fill="#000000" stroke="#000000" points="247.2632,-205.9909 250.7632,-215.991 254.2632,-205.991 247.2632,-205.9909"/>
</g>
<!-- UsersGridComponent  -->
<g id="node7" class="node">
<title>UsersGridComponent </title>
<polygon fill="#fb8072" stroke="#000000" points="177.3617,-252 34.6383,-252 34.6383,-216 177.3617,-216 177.3617,-252"/>
<text text-anchor="middle" x="106" y="-229.8" font-family="Times,serif" font-size="14.00" fill="#000000">UsersGridComponent </text>
</g>
<!-- UsersGridModule&#45;&gt;UsersGridComponent  -->
<g id="edge6" class="edge">
<title>UsersGridModule&#45;&gt;UsersGridComponent </title>
<path fill="none" stroke="#000000" stroke-dasharray="5,2" d="M189.1009,-175C177.7035,-175 169.2218,-175 169.2218,-175 169.2218,-175 169.2218,-205.9775 169.2218,-205.9775"/>
<polygon fill="#000000" stroke="#000000" points="165.7219,-205.9774 169.2218,-215.9775 172.7219,-205.9775 165.7219,-205.9774"/>
</g>
<!-- EntityGridModule -->
<g id="node3" class="node">
<title>EntityGridModule</title>
<polygon fill="#8dd3c7" stroke="#000000" points="298.9328,-122 295.9328,-126 274.9328,-126 271.9328,-122 179.0672,-122 179.0672,-86 298.9328,-86 298.9328,-122"/>
<text text-anchor="middle" x="239" y="-99.8" font-family="Times,serif" font-size="14.00" fill="#000000">EntityGridModule</text>
</g>
<!-- EntityGridModule&#45;&gt;UsersGridModule -->
<g id="edge2" class="edge">
<title>EntityGridModule&#45;&gt;UsersGridModule</title>
<path fill="none" stroke="#000000" d="M244.0884,-122.1061C244.0884,-122.1061 244.0884,-140.991 244.0884,-140.991"/>
<polygon fill="#000000" stroke="#000000" points="240.5884,-140.9909 244.0884,-150.991 247.5884,-140.991 240.5884,-140.9909"/>
</g>
<!-- UserModalModule -->
<g id="node4" class="node">
<title>UserModalModule</title>
<polygon fill="#8dd3c7" stroke="#000000" points="161.0269,-122 158.0269,-126 137.0269,-126 134.0269,-122 38.9731,-122 38.9731,-86 161.0269,-86 161.0269,-122"/>
<text text-anchor="middle" x="100" y="-99.8" font-family="Times,serif" font-size="14.00" fill="#000000">UserModalModule</text>
</g>
<!-- UserModalModule&#45;&gt;UsersGridModule -->
<g id="edge3" class="edge">
<title>UserModalModule&#45;&gt;UsersGridModule</title>
<path fill="none" stroke="#000000" d="M100,-122.0225C100,-139.3734 100,-163 100,-163 100,-163 179.0812,-163 179.0812,-163"/>
<polygon fill="#000000" stroke="#000000" points="179.0813,-166.5001 189.0812,-163 179.0812,-159.5001 179.0813,-166.5001"/>
</g>
</g>
</svg>
