<?xml version="1.0" encoding="UTF-8" standalone="no"?>
<!DOCTYPE svg PUBLIC "-//W3C//DTD SVG 1.1//EN"
 "http://www.w3.org/Graphics/SVG/1.1/DTD/svg11.dtd">
<!-- Generated by graphviz version 2.40.1 (20161225.0304)
 -->
<!-- Title: dependencies Pages: 1 -->
<svg width="504pt" height="211pt"
 viewBox="0.00 0.00 504.00 211.00" xmlns="http://www.w3.org/2000/svg" xmlns:xlink="http://www.w3.org/1999/xlink">
<g id="graph0" class="graph" transform="scale(1 1) rotate(0) translate(4 207)">
<title>dependencies</title>
<polygon fill="#ffffff" stroke="transparent" points="-4,4 -4,-207 500,-207 500,4 -4,4"/>
<text text-anchor="start" x="227.0091" y="-42.4" font-family="sans-serif" font-weight="bold" font-size="14.00" fill="#000000">Legend</text>
<polygon fill="#ffffb3" stroke="transparent" points="14,-10 14,-30 34,-30 34,-10 14,-10"/>
<text text-anchor="start" x="37.629" y="-15.4" font-family="sans-serif" font-size="14.00" fill="#000000"> &#160;Declarations</text>
<polygon fill="#8dd3c7" stroke="transparent" points="127,-10 127,-30 147,-30 147,-10 127,-10"/>
<text text-anchor="start" x="150.7251" y="-15.4" font-family="sans-serif" font-size="14.00" fill="#000000"> &#160;Module</text>
<polygon fill="#80b1d3" stroke="transparent" points="213,-10 213,-30 233,-30 233,-10 213,-10"/>
<text text-anchor="start" x="236.7812" y="-15.4" font-family="sans-serif" font-size="14.00" fill="#000000"> &#160;Bootstrap</text>
<polygon fill="#fdb462" stroke="transparent" points="310,-10 310,-30 330,-30 330,-10 310,-10"/>
<text text-anchor="start" x="333.6732" y="-15.4" font-family="sans-serif" font-size="14.00" fill="#000000"> &#160;Providers</text>
<polygon fill="#fb8072" stroke="transparent" points="406,-10 406,-30 426,-30 426,-10 406,-10"/>
<text text-anchor="start" x="429.7258" y="-15.4" font-family="sans-serif" font-size="14.00" fill="#000000"> &#160;Exports</text>
<g id="clust1" class="cluster">
<title>cluster_AuthModule</title>
<polygon fill="none" stroke="#000000" stroke-dasharray="1,5" points="14,-70 14,-195 482,-195 482,-70 14,-70"/>
</g>
<g id="clust2" class="cluster">
<title>cluster_AuthModule_declarations</title>
<polygon fill="none" stroke="#000000" points="312,-78 312,-130 474,-130 474,-78 312,-78"/>
</g>
<g id="clust7" class="cluster">
<title>cluster_AuthModule_providers</title>
<polygon fill="none" stroke="#000000" points="22,-78 22,-130 304,-130 304,-78 22,-78"/>
</g>
<!-- AuthEmptyComponent -->
<g id="node1" class="node">
<title>AuthEmptyComponent</title>
<polygon fill="#ffffb3" stroke="#000000" points="466.1638,-122 319.8362,-122 319.8362,-86 466.1638,-86 466.1638,-122"/>
<text text-anchor="middle" x="393" y="-99.8" font-family="Times,serif" font-size="14.00" fill="#000000">AuthEmptyComponent</text>
</g>
<!-- AuthModule -->
<g id="node2" class="node">
<title>AuthModule</title>
<polygon fill="#8dd3c7" stroke="#000000" points="280.5482,-187 277.5482,-191 256.5482,-191 253.5482,-187 193.4518,-187 193.4518,-151 280.5482,-151 280.5482,-187"/>
<text text-anchor="middle" x="237" y="-164.8" font-family="Times,serif" font-size="14.00" fill="#000000">AuthModule</text>
</g>
<!-- AuthEmptyComponent&#45;&gt;AuthModule -->
<g id="edge1" class="edge">
<title>AuthEmptyComponent&#45;&gt;AuthModule</title>
<path fill="none" stroke="#000000" d="M393,-122.1061C393,-141.3391 393,-169 393,-169 393,-169 290.8698,-169 290.8698,-169"/>
<polygon fill="#000000" stroke="#000000" points="290.8699,-165.5001 280.8698,-169 290.8698,-172.5001 290.8699,-165.5001"/>
</g>
<!-- AuthService -->
<g id="node3" class="node">
<title>AuthService</title>
<ellipse fill="#fdb462" stroke="#000000" cx="237" cy="-104" rx="59.1083" ry="18"/>
<text text-anchor="middle" x="237" y="-99.8" font-family="Times,serif" font-size="14.00" fill="#000000">AuthService</text>
</g>
<!-- AuthService&#45;&gt;AuthModule -->
<g id="edge2" class="edge">
<title>AuthService&#45;&gt;AuthModule</title>
<path fill="none" stroke="#000000" d="M237,-122.1061C237,-122.1061 237,-140.991 237,-140.991"/>
<polygon fill="#000000" stroke="#000000" points="233.5001,-140.9909 237,-150.991 240.5001,-140.991 233.5001,-140.9909"/>
</g>
<!-- TokenService -->
<g id="node4" class="node">
<title>TokenService</title>
<ellipse fill="#fdb462" stroke="#000000" cx="95" cy="-104" rx="64.8273" ry="18"/>
<text text-anchor="middle" x="95" y="-99.8" font-family="Times,serif" font-size="14.00" fill="#000000">TokenService</text>
</g>
<!-- TokenService&#45;&gt;AuthModule -->
<g id="edge3" class="edge">
<title>TokenService&#45;&gt;AuthModule</title>
<path fill="none" stroke="#000000" d="M95,-122.1061C95,-141.3391 95,-169 95,-169 95,-169 183.2366,-169 183.2366,-169"/>
<polygon fill="#000000" stroke="#000000" points="183.2367,-172.5001 193.2366,-169 183.2366,-165.5001 183.2367,-172.5001"/>
</g>
</g>
</svg>
