<?xml version="1.0" encoding="UTF-8" standalone="no"?>
<!DOCTYPE svg PUBLIC "-//W3C//DTD SVG 1.1//EN"
 "http://www.w3.org/Graphics/SVG/1.1/DTD/svg11.dtd">
<!-- Generated by graphviz version 2.40.1 (20161225.0304)
 -->
<!-- Title: dependencies Pages: 1 -->
<svg width="504pt" height="211pt"
 viewBox="0.00 0.00 504.00 211.00" xmlns="http://www.w3.org/2000/svg" xmlns:xlink="http://www.w3.org/1999/xlink">
<g id="graph0" class="graph" transform="scale(1 1) rotate(0) translate(4 207)">
<title>dependencies</title>
<polygon fill="#ffffff" stroke="transparent" points="-4,4 -4,-207 500,-207 500,4 -4,4"/>
<text text-anchor="start" x="227.0091" y="-42.4" font-family="sans-serif" font-weight="bold" font-size="14.00" fill="#000000">Legend</text>
<polygon fill="#ffffb3" stroke="transparent" points="14,-10 14,-30 34,-30 34,-10 14,-10"/>
<text text-anchor="start" x="37.629" y="-15.4" font-family="sans-serif" font-size="14.00" fill="#000000"> &#160;Declarations</text>
<polygon fill="#8dd3c7" stroke="transparent" points="127,-10 127,-30 147,-30 147,-10 127,-10"/>
<text text-anchor="start" x="150.7251" y="-15.4" font-family="sans-serif" font-size="14.00" fill="#000000"> &#160;Module</text>
<polygon fill="#80b1d3" stroke="transparent" points="213,-10 213,-30 233,-30 233,-10 213,-10"/>
<text text-anchor="start" x="236.7812" y="-15.4" font-family="sans-serif" font-size="14.00" fill="#000000"> &#160;Bootstrap</text>
<polygon fill="#fdb462" stroke="transparent" points="310,-10 310,-30 330,-30 330,-10 310,-10"/>
<text text-anchor="start" x="333.6732" y="-15.4" font-family="sans-serif" font-size="14.00" fill="#000000"> &#160;Providers</text>
<polygon fill="#fb8072" stroke="transparent" points="406,-10 406,-30 426,-30 426,-10 406,-10"/>
<text text-anchor="start" x="429.7258" y="-15.4" font-family="sans-serif" font-size="14.00" fill="#000000"> &#160;Exports</text>
<g id="clust1" class="cluster">
<title>cluster_UsersFrameModule</title>
<polygon fill="none" stroke="#000000" stroke-dasharray="1,5" points="97,-70 97,-195 399,-195 399,-70 97,-70"/>
</g>
<g id="clust2" class="cluster">
<title>cluster_UsersFrameModule_declarations</title>
<polygon fill="none" stroke="#000000" points="227,-78 227,-130 391,-130 391,-78 227,-78"/>
</g>
<g id="clust4" class="cluster">
<title>cluster_UsersFrameModule_imports</title>
<polygon fill="none" stroke="#000000" points="105,-78 105,-130 219,-130 219,-78 105,-78"/>
</g>
<!-- UsersFrameComponent -->
<g id="node1" class="node">
<title>UsersFrameComponent</title>
<polygon fill="#ffffb3" stroke="#000000" points="383.4664,-122 234.5336,-122 234.5336,-86 383.4664,-86 383.4664,-122"/>
<text text-anchor="middle" x="309" y="-99.8" font-family="Times,serif" font-size="14.00" fill="#000000">UsersFrameComponent</text>
</g>
<!-- UsersFrameModule -->
<g id="node2" class="node">
<title>UsersFrameModule</title>
<polygon fill="#8dd3c7" stroke="#000000" points="302.6839,-187 299.6839,-191 278.6839,-191 275.6839,-187 175.3161,-187 175.3161,-151 302.6839,-151 302.6839,-187"/>
<text text-anchor="middle" x="239" y="-164.8" font-family="Times,serif" font-size="14.00" fill="#000000">UsersFrameModule</text>
</g>
<!-- UsersFrameComponent&#45;&gt;UsersFrameModule -->
<g id="edge1" class="edge">
<title>UsersFrameComponent&#45;&gt;UsersFrameModule</title>
<path fill="none" stroke="#000000" d="M268.5544,-122.1061C268.5544,-122.1061 268.5544,-140.991 268.5544,-140.991"/>
<polygon fill="#000000" stroke="#000000" points="265.0544,-140.9909 268.5544,-150.991 272.0544,-140.991 265.0544,-140.9909"/>
</g>
<!-- SharedModule -->
<g id="node3" class="node">
<title>SharedModule</title>
<polygon fill="#8dd3c7" stroke="#000000" points="211.4231,-122 208.4231,-126 187.4231,-126 184.4231,-122 112.5769,-122 112.5769,-86 211.4231,-86 211.4231,-122"/>
<text text-anchor="middle" x="162" y="-99.8" font-family="Times,serif" font-size="14.00" fill="#000000">SharedModule</text>
</g>
<!-- SharedModule&#45;&gt;UsersFrameModule -->
<g id="edge2" class="edge">
<title>SharedModule&#45;&gt;UsersFrameModule</title>
<path fill="none" stroke="#000000" d="M193.3096,-122.1061C193.3096,-122.1061 193.3096,-140.991 193.3096,-140.991"/>
<polygon fill="#000000" stroke="#000000" points="189.8097,-140.9909 193.3096,-150.991 196.8097,-140.991 189.8097,-140.9909"/>
</g>
</g>
</svg>
