<?xml version="1.0" encoding="UTF-8" standalone="no"?>
<!DOCTYPE svg PUBLIC "-//W3C//DTD SVG 1.1//EN"
 "http://www.w3.org/Graphics/SVG/1.1/DTD/svg11.dtd">
<!-- Generated by graphviz version 2.40.1 (20161225.0304)
 -->
<!-- Title: dependencies Pages: 1 -->
<svg width="719pt" height="284pt"
 viewBox="0.00 0.00 719.00 284.00" xmlns="http://www.w3.org/2000/svg" xmlns:xlink="http://www.w3.org/1999/xlink">
<g id="graph0" class="graph" transform="scale(1 1) rotate(0) translate(4 280)">
<title>dependencies</title>
<polygon fill="#ffffff" stroke="transparent" points="-4,4 -4,-280 715,-280 715,4 -4,4"/>
<text text-anchor="start" x="334.5091" y="-42.4" font-family="sans-serif" font-weight="bold" font-size="14.00" fill="#000000">Legend</text>
<polygon fill="#ffffb3" stroke="transparent" points="121.5,-10 121.5,-30 141.5,-30 141.5,-10 121.5,-10"/>
<text text-anchor="start" x="145.129" y="-15.4" font-family="sans-serif" font-size="14.00" fill="#000000"> &#160;Declarations</text>
<polygon fill="#8dd3c7" stroke="transparent" points="234.5,-10 234.5,-30 254.5,-30 254.5,-10 234.5,-10"/>
<text text-anchor="start" x="258.2251" y="-15.4" font-family="sans-serif" font-size="14.00" fill="#000000"> &#160;Module</text>
<polygon fill="#80b1d3" stroke="transparent" points="320.5,-10 320.5,-30 340.5,-30 340.5,-10 320.5,-10"/>
<text text-anchor="start" x="344.2812" y="-15.4" font-family="sans-serif" font-size="14.00" fill="#000000"> &#160;Bootstrap</text>
<polygon fill="#fdb462" stroke="transparent" points="417.5,-10 417.5,-30 437.5,-30 437.5,-10 417.5,-10"/>
<text text-anchor="start" x="441.1732" y="-15.4" font-family="sans-serif" font-size="14.00" fill="#000000"> &#160;Providers</text>
<polygon fill="#fb8072" stroke="transparent" points="513.5,-10 513.5,-30 533.5,-30 533.5,-10 513.5,-10"/>
<text text-anchor="start" x="537.2258" y="-15.4" font-family="sans-serif" font-size="14.00" fill="#000000"> &#160;Exports</text>
<g id="clust1" class="cluster">
<title>cluster_ContentTypesGridModule</title>
<polygon fill="none" stroke="#000000" stroke-dasharray="1,5" points="8,-70 8,-268 703,-268 703,-70 8,-70"/>
</g>
<g id="clust2" class="cluster">
<title>cluster_ContentTypesGridModule_declarations</title>
<polygon fill="none" stroke="#000000" points="493,-78 493,-130 695,-130 695,-78 493,-78"/>
</g>
<g id="clust4" class="cluster">
<title>cluster_ContentTypesGridModule_imports</title>
<polygon fill="none" stroke="#000000" points="16,-78 16,-130 485,-130 485,-78 16,-78"/>
</g>
<g id="clust5" class="cluster">
<title>cluster_ContentTypesGridModule_exports</title>
<polygon fill="none" stroke="#000000" points="82,-208 82,-260 618,-260 618,-208 82,-208"/>
</g>
<!-- ContentTypesGridComponent -->
<g id="node1" class="node">
<title>ContentTypesGridComponent</title>
<polygon fill="#ffffb3" stroke="#000000" points="686.535,-122 501.465,-122 501.465,-86 686.535,-86 686.535,-122"/>
<text text-anchor="middle" x="594" y="-99.8" font-family="Times,serif" font-size="14.00" fill="#000000">ContentTypesGridComponent</text>
</g>
<!-- ContentTypesGridModule -->
<g id="node2" class="node">
<title>ContentTypesGridModule</title>
<polygon fill="#8dd3c7" stroke="#000000" points="406.752,-187 403.752,-191 382.752,-191 379.752,-187 243.248,-187 243.248,-151 406.752,-151 406.752,-187"/>
<text text-anchor="middle" x="325" y="-164.8" font-family="Times,serif" font-size="14.00" fill="#000000">ContentTypesGridModule</text>
</g>
<!-- ContentTypesGridComponent&#45;&gt;ContentTypesGridModule -->
<g id="edge1" class="edge">
<title>ContentTypesGridComponent&#45;&gt;ContentTypesGridModule</title>
<path fill="none" stroke="#000000" d="M555.7912,-122.0225C555.7912,-139.3734 555.7912,-163 555.7912,-163 555.7912,-163 417.0182,-163 417.0182,-163"/>
<polygon fill="#000000" stroke="#000000" points="417.0182,-159.5001 407.0182,-163 417.0181,-166.5001 417.0182,-159.5001"/>
</g>
<!-- ContentTypeModalModule  -->
<g id="node6" class="node">
<title>ContentTypeModalModule </title>
<polygon fill="#fb8072" stroke="#000000" points="610.1995,-252 437.8005,-252 437.8005,-216 610.1995,-216 610.1995,-252"/>
<text text-anchor="middle" x="524" y="-229.8" font-family="Times,serif" font-size="14.00" fill="#000000">ContentTypeModalModule </text>
</g>
<!-- ContentTypesGridModule&#45;&gt;ContentTypeModalModule  -->
<g id="edge5" class="edge">
<title>ContentTypesGridModule&#45;&gt;ContentTypeModalModule </title>
<path fill="none" stroke="#000000" stroke-dasharray="5,2" d="M406.7973,-175C433.8268,-175 457.125,-175 457.125,-175 457.125,-175 457.125,-205.9775 457.125,-205.9775"/>
<polygon fill="#000000" stroke="#000000" points="453.6251,-205.9774 457.125,-215.9775 460.6251,-205.9775 453.6251,-205.9774"/>
</g>
<!-- ContentTypesGridComponent  -->
<g id="node7" class="node">
<title>ContentTypesGridComponent </title>
<polygon fill="#fb8072" stroke="#000000" points="419.5344,-252 230.4656,-252 230.4656,-216 419.5344,-216 419.5344,-252"/>
<text text-anchor="middle" x="325" y="-229.8" font-family="Times,serif" font-size="14.00" fill="#000000">ContentTypesGridComponent </text>
</g>
<!-- ContentTypesGridModule&#45;&gt;ContentTypesGridComponent  -->
<g id="edge6" class="edge">
<title>ContentTypesGridModule&#45;&gt;ContentTypesGridComponent </title>
<path fill="none" stroke="#000000" stroke-dasharray="5,2" d="M325,-187.1061C325,-187.1061 325,-205.991 325,-205.991"/>
<polygon fill="#000000" stroke="#000000" points="321.5001,-205.9909 325,-215.991 328.5001,-205.991 321.5001,-205.9909"/>
</g>
<!-- EntityGridModule  -->
<g id="node8" class="node">
<title>EntityGridModule </title>
<polygon fill="#fb8072" stroke="#000000" points="212.432,-252 89.568,-252 89.568,-216 212.432,-216 212.432,-252"/>
<text text-anchor="middle" x="151" y="-229.8" font-family="Times,serif" font-size="14.00" fill="#000000">EntityGridModule </text>
</g>
<!-- ContentTypesGridModule&#45;&gt;EntityGridModule  -->
<g id="edge7" class="edge">
<title>ContentTypesGridModule&#45;&gt;EntityGridModule </title>
<path fill="none" stroke="#000000" stroke-dasharray="5,2" d="M243.0379,-175C215.3781,-175 191.375,-175 191.375,-175 191.375,-175 191.375,-205.9775 191.375,-205.9775"/>
<polygon fill="#000000" stroke="#000000" points="187.8751,-205.9774 191.375,-215.9775 194.8751,-205.9775 187.8751,-205.9774"/>
</g>
<!-- ContentTypeModalModule -->
<g id="node3" class="node">
<title>ContentTypeModalModule</title>
<polygon fill="#8dd3c7" stroke="#000000" points="476.6993,-122 473.6993,-126 452.6993,-126 449.6993,-122 307.3007,-122 307.3007,-86 476.6993,-86 476.6993,-122"/>
<text text-anchor="middle" x="392" y="-99.8" font-family="Times,serif" font-size="14.00" fill="#000000">ContentTypeModalModule</text>
</g>
<!-- ContentTypeModalModule&#45;&gt;ContentTypesGridModule -->
<g id="edge2" class="edge">
<title>ContentTypeModalModule&#45;&gt;ContentTypesGridModule</title>
<path fill="none" stroke="#000000" d="M357.1382,-122.1061C357.1382,-122.1061 357.1382,-140.991 357.1382,-140.991"/>
<polygon fill="#000000" stroke="#000000" points="353.6382,-140.9909 357.1382,-150.991 360.6382,-140.991 353.6382,-140.9909"/>
</g>
<!-- EntityGridModule -->
<g id="node4" class="node">
<title>EntityGridModule</title>
<polygon fill="#8dd3c7" stroke="#000000" points="289.9328,-122 286.9328,-126 265.9328,-126 262.9328,-122 170.0672,-122 170.0672,-86 289.9328,-86 289.9328,-122"/>
<text text-anchor="middle" x="230" y="-99.8" font-family="Times,serif" font-size="14.00" fill="#000000">EntityGridModule</text>
</g>
<!-- EntityGridModule&#45;&gt;ContentTypesGridModule -->
<g id="edge3" class="edge">
<title>EntityGridModule&#45;&gt;ContentTypesGridModule</title>
<path fill="none" stroke="#000000" d="M266.4201,-122.1061C266.4201,-122.1061 266.4201,-140.991 266.4201,-140.991"/>
<polygon fill="#000000" stroke="#000000" points="262.9201,-140.9909 266.4201,-150.991 269.9201,-140.991 262.9201,-140.9909"/>
</g>
<!-- WebModalsModule -->
<g id="node5" class="node">
<title>WebModalsModule</title>
<polygon fill="#8dd3c7" stroke="#000000" points="151.9734,-122 148.9734,-126 127.9734,-126 124.9734,-122 24.0266,-122 24.0266,-86 151.9734,-86 151.9734,-122"/>
<text text-anchor="middle" x="88" y="-99.8" font-family="Times,serif" font-size="14.00" fill="#000000">WebModalsModule</text>
</g>
<!-- WebModalsModule&#45;&gt;ContentTypesGridModule -->
<g id="edge4" class="edge">
<title>WebModalsModule&#45;&gt;ContentTypesGridModule</title>
<path fill="none" stroke="#000000" d="M120.7603,-122.0225C120.7603,-139.3734 120.7603,-163 120.7603,-163 120.7603,-163 233.1047,-163 233.1047,-163"/>
<polygon fill="#000000" stroke="#000000" points="233.1048,-166.5001 243.1047,-163 233.1047,-159.5001 233.1048,-166.5001"/>
</g>
</g>
</svg>
