<?xml version="1.0" encoding="UTF-8" standalone="no"?>
<!DOCTYPE svg PUBLIC "-//W3C//DTD SVG 1.1//EN"
 "http://www.w3.org/Graphics/SVG/1.1/DTD/svg11.dtd">
<!-- Generated by graphviz version 2.40.1 (20161225.0304)
 -->
<!-- Title: dependencies Pages: 1 -->
<svg width="576pt" height="284pt"
 viewBox="0.00 0.00 576.00 284.00" xmlns="http://www.w3.org/2000/svg" xmlns:xlink="http://www.w3.org/1999/xlink">
<g id="graph0" class="graph" transform="scale(1 1) rotate(0) translate(4 280)">
<title>dependencies</title>
<polygon fill="#ffffff" stroke="transparent" points="-4,4 -4,-280 572,-280 572,4 -4,4"/>
<text text-anchor="start" x="263.0091" y="-42.4" font-family="sans-serif" font-weight="bold" font-size="14.00" fill="#000000">Legend</text>
<polygon fill="#ffffb3" stroke="transparent" points="50,-10 50,-30 70,-30 70,-10 50,-10"/>
<text text-anchor="start" x="73.629" y="-15.4" font-family="sans-serif" font-size="14.00" fill="#000000"> &#160;Declarations</text>
<polygon fill="#8dd3c7" stroke="transparent" points="163,-10 163,-30 183,-30 183,-10 163,-10"/>
<text text-anchor="start" x="186.7251" y="-15.4" font-family="sans-serif" font-size="14.00" fill="#000000"> &#160;Module</text>
<polygon fill="#80b1d3" stroke="transparent" points="249,-10 249,-30 269,-30 269,-10 249,-10"/>
<text text-anchor="start" x="272.7812" y="-15.4" font-family="sans-serif" font-size="14.00" fill="#000000"> &#160;Bootstrap</text>
<polygon fill="#fdb462" stroke="transparent" points="346,-10 346,-30 366,-30 366,-10 346,-10"/>
<text text-anchor="start" x="369.6732" y="-15.4" font-family="sans-serif" font-size="14.00" fill="#000000"> &#160;Providers</text>
<polygon fill="#fb8072" stroke="transparent" points="442,-10 442,-30 462,-30 462,-10 442,-10"/>
<text text-anchor="start" x="465.7258" y="-15.4" font-family="sans-serif" font-size="14.00" fill="#000000"> &#160;Exports</text>
<g id="clust1" class="cluster">
<title>cluster_ContentTypesGridModule</title>
<polygon fill="none" stroke="#000000" stroke-dasharray="1,5" points="8,-70 8,-268 560,-268 560,-70 8,-70"/>
</g>
<g id="clust2" class="cluster">
<title>cluster_ContentTypesGridModule_declarations</title>
<polygon fill="none" stroke="#000000" points="350,-78 350,-130 552,-130 552,-78 350,-78"/>
</g>
<g id="clust4" class="cluster">
<title>cluster_ContentTypesGridModule_imports</title>
<polygon fill="none" stroke="#000000" points="19,-78 19,-130 342,-130 342,-78 19,-78"/>
</g>
<g id="clust5" class="cluster">
<title>cluster_ContentTypesGridModule_exports</title>
<polygon fill="none" stroke="#000000" points="16,-208 16,-260 552,-260 552,-208 16,-208"/>
</g>
<!-- ContentTypesGridComponent -->
<g id="node1" class="node">
<title>ContentTypesGridComponent</title>
<polygon fill="#ffffb3" stroke="#000000" points="543.535,-122 358.465,-122 358.465,-86 543.535,-86 543.535,-122"/>
<text text-anchor="middle" x="451" y="-99.8" font-family="Times,serif" font-size="14.00" fill="#000000">ContentTypesGridComponent</text>
</g>
<!-- ContentTypesGridModule -->
<g id="node2" class="node">
<title>ContentTypesGridModule</title>
<polygon fill="#8dd3c7" stroke="#000000" points="335.752,-187 332.752,-191 311.752,-191 308.752,-187 172.248,-187 172.248,-151 335.752,-151 335.752,-187"/>
<text text-anchor="middle" x="254" y="-164.8" font-family="Times,serif" font-size="14.00" fill="#000000">ContentTypesGridModule</text>
</g>
<!-- ContentTypesGridComponent&#45;&gt;ContentTypesGridModule -->
<g id="edge1" class="edge">
<title>ContentTypesGridComponent&#45;&gt;ContentTypesGridModule</title>
<path fill="none" stroke="#000000" d="M364.9416,-122.0225C364.9416,-139.3734 364.9416,-163 364.9416,-163 364.9416,-163 345.793,-163 345.793,-163"/>
<polygon fill="#000000" stroke="#000000" points="345.793,-159.5001 335.793,-163 345.793,-166.5001 345.793,-159.5001"/>
</g>
<!-- ContentTypeModalModule  -->
<g id="node5" class="node">
<title>ContentTypeModalModule </title>
<polygon fill="#fb8072" stroke="#000000" points="544.1995,-252 371.8005,-252 371.8005,-216 544.1995,-216 544.1995,-252"/>
<text text-anchor="middle" x="458" y="-229.8" font-family="Times,serif" font-size="14.00" fill="#000000">ContentTypeModalModule </text>
</g>
<!-- ContentTypesGridModule&#45;&gt;ContentTypeModalModule  -->
<g id="edge4" class="edge">
<title>ContentTypesGridModule&#45;&gt;ContentTypeModalModule </title>
<path fill="none" stroke="#000000" stroke-dasharray="5,2" d="M335.9756,-175C392.5809,-175 457.7088,-175 457.7088,-175 457.7088,-175 457.7088,-205.9775 457.7088,-205.9775"/>
<polygon fill="#000000" stroke="#000000" points="454.2089,-205.9774 457.7088,-215.9775 461.2089,-205.9775 454.2089,-205.9774"/>
</g>
<!-- ContentTypesGridComponent  -->
<g id="node6" class="node">
<title>ContentTypesGridComponent </title>
<polygon fill="#fb8072" stroke="#000000" points="353.5344,-252 164.4656,-252 164.4656,-216 353.5344,-216 353.5344,-252"/>
<text text-anchor="middle" x="259" y="-229.8" font-family="Times,serif" font-size="14.00" fill="#000000">ContentTypesGridComponent </text>
</g>
<!-- ContentTypesGridModule&#45;&gt;ContentTypesGridComponent  -->
<g id="edge5" class="edge">
<title>ContentTypesGridModule&#45;&gt;ContentTypesGridComponent </title>
<path fill="none" stroke="#000000" stroke-dasharray="5,2" d="M254,-187.1061C254,-187.1061 254,-205.991 254,-205.991"/>
<polygon fill="#000000" stroke="#000000" points="250.5001,-205.9909 254,-215.991 257.5001,-205.991 250.5001,-205.9909"/>
</g>
<!-- EntityGridModule  -->
<g id="node7" class="node">
<title>EntityGridModule </title>
<polygon fill="#fb8072" stroke="#000000" points="146.432,-252 23.568,-252 23.568,-216 146.432,-216 146.432,-252"/>
<text text-anchor="middle" x="85" y="-229.8" font-family="Times,serif" font-size="14.00" fill="#000000">EntityGridModule </text>
</g>
<!-- ContentTypesGridModule&#45;&gt;EntityGridModule  -->
<g id="edge6" class="edge">
<title>ContentTypesGridModule&#45;&gt;EntityGridModule </title>
<path fill="none" stroke="#000000" stroke-dasharray="5,2" d="M171.984,-175C121.7425,-175 67.0113,-175 67.0113,-175 67.0113,-175 67.0113,-205.9775 67.0113,-205.9775"/>
<polygon fill="#000000" stroke="#000000" points="63.5114,-205.9774 67.0113,-215.9775 70.5114,-205.9775 63.5114,-205.9774"/>
</g>
<!-- ContentTypeModalModule -->
<g id="node3" class="node">
<title>ContentTypeModalModule</title>
<polygon fill="#8dd3c7" stroke="#000000" points="333.6993,-122 330.6993,-126 309.6993,-126 306.6993,-122 164.3007,-122 164.3007,-86 333.6993,-86 333.6993,-122"/>
<text text-anchor="middle" x="249" y="-99.8" font-family="Times,serif" font-size="14.00" fill="#000000">ContentTypeModalModule</text>
</g>
<!-- ContentTypeModalModule&#45;&gt;ContentTypesGridModule -->
<g id="edge2" class="edge">
<title>ContentTypeModalModule&#45;&gt;ContentTypesGridModule</title>
<path fill="none" stroke="#000000" d="M252.8619,-122.1061C252.8619,-122.1061 252.8619,-140.991 252.8619,-140.991"/>
<polygon fill="#000000" stroke="#000000" points="249.3619,-140.9909 252.8619,-150.991 256.3619,-140.991 249.3619,-140.9909"/>
</g>
<!-- EntityGridModule -->
<g id="node4" class="node">
<title>EntityGridModule</title>
<polygon fill="#8dd3c7" stroke="#000000" points="146.9328,-122 143.9328,-126 122.9328,-126 119.9328,-122 27.0672,-122 27.0672,-86 146.9328,-86 146.9328,-122"/>
<text text-anchor="middle" x="87" y="-99.8" font-family="Times,serif" font-size="14.00" fill="#000000">EntityGridModule</text>
</g>
<!-- EntityGridModule&#45;&gt;ContentTypesGridModule -->
<g id="edge3" class="edge">
<title>EntityGridModule&#45;&gt;ContentTypesGridModule</title>
<path fill="none" stroke="#000000" d="M106.7387,-122.0225C106.7387,-139.3734 106.7387,-163 106.7387,-163 106.7387,-163 162.1872,-163 162.1872,-163"/>
<polygon fill="#000000" stroke="#000000" points="162.1873,-166.5001 172.1872,-163 162.1872,-159.5001 162.1873,-166.5001"/>
</g>
</g>
</svg>
