<?xml version="1.0" encoding="UTF-8" standalone="no"?>
<!DOCTYPE svg PUBLIC "-//W3C//DTD SVG 1.1//EN"
 "http://www.w3.org/Graphics/SVG/1.1/DTD/svg11.dtd">
<!-- Generated by graphviz version 2.40.1 (20161225.0304)
 -->
<!-- Title: dependencies Pages: 1 -->
<svg width="504pt" height="211pt"
 viewBox="0.00 0.00 504.00 211.00" xmlns="http://www.w3.org/2000/svg" xmlns:xlink="http://www.w3.org/1999/xlink">
<g id="graph0" class="graph" transform="scale(1 1) rotate(0) translate(4 207)">
<title>dependencies</title>
<polygon fill="#ffffff" stroke="transparent" points="-4,4 -4,-207 500,-207 500,4 -4,4"/>
<text text-anchor="start" x="227.0091" y="-42.4" font-family="sans-serif" font-weight="bold" font-size="14.00" fill="#000000">Legend</text>
<polygon fill="#ffffb3" stroke="transparent" points="14,-10 14,-30 34,-30 34,-10 14,-10"/>
<text text-anchor="start" x="37.629" y="-15.4" font-family="sans-serif" font-size="14.00" fill="#000000"> &#160;Declarations</text>
<polygon fill="#8dd3c7" stroke="transparent" points="127,-10 127,-30 147,-30 147,-10 127,-10"/>
<text text-anchor="start" x="150.7251" y="-15.4" font-family="sans-serif" font-size="14.00" fill="#000000"> &#160;Module</text>
<polygon fill="#80b1d3" stroke="transparent" points="213,-10 213,-30 233,-30 233,-10 213,-10"/>
<text text-anchor="start" x="236.7812" y="-15.4" font-family="sans-serif" font-size="14.00" fill="#000000"> &#160;Bootstrap</text>
<polygon fill="#fdb462" stroke="transparent" points="310,-10 310,-30 330,-30 330,-10 310,-10"/>
<text text-anchor="start" x="333.6732" y="-15.4" font-family="sans-serif" font-size="14.00" fill="#000000"> &#160;Providers</text>
<polygon fill="#fb8072" stroke="transparent" points="406,-10 406,-30 426,-30 426,-10 406,-10"/>
<text text-anchor="start" x="429.7258" y="-15.4" font-family="sans-serif" font-size="14.00" fill="#000000"> &#160;Exports</text>
<g id="clust1" class="cluster">
<title>cluster_RuckenCoreModule</title>
<polygon fill="none" stroke="#000000" stroke-dasharray="1,5" points="70,-70 70,-195 426,-195 426,-70 70,-70"/>
</g>
<g id="clust6" class="cluster">
<title>cluster_RuckenCoreModule_providers</title>
<polygon fill="none" stroke="#000000" points="78,-78 78,-130 418,-130 418,-78 78,-78"/>
</g>
<!-- ErrorsExtractor -->
<g id="node1" class="node">
<title>ErrorsExtractor</title>
<ellipse fill="#fdb462" stroke="#000000" cx="339" cy="-104" rx="71.1823" ry="18"/>
<text text-anchor="middle" x="339" y="-99.8" font-family="Times,serif" font-size="14.00" fill="#000000">ErrorsExtractor</text>
</g>
<!-- RuckenCoreModule -->
<g id="node3" class="node">
<title>RuckenCoreModule</title>
<polygon fill="#8dd3c7" stroke="#000000" points="317.5283,-187 314.5283,-191 293.5283,-191 290.5283,-187 188.4717,-187 188.4717,-151 317.5283,-151 317.5283,-187"/>
<text text-anchor="middle" x="253" y="-164.8" font-family="Times,serif" font-size="14.00" fill="#000000">RuckenCoreModule</text>
</g>
<!-- ErrorsExtractor&#45;&gt;RuckenCoreModule -->
<g id="edge1" class="edge">
<title>ErrorsExtractor&#45;&gt;RuckenCoreModule</title>
<path fill="none" stroke="#000000" d="M292.8363,-117.7848C292.8363,-117.7848 292.8363,-140.5475 292.8363,-140.5475"/>
<polygon fill="#000000" stroke="#000000" points="289.3364,-140.5474 292.8363,-150.5475 296.3364,-140.5475 289.3364,-140.5474"/>
</g>
<!-- PermissionsGuard -->
<g id="node2" class="node">
<title>PermissionsGuard</title>
<ellipse fill="#fdb462" stroke="#000000" cx="168" cy="-104" rx="81.6789" ry="18"/>
<text text-anchor="middle" x="168" y="-99.8" font-family="Times,serif" font-size="14.00" fill="#000000">PermissionsGuard</text>
</g>
<!-- PermissionsGuard&#45;&gt;RuckenCoreModule -->
<g id="edge2" class="edge">
<title>PermissionsGuard&#45;&gt;RuckenCoreModule</title>
<path fill="none" stroke="#000000" d="M219.0378,-118.104C219.0378,-118.104 219.0378,-140.7209 219.0378,-140.7209"/>
<polygon fill="#000000" stroke="#000000" points="215.5379,-140.7209 219.0378,-150.7209 222.5379,-140.7209 215.5379,-140.7209"/>
</g>
</g>
</svg>
