<?xml version="1.0" encoding="UTF-8" standalone="no"?>
<!DOCTYPE svg PUBLIC "-//W3C//DTD SVG 1.1//EN"
 "http://www.w3.org/Graphics/SVG/1.1/DTD/svg11.dtd">
<!-- Generated by graphviz version 2.40.1 (20161225.0304)
 -->
<!-- Title: dependencies Pages: 1 -->
<svg width="620pt" height="284pt"
 viewBox="0.00 0.00 620.00 284.00" xmlns="http://www.w3.org/2000/svg" xmlns:xlink="http://www.w3.org/1999/xlink">
<g id="graph0" class="graph" transform="scale(1 1) rotate(0) translate(4 280)">
<title>dependencies</title>
<polygon fill="#ffffff" stroke="transparent" points="-4,4 -4,-280 616,-280 616,4 -4,4"/>
<text text-anchor="start" x="285.0091" y="-42.4" font-family="sans-serif" font-weight="bold" font-size="14.00" fill="#000000">Legend</text>
<polygon fill="#ffffb3" stroke="transparent" points="72,-10 72,-30 92,-30 92,-10 72,-10"/>
<text text-anchor="start" x="95.629" y="-15.4" font-family="sans-serif" font-size="14.00" fill="#000000"> &#160;Declarations</text>
<polygon fill="#8dd3c7" stroke="transparent" points="185,-10 185,-30 205,-30 205,-10 185,-10"/>
<text text-anchor="start" x="208.7251" y="-15.4" font-family="sans-serif" font-size="14.00" fill="#000000"> &#160;Module</text>
<polygon fill="#80b1d3" stroke="transparent" points="271,-10 271,-30 291,-30 291,-10 271,-10"/>
<text text-anchor="start" x="294.7812" y="-15.4" font-family="sans-serif" font-size="14.00" fill="#000000"> &#160;Bootstrap</text>
<polygon fill="#fdb462" stroke="transparent" points="368,-10 368,-30 388,-30 388,-10 368,-10"/>
<text text-anchor="start" x="391.6732" y="-15.4" font-family="sans-serif" font-size="14.00" fill="#000000"> &#160;Providers</text>
<polygon fill="#fb8072" stroke="transparent" points="464,-10 464,-30 484,-30 484,-10 464,-10"/>
<text text-anchor="start" x="487.7258" y="-15.4" font-family="sans-serif" font-size="14.00" fill="#000000"> &#160;Exports</text>
<g id="clust1" class="cluster">
<title>cluster_ContentTypeSelectModule</title>
<polygon fill="none" stroke="#000000" stroke-dasharray="1,5" points="8,-70 8,-268 604,-268 604,-70 8,-70"/>
</g>
<g id="clust2" class="cluster">
<title>cluster_ContentTypeSelectModule_declarations</title>
<polygon fill="none" stroke="#000000" points="392,-78 392,-130 596,-130 596,-78 392,-78"/>
</g>
<g id="clust4" class="cluster">
<title>cluster_ContentTypeSelectModule_imports</title>
<polygon fill="none" stroke="#000000" points="22,-78 22,-130 384,-130 384,-78 22,-78"/>
</g>
<g id="clust5" class="cluster">
<title>cluster_ContentTypeSelectModule_exports</title>
<polygon fill="none" stroke="#000000" points="16,-208 16,-260 596,-260 596,-208 16,-208"/>
</g>
<!-- ContentTypeSelectComponent -->
<g id="node1" class="node">
<title>ContentTypeSelectComponent</title>
<polygon fill="#ffffb3" stroke="#000000" points="588.1399,-122 399.8601,-122 399.8601,-86 588.1399,-86 588.1399,-122"/>
<text text-anchor="middle" x="494" y="-99.8" font-family="Times,serif" font-size="14.00" fill="#000000">ContentTypeSelectComponent</text>
</g>
<!-- ContentTypeSelectModule -->
<g id="node2" class="node">
<title>ContentTypeSelectModule</title>
<polygon fill="#8dd3c7" stroke="#000000" points="359.3571,-187 356.3571,-191 335.3571,-191 332.3571,-187 192.6429,-187 192.6429,-151 359.3571,-151 359.3571,-187"/>
<text text-anchor="middle" x="276" y="-164.8" font-family="Times,serif" font-size="14.00" fill="#000000">ContentTypeSelectModule</text>
</g>
<!-- ContentTypeSelectComponent&#45;&gt;ContentTypeSelectModule -->
<g id="edge1" class="edge">
<title>ContentTypeSelectComponent&#45;&gt;ContentTypeSelectModule</title>
<path fill="none" stroke="#000000" d="M462.4767,-122.0225C462.4767,-139.3734 462.4767,-163 462.4767,-163 462.4767,-163 369.4208,-163 369.4208,-163"/>
<polygon fill="#000000" stroke="#000000" points="369.4209,-159.5001 359.4208,-163 369.4208,-166.5001 369.4209,-159.5001"/>
</g>
<!-- ContentTypeSelectComponent  -->
<g id="node5" class="node">
<title>ContentTypeSelectComponent </title>
<polygon fill="#fb8072" stroke="#000000" points="588.1397,-252 395.8603,-252 395.8603,-216 588.1397,-216 588.1397,-252"/>
<text text-anchor="middle" x="492" y="-229.8" font-family="Times,serif" font-size="14.00" fill="#000000">ContentTypeSelectComponent </text>
</g>
<!-- ContentTypeSelectModule&#45;&gt;ContentTypeSelectComponent  -->
<g id="edge4" class="edge">
<title>ContentTypeSelectModule&#45;&gt;ContentTypeSelectComponent </title>
<path fill="none" stroke="#000000" stroke-dasharray="5,2" d="M359.6978,-175C432.1143,-175 525.2733,-175 525.2733,-175 525.2733,-175 525.2733,-205.9775 525.2733,-205.9775"/>
<polygon fill="#000000" stroke="#000000" points="521.7734,-205.9774 525.2733,-215.9775 528.7734,-205.9775 521.7734,-205.9774"/>
</g>
<!-- ContentTypesGridModalModule  -->
<g id="node6" class="node">
<title>ContentTypesGridModalModule </title>
<polygon fill="#fb8072" stroke="#000000" points="377.8017,-252 174.1983,-252 174.1983,-216 377.8017,-216 377.8017,-252"/>
<text text-anchor="middle" x="276" y="-229.8" font-family="Times,serif" font-size="14.00" fill="#000000">ContentTypesGridModalModule </text>
</g>
<!-- ContentTypeSelectModule&#45;&gt;ContentTypesGridModalModule  -->
<g id="edge5" class="edge">
<title>ContentTypeSelectModule&#45;&gt;ContentTypesGridModalModule </title>
<path fill="none" stroke="#000000" stroke-dasharray="5,2" d="M276,-187.1061C276,-187.1061 276,-205.991 276,-205.991"/>
<polygon fill="#000000" stroke="#000000" points="272.5001,-205.9909 276,-215.991 279.5001,-205.991 272.5001,-205.9909"/>
</g>
<!-- EntitySelectModule  -->
<g id="node7" class="node">
<title>EntitySelectModule </title>
<polygon fill="#fb8072" stroke="#000000" points="155.9827,-252 24.0173,-252 24.0173,-216 155.9827,-216 155.9827,-252"/>
<text text-anchor="middle" x="90" y="-229.8" font-family="Times,serif" font-size="14.00" fill="#000000">EntitySelectModule </text>
</g>
<!-- ContentTypeSelectModule&#45;&gt;EntitySelectModule  -->
<g id="edge6" class="edge">
<title>ContentTypeSelectModule&#45;&gt;EntitySelectModule </title>
<path fill="none" stroke="#000000" stroke-dasharray="5,2" d="M192.4039,-175C136.0443,-175 71.9197,-175 71.9197,-175 71.9197,-175 71.9197,-205.9775 71.9197,-205.9775"/>
<polygon fill="#000000" stroke="#000000" points="68.4198,-205.9774 71.9197,-215.9775 75.4198,-205.9775 68.4198,-205.9774"/>
</g>
<!-- ContentTypesGridModalModule -->
<g id="node3" class="node">
<title>ContentTypesGridModalModule</title>
<polygon fill="#8dd3c7" stroke="#000000" points="376.3018,-122 373.3018,-126 352.3018,-126 349.3018,-122 175.6982,-122 175.6982,-86 376.3018,-86 376.3018,-122"/>
<text text-anchor="middle" x="276" y="-99.8" font-family="Times,serif" font-size="14.00" fill="#000000">ContentTypesGridModalModule</text>
</g>
<!-- ContentTypesGridModalModule&#45;&gt;ContentTypeSelectModule -->
<g id="edge2" class="edge">
<title>ContentTypesGridModalModule&#45;&gt;ContentTypeSelectModule</title>
<path fill="none" stroke="#000000" d="M276,-122.1061C276,-122.1061 276,-140.991 276,-140.991"/>
<polygon fill="#000000" stroke="#000000" points="272.5001,-140.9909 276,-150.991 279.5001,-140.991 272.5001,-140.9909"/>
</g>
<!-- EntitySelectModule -->
<g id="node4" class="node">
<title>EntitySelectModule</title>
<polygon fill="#8dd3c7" stroke="#000000" points="157.9818,-122 154.9818,-126 133.9818,-126 130.9818,-122 30.0182,-122 30.0182,-86 157.9818,-86 157.9818,-122"/>
<text text-anchor="middle" x="94" y="-99.8" font-family="Times,serif" font-size="14.00" fill="#000000">EntitySelectModule</text>
</g>
<!-- EntitySelectModule&#45;&gt;ContentTypeSelectModule -->
<g id="edge3" class="edge">
<title>EntitySelectModule&#45;&gt;ContentTypeSelectModule</title>
<path fill="none" stroke="#000000" d="M113.8303,-122.0225C113.8303,-139.3734 113.8303,-163 113.8303,-163 113.8303,-163 182.5399,-163 182.5399,-163"/>
<polygon fill="#000000" stroke="#000000" points="182.54,-166.5001 192.5399,-163 182.5399,-159.5001 182.54,-166.5001"/>
</g>
</g>
</svg>
