<?xml version="1.0" encoding="UTF-8" standalone="no"?>
<!DOCTYPE svg PUBLIC "-//W3C//DTD SVG 1.1//EN"
 "http://www.w3.org/Graphics/SVG/1.1/DTD/svg11.dtd">
<!-- Generated by graphviz version 2.40.1 (20161225.0304)
 -->
<!-- Title: dependencies Pages: 1 -->
<svg width="526pt" height="284pt"
 viewBox="0.00 0.00 526.00 284.00" xmlns="http://www.w3.org/2000/svg" xmlns:xlink="http://www.w3.org/1999/xlink">
<g id="graph0" class="graph" transform="scale(1 1) rotate(0) translate(4 280)">
<title>dependencies</title>
<polygon fill="#ffffff" stroke="transparent" points="-4,4 -4,-280 522,-280 522,4 -4,4"/>
<text text-anchor="start" x="238.0091" y="-42.4" font-family="sans-serif" font-weight="bold" font-size="14.00" fill="#000000">Legend</text>
<polygon fill="#ffffb3" stroke="transparent" points="25,-10 25,-30 45,-30 45,-10 25,-10"/>
<text text-anchor="start" x="48.629" y="-15.4" font-family="sans-serif" font-size="14.00" fill="#000000"> &#160;Declarations</text>
<polygon fill="#8dd3c7" stroke="transparent" points="138,-10 138,-30 158,-30 158,-10 138,-10"/>
<text text-anchor="start" x="161.7251" y="-15.4" font-family="sans-serif" font-size="14.00" fill="#000000"> &#160;Module</text>
<polygon fill="#80b1d3" stroke="transparent" points="224,-10 224,-30 244,-30 244,-10 224,-10"/>
<text text-anchor="start" x="247.7812" y="-15.4" font-family="sans-serif" font-size="14.00" fill="#000000"> &#160;Bootstrap</text>
<polygon fill="#fdb462" stroke="transparent" points="321,-10 321,-30 341,-30 341,-10 321,-10"/>
<text text-anchor="start" x="344.6732" y="-15.4" font-family="sans-serif" font-size="14.00" fill="#000000"> &#160;Providers</text>
<polygon fill="#fb8072" stroke="transparent" points="417,-10 417,-30 437,-30 437,-10 417,-10"/>
<text text-anchor="start" x="440.7258" y="-15.4" font-family="sans-serif" font-size="14.00" fill="#000000"> &#160;Exports</text>
<g id="clust1" class="cluster">
<title>cluster_UserSelectModule</title>
<polygon fill="none" stroke="#000000" stroke-dasharray="1,5" points="8,-70 8,-268 510,-268 510,-70 8,-70"/>
</g>
<g id="clust2" class="cluster">
<title>cluster_UserSelectModule_declarations</title>
<polygon fill="none" stroke="#000000" points="344,-78 344,-130 502,-130 502,-78 344,-78"/>
</g>
<g id="clust4" class="cluster">
<title>cluster_UserSelectModule_imports</title>
<polygon fill="none" stroke="#000000" points="20,-78 20,-130 336,-130 336,-78 20,-78"/>
</g>
<g id="clust5" class="cluster">
<title>cluster_UserSelectModule_exports</title>
<polygon fill="none" stroke="#000000" points="16,-208 16,-260 502,-260 502,-208 16,-208"/>
</g>
<!-- UserSelectComponent -->
<g id="node1" class="node">
<title>UserSelectComponent</title>
<polygon fill="#ffffb3" stroke="#000000" points="493.9664,-122 352.0336,-122 352.0336,-86 493.9664,-86 493.9664,-122"/>
<text text-anchor="middle" x="423" y="-99.8" font-family="Times,serif" font-size="14.00" fill="#000000">UserSelectComponent</text>
</g>
<!-- UserSelectModule -->
<g id="node2" class="node">
<title>UserSelectModule</title>
<polygon fill="#8dd3c7" stroke="#000000" points="328.1839,-187 325.1839,-191 304.1839,-191 301.1839,-187 207.8161,-187 207.8161,-151 328.1839,-151 328.1839,-187"/>
<text text-anchor="middle" x="268" y="-164.8" font-family="Times,serif" font-size="14.00" fill="#000000">UserSelectModule</text>
</g>
<!-- UserSelectComponent&#45;&gt;UserSelectModule -->
<g id="edge1" class="edge">
<title>UserSelectComponent&#45;&gt;UserSelectModule</title>
<path fill="none" stroke="#000000" d="M357.138,-122.0225C357.138,-139.3734 357.138,-163 357.138,-163 357.138,-163 338.4435,-163 338.4435,-163"/>
<polygon fill="#000000" stroke="#000000" points="338.4435,-159.5001 328.4435,-163 338.4435,-166.5001 338.4435,-159.5001"/>
</g>
<!-- EntitySelectModule  -->
<g id="node5" class="node">
<title>EntitySelectModule </title>
<polygon fill="#fb8072" stroke="#000000" points="493.9827,-252 362.0173,-252 362.0173,-216 493.9827,-216 493.9827,-252"/>
<text text-anchor="middle" x="428" y="-229.8" font-family="Times,serif" font-size="14.00" fill="#000000">EntitySelectModule </text>
</g>
<!-- UserSelectModule&#45;&gt;EntitySelectModule  -->
<g id="edge4" class="edge">
<title>UserSelectModule&#45;&gt;EntitySelectModule </title>
<path fill="none" stroke="#000000" stroke-dasharray="5,2" d="M328.4891,-175C373.7983,-175 428,-175 428,-175 428,-175 428,-205.9775 428,-205.9775"/>
<polygon fill="#000000" stroke="#000000" points="424.5001,-205.9774 428,-215.9775 431.5001,-205.9775 424.5001,-205.9774"/>
</g>
<!-- UserSelectComponent  -->
<g id="node6" class="node">
<title>UserSelectComponent </title>
<polygon fill="#fb8072" stroke="#000000" points="344.9672,-252 199.0328,-252 199.0328,-216 344.9672,-216 344.9672,-252"/>
<text text-anchor="middle" x="272" y="-229.8" font-family="Times,serif" font-size="14.00" fill="#000000">UserSelectComponent </text>
</g>
<!-- UserSelectModule&#45;&gt;UserSelectComponent  -->
<g id="edge5" class="edge">
<title>UserSelectModule&#45;&gt;UserSelectComponent </title>
<path fill="none" stroke="#000000" stroke-dasharray="5,2" d="M268,-187.1061C268,-187.1061 268,-205.991 268,-205.991"/>
<polygon fill="#000000" stroke="#000000" points="264.5001,-205.9909 268,-215.991 271.5001,-205.991 264.5001,-205.9909"/>
</g>
<!-- UsersGridModalModule  -->
<g id="node7" class="node">
<title>UsersGridModalModule </title>
<polygon fill="#fb8072" stroke="#000000" points="181.6285,-252 24.3715,-252 24.3715,-216 181.6285,-216 181.6285,-252"/>
<text text-anchor="middle" x="103" y="-229.8" font-family="Times,serif" font-size="14.00" fill="#000000">UsersGridModalModule </text>
</g>
<!-- UserSelectModule&#45;&gt;UsersGridModalModule  -->
<g id="edge6" class="edge">
<title>UserSelectModule&#45;&gt;UsersGridModalModule </title>
<path fill="none" stroke="#000000" stroke-dasharray="5,2" d="M207.7791,-175C152.5583,-175 79.3119,-175 79.3119,-175 79.3119,-175 79.3119,-205.9775 79.3119,-205.9775"/>
<polygon fill="#000000" stroke="#000000" points="75.812,-205.9774 79.3119,-215.9775 82.812,-205.9775 75.812,-205.9774"/>
</g>
<!-- EntitySelectModule -->
<g id="node3" class="node">
<title>EntitySelectModule</title>
<polygon fill="#8dd3c7" stroke="#000000" points="327.9818,-122 324.9818,-126 303.9818,-126 300.9818,-122 200.0182,-122 200.0182,-86 327.9818,-86 327.9818,-122"/>
<text text-anchor="middle" x="264" y="-99.8" font-family="Times,serif" font-size="14.00" fill="#000000">EntitySelectModule</text>
</g>
<!-- EntitySelectModule&#45;&gt;UserSelectModule -->
<g id="edge2" class="edge">
<title>EntitySelectModule&#45;&gt;UserSelectModule</title>
<path fill="none" stroke="#000000" d="M267.9495,-122.1061C267.9495,-122.1061 267.9495,-140.991 267.9495,-140.991"/>
<polygon fill="#000000" stroke="#000000" points="264.4496,-140.9909 267.9495,-150.991 271.4496,-140.991 264.4496,-140.9909"/>
</g>
<!-- UsersGridModalModule -->
<g id="node4" class="node">
<title>UsersGridModalModule</title>
<polygon fill="#8dd3c7" stroke="#000000" points="181.6288,-122 178.6288,-126 157.6288,-126 154.6288,-122 28.3712,-122 28.3712,-86 181.6288,-86 181.6288,-122"/>
<text text-anchor="middle" x="105" y="-99.8" font-family="Times,serif" font-size="14.00" fill="#000000">UsersGridModalModule</text>
</g>
<!-- UsersGridModalModule&#45;&gt;UserSelectModule -->
<g id="edge3" class="edge">
<title>UsersGridModalModule&#45;&gt;UserSelectModule</title>
<path fill="none" stroke="#000000" d="M130.4381,-122.0225C130.4381,-139.3734 130.4381,-163 130.4381,-163 130.4381,-163 197.6633,-163 197.6633,-163"/>
<polygon fill="#000000" stroke="#000000" points="197.6634,-166.5001 207.6633,-163 197.6633,-159.5001 197.6634,-166.5001"/>
</g>
</g>
</svg>
