<?xml version="1.0" encoding="UTF-8" standalone="no"?>
<!DOCTYPE svg PUBLIC "-//W3C//DTD SVG 1.1//EN"
 "http://www.w3.org/Graphics/SVG/1.1/DTD/svg11.dtd">
<!-- Generated by graphviz version 2.40.1 (20161225.0304)
 -->
<!-- Title: dependencies Pages: 1 -->
<svg width="586pt" height="284pt"
 viewBox="0.00 0.00 586.00 284.00" xmlns="http://www.w3.org/2000/svg" xmlns:xlink="http://www.w3.org/1999/xlink">
<g id="graph0" class="graph" transform="scale(1 1) rotate(0) translate(4 280)">
<title>dependencies</title>
<polygon fill="#ffffff" stroke="transparent" points="-4,4 -4,-280 582,-280 582,4 -4,4"/>
<text text-anchor="start" x="268.0091" y="-42.4" font-family="sans-serif" font-weight="bold" font-size="14.00" fill="#000000">Legend</text>
<polygon fill="#ffffb3" stroke="transparent" points="55,-10 55,-30 75,-30 75,-10 55,-10"/>
<text text-anchor="start" x="78.629" y="-15.4" font-family="sans-serif" font-size="14.00" fill="#000000"> &#160;Declarations</text>
<polygon fill="#8dd3c7" stroke="transparent" points="168,-10 168,-30 188,-30 188,-10 168,-10"/>
<text text-anchor="start" x="191.7251" y="-15.4" font-family="sans-serif" font-size="14.00" fill="#000000"> &#160;Module</text>
<polygon fill="#80b1d3" stroke="transparent" points="254,-10 254,-30 274,-30 274,-10 254,-10"/>
<text text-anchor="start" x="277.7812" y="-15.4" font-family="sans-serif" font-size="14.00" fill="#000000"> &#160;Bootstrap</text>
<polygon fill="#fdb462" stroke="transparent" points="351,-10 351,-30 371,-30 371,-10 351,-10"/>
<text text-anchor="start" x="374.6732" y="-15.4" font-family="sans-serif" font-size="14.00" fill="#000000"> &#160;Providers</text>
<polygon fill="#fb8072" stroke="transparent" points="447,-10 447,-30 467,-30 467,-10 447,-10"/>
<text text-anchor="start" x="470.7258" y="-15.4" font-family="sans-serif" font-size="14.00" fill="#000000"> &#160;Exports</text>
<g id="clust1" class="cluster">
<title>cluster_MessageModalModule</title>
<polygon fill="none" stroke="#000000" stroke-dasharray="1,5" points="8,-70 8,-268 570,-268 570,-70 8,-70"/>
</g>
<g id="clust2" class="cluster">
<title>cluster_MessageModalModule_declarations</title>
<polygon fill="none" stroke="#000000" points="380,-78 380,-130 562,-130 562,-78 380,-78"/>
</g>
<g id="clust4" class="cluster">
<title>cluster_MessageModalModule_imports</title>
<polygon fill="none" stroke="#000000" points="238,-78 238,-130 372,-130 372,-78 238,-78"/>
</g>
<g id="clust5" class="cluster">
<title>cluster_MessageModalModule_exports</title>
<polygon fill="none" stroke="#000000" points="131,-208 131,-260 455,-260 455,-208 131,-208"/>
</g>
<g id="clust7" class="cluster">
<title>cluster_MessageModalModule_providers</title>
<polygon fill="none" stroke="#000000" points="16,-78 16,-130 230,-130 230,-78 16,-78"/>
</g>
<!-- MessageModalComponent -->
<g id="node1" class="node">
<title>MessageModalComponent</title>
<polygon fill="#ffffb3" stroke="#000000" points="554.3599,-122 387.6401,-122 387.6401,-86 554.3599,-86 554.3599,-122"/>
<text text-anchor="middle" x="471" y="-99.8" font-family="Times,serif" font-size="14.00" fill="#000000">MessageModalComponent</text>
</g>
<!-- MessageModalModule -->
<g id="node2" class="node">
<title>MessageModalModule</title>
<polygon fill="#8dd3c7" stroke="#000000" points="377.5772,-187 374.5772,-191 353.5772,-191 350.5772,-187 232.4228,-187 232.4228,-151 377.5772,-151 377.5772,-187"/>
<text text-anchor="middle" x="305" y="-164.8" font-family="Times,serif" font-size="14.00" fill="#000000">MessageModalModule</text>
</g>
<!-- MessageModalComponent&#45;&gt;MessageModalModule -->
<g id="edge1" class="edge">
<title>MessageModalComponent&#45;&gt;MessageModalModule</title>
<path fill="none" stroke="#000000" d="M387.5805,-104C377.4199,-104 370.5386,-104 370.5386,-104 370.5386,-104 370.5386,-140.8939 370.5386,-140.8939"/>
<polygon fill="#000000" stroke="#000000" points="367.0387,-140.8938 370.5386,-150.8939 374.0387,-140.8939 367.0387,-140.8938"/>
</g>
<!-- DirectivesModule  -->
<g id="node4" class="node">
<title>DirectivesModule </title>
<polygon fill="#fb8072" stroke="#000000" points="447.0779,-252 326.9221,-252 326.9221,-216 447.0779,-216 447.0779,-252"/>
<text text-anchor="middle" x="387" y="-229.8" font-family="Times,serif" font-size="14.00" fill="#000000">DirectivesModule </text>
</g>
<!-- MessageModalModule&#45;&gt;DirectivesModule  -->
<g id="edge3" class="edge">
<title>MessageModalModule&#45;&gt;DirectivesModule </title>
<path fill="none" stroke="#000000" stroke-dasharray="5,2" d="M352.125,-187.1061C352.125,-187.1061 352.125,-205.991 352.125,-205.991"/>
<polygon fill="#000000" stroke="#000000" points="348.6251,-205.9909 352.125,-215.991 355.6251,-205.991 348.6251,-205.9909"/>
</g>
<!-- MessageModalComponent  -->
<g id="node5" class="node">
<title>MessageModalComponent </title>
<polygon fill="#fb8072" stroke="#000000" points="309.3602,-252 138.6398,-252 138.6398,-216 309.3602,-216 309.3602,-252"/>
<text text-anchor="middle" x="224" y="-229.8" font-family="Times,serif" font-size="14.00" fill="#000000">MessageModalComponent </text>
</g>
<!-- MessageModalModule&#45;&gt;MessageModalComponent  -->
<g id="edge4" class="edge">
<title>MessageModalModule&#45;&gt;MessageModalComponent </title>
<path fill="none" stroke="#000000" stroke-dasharray="5,2" d="M270.8207,-187.1061C270.8207,-187.1061 270.8207,-205.991 270.8207,-205.991"/>
<polygon fill="#000000" stroke="#000000" points="267.3207,-205.9909 270.8207,-215.991 274.3207,-205.991 267.3207,-205.9909"/>
</g>
<!-- DirectivesModule -->
<g id="node3" class="node">
<title>DirectivesModule</title>
<polygon fill="#8dd3c7" stroke="#000000" points="363.5772,-122 360.5772,-126 339.5772,-126 336.5772,-122 246.4228,-122 246.4228,-86 363.5772,-86 363.5772,-122"/>
<text text-anchor="middle" x="305" y="-99.8" font-family="Times,serif" font-size="14.00" fill="#000000">DirectivesModule</text>
</g>
<!-- DirectivesModule&#45;&gt;MessageModalModule -->
<g id="edge2" class="edge">
<title>DirectivesModule&#45;&gt;MessageModalModule</title>
<path fill="none" stroke="#000000" d="M305,-122.1061C305,-122.1061 305,-140.991 305,-140.991"/>
<polygon fill="#000000" stroke="#000000" points="301.5001,-140.9909 305,-150.991 308.5001,-140.991 301.5001,-140.9909"/>
</g>
<!-- MessageModalService -->
<g id="node6" class="node">
<title>MessageModalService</title>
<ellipse fill="#fdb462" stroke="#000000" cx="123" cy="-104" rx="98.9743" ry="18"/>
<text text-anchor="middle" x="123" y="-99.8" font-family="Times,serif" font-size="14.00" fill="#000000">MessageModalService</text>
</g>
<!-- MessageModalService&#45;&gt;MessageModalModule -->
<g id="edge5" class="edge">
<title>MessageModalService&#45;&gt;MessageModalModule</title>
<path fill="none" stroke="#000000" d="M222.026,-104C232.5198,-104 239.4614,-104 239.4614,-104 239.4614,-104 239.4614,-140.8939 239.4614,-140.8939"/>
<polygon fill="#000000" stroke="#000000" points="235.9615,-140.8938 239.4614,-150.8939 242.9615,-140.8939 235.9615,-140.8938"/>
</g>
</g>
</svg>
