<?xml version="1.0" encoding="UTF-8" standalone="no"?>
<!DOCTYPE svg PUBLIC "-//W3C//DTD SVG 1.1//EN"
 "http://www.w3.org/Graphics/SVG/1.1/DTD/svg11.dtd">
<!-- Generated by graphviz version 2.40.1 (20161225.0304)
 -->
<!-- Title: dependencies Pages: 1 -->
<svg width="644pt" height="284pt"
 viewBox="0.00 0.00 644.00 284.00" xmlns="http://www.w3.org/2000/svg" xmlns:xlink="http://www.w3.org/1999/xlink">
<g id="graph0" class="graph" transform="scale(1 1) rotate(0) translate(4 280)">
<title>dependencies</title>
<polygon fill="#ffffff" stroke="transparent" points="-4,4 -4,-280 640,-280 640,4 -4,4"/>
<text text-anchor="start" x="297.0091" y="-42.4" font-family="sans-serif" font-weight="bold" font-size="14.00" fill="#000000">Legend</text>
<polygon fill="#ffffb3" stroke="transparent" points="84,-10 84,-30 104,-30 104,-10 84,-10"/>
<text text-anchor="start" x="107.629" y="-15.4" font-family="sans-serif" font-size="14.00" fill="#000000"> &#160;Declarations</text>
<polygon fill="#8dd3c7" stroke="transparent" points="197,-10 197,-30 217,-30 217,-10 197,-10"/>
<text text-anchor="start" x="220.7251" y="-15.4" font-family="sans-serif" font-size="14.00" fill="#000000"> &#160;Module</text>
<polygon fill="#80b1d3" stroke="transparent" points="283,-10 283,-30 303,-30 303,-10 283,-10"/>
<text text-anchor="start" x="306.7812" y="-15.4" font-family="sans-serif" font-size="14.00" fill="#000000"> &#160;Bootstrap</text>
<polygon fill="#fdb462" stroke="transparent" points="380,-10 380,-30 400,-30 400,-10 380,-10"/>
<text text-anchor="start" x="403.6732" y="-15.4" font-family="sans-serif" font-size="14.00" fill="#000000"> &#160;Providers</text>
<polygon fill="#fb8072" stroke="transparent" points="476,-10 476,-30 496,-30 496,-10 476,-10"/>
<text text-anchor="start" x="499.7258" y="-15.4" font-family="sans-serif" font-size="14.00" fill="#000000"> &#160;Exports</text>
<g id="clust1" class="cluster">
<title>cluster_GroupsGridModule</title>
<polygon fill="none" stroke="#000000" stroke-dasharray="1,5" points="8,-70 8,-268 628,-268 628,-70 8,-70"/>
</g>
<g id="clust2" class="cluster">
<title>cluster_GroupsGridModule_declarations</title>
<polygon fill="none" stroke="#000000" points="456,-78 456,-130 620,-130 620,-78 456,-78"/>
</g>
<g id="clust4" class="cluster">
<title>cluster_GroupsGridModule_imports</title>
<polygon fill="none" stroke="#000000" points="16,-78 16,-130 448,-130 448,-78 16,-78"/>
</g>
<g id="clust5" class="cluster">
<title>cluster_GroupsGridModule_exports</title>
<polygon fill="none" stroke="#000000" points="75,-208 75,-260 537,-260 537,-208 75,-208"/>
</g>
<!-- GroupsGridComponent -->
<g id="node1" class="node">
<title>GroupsGridComponent</title>
<polygon fill="#ffffb3" stroke="#000000" points="612.2021,-122 463.7979,-122 463.7979,-86 612.2021,-86 612.2021,-122"/>
<text text-anchor="middle" x="538" y="-99.8" font-family="Times,serif" font-size="14.00" fill="#000000">GroupsGridComponent</text>
</g>
<!-- GroupsGridModule -->
<g id="node2" class="node">
<title>GroupsGridModule</title>
<polygon fill="#8dd3c7" stroke="#000000" points="384.4201,-187 381.4201,-191 360.4201,-191 357.4201,-187 257.5799,-187 257.5799,-151 384.4201,-151 384.4201,-187"/>
<text text-anchor="middle" x="321" y="-164.8" font-family="Times,serif" font-size="14.00" fill="#000000">GroupsGridModule</text>
</g>
<!-- GroupsGridComponent&#45;&gt;GroupsGridModule -->
<g id="edge1" class="edge">
<title>GroupsGridComponent&#45;&gt;GroupsGridModule</title>
<path fill="none" stroke="#000000" d="M496.6825,-122.0225C496.6825,-139.3734 496.6825,-163 496.6825,-163 496.6825,-163 394.4254,-163 394.4254,-163"/>
<polygon fill="#000000" stroke="#000000" points="394.4254,-159.5001 384.4254,-163 394.4254,-166.5001 394.4254,-159.5001"/>
</g>
<!-- EntityGridModule  -->
<g id="node6" class="node">
<title>EntityGridModule </title>
<polygon fill="#fb8072" stroke="#000000" points="529.432,-252 406.568,-252 406.568,-216 529.432,-216 529.432,-252"/>
<text text-anchor="middle" x="468" y="-229.8" font-family="Times,serif" font-size="14.00" fill="#000000">EntityGridModule </text>
</g>
<!-- GroupsGridModule&#45;&gt;EntityGridModule  -->
<g id="edge5" class="edge">
<title>GroupsGridModule&#45;&gt;EntityGridModule </title>
<path fill="none" stroke="#000000" stroke-dasharray="5,2" d="M384.2246,-175C405.1169,-175 423.125,-175 423.125,-175 423.125,-175 423.125,-205.9775 423.125,-205.9775"/>
<polygon fill="#000000" stroke="#000000" points="419.6251,-205.9774 423.125,-215.9775 426.6251,-205.9775 419.6251,-205.9774"/>
</g>
<!-- GroupModalModule  -->
<g id="node7" class="node">
<title>GroupModalModule </title>
<polygon fill="#fb8072" stroke="#000000" points="388.8673,-252 253.1327,-252 253.1327,-216 388.8673,-216 388.8673,-252"/>
<text text-anchor="middle" x="321" y="-229.8" font-family="Times,serif" font-size="14.00" fill="#000000">GroupModalModule </text>
</g>
<!-- GroupsGridModule&#45;&gt;GroupModalModule  -->
<g id="edge6" class="edge">
<title>GroupsGridModule&#45;&gt;GroupModalModule </title>
<path fill="none" stroke="#000000" stroke-dasharray="5,2" d="M321,-187.1061C321,-187.1061 321,-205.991 321,-205.991"/>
<polygon fill="#000000" stroke="#000000" points="317.5001,-205.9909 321,-215.991 324.5001,-205.991 317.5001,-205.9909"/>
</g>
<!-- GroupsGridComponent  -->
<g id="node8" class="node">
<title>GroupsGridComponent </title>
<polygon fill="#fb8072" stroke="#000000" points="234.7023,-252 83.2977,-252 83.2977,-216 234.7023,-216 234.7023,-252"/>
<text text-anchor="middle" x="159" y="-229.8" font-family="Times,serif" font-size="14.00" fill="#000000">GroupsGridComponent </text>
</g>
<!-- GroupsGridModule&#45;&gt;GroupsGridComponent  -->
<g id="edge7" class="edge">
<title>GroupsGridModule&#45;&gt;GroupsGridComponent </title>
<path fill="none" stroke="#000000" stroke-dasharray="5,2" d="M257.565,-175C229.3809,-175 202.4588,-175 202.4588,-175 202.4588,-175 202.4588,-205.9775 202.4588,-205.9775"/>
<polygon fill="#000000" stroke="#000000" points="198.9589,-205.9774 202.4588,-215.9775 205.9589,-205.9775 198.9589,-205.9774"/>
</g>
<!-- EntityGridModule -->
<g id="node3" class="node">
<title>EntityGridModule</title>
<polygon fill="#8dd3c7" stroke="#000000" points="439.9328,-122 436.9328,-126 415.9328,-126 412.9328,-122 320.0672,-122 320.0672,-86 439.9328,-86 439.9328,-122"/>
<text text-anchor="middle" x="380" y="-99.8" font-family="Times,serif" font-size="14.00" fill="#000000">EntityGridModule</text>
</g>
<!-- EntityGridModule&#45;&gt;GroupsGridModule -->
<g id="edge2" class="edge">
<title>EntityGridModule&#45;&gt;GroupsGridModule</title>
<path fill="none" stroke="#000000" d="M352.2469,-122.1061C352.2469,-122.1061 352.2469,-140.991 352.2469,-140.991"/>
<polygon fill="#000000" stroke="#000000" points="348.7469,-140.9909 352.2469,-150.991 355.7469,-140.991 348.7469,-140.9909"/>
</g>
<!-- GroupModalModule -->
<g id="node4" class="node">
<title>GroupModalModule</title>
<polygon fill="#8dd3c7" stroke="#000000" points="301.8669,-122 298.8669,-126 277.8669,-126 274.8669,-122 170.1331,-122 170.1331,-86 301.8669,-86 301.8669,-122"/>
<text text-anchor="middle" x="236" y="-99.8" font-family="Times,serif" font-size="14.00" fill="#000000">GroupModalModule</text>
</g>
<!-- GroupModalModule&#45;&gt;GroupsGridModule -->
<g id="edge3" class="edge">
<title>GroupModalModule&#45;&gt;GroupsGridModule</title>
<path fill="none" stroke="#000000" d="M279.8619,-122.1061C279.8619,-122.1061 279.8619,-140.991 279.8619,-140.991"/>
<polygon fill="#000000" stroke="#000000" points="276.3619,-140.9909 279.8619,-150.991 283.3619,-140.991 276.3619,-140.9909"/>
</g>
<!-- WebModalsModule -->
<g id="node5" class="node">
<title>WebModalsModule</title>
<polygon fill="#8dd3c7" stroke="#000000" points="151.9734,-122 148.9734,-126 127.9734,-126 124.9734,-122 24.0266,-122 24.0266,-86 151.9734,-86 151.9734,-122"/>
<text text-anchor="middle" x="88" y="-99.8" font-family="Times,serif" font-size="14.00" fill="#000000">WebModalsModule</text>
</g>
<!-- WebModalsModule&#45;&gt;GroupsGridModule -->
<g id="edge4" class="edge">
<title>WebModalsModule&#45;&gt;GroupsGridModule</title>
<path fill="none" stroke="#000000" d="M117.5679,-122.0225C117.5679,-139.3734 117.5679,-163 117.5679,-163 117.5679,-163 247.7479,-163 247.7479,-163"/>
<polygon fill="#000000" stroke="#000000" points="247.748,-166.5001 257.7479,-163 247.7479,-159.5001 247.748,-166.5001"/>
</g>
</g>
</svg>
