<?xml version="1.0" encoding="UTF-8" standalone="no"?>
<!DOCTYPE svg PUBLIC "-//W3C//DTD SVG 1.1//EN"
 "http://www.w3.org/Graphics/SVG/1.1/DTD/svg11.dtd">
<!-- Generated by graphviz version 2.40.1 (20161225.0304)
 -->
<!-- Title: dependencies Pages: 1 -->
<svg width="504pt" height="284pt"
 viewBox="0.00 0.00 504.00 284.00" xmlns="http://www.w3.org/2000/svg" xmlns:xlink="http://www.w3.org/1999/xlink">
<g id="graph0" class="graph" transform="scale(1 1) rotate(0) translate(4 280)">
<title>dependencies</title>
<polygon fill="#ffffff" stroke="transparent" points="-4,4 -4,-280 500,-280 500,4 -4,4"/>
<text text-anchor="start" x="227.0091" y="-42.4" font-family="sans-serif" font-weight="bold" font-size="14.00" fill="#000000">Legend</text>
<polygon fill="#ffffb3" stroke="transparent" points="14,-10 14,-30 34,-30 34,-10 14,-10"/>
<text text-anchor="start" x="37.629" y="-15.4" font-family="sans-serif" font-size="14.00" fill="#000000"> &#160;Declarations</text>
<polygon fill="#8dd3c7" stroke="transparent" points="127,-10 127,-30 147,-30 147,-10 127,-10"/>
<text text-anchor="start" x="150.7251" y="-15.4" font-family="sans-serif" font-size="14.00" fill="#000000"> &#160;Module</text>
<polygon fill="#80b1d3" stroke="transparent" points="213,-10 213,-30 233,-30 233,-10 213,-10"/>
<text text-anchor="start" x="236.7812" y="-15.4" font-family="sans-serif" font-size="14.00" fill="#000000"> &#160;Bootstrap</text>
<polygon fill="#fdb462" stroke="transparent" points="310,-10 310,-30 330,-30 330,-10 310,-10"/>
<text text-anchor="start" x="333.6732" y="-15.4" font-family="sans-serif" font-size="14.00" fill="#000000"> &#160;Providers</text>
<polygon fill="#fb8072" stroke="transparent" points="406,-10 406,-30 426,-30 426,-10 406,-10"/>
<text text-anchor="start" x="429.7258" y="-15.4" font-family="sans-serif" font-size="14.00" fill="#000000"> &#160;Exports</text>
<g id="clust1" class="cluster">
<title>cluster_GroupsGridModule</title>
<polygon fill="none" stroke="#000000" stroke-dasharray="1,5" points="9,-70 9,-268 487,-268 487,-70 9,-70"/>
</g>
<g id="clust2" class="cluster">
<title>cluster_GroupsGridModule_declarations</title>
<polygon fill="none" stroke="#000000" points="315,-78 315,-130 479,-130 479,-78 315,-78"/>
</g>
<g id="clust4" class="cluster">
<title>cluster_GroupsGridModule_imports</title>
<polygon fill="none" stroke="#000000" points="21,-78 21,-130 307,-130 307,-78 21,-78"/>
</g>
<g id="clust5" class="cluster">
<title>cluster_GroupsGridModule_exports</title>
<polygon fill="none" stroke="#000000" points="17,-208 17,-260 479,-260 479,-208 17,-208"/>
</g>
<!-- GroupsGridComponent -->
<g id="node1" class="node">
<title>GroupsGridComponent</title>
<polygon fill="#ffffb3" stroke="#000000" points="471.2021,-122 322.7979,-122 322.7979,-86 471.2021,-86 471.2021,-122"/>
<text text-anchor="middle" x="397" y="-99.8" font-family="Times,serif" font-size="14.00" fill="#000000">GroupsGridComponent</text>
</g>
<!-- GroupsGridModule -->
<g id="node2" class="node">
<title>GroupsGridModule</title>
<polygon fill="#8dd3c7" stroke="#000000" points="314.4201,-187 311.4201,-191 290.4201,-191 287.4201,-187 187.5799,-187 187.5799,-151 314.4201,-151 314.4201,-187"/>
<text text-anchor="middle" x="251" y="-164.8" font-family="Times,serif" font-size="14.00" fill="#000000">GroupsGridModule</text>
</g>
<!-- GroupsGridComponent&#45;&gt;GroupsGridModule -->
<g id="edge1" class="edge">
<title>GroupsGridComponent&#45;&gt;GroupsGridModule</title>
<path fill="none" stroke="#000000" d="M326.7912,-122.0225C326.7912,-139.3734 326.7912,-163 326.7912,-163 326.7912,-163 324.2758,-163 324.2758,-163"/>
<polygon fill="#000000" stroke="#000000" points="324.2759,-159.5001 314.2758,-163 324.2758,-166.5001 324.2759,-159.5001"/>
</g>
<!-- EntityGridModule  -->
<g id="node5" class="node">
<title>EntityGridModule </title>
<polygon fill="#fb8072" stroke="#000000" points="471.432,-252 348.568,-252 348.568,-216 471.432,-216 471.432,-252"/>
<text text-anchor="middle" x="410" y="-229.8" font-family="Times,serif" font-size="14.00" fill="#000000">EntityGridModule </text>
</g>
<!-- GroupsGridModule&#45;&gt;EntityGridModule  -->
<g id="edge4" class="edge">
<title>GroupsGridModule&#45;&gt;EntityGridModule </title>
<path fill="none" stroke="#000000" stroke-dasharray="5,2" d="M314.2252,-175C358.5143,-175 409.8175,-175 409.8175,-175 409.8175,-175 409.8175,-205.9775 409.8175,-205.9775"/>
<polygon fill="#000000" stroke="#000000" points="406.3176,-205.9774 409.8175,-215.9775 413.3176,-205.9775 406.3176,-205.9774"/>
</g>
<!-- GroupModalModule  -->
<g id="node6" class="node">
<title>GroupModalModule </title>
<polygon fill="#fb8072" stroke="#000000" points="330.8673,-252 195.1327,-252 195.1327,-216 330.8673,-216 330.8673,-252"/>
<text text-anchor="middle" x="263" y="-229.8" font-family="Times,serif" font-size="14.00" fill="#000000">GroupModalModule </text>
</g>
<!-- GroupsGridModule&#45;&gt;GroupModalModule  -->
<g id="edge5" class="edge">
<title>GroupsGridModule&#45;&gt;GroupModalModule </title>
<path fill="none" stroke="#000000" stroke-dasharray="5,2" d="M254.7632,-187.1061C254.7632,-187.1061 254.7632,-205.991 254.7632,-205.991"/>
<polygon fill="#000000" stroke="#000000" points="251.2632,-205.9909 254.7632,-215.991 258.2632,-205.991 251.2632,-205.9909"/>
</g>
<!-- GroupsGridComponent  -->
<g id="node7" class="node">
<title>GroupsGridComponent </title>
<polygon fill="#fb8072" stroke="#000000" points="176.7023,-252 25.2977,-252 25.2977,-216 176.7023,-216 176.7023,-252"/>
<text text-anchor="middle" x="101" y="-229.8" font-family="Times,serif" font-size="14.00" fill="#000000">GroupsGridComponent </text>
</g>
<!-- GroupsGridModule&#45;&gt;GroupsGridComponent  -->
<g id="edge6" class="edge">
<title>GroupsGridModule&#45;&gt;GroupsGridComponent </title>
<path fill="none" stroke="#000000" stroke-dasharray="5,2" d="M191.5535,-187.1061C191.5535,-206.3391 191.5535,-234 191.5535,-234 191.5535,-234 187.0045,-234 187.0045,-234"/>
<polygon fill="#000000" stroke="#000000" points="187.0045,-230.5001 177.0045,-234 187.0044,-237.5001 187.0045,-230.5001"/>
</g>
<!-- EntityGridModule -->
<g id="node3" class="node">
<title>EntityGridModule</title>
<polygon fill="#8dd3c7" stroke="#000000" points="298.9328,-122 295.9328,-126 274.9328,-126 271.9328,-122 179.0672,-122 179.0672,-86 298.9328,-86 298.9328,-122"/>
<text text-anchor="middle" x="239" y="-99.8" font-family="Times,serif" font-size="14.00" fill="#000000">EntityGridModule</text>
</g>
<!-- EntityGridModule&#45;&gt;GroupsGridModule -->
<g id="edge2" class="edge">
<title>EntityGridModule&#45;&gt;GroupsGridModule</title>
<path fill="none" stroke="#000000" d="M243.2532,-122.1061C243.2532,-122.1061 243.2532,-140.991 243.2532,-140.991"/>
<polygon fill="#000000" stroke="#000000" points="239.7532,-140.9909 243.2532,-150.991 246.7532,-140.991 239.7532,-140.9909"/>
</g>
<!-- GroupModalModule -->
<g id="node4" class="node">
<title>GroupModalModule</title>
<polygon fill="#8dd3c7" stroke="#000000" points="160.8669,-122 157.8669,-126 136.8669,-126 133.8669,-122 29.1331,-122 29.1331,-86 160.8669,-86 160.8669,-122"/>
<text text-anchor="middle" x="95" y="-99.8" font-family="Times,serif" font-size="14.00" fill="#000000">GroupModalModule</text>
</g>
<!-- GroupModalModule&#45;&gt;GroupsGridModule -->
<g id="edge3" class="edge">
<title>GroupModalModule&#45;&gt;GroupsGridModule</title>
<path fill="none" stroke="#000000" d="M95,-122.1061C95,-141.3391 95,-169 95,-169 95,-169 177.5488,-169 177.5488,-169"/>
<polygon fill="#000000" stroke="#000000" points="177.5489,-172.5001 187.5488,-169 177.5488,-165.5001 177.5489,-172.5001"/>
</g>
</g>
</svg>
