<?xml version="1.0" encoding="UTF-8" standalone="no"?>
<!DOCTYPE svg PUBLIC "-//W3C//DTD SVG 1.1//EN"
 "http://www.w3.org/Graphics/SVG/1.1/DTD/svg11.dtd">
<!-- Generated by graphviz version 2.40.1 (20161225.0304)
 -->
<!-- Title: dependencies Pages: 1 -->
<svg width="504pt" height="211pt"
 viewBox="0.00 0.00 504.00 211.00" xmlns="http://www.w3.org/2000/svg" xmlns:xlink="http://www.w3.org/1999/xlink">
<g id="graph0" class="graph" transform="scale(1 1) rotate(0) translate(4 207)">
<title>dependencies</title>
<polygon fill="#ffffff" stroke="transparent" points="-4,4 -4,-207 500,-207 500,4 -4,4"/>
<text text-anchor="start" x="227.0091" y="-42.4" font-family="sans-serif" font-weight="bold" font-size="14.00" fill="#000000">Legend</text>
<polygon fill="#ffffb3" stroke="transparent" points="14,-10 14,-30 34,-30 34,-10 14,-10"/>
<text text-anchor="start" x="37.629" y="-15.4" font-family="sans-serif" font-size="14.00" fill="#000000"> &#160;Declarations</text>
<polygon fill="#8dd3c7" stroke="transparent" points="127,-10 127,-30 147,-30 147,-10 127,-10"/>
<text text-anchor="start" x="150.7251" y="-15.4" font-family="sans-serif" font-size="14.00" fill="#000000"> &#160;Module</text>
<polygon fill="#80b1d3" stroke="transparent" points="213,-10 213,-30 233,-30 233,-10 213,-10"/>
<text text-anchor="start" x="236.7812" y="-15.4" font-family="sans-serif" font-size="14.00" fill="#000000"> &#160;Bootstrap</text>
<polygon fill="#fdb462" stroke="transparent" points="310,-10 310,-30 330,-30 330,-10 310,-10"/>
<text text-anchor="start" x="333.6732" y="-15.4" font-family="sans-serif" font-size="14.00" fill="#000000"> &#160;Providers</text>
<polygon fill="#fb8072" stroke="transparent" points="406,-10 406,-30 426,-30 426,-10 406,-10"/>
<text text-anchor="start" x="429.7258" y="-15.4" font-family="sans-serif" font-size="14.00" fill="#000000"> &#160;Exports</text>
<g id="clust1" class="cluster">
<title>cluster_PermissionsFrameModule</title>
<polygon fill="none" stroke="#000000" stroke-dasharray="1,5" points="79,-70 79,-195 417,-195 417,-70 79,-70"/>
</g>
<g id="clust2" class="cluster">
<title>cluster_PermissionsFrameModule_declarations</title>
<polygon fill="none" stroke="#000000" points="209,-78 209,-130 409,-130 409,-78 209,-78"/>
</g>
<g id="clust4" class="cluster">
<title>cluster_PermissionsFrameModule_imports</title>
<polygon fill="none" stroke="#000000" points="87,-78 87,-130 201,-130 201,-78 87,-78"/>
</g>
<!-- PermissionsFrameComponent -->
<g id="node1" class="node">
<title>PermissionsFrameComponent</title>
<polygon fill="#ffffb3" stroke="#000000" points="401.259,-122 216.741,-122 216.741,-86 401.259,-86 401.259,-122"/>
<text text-anchor="middle" x="309" y="-99.8" font-family="Times,serif" font-size="14.00" fill="#000000">PermissionsFrameComponent</text>
</g>
<!-- PermissionsFrameModule -->
<g id="node2" class="node">
<title>PermissionsFrameModule</title>
<polygon fill="#8dd3c7" stroke="#000000" points="319.4762,-187 316.4762,-191 295.4762,-191 292.4762,-187 156.5238,-187 156.5238,-151 319.4762,-151 319.4762,-187"/>
<text text-anchor="middle" x="238" y="-164.8" font-family="Times,serif" font-size="14.00" fill="#000000">PermissionsFrameModule</text>
</g>
<!-- PermissionsFrameComponent&#45;&gt;PermissionsFrameModule -->
<g id="edge1" class="edge">
<title>PermissionsFrameComponent&#45;&gt;PermissionsFrameModule</title>
<path fill="none" stroke="#000000" d="M268.0544,-122.1061C268.0544,-122.1061 268.0544,-140.991 268.0544,-140.991"/>
<polygon fill="#000000" stroke="#000000" points="264.5544,-140.9909 268.0544,-150.991 271.5544,-140.991 264.5544,-140.9909"/>
</g>
<!-- SharedModule -->
<g id="node3" class="node">
<title>SharedModule</title>
<polygon fill="#8dd3c7" stroke="#000000" points="193.4231,-122 190.4231,-126 169.4231,-126 166.4231,-122 94.5769,-122 94.5769,-86 193.4231,-86 193.4231,-122"/>
<text text-anchor="middle" x="144" y="-99.8" font-family="Times,serif" font-size="14.00" fill="#000000">SharedModule</text>
</g>
<!-- SharedModule&#45;&gt;PermissionsFrameModule -->
<g id="edge2" class="edge">
<title>SharedModule&#45;&gt;PermissionsFrameModule</title>
<path fill="none" stroke="#000000" d="M174.8615,-122.1061C174.8615,-122.1061 174.8615,-140.991 174.8615,-140.991"/>
<polygon fill="#000000" stroke="#000000" points="171.3616,-140.9909 174.8615,-150.991 178.3616,-140.991 171.3616,-140.9909"/>
</g>
</g>
</svg>
