<?xml version="1.0" encoding="UTF-8" standalone="no"?>
<!DOCTYPE svg PUBLIC "-//W3C//DTD SVG 1.1//EN"
 "http://www.w3.org/Graphics/SVG/1.1/DTD/svg11.dtd">
<!-- Generated by graphviz version 2.40.1 (20161225.0304)
 -->
<!-- Title: dependencies Pages: 1 -->
<svg width="801pt" height="284pt"
 viewBox="0.00 0.00 801.00 284.00" xmlns="http://www.w3.org/2000/svg" xmlns:xlink="http://www.w3.org/1999/xlink">
<g id="graph0" class="graph" transform="scale(1 1) rotate(0) translate(4 280)">
<title>dependencies</title>
<polygon fill="#ffffff" stroke="transparent" points="-4,4 -4,-280 797,-280 797,4 -4,4"/>
<text text-anchor="start" x="375.5091" y="-42.4" font-family="sans-serif" font-weight="bold" font-size="14.00" fill="#000000">Legend</text>
<polygon fill="#ffffb3" stroke="transparent" points="162.5,-10 162.5,-30 182.5,-30 182.5,-10 162.5,-10"/>
<text text-anchor="start" x="186.129" y="-15.4" font-family="sans-serif" font-size="14.00" fill="#000000"> &#160;Declarations</text>
<polygon fill="#8dd3c7" stroke="transparent" points="275.5,-10 275.5,-30 295.5,-30 295.5,-10 275.5,-10"/>
<text text-anchor="start" x="299.2251" y="-15.4" font-family="sans-serif" font-size="14.00" fill="#000000"> &#160;Module</text>
<polygon fill="#80b1d3" stroke="transparent" points="361.5,-10 361.5,-30 381.5,-30 381.5,-10 361.5,-10"/>
<text text-anchor="start" x="385.2812" y="-15.4" font-family="sans-serif" font-size="14.00" fill="#000000"> &#160;Bootstrap</text>
<polygon fill="#fdb462" stroke="transparent" points="458.5,-10 458.5,-30 478.5,-30 478.5,-10 458.5,-10"/>
<text text-anchor="start" x="482.1732" y="-15.4" font-family="sans-serif" font-size="14.00" fill="#000000"> &#160;Providers</text>
<polygon fill="#fb8072" stroke="transparent" points="554.5,-10 554.5,-30 574.5,-30 574.5,-10 554.5,-10"/>
<text text-anchor="start" x="578.2258" y="-15.4" font-family="sans-serif" font-size="14.00" fill="#000000"> &#160;Exports</text>
<g id="clust1" class="cluster">
<title>cluster_PermissionModalModule</title>
<polygon fill="none" stroke="#000000" stroke-dasharray="1,5" points="8,-70 8,-268 785,-268 785,-70 8,-70"/>
</g>
<g id="clust2" class="cluster">
<title>cluster_PermissionModalModule_declarations</title>
<polygon fill="none" stroke="#000000" points="577,-78 577,-130 773,-130 773,-78 577,-78"/>
</g>
<g id="clust4" class="cluster">
<title>cluster_PermissionModalModule_imports</title>
<polygon fill="none" stroke="#000000" points="20,-78 20,-130 569,-130 569,-78 20,-78"/>
</g>
<g id="clust5" class="cluster">
<title>cluster_PermissionModalModule_exports</title>
<polygon fill="none" stroke="#000000" points="16,-208 16,-260 777,-260 777,-208 16,-208"/>
</g>
<!-- PermissionModalComponent -->
<g id="node1" class="node">
<title>PermissionModalComponent</title>
<polygon fill="#ffffb3" stroke="#000000" points="765.101,-122 584.899,-122 584.899,-86 765.101,-86 765.101,-122"/>
<text text-anchor="middle" x="675" y="-99.8" font-family="Times,serif" font-size="14.00" fill="#000000">PermissionModalComponent</text>
</g>
<!-- PermissionModalModule -->
<g id="node2" class="node">
<title>PermissionModalModule</title>
<polygon fill="#8dd3c7" stroke="#000000" points="471.3187,-187 468.3187,-191 447.3187,-191 444.3187,-187 312.6813,-187 312.6813,-151 471.3187,-151 471.3187,-187"/>
<text text-anchor="middle" x="392" y="-164.8" font-family="Times,serif" font-size="14.00" fill="#000000">PermissionModalModule</text>
</g>
<!-- PermissionModalComponent&#45;&gt;PermissionModalModule -->
<g id="edge1" class="edge">
<title>PermissionModalComponent&#45;&gt;PermissionModalModule</title>
<path fill="none" stroke="#000000" d="M594.1641,-122.0225C594.1641,-139.3734 594.1641,-163 594.1641,-163 594.1641,-163 481.3204,-163 481.3204,-163"/>
<polygon fill="#000000" stroke="#000000" points="481.3204,-159.5001 471.3204,-163 481.3203,-166.5001 481.3204,-159.5001"/>
</g>
<!-- ContentTypeInputModule  -->
<g id="node6" class="node">
<title>ContentTypeInputModule </title>
<polygon fill="#fb8072" stroke="#000000" points="768.7009,-252 603.2991,-252 603.2991,-216 768.7009,-216 768.7009,-252"/>
<text text-anchor="middle" x="686" y="-229.8" font-family="Times,serif" font-size="14.00" fill="#000000">ContentTypeInputModule </text>
</g>
<!-- PermissionModalModule&#45;&gt;ContentTypeInputModule  -->
<g id="edge5" class="edge">
<title>PermissionModalModule&#45;&gt;ContentTypeInputModule </title>
<path fill="none" stroke="#000000" stroke-dasharray="5,2" d="M471.4318,-175C557.9284,-175 684.1001,-175 684.1001,-175 684.1001,-175 684.1001,-205.9775 684.1001,-205.9775"/>
<polygon fill="#000000" stroke="#000000" points="680.6002,-205.9774 684.1001,-215.9775 687.6002,-205.9775 680.6002,-205.9774"/>
</g>
<!-- ContentTypeSelectModule  -->
<g id="node7" class="node">
<title>ContentTypeSelectModule </title>
<polygon fill="#fb8072" stroke="#000000" points="585.3574,-252 414.6426,-252 414.6426,-216 585.3574,-216 585.3574,-252"/>
<text text-anchor="middle" x="500" y="-229.8" font-family="Times,serif" font-size="14.00" fill="#000000">ContentTypeSelectModule </text>
</g>
<!-- PermissionModalModule&#45;&gt;ContentTypeSelectModule  -->
<g id="edge6" class="edge">
<title>PermissionModalModule&#45;&gt;ContentTypeSelectModule </title>
<path fill="none" stroke="#000000" stroke-dasharray="5,2" d="M442.9904,-187.1061C442.9904,-187.1061 442.9904,-205.991 442.9904,-205.991"/>
<polygon fill="#000000" stroke="#000000" points="439.4904,-205.9909 442.9904,-215.991 446.4904,-205.991 439.4904,-205.9909"/>
</g>
<!-- PermissionModalComponent  -->
<g id="node8" class="node">
<title>PermissionModalComponent </title>
<polygon fill="#fb8072" stroke="#000000" points="396.6014,-252 213.3986,-252 213.3986,-216 396.6014,-216 396.6014,-252"/>
<text text-anchor="middle" x="305" y="-229.8" font-family="Times,serif" font-size="14.00" fill="#000000">PermissionModalComponent </text>
</g>
<!-- PermissionModalModule&#45;&gt;PermissionModalComponent  -->
<g id="edge7" class="edge">
<title>PermissionModalModule&#45;&gt;PermissionModalComponent </title>
<path fill="none" stroke="#000000" stroke-dasharray="5,2" d="M354.8207,-187.1061C354.8207,-187.1061 354.8207,-205.991 354.8207,-205.991"/>
<polygon fill="#000000" stroke="#000000" points="351.3207,-205.9909 354.8207,-215.991 358.3207,-205.991 351.3207,-205.9909"/>
</g>
<!-- PromptFormModalModule  -->
<g id="node9" class="node">
<title>PromptFormModalModule </title>
<polygon fill="#fb8072" stroke="#000000" points="195.6579,-252 24.3421,-252 24.3421,-216 195.6579,-216 195.6579,-252"/>
<text text-anchor="middle" x="110" y="-229.8" font-family="Times,serif" font-size="14.00" fill="#000000">PromptFormModalModule </text>
</g>
<!-- PermissionModalModule&#45;&gt;PromptFormModalModule  -->
<g id="edge8" class="edge">
<title>PermissionModalModule&#45;&gt;PromptFormModalModule </title>
<path fill="none" stroke="#000000" stroke-dasharray="5,2" d="M312.6756,-175C221.4096,-175 83.9737,-175 83.9737,-175 83.9737,-175 83.9737,-205.9775 83.9737,-205.9775"/>
<polygon fill="#000000" stroke="#000000" points="80.4738,-205.9774 83.9737,-215.9775 87.4738,-205.9775 80.4738,-205.9774"/>
</g>
<!-- ContentTypeInputModule -->
<g id="node3" class="node">
<title>ContentTypeInputModule</title>
<polygon fill="#8dd3c7" stroke="#000000" points="561.2007,-122 558.2007,-126 537.2007,-126 534.2007,-122 398.7993,-122 398.7993,-86 561.2007,-86 561.2007,-122"/>
<text text-anchor="middle" x="480" y="-99.8" font-family="Times,serif" font-size="14.00" fill="#000000">ContentTypeInputModule</text>
</g>
<!-- ContentTypeInputModule&#45;&gt;PermissionModalModule -->
<g id="edge2" class="edge">
<title>ContentTypeInputModule&#45;&gt;PermissionModalModule</title>
<path fill="none" stroke="#000000" d="M435.0295,-122.1061C435.0295,-122.1061 435.0295,-140.991 435.0295,-140.991"/>
<polygon fill="#000000" stroke="#000000" points="431.5295,-140.9909 435.0295,-150.991 438.5295,-140.991 431.5295,-140.9909"/>
</g>
<!-- ContentTypeSelectModule -->
<g id="node4" class="node">
<title>ContentTypeSelectModule</title>
<polygon fill="#8dd3c7" stroke="#000000" points="380.3571,-122 377.3571,-126 356.3571,-126 353.3571,-122 213.6429,-122 213.6429,-86 380.3571,-86 380.3571,-122"/>
<text text-anchor="middle" x="297" y="-99.8" font-family="Times,serif" font-size="14.00" fill="#000000">ContentTypeSelectModule</text>
</g>
<!-- ContentTypeSelectModule&#45;&gt;PermissionModalModule -->
<g id="edge3" class="edge">
<title>ContentTypeSelectModule&#45;&gt;PermissionModalModule</title>
<path fill="none" stroke="#000000" d="M346.6346,-122.1061C346.6346,-122.1061 346.6346,-140.991 346.6346,-140.991"/>
<polygon fill="#000000" stroke="#000000" points="343.1347,-140.9909 346.6346,-150.991 350.1347,-140.991 343.1347,-140.9909"/>
</g>
<!-- PromptFormModalModule -->
<g id="node5" class="node">
<title>PromptFormModalModule</title>
<polygon fill="#8dd3c7" stroke="#000000" points="195.6581,-122 192.6581,-126 171.6581,-126 168.6581,-122 28.3419,-122 28.3419,-86 195.6581,-86 195.6581,-122"/>
<text text-anchor="middle" x="112" y="-99.8" font-family="Times,serif" font-size="14.00" fill="#000000">PromptFormModalModule</text>
</g>
<!-- PromptFormModalModule&#45;&gt;PermissionModalModule -->
<g id="edge4" class="edge">
<title>PromptFormModalModule&#45;&gt;PermissionModalModule</title>
<path fill="none" stroke="#000000" d="M139.7763,-122.0225C139.7763,-139.3734 139.7763,-163 139.7763,-163 139.7763,-163 302.541,-163 302.541,-163"/>
<polygon fill="#000000" stroke="#000000" points="302.5411,-166.5001 312.541,-163 302.541,-159.5001 302.5411,-166.5001"/>
</g>
</g>
</svg>
