<?xml version="1.0" encoding="UTF-8" standalone="no"?>
<!DOCTYPE svg PUBLIC "-//W3C//DTD SVG 1.1//EN"
 "http://www.w3.org/Graphics/SVG/1.1/DTD/svg11.dtd">
<!-- Generated by graphviz version 2.40.1 (20161225.0304)
 -->
<!-- Title: dependencies Pages: 1 -->
<svg width="608pt" height="284pt"
 viewBox="0.00 0.00 608.00 284.00" xmlns="http://www.w3.org/2000/svg" xmlns:xlink="http://www.w3.org/1999/xlink">
<g id="graph0" class="graph" transform="scale(1 1) rotate(0) translate(4 280)">
<title>dependencies</title>
<polygon fill="#ffffff" stroke="transparent" points="-4,4 -4,-280 604,-280 604,4 -4,4"/>
<text text-anchor="start" x="279.0091" y="-42.4" font-family="sans-serif" font-weight="bold" font-size="14.00" fill="#000000">Legend</text>
<polygon fill="#ffffb3" stroke="transparent" points="66,-10 66,-30 86,-30 86,-10 66,-10"/>
<text text-anchor="start" x="89.629" y="-15.4" font-family="sans-serif" font-size="14.00" fill="#000000"> &#160;Declarations</text>
<polygon fill="#8dd3c7" stroke="transparent" points="179,-10 179,-30 199,-30 199,-10 179,-10"/>
<text text-anchor="start" x="202.7251" y="-15.4" font-family="sans-serif" font-size="14.00" fill="#000000"> &#160;Module</text>
<polygon fill="#80b1d3" stroke="transparent" points="265,-10 265,-30 285,-30 285,-10 265,-10"/>
<text text-anchor="start" x="288.7812" y="-15.4" font-family="sans-serif" font-size="14.00" fill="#000000"> &#160;Bootstrap</text>
<polygon fill="#fdb462" stroke="transparent" points="362,-10 362,-30 382,-30 382,-10 362,-10"/>
<text text-anchor="start" x="385.6732" y="-15.4" font-family="sans-serif" font-size="14.00" fill="#000000"> &#160;Providers</text>
<polygon fill="#fb8072" stroke="transparent" points="458,-10 458,-30 478,-30 478,-10 458,-10"/>
<text text-anchor="start" x="481.7258" y="-15.4" font-family="sans-serif" font-size="14.00" fill="#000000"> &#160;Exports</text>
<g id="clust1" class="cluster">
<title>cluster_GroupModalModule</title>
<polygon fill="none" stroke="#000000" stroke-dasharray="1,5" points="8,-70 8,-268 592,-268 592,-70 8,-70"/>
</g>
<g id="clust2" class="cluster">
<title>cluster_GroupModalModule_declarations</title>
<polygon fill="none" stroke="#000000" points="414,-78 414,-130 584,-130 584,-78 414,-78"/>
</g>
<g id="clust4" class="cluster">
<title>cluster_GroupModalModule_imports</title>
<polygon fill="none" stroke="#000000" points="16,-78 16,-130 406,-130 406,-78 16,-78"/>
</g>
<g id="clust5" class="cluster">
<title>cluster_GroupModalModule_exports</title>
<polygon fill="none" stroke="#000000" points="119,-208 119,-260 482,-260 482,-208 119,-208"/>
</g>
<!-- GroupModalComponent -->
<g id="node1" class="node">
<title>GroupModalComponent</title>
<polygon fill="#ffffb3" stroke="#000000" points="575.6498,-122 422.3502,-122 422.3502,-86 575.6498,-86 575.6498,-122"/>
<text text-anchor="middle" x="499" y="-99.8" font-family="Times,serif" font-size="14.00" fill="#000000">GroupModalComponent</text>
</g>
<!-- GroupModalModule -->
<g id="node2" class="node">
<title>GroupModalModule</title>
<polygon fill="#8dd3c7" stroke="#000000" points="369.8669,-187 366.8669,-191 345.8669,-191 342.8669,-187 238.1331,-187 238.1331,-151 369.8669,-151 369.8669,-187"/>
<text text-anchor="middle" x="304" y="-164.8" font-family="Times,serif" font-size="14.00" fill="#000000">GroupModalModule</text>
</g>
<!-- GroupModalComponent&#45;&gt;GroupModalModule -->
<g id="edge1" class="edge">
<title>GroupModalComponent&#45;&gt;GroupModalModule</title>
<path fill="none" stroke="#000000" d="M447.875,-122.1061C447.875,-141.3391 447.875,-169 447.875,-169 447.875,-169 380.0423,-169 380.0423,-169"/>
<polygon fill="#000000" stroke="#000000" points="380.0423,-165.5001 370.0423,-169 380.0422,-172.5001 380.0423,-165.5001"/>
</g>
<!-- GroupModalComponent  -->
<g id="node5" class="node">
<title>GroupModalComponent </title>
<polygon fill="#fb8072" stroke="#000000" points="473.6495,-252 316.3505,-252 316.3505,-216 473.6495,-216 473.6495,-252"/>
<text text-anchor="middle" x="395" y="-229.8" font-family="Times,serif" font-size="14.00" fill="#000000">GroupModalComponent </text>
</g>
<!-- GroupModalModule&#45;&gt;GroupModalComponent  -->
<g id="edge4" class="edge">
<title>GroupModalModule&#45;&gt;GroupModalComponent </title>
<path fill="none" stroke="#000000" stroke-dasharray="5,2" d="M343.1794,-187.1061C343.1794,-187.1061 343.1794,-205.991 343.1794,-205.991"/>
<polygon fill="#000000" stroke="#000000" points="339.6794,-205.9909 343.1794,-215.991 346.6794,-205.991 339.6794,-205.9909"/>
</g>
<!-- PromptFormModalModule  -->
<g id="node6" class="node">
<title>PromptFormModalModule </title>
<polygon fill="#fb8072" stroke="#000000" points="298.6579,-252 127.3421,-252 127.3421,-216 298.6579,-216 298.6579,-252"/>
<text text-anchor="middle" x="213" y="-229.8" font-family="Times,serif" font-size="14.00" fill="#000000">PromptFormModalModule </text>
</g>
<!-- GroupModalModule&#45;&gt;PromptFormModalModule  -->
<g id="edge5" class="edge">
<title>GroupModalModule&#45;&gt;PromptFormModalModule </title>
<path fill="none" stroke="#000000" stroke-dasharray="5,2" d="M268.3228,-187.1061C268.3228,-187.1061 268.3228,-205.991 268.3228,-205.991"/>
<polygon fill="#000000" stroke="#000000" points="264.8228,-205.9909 268.3228,-215.991 271.8228,-205.991 264.8228,-205.9909"/>
</g>
<!-- GroupPermissionsGridModule -->
<g id="node3" class="node">
<title>GroupPermissionsGridModule</title>
<polygon fill="#8dd3c7" stroke="#000000" points="398.1385,-122 395.1385,-126 374.1385,-126 371.1385,-122 209.8615,-122 209.8615,-86 398.1385,-86 398.1385,-122"/>
<text text-anchor="middle" x="304" y="-99.8" font-family="Times,serif" font-size="14.00" fill="#000000">GroupPermissionsGridModule</text>
</g>
<!-- GroupPermissionsGridModule&#45;&gt;GroupModalModule -->
<g id="edge2" class="edge">
<title>GroupPermissionsGridModule&#45;&gt;GroupModalModule</title>
<path fill="none" stroke="#000000" d="M304,-122.1061C304,-122.1061 304,-140.991 304,-140.991"/>
<polygon fill="#000000" stroke="#000000" points="300.5001,-140.9909 304,-150.991 307.5001,-140.991 300.5001,-140.9909"/>
</g>
<!-- PromptFormModalModule -->
<g id="node4" class="node">
<title>PromptFormModalModule</title>
<polygon fill="#8dd3c7" stroke="#000000" points="191.6581,-122 188.6581,-126 167.6581,-126 164.6581,-122 24.3419,-122 24.3419,-86 191.6581,-86 191.6581,-122"/>
<text text-anchor="middle" x="108" y="-99.8" font-family="Times,serif" font-size="14.00" fill="#000000">PromptFormModalModule</text>
</g>
<!-- PromptFormModalModule&#45;&gt;GroupModalModule -->
<g id="edge3" class="edge">
<title>PromptFormModalModule&#45;&gt;GroupModalModule</title>
<path fill="none" stroke="#000000" d="M159.625,-122.1061C159.625,-141.3391 159.625,-169 159.625,-169 159.625,-169 227.7282,-169 227.7282,-169"/>
<polygon fill="#000000" stroke="#000000" points="227.7283,-172.5001 237.7282,-169 227.7282,-165.5001 227.7283,-172.5001"/>
</g>
</g>
</svg>
