<?xml version="1.0" encoding="UTF-8" standalone="no"?>
<!DOCTYPE svg PUBLIC "-//W3C//DTD SVG 1.1//EN"
 "http://www.w3.org/Graphics/SVG/1.1/DTD/svg11.dtd">
<!-- Generated by graphviz version 2.40.1 (20161225.0304)
 -->
<!-- Title: dependencies Pages: 1 -->
<svg width="504pt" height="211pt"
 viewBox="0.00 0.00 504.00 211.00" xmlns="http://www.w3.org/2000/svg" xmlns:xlink="http://www.w3.org/1999/xlink">
<g id="graph0" class="graph" transform="scale(1 1) rotate(0) translate(4 207)">
<title>dependencies</title>
<polygon fill="#ffffff" stroke="transparent" points="-4,4 -4,-207 500,-207 500,4 -4,4"/>
<text text-anchor="start" x="227.0091" y="-42.4" font-family="sans-serif" font-weight="bold" font-size="14.00" fill="#000000">Legend</text>
<polygon fill="#ffffb3" stroke="transparent" points="14,-10 14,-30 34,-30 34,-10 14,-10"/>
<text text-anchor="start" x="37.629" y="-15.4" font-family="sans-serif" font-size="14.00" fill="#000000"> &#160;Declarations</text>
<polygon fill="#8dd3c7" stroke="transparent" points="127,-10 127,-30 147,-30 147,-10 127,-10"/>
<text text-anchor="start" x="150.7251" y="-15.4" font-family="sans-serif" font-size="14.00" fill="#000000"> &#160;Module</text>
<polygon fill="#80b1d3" stroke="transparent" points="213,-10 213,-30 233,-30 233,-10 213,-10"/>
<text text-anchor="start" x="236.7812" y="-15.4" font-family="sans-serif" font-size="14.00" fill="#000000"> &#160;Bootstrap</text>
<polygon fill="#fdb462" stroke="transparent" points="310,-10 310,-30 330,-30 330,-10 310,-10"/>
<text text-anchor="start" x="333.6732" y="-15.4" font-family="sans-serif" font-size="14.00" fill="#000000"> &#160;Providers</text>
<polygon fill="#fb8072" stroke="transparent" points="406,-10 406,-30 426,-30 426,-10 406,-10"/>
<text text-anchor="start" x="429.7258" y="-15.4" font-family="sans-serif" font-size="14.00" fill="#000000"> &#160;Exports</text>
<g id="clust1" class="cluster">
<title>cluster_AuthModalModule</title>
<polygon fill="none" stroke="#000000" stroke-dasharray="1,5" points="128,-70 128,-195 368,-195 368,-70 128,-70"/>
</g>
<g id="clust3" class="cluster">
<title>cluster_AuthModalModule_imports</title>
<polygon fill="none" stroke="#000000" points="136,-78 136,-130 360,-130 360,-78 136,-78"/>
</g>
<!-- AuthModule -->
<g id="node1" class="node">
<title>AuthModule</title>
<polygon fill="#8dd3c7" stroke="#000000" points="351.5482,-122 348.5482,-126 327.5482,-126 324.5482,-122 264.4518,-122 264.4518,-86 351.5482,-86 351.5482,-122"/>
<text text-anchor="middle" x="308" y="-99.8" font-family="Times,serif" font-size="14.00" fill="#000000">AuthModule</text>
</g>
<!-- AuthModalModule -->
<g id="node3" class="node">
<title>AuthModalModule</title>
<polygon fill="#8dd3c7" stroke="#000000" points="310.0968,-187 307.0968,-191 286.0968,-191 283.0968,-187 185.9032,-187 185.9032,-151 310.0968,-151 310.0968,-187"/>
<text text-anchor="middle" x="248" y="-164.8" font-family="Times,serif" font-size="14.00" fill="#000000">AuthModalModule</text>
</g>
<!-- AuthModule&#45;&gt;AuthModalModule -->
<g id="edge1" class="edge">
<title>AuthModule&#45;&gt;AuthModalModule</title>
<path fill="none" stroke="#000000" d="M287.1375,-122.1061C287.1375,-122.1061 287.1375,-140.991 287.1375,-140.991"/>
<polygon fill="#000000" stroke="#000000" points="283.6375,-140.9909 287.1375,-150.991 290.6375,-140.991 283.6375,-140.9909"/>
</g>
<!-- ModalsModule -->
<g id="node2" class="node">
<title>ModalsModule</title>
<polygon fill="#8dd3c7" stroke="#000000" points="245.5452,-122 242.5452,-126 221.5452,-126 218.5452,-122 144.4548,-122 144.4548,-86 245.5452,-86 245.5452,-122"/>
<text text-anchor="middle" x="195" y="-99.8" font-family="Times,serif" font-size="14.00" fill="#000000">ModalsModule</text>
</g>
<!-- ModalsModule&#45;&gt;AuthModalModule -->
<g id="edge2" class="edge">
<title>ModalsModule&#45;&gt;AuthModalModule</title>
<path fill="none" stroke="#000000" d="M215.8619,-122.1061C215.8619,-122.1061 215.8619,-140.991 215.8619,-140.991"/>
<polygon fill="#000000" stroke="#000000" points="212.3619,-140.9909 215.8619,-150.991 219.3619,-140.991 212.3619,-140.9909"/>
</g>
</g>
</svg>
