<?xml version="1.0" encoding="UTF-8" standalone="no"?>
<!DOCTYPE svg PUBLIC "-//W3C//DTD SVG 1.1//EN"
 "http://www.w3.org/Graphics/SVG/1.1/DTD/svg11.dtd">
<!-- Generated by graphviz version 2.40.1 (20161225.0304)
 -->
<!-- Title: dependencies Pages: 1 -->
<svg width="570pt" height="284pt"
 viewBox="0.00 0.00 570.00 284.00" xmlns="http://www.w3.org/2000/svg" xmlns:xlink="http://www.w3.org/1999/xlink">
<g id="graph0" class="graph" transform="scale(1 1) rotate(0) translate(4 280)">
<title>dependencies</title>
<polygon fill="#ffffff" stroke="transparent" points="-4,4 -4,-280 566,-280 566,4 -4,4"/>
<text text-anchor="start" x="260.0091" y="-42.4" font-family="sans-serif" font-weight="bold" font-size="14.00" fill="#000000">Legend</text>
<polygon fill="#ffffb3" stroke="transparent" points="47,-10 47,-30 67,-30 67,-10 47,-10"/>
<text text-anchor="start" x="70.629" y="-15.4" font-family="sans-serif" font-size="14.00" fill="#000000"> &#160;Declarations</text>
<polygon fill="#8dd3c7" stroke="transparent" points="160,-10 160,-30 180,-30 180,-10 160,-10"/>
<text text-anchor="start" x="183.7251" y="-15.4" font-family="sans-serif" font-size="14.00" fill="#000000"> &#160;Module</text>
<polygon fill="#80b1d3" stroke="transparent" points="246,-10 246,-30 266,-30 266,-10 246,-10"/>
<text text-anchor="start" x="269.7812" y="-15.4" font-family="sans-serif" font-size="14.00" fill="#000000"> &#160;Bootstrap</text>
<polygon fill="#fdb462" stroke="transparent" points="343,-10 343,-30 363,-30 363,-10 343,-10"/>
<text text-anchor="start" x="366.6732" y="-15.4" font-family="sans-serif" font-size="14.00" fill="#000000"> &#160;Providers</text>
<polygon fill="#fb8072" stroke="transparent" points="439,-10 439,-30 459,-30 459,-10 439,-10"/>
<text text-anchor="start" x="462.7258" y="-15.4" font-family="sans-serif" font-size="14.00" fill="#000000"> &#160;Exports</text>
<g id="clust1" class="cluster">
<title>cluster_GroupsGridModalModule</title>
<polygon fill="none" stroke="#000000" stroke-dasharray="1,5" points="8,-70 8,-268 554,-268 554,-70 8,-70"/>
</g>
<g id="clust2" class="cluster">
<title>cluster_GroupsGridModalModule_declarations</title>
<polygon fill="none" stroke="#000000" points="346,-78 346,-130 546,-130 546,-78 346,-78"/>
</g>
<g id="clust4" class="cluster">
<title>cluster_GroupsGridModalModule_imports</title>
<polygon fill="none" stroke="#000000" points="22,-78 22,-130 338,-130 338,-78 22,-78"/>
</g>
<g id="clust5" class="cluster">
<title>cluster_GroupsGridModalModule_exports</title>
<polygon fill="none" stroke="#000000" points="16,-208 16,-260 546,-260 546,-208 16,-208"/>
</g>
<!-- GroupsGridModalComponent -->
<g id="node1" class="node">
<title>GroupsGridModalComponent</title>
<polygon fill="#ffffb3" stroke="#000000" points="538.252,-122 353.748,-122 353.748,-86 538.252,-86 538.252,-122"/>
<text text-anchor="middle" x="446" y="-99.8" font-family="Times,serif" font-size="14.00" fill="#000000">GroupsGridModalComponent</text>
</g>
<!-- GroupsGridModalModule -->
<g id="node2" class="node">
<title>GroupsGridModalModule</title>
<polygon fill="#8dd3c7" stroke="#000000" points="340.4692,-187 337.4692,-191 316.4692,-191 313.4692,-187 177.5308,-187 177.5308,-151 340.4692,-151 340.4692,-187"/>
<text text-anchor="middle" x="259" y="-164.8" font-family="Times,serif" font-size="14.00" fill="#000000">GroupsGridModalModule</text>
</g>
<!-- GroupsGridModalComponent&#45;&gt;GroupsGridModalModule -->
<g id="edge1" class="edge">
<title>GroupsGridModalComponent&#45;&gt;GroupsGridModalModule</title>
<path fill="none" stroke="#000000" d="M353.5279,-104C342.5998,-104 335.2378,-104 335.2378,-104 335.2378,-104 335.2378,-140.8939 335.2378,-140.8939"/>
<polygon fill="#000000" stroke="#000000" points="331.7378,-140.8938 335.2378,-150.8939 338.7378,-140.8939 331.7378,-140.8938"/>
</g>
<!-- EntityGridModalModule  -->
<g id="node5" class="node">
<title>EntityGridModalModule </title>
<polygon fill="#fb8072" stroke="#000000" points="537.9825,-252 378.0175,-252 378.0175,-216 537.9825,-216 537.9825,-252"/>
<text text-anchor="middle" x="458" y="-229.8" font-family="Times,serif" font-size="14.00" fill="#000000">EntityGridModalModule </text>
</g>
<!-- GroupsGridModalModule&#45;&gt;EntityGridModalModule  -->
<g id="edge4" class="edge">
<title>GroupsGridModalModule&#45;&gt;EntityGridModalModule </title>
<path fill="none" stroke="#000000" stroke-dasharray="5,2" d="M340.5151,-169C395.4717,-169 458,-169 458,-169 458,-169 458,-205.8939 458,-205.8939"/>
<polygon fill="#000000" stroke="#000000" points="454.5001,-205.8938 458,-215.8939 461.5001,-205.8939 454.5001,-205.8938"/>
</g>
<!-- GroupsGridModalComponent  -->
<g id="node6" class="node">
<title>GroupsGridModalComponent </title>
<polygon fill="#fb8072" stroke="#000000" points="360.252,-252 171.748,-252 171.748,-216 360.252,-216 360.252,-252"/>
<text text-anchor="middle" x="266" y="-229.8" font-family="Times,serif" font-size="14.00" fill="#000000">GroupsGridModalComponent </text>
</g>
<!-- GroupsGridModalModule&#45;&gt;GroupsGridModalComponent  -->
<g id="edge5" class="edge">
<title>GroupsGridModalModule&#45;&gt;GroupsGridModalComponent </title>
<path fill="none" stroke="#000000" stroke-dasharray="5,2" d="M259,-187.1061C259,-187.1061 259,-205.991 259,-205.991"/>
<polygon fill="#000000" stroke="#000000" points="255.5001,-205.9909 259,-215.991 262.5001,-205.991 255.5001,-205.9909"/>
</g>
<!-- GroupsGridModule  -->
<g id="node7" class="node">
<title>GroupsGridModule </title>
<polygon fill="#fb8072" stroke="#000000" points="153.9194,-252 24.0806,-252 24.0806,-216 153.9194,-216 153.9194,-252"/>
<text text-anchor="middle" x="89" y="-229.8" font-family="Times,serif" font-size="14.00" fill="#000000">GroupsGridModule </text>
</g>
<!-- GroupsGridModalModule&#45;&gt;GroupsGridModule  -->
<g id="edge6" class="edge">
<title>GroupsGridModalModule&#45;&gt;GroupsGridModule </title>
<path fill="none" stroke="#000000" stroke-dasharray="5,2" d="M177.4389,-175C126.7516,-175 71.1801,-175 71.1801,-175 71.1801,-175 71.1801,-205.9775 71.1801,-205.9775"/>
<polygon fill="#000000" stroke="#000000" points="67.68,-205.9775 71.1801,-215.9775 74.68,-205.9774 67.68,-205.9775"/>
</g>
<!-- EntityGridModalModule -->
<g id="node3" class="node">
<title>EntityGridModalModule</title>
<polygon fill="#8dd3c7" stroke="#000000" points="329.9818,-122 326.9818,-126 305.9818,-126 302.9818,-122 174.0182,-122 174.0182,-86 329.9818,-86 329.9818,-122"/>
<text text-anchor="middle" x="252" y="-99.8" font-family="Times,serif" font-size="14.00" fill="#000000">EntityGridModalModule</text>
</g>
<!-- EntityGridModalModule&#45;&gt;GroupsGridModalModule -->
<g id="edge2" class="edge">
<title>EntityGridModalModule&#45;&gt;GroupsGridModalModule</title>
<path fill="none" stroke="#000000" d="M253.7532,-122.1061C253.7532,-122.1061 253.7532,-140.991 253.7532,-140.991"/>
<polygon fill="#000000" stroke="#000000" points="250.2532,-140.9909 253.7532,-150.991 257.2532,-140.991 250.2532,-140.9909"/>
</g>
<!-- GroupsGridModule -->
<g id="node4" class="node">
<title>GroupsGridModule</title>
<polygon fill="#8dd3c7" stroke="#000000" points="156.4201,-122 153.4201,-126 132.4201,-126 129.4201,-122 29.5799,-122 29.5799,-86 156.4201,-86 156.4201,-122"/>
<text text-anchor="middle" x="93" y="-99.8" font-family="Times,serif" font-size="14.00" fill="#000000">GroupsGridModule</text>
</g>
<!-- GroupsGridModule&#45;&gt;GroupsGridModalModule -->
<g id="edge3" class="edge">
<title>GroupsGridModule&#45;&gt;GroupsGridModalModule</title>
<path fill="none" stroke="#000000" d="M112.5699,-122.0225C112.5699,-139.3734 112.5699,-163 112.5699,-163 112.5699,-163 167.2225,-163 167.2225,-163"/>
<polygon fill="#000000" stroke="#000000" points="167.2226,-166.5001 177.2225,-163 167.2225,-159.5001 167.2226,-166.5001"/>
</g>
</g>
</svg>
