<?xml version="1.0" encoding="UTF-8" standalone="no"?>
<!DOCTYPE svg PUBLIC "-//W3C//DTD SVG 1.1//EN"
 "http://www.w3.org/Graphics/SVG/1.1/DTD/svg11.dtd">
<!-- Generated by graphviz version 2.40.1 (20161225.0304)
 -->
<!-- Title: dependencies Pages: 1 -->
<svg width="504pt" height="284pt"
 viewBox="0.00 0.00 504.00 284.00" xmlns="http://www.w3.org/2000/svg" xmlns:xlink="http://www.w3.org/1999/xlink">
<g id="graph0" class="graph" transform="scale(1 1) rotate(0) translate(4 280)">
<title>dependencies</title>
<polygon fill="#ffffff" stroke="transparent" points="-4,4 -4,-280 500,-280 500,4 -4,4"/>
<text text-anchor="start" x="227.0091" y="-42.4" font-family="sans-serif" font-weight="bold" font-size="14.00" fill="#000000">Legend</text>
<polygon fill="#ffffb3" stroke="transparent" points="14,-10 14,-30 34,-30 34,-10 14,-10"/>
<text text-anchor="start" x="37.629" y="-15.4" font-family="sans-serif" font-size="14.00" fill="#000000"> &#160;Declarations</text>
<polygon fill="#8dd3c7" stroke="transparent" points="127,-10 127,-30 147,-30 147,-10 127,-10"/>
<text text-anchor="start" x="150.7251" y="-15.4" font-family="sans-serif" font-size="14.00" fill="#000000"> &#160;Module</text>
<polygon fill="#80b1d3" stroke="transparent" points="213,-10 213,-30 233,-30 233,-10 213,-10"/>
<text text-anchor="start" x="236.7812" y="-15.4" font-family="sans-serif" font-size="14.00" fill="#000000"> &#160;Bootstrap</text>
<polygon fill="#fdb462" stroke="transparent" points="310,-10 310,-30 330,-30 330,-10 310,-10"/>
<text text-anchor="start" x="333.6732" y="-15.4" font-family="sans-serif" font-size="14.00" fill="#000000"> &#160;Providers</text>
<polygon fill="#fb8072" stroke="transparent" points="406,-10 406,-30 426,-30 426,-10 406,-10"/>
<text text-anchor="start" x="429.7258" y="-15.4" font-family="sans-serif" font-size="14.00" fill="#000000"> &#160;Exports</text>
<g id="clust1" class="cluster">
<title>cluster_RuckenWebModule</title>
<polygon fill="none" stroke="#000000" stroke-dasharray="1,5" points="19,-70 19,-268 477,-268 477,-70 19,-70"/>
</g>
<g id="clust3" class="cluster">
<title>cluster_RuckenWebModule_imports</title>
<polygon fill="none" stroke="#000000" points="33,-78 33,-130 464,-130 464,-78 33,-78"/>
</g>
<g id="clust4" class="cluster">
<title>cluster_RuckenWebModule_exports</title>
<polygon fill="none" stroke="#000000" points="27,-208 27,-260 469,-260 469,-208 27,-208"/>
</g>
<!-- NavbarModule -->
<g id="node1" class="node">
<title>NavbarModule</title>
<polygon fill="#8dd3c7" stroke="#000000" points="456.2465,-122 453.2465,-126 432.2465,-126 429.2465,-122 355.7535,-122 355.7535,-86 456.2465,-86 456.2465,-122"/>
<text text-anchor="middle" x="406" y="-99.8" font-family="Times,serif" font-size="14.00" fill="#000000">NavbarModule</text>
</g>
<!-- RuckenWebModule -->
<g id="node4" class="node">
<title>RuckenWebModule</title>
<polygon fill="#8dd3c7" stroke="#000000" points="326.2451,-187 323.2451,-191 302.2451,-191 299.2451,-187 197.7549,-187 197.7549,-151 326.2451,-151 326.2451,-187"/>
<text text-anchor="middle" x="262" y="-164.8" font-family="Times,serif" font-size="14.00" fill="#000000">RuckenWebModule</text>
</g>
<!-- NavbarModule&#45;&gt;RuckenWebModule -->
<g id="edge1" class="edge">
<title>NavbarModule&#45;&gt;RuckenWebModule</title>
<path fill="none" stroke="#000000" d="M423.2077,-122.0225C423.2077,-139.3734 423.2077,-163 423.2077,-163 423.2077,-163 336.6405,-163 336.6405,-163"/>
<polygon fill="#000000" stroke="#000000" points="336.6405,-159.5001 326.6405,-163 336.6404,-166.5001 336.6405,-159.5001"/>
</g>
<!-- WebAuthModalModule -->
<g id="node2" class="node">
<title>WebAuthModalModule</title>
<polygon fill="#8dd3c7" stroke="#000000" points="337.0267,-122 334.0267,-126 313.0267,-126 310.0267,-122 186.9733,-122 186.9733,-86 337.0267,-86 337.0267,-122"/>
<text text-anchor="middle" x="262" y="-99.8" font-family="Times,serif" font-size="14.00" fill="#000000">WebAuthModalModule</text>
</g>
<!-- WebAuthModalModule&#45;&gt;RuckenWebModule -->
<g id="edge2" class="edge">
<title>WebAuthModalModule&#45;&gt;RuckenWebModule</title>
<path fill="none" stroke="#000000" d="M262,-122.1061C262,-122.1061 262,-140.991 262,-140.991"/>
<polygon fill="#000000" stroke="#000000" points="258.5001,-140.9909 262,-150.991 265.5001,-140.991 258.5001,-140.9909"/>
</g>
<!-- WebModalsModule -->
<g id="node3" class="node">
<title>WebModalsModule</title>
<polygon fill="#8dd3c7" stroke="#000000" points="168.9734,-122 165.9734,-126 144.9734,-126 141.9734,-122 41.0266,-122 41.0266,-86 168.9734,-86 168.9734,-122"/>
<text text-anchor="middle" x="105" y="-99.8" font-family="Times,serif" font-size="14.00" fill="#000000">WebModalsModule</text>
</g>
<!-- WebModalsModule&#45;&gt;RuckenWebModule -->
<g id="edge3" class="edge">
<title>WebModalsModule&#45;&gt;RuckenWebModule</title>
<path fill="none" stroke="#000000" d="M124.8289,-122.0225C124.8289,-139.3734 124.8289,-163 124.8289,-163 124.8289,-163 187.4311,-163 187.4311,-163"/>
<polygon fill="#000000" stroke="#000000" points="187.4311,-166.5001 197.4311,-163 187.4311,-159.5001 187.4311,-166.5001"/>
</g>
<!-- NavbarModule  -->
<g id="node5" class="node">
<title>NavbarModule </title>
<polygon fill="#fb8072" stroke="#000000" points="461.2465,-252 356.7535,-252 356.7535,-216 461.2465,-216 461.2465,-252"/>
<text text-anchor="middle" x="409" y="-229.8" font-family="Times,serif" font-size="14.00" fill="#000000">NavbarModule </text>
</g>
<!-- RuckenWebModule&#45;&gt;NavbarModule  -->
<g id="edge4" class="edge">
<title>RuckenWebModule&#45;&gt;NavbarModule </title>
<path fill="none" stroke="#000000" stroke-dasharray="5,2" d="M326.3963,-175C358.2813,-175 390.0423,-175 390.0423,-175 390.0423,-175 390.0423,-205.9775 390.0423,-205.9775"/>
<polygon fill="#000000" stroke="#000000" points="386.5424,-205.9774 390.0423,-215.9775 393.5424,-205.9775 386.5424,-205.9774"/>
</g>
<!-- WebAuthModalModule  -->
<g id="node6" class="node">
<title>WebAuthModalModule </title>
<polygon fill="#fb8072" stroke="#000000" points="339.026,-252 184.974,-252 184.974,-216 339.026,-216 339.026,-252"/>
<text text-anchor="middle" x="262" y="-229.8" font-family="Times,serif" font-size="14.00" fill="#000000">WebAuthModalModule </text>
</g>
<!-- RuckenWebModule&#45;&gt;WebAuthModalModule  -->
<g id="edge5" class="edge">
<title>RuckenWebModule&#45;&gt;WebAuthModalModule </title>
<path fill="none" stroke="#000000" stroke-dasharray="5,2" d="M262,-187.1061C262,-187.1061 262,-205.991 262,-205.991"/>
<polygon fill="#000000" stroke="#000000" points="258.5001,-205.9909 262,-215.991 265.5001,-205.991 258.5001,-205.9909"/>
</g>
<!-- WebModalsModule  -->
<g id="node7" class="node">
<title>WebModalsModule </title>
<polygon fill="#fb8072" stroke="#000000" points="166.9743,-252 35.0257,-252 35.0257,-216 166.9743,-216 166.9743,-252"/>
<text text-anchor="middle" x="101" y="-229.8" font-family="Times,serif" font-size="14.00" fill="#000000">WebModalsModule </text>
</g>
<!-- RuckenWebModule&#45;&gt;WebModalsModule  -->
<g id="edge6" class="edge">
<title>RuckenWebModule&#45;&gt;WebModalsModule </title>
<path fill="none" stroke="#000000" stroke-dasharray="5,2" d="M197.6014,-175C146.2613,-175 82.9211,-175 82.9211,-175 82.9211,-175 82.9211,-205.9775 82.9211,-205.9775"/>
<polygon fill="#000000" stroke="#000000" points="79.4212,-205.9774 82.9211,-215.9775 86.4212,-205.9775 79.4212,-205.9774"/>
</g>
</g>
</svg>
