<?xml version="1.0" encoding="UTF-8" standalone="no"?>
<!DOCTYPE svg PUBLIC "-//W3C//DTD SVG 1.1//EN"
 "http://www.w3.org/Graphics/SVG/1.1/DTD/svg11.dtd">
<!-- Generated by graphviz version 2.40.1 (20161225.0304)
 -->
<!-- Title: dependencies Pages: 1 -->
<svg width="522pt" height="284pt"
 viewBox="0.00 0.00 522.00 284.00" xmlns="http://www.w3.org/2000/svg" xmlns:xlink="http://www.w3.org/1999/xlink">
<g id="graph0" class="graph" transform="scale(1 1) rotate(0) translate(4 280)">
<title>dependencies</title>
<polygon fill="#ffffff" stroke="transparent" points="-4,4 -4,-280 518,-280 518,4 -4,4"/>
<text text-anchor="start" x="236.0091" y="-42.4" font-family="sans-serif" font-weight="bold" font-size="14.00" fill="#000000">Legend</text>
<polygon fill="#ffffb3" stroke="transparent" points="23,-10 23,-30 43,-30 43,-10 23,-10"/>
<text text-anchor="start" x="46.629" y="-15.4" font-family="sans-serif" font-size="14.00" fill="#000000"> &#160;Declarations</text>
<polygon fill="#8dd3c7" stroke="transparent" points="136,-10 136,-30 156,-30 156,-10 136,-10"/>
<text text-anchor="start" x="159.7251" y="-15.4" font-family="sans-serif" font-size="14.00" fill="#000000"> &#160;Module</text>
<polygon fill="#80b1d3" stroke="transparent" points="222,-10 222,-30 242,-30 242,-10 222,-10"/>
<text text-anchor="start" x="245.7812" y="-15.4" font-family="sans-serif" font-size="14.00" fill="#000000"> &#160;Bootstrap</text>
<polygon fill="#fdb462" stroke="transparent" points="319,-10 319,-30 339,-30 339,-10 319,-10"/>
<text text-anchor="start" x="342.6732" y="-15.4" font-family="sans-serif" font-size="14.00" fill="#000000"> &#160;Providers</text>
<polygon fill="#fb8072" stroke="transparent" points="415,-10 415,-30 435,-30 435,-10 415,-10"/>
<text text-anchor="start" x="438.7258" y="-15.4" font-family="sans-serif" font-size="14.00" fill="#000000"> &#160;Exports</text>
<g id="clust1" class="cluster">
<title>cluster_PipesModule</title>
<polygon fill="none" stroke="#000000" stroke-dasharray="1,5" points="8,-70 8,-268 506,-268 506,-70 8,-70"/>
</g>
<g id="clust2" class="cluster">
<title>cluster_PipesModule_declarations</title>
<polygon fill="none" stroke="#000000" points="25,-78 25,-130 492,-130 492,-78 25,-78"/>
</g>
<g id="clust8" class="cluster">
<title>cluster_PipesModule_exports</title>
<polygon fill="none" stroke="#000000" points="16,-208 16,-260 498,-260 498,-208 16,-208"/>
</g>
<!-- CustomTranslatePipe -->
<g id="node1" class="node">
<title>CustomTranslatePipe</title>
<polygon fill="#ffffb3" stroke="#000000" points="484.0338,-122 347.9662,-122 347.9662,-86 484.0338,-86 484.0338,-122"/>
<text text-anchor="middle" x="416" y="-99.8" font-family="Times,serif" font-size="14.00" fill="#000000">CustomTranslatePipe</text>
</g>
<!-- PipesModule -->
<g id="node5" class="node">
<title>PipesModule</title>
<polygon fill="#8dd3c7" stroke="#000000" points="241.8823,-187 238.8823,-191 217.8823,-191 214.8823,-187 152.1177,-187 152.1177,-151 241.8823,-151 241.8823,-187"/>
<text text-anchor="middle" x="197" y="-164.8" font-family="Times,serif" font-size="14.00" fill="#000000">PipesModule</text>
</g>
<!-- CustomTranslatePipe&#45;&gt;PipesModule -->
<g id="edge1" class="edge">
<title>CustomTranslatePipe&#45;&gt;PipesModule</title>
<path fill="none" stroke="#000000" d="M439.5055,-122.2667C439.5055,-140.5552 439.5055,-166 439.5055,-166 439.5055,-166 252.0451,-166 252.0451,-166"/>
<polygon fill="#000000" stroke="#000000" points="252.0451,-162.5001 242.0451,-166 252.0451,-169.5001 252.0451,-162.5001"/>
</g>
<!-- PermPipe -->
<g id="node2" class="node">
<title>PermPipe</title>
<polygon fill="#ffffb3" stroke="#000000" points="330.4376,-122 259.5624,-122 259.5624,-86 330.4376,-86 330.4376,-122"/>
<text text-anchor="middle" x="295" y="-99.8" font-family="Times,serif" font-size="14.00" fill="#000000">PermPipe</text>
</g>
<!-- PermPipe&#45;&gt;PipesModule -->
<g id="edge2" class="edge">
<title>PermPipe&#45;&gt;PipesModule</title>
<path fill="none" stroke="#000000" d="M306.7394,-122.0091C306.7394,-138.0494 306.7394,-159 306.7394,-159 306.7394,-159 251.9518,-159 251.9518,-159"/>
<polygon fill="#000000" stroke="#000000" points="251.9519,-155.5001 241.9518,-159 251.9518,-162.5001 251.9519,-155.5001"/>
</g>
<!-- SafeHtmlPipe -->
<g id="node3" class="node">
<title>SafeHtmlPipe</title>
<polygon fill="#ffffb3" stroke="#000000" points="242.0397,-122 147.9603,-122 147.9603,-86 242.0397,-86 242.0397,-122"/>
<text text-anchor="middle" x="195" y="-99.8" font-family="Times,serif" font-size="14.00" fill="#000000">SafeHtmlPipe</text>
</g>
<!-- SafeHtmlPipe&#45;&gt;PipesModule -->
<g id="edge3" class="edge">
<title>SafeHtmlPipe&#45;&gt;PipesModule</title>
<path fill="none" stroke="#000000" d="M197,-122.1061C197,-122.1061 197,-140.991 197,-140.991"/>
<polygon fill="#000000" stroke="#000000" points="193.5001,-140.9909 197,-150.991 200.5001,-140.991 193.5001,-140.9909"/>
</g>
<!-- UserPermPipe -->
<g id="node4" class="node">
<title>UserPermPipe</title>
<polygon fill="#ffffb3" stroke="#000000" points="129.3627,-122 32.6373,-122 32.6373,-86 129.3627,-86 129.3627,-122"/>
<text text-anchor="middle" x="81" y="-99.8" font-family="Times,serif" font-size="14.00" fill="#000000">UserPermPipe</text>
</g>
<!-- UserPermPipe&#45;&gt;PipesModule -->
<g id="edge4" class="edge">
<title>UserPermPipe&#45;&gt;PipesModule</title>
<path fill="none" stroke="#000000" d="M93.6438,-122.0225C93.6438,-139.3734 93.6438,-163 93.6438,-163 93.6438,-163 141.9671,-163 141.9671,-163"/>
<polygon fill="#000000" stroke="#000000" points="141.9672,-166.5001 151.9671,-163 141.9671,-159.5001 141.9672,-166.5001"/>
</g>
<!-- CustomTranslatePipe  -->
<g id="node6" class="node">
<title>CustomTranslatePipe </title>
<polygon fill="#fb8072" stroke="#000000" points="490.033,-252 349.967,-252 349.967,-216 490.033,-216 490.033,-252"/>
<text text-anchor="middle" x="420" y="-229.8" font-family="Times,serif" font-size="14.00" fill="#000000">CustomTranslatePipe </text>
</g>
<!-- PipesModule&#45;&gt;CustomTranslatePipe  -->
<g id="edge5" class="edge">
<title>PipesModule&#45;&gt;CustomTranslatePipe </title>
<path fill="none" stroke="#000000" stroke-dasharray="5,2" d="M242.3666,-173C300.7475,-173 394.7445,-173 394.7445,-173 394.7445,-173 394.7445,-205.698 394.7445,-205.698"/>
<polygon fill="#000000" stroke="#000000" points="391.2446,-205.698 394.7445,-215.698 398.2446,-205.698 391.2446,-205.698"/>
</g>
<!-- PermPipe  -->
<g id="node7" class="node">
<title>PermPipe </title>
<polygon fill="#fb8072" stroke="#000000" points="331.9362,-252 258.0638,-252 258.0638,-216 331.9362,-216 331.9362,-252"/>
<text text-anchor="middle" x="295" y="-229.8" font-family="Times,serif" font-size="14.00" fill="#000000">PermPipe </text>
</g>
<!-- PipesModule&#45;&gt;PermPipe  -->
<g id="edge6" class="edge">
<title>PipesModule&#45;&gt;PermPipe </title>
<path fill="none" stroke="#000000" stroke-dasharray="5,2" d="M241.8989,-180C262.8587,-180 283.2606,-180 283.2606,-180 283.2606,-180 283.2606,-205.7181 283.2606,-205.7181"/>
<polygon fill="#000000" stroke="#000000" points="279.7607,-205.718 283.2606,-215.7181 286.7607,-205.7181 279.7607,-205.718"/>
</g>
<!-- SafeHtmlPipe  -->
<g id="node8" class="node">
<title>SafeHtmlPipe </title>
<polygon fill="#fb8072" stroke="#000000" points="240.0386,-252 141.9614,-252 141.9614,-216 240.0386,-216 240.0386,-252"/>
<text text-anchor="middle" x="191" y="-229.8" font-family="Times,serif" font-size="14.00" fill="#000000">SafeHtmlPipe </text>
</g>
<!-- PipesModule&#45;&gt;SafeHtmlPipe  -->
<g id="edge7" class="edge">
<title>PipesModule&#45;&gt;SafeHtmlPipe </title>
<path fill="none" stroke="#000000" stroke-dasharray="5,2" d="M196.0391,-187.1061C196.0391,-187.1061 196.0391,-205.991 196.0391,-205.991"/>
<polygon fill="#000000" stroke="#000000" points="192.5392,-205.9909 196.0391,-215.991 199.5392,-205.991 192.5392,-205.9909"/>
</g>
<!-- UserPermPipe  -->
<g id="node9" class="node">
<title>UserPermPipe </title>
<polygon fill="#fb8072" stroke="#000000" points="124.3633,-252 23.6367,-252 23.6367,-216 124.3633,-216 124.3633,-252"/>
<text text-anchor="middle" x="74" y="-229.8" font-family="Times,serif" font-size="14.00" fill="#000000">UserPermPipe </text>
</g>
<!-- PipesModule&#45;&gt;UserPermPipe  -->
<g id="edge8" class="edge">
<title>PipesModule&#45;&gt;UserPermPipe </title>
<path fill="none" stroke="#000000" stroke-dasharray="5,2" d="M152.0428,-175C113.1453,-175 63.1062,-175 63.1062,-175 63.1062,-175 63.1062,-205.9775 63.1062,-205.9775"/>
<polygon fill="#000000" stroke="#000000" points="59.6063,-205.9774 63.1062,-215.9775 66.6063,-205.9775 59.6063,-205.9774"/>
</g>
</g>
</svg>
