<?xml version="1.0" encoding="UTF-8" standalone="no"?>
<!DOCTYPE svg PUBLIC "-//W3C//DTD SVG 1.1//EN"
 "http://www.w3.org/Graphics/SVG/1.1/DTD/svg11.dtd">
<!-- Generated by graphviz version 2.40.1 (20161225.0304)
 -->
<!-- Title: dependencies Pages: 1 -->
<svg width="504pt" height="284pt"
 viewBox="0.00 0.00 504.00 284.00" xmlns="http://www.w3.org/2000/svg" xmlns:xlink="http://www.w3.org/1999/xlink">
<g id="graph0" class="graph" transform="scale(1 1) rotate(0) translate(4 280)">
<title>dependencies</title>
<polygon fill="#ffffff" stroke="transparent" points="-4,4 -4,-280 500,-280 500,4 -4,4"/>
<text text-anchor="start" x="227.0091" y="-42.4" font-family="sans-serif" font-weight="bold" font-size="14.00" fill="#000000">Legend</text>
<polygon fill="#ffffb3" stroke="transparent" points="14,-10 14,-30 34,-30 34,-10 14,-10"/>
<text text-anchor="start" x="37.629" y="-15.4" font-family="sans-serif" font-size="14.00" fill="#000000"> &#160;Declarations</text>
<polygon fill="#8dd3c7" stroke="transparent" points="127,-10 127,-30 147,-30 147,-10 127,-10"/>
<text text-anchor="start" x="150.7251" y="-15.4" font-family="sans-serif" font-size="14.00" fill="#000000"> &#160;Module</text>
<polygon fill="#80b1d3" stroke="transparent" points="213,-10 213,-30 233,-30 233,-10 213,-10"/>
<text text-anchor="start" x="236.7812" y="-15.4" font-family="sans-serif" font-size="14.00" fill="#000000"> &#160;Bootstrap</text>
<polygon fill="#fdb462" stroke="transparent" points="310,-10 310,-30 330,-30 330,-10 310,-10"/>
<text text-anchor="start" x="333.6732" y="-15.4" font-family="sans-serif" font-size="14.00" fill="#000000"> &#160;Providers</text>
<polygon fill="#fb8072" stroke="transparent" points="406,-10 406,-30 426,-30 426,-10 406,-10"/>
<text text-anchor="start" x="429.7258" y="-15.4" font-family="sans-serif" font-size="14.00" fill="#000000"> &#160;Exports</text>
<g id="clust1" class="cluster">
<title>cluster_WebModalsModule</title>
<polygon fill="none" stroke="#000000" stroke-dasharray="1,5" points="50,-70 50,-268 446,-268 446,-70 50,-70"/>
</g>
<g id="clust2" class="cluster">
<title>cluster_WebModalsModule_declarations</title>
<polygon fill="none" stroke="#000000" points="256,-78 256,-130 438,-130 438,-78 256,-78"/>
</g>
<g id="clust5" class="cluster">
<title>cluster_WebModalsModule_exports</title>
<polygon fill="none" stroke="#000000" points="156,-208 156,-260 342,-260 342,-208 156,-208"/>
</g>
<g id="clust7" class="cluster">
<title>cluster_WebModalsModule_providers</title>
<polygon fill="none" stroke="#000000" points="58,-78 58,-130 248,-130 248,-78 58,-78"/>
</g>
<!-- MessageModalComponent -->
<g id="node1" class="node">
<title>MessageModalComponent</title>
<polygon fill="#ffffb3" stroke="#000000" points="430.3599,-122 263.6401,-122 263.6401,-86 430.3599,-86 430.3599,-122"/>
<text text-anchor="middle" x="347" y="-99.8" font-family="Times,serif" font-size="14.00" fill="#000000">MessageModalComponent</text>
</g>
<!-- WebModalsModule -->
<g id="node2" class="node">
<title>WebModalsModule</title>
<polygon fill="#8dd3c7" stroke="#000000" points="312.9734,-187 309.9734,-191 288.9734,-191 285.9734,-187 185.0266,-187 185.0266,-151 312.9734,-151 312.9734,-187"/>
<text text-anchor="middle" x="249" y="-164.8" font-family="Times,serif" font-size="14.00" fill="#000000">WebModalsModule</text>
</g>
<!-- MessageModalComponent&#45;&gt;WebModalsModule -->
<g id="edge1" class="edge">
<title>MessageModalComponent&#45;&gt;WebModalsModule</title>
<path fill="none" stroke="#000000" d="M288.2784,-122.1061C288.2784,-122.1061 288.2784,-140.991 288.2784,-140.991"/>
<polygon fill="#000000" stroke="#000000" points="284.7785,-140.9909 288.2784,-150.991 291.7785,-140.991 284.7785,-140.9909"/>
</g>
<!-- MessageModalComponent  -->
<g id="node3" class="node">
<title>MessageModalComponent </title>
<polygon fill="#fb8072" stroke="#000000" points="334.3602,-252 163.6398,-252 163.6398,-216 334.3602,-216 334.3602,-252"/>
<text text-anchor="middle" x="249" y="-229.8" font-family="Times,serif" font-size="14.00" fill="#000000">MessageModalComponent </text>
</g>
<!-- WebModalsModule&#45;&gt;MessageModalComponent  -->
<g id="edge2" class="edge">
<title>WebModalsModule&#45;&gt;MessageModalComponent </title>
<path fill="none" stroke="#000000" stroke-dasharray="5,2" d="M249,-187.1061C249,-187.1061 249,-205.991 249,-205.991"/>
<polygon fill="#000000" stroke="#000000" points="245.5001,-205.9909 249,-215.991 252.5001,-205.991 245.5001,-205.9909"/>
</g>
<!-- WebModalsService -->
<g id="node4" class="node">
<title>WebModalsService</title>
<ellipse fill="#fdb462" stroke="#000000" cx="153" cy="-104" rx="87.3789" ry="18"/>
<text text-anchor="middle" x="153" y="-99.8" font-family="Times,serif" font-size="14.00" fill="#000000">WebModalsService</text>
</g>
<!-- WebModalsService&#45;&gt;WebModalsModule -->
<g id="edge3" class="edge">
<title>WebModalsService&#45;&gt;WebModalsModule</title>
<path fill="none" stroke="#000000" d="M212.6013,-117.1537C212.6013,-117.1537 212.6013,-140.6938 212.6013,-140.6938"/>
<polygon fill="#000000" stroke="#000000" points="209.1014,-140.6938 212.6013,-150.6938 216.1014,-140.6939 209.1014,-140.6938"/>
</g>
</g>
</svg>
