<?xml version="1.0" encoding="UTF-8" standalone="no"?>
<!DOCTYPE svg PUBLIC "-//W3C//DTD SVG 1.1//EN"
 "http://www.w3.org/Graphics/SVG/1.1/DTD/svg11.dtd">
<!-- Generated by graphviz version 2.40.1 (20161225.0304)
 -->
<!-- Title: dependencies Pages: 1 -->
<svg width="562pt" height="284pt"
 viewBox="0.00 0.00 562.00 284.00" xmlns="http://www.w3.org/2000/svg" xmlns:xlink="http://www.w3.org/1999/xlink">
<g id="graph0" class="graph" transform="scale(1 1) rotate(0) translate(4 280)">
<title>dependencies</title>
<polygon fill="#ffffff" stroke="transparent" points="-4,4 -4,-280 558,-280 558,4 -4,4"/>
<text text-anchor="start" x="256.0091" y="-42.4" font-family="sans-serif" font-weight="bold" font-size="14.00" fill="#000000">Legend</text>
<polygon fill="#ffffb3" stroke="transparent" points="43,-10 43,-30 63,-30 63,-10 43,-10"/>
<text text-anchor="start" x="66.629" y="-15.4" font-family="sans-serif" font-size="14.00" fill="#000000"> &#160;Declarations</text>
<polygon fill="#8dd3c7" stroke="transparent" points="156,-10 156,-30 176,-30 176,-10 156,-10"/>
<text text-anchor="start" x="179.7251" y="-15.4" font-family="sans-serif" font-size="14.00" fill="#000000"> &#160;Module</text>
<polygon fill="#80b1d3" stroke="transparent" points="242,-10 242,-30 262,-30 262,-10 242,-10"/>
<text text-anchor="start" x="265.7812" y="-15.4" font-family="sans-serif" font-size="14.00" fill="#000000"> &#160;Bootstrap</text>
<polygon fill="#fdb462" stroke="transparent" points="339,-10 339,-30 359,-30 359,-10 339,-10"/>
<text text-anchor="start" x="362.6732" y="-15.4" font-family="sans-serif" font-size="14.00" fill="#000000"> &#160;Providers</text>
<polygon fill="#fb8072" stroke="transparent" points="435,-10 435,-30 455,-30 455,-10 435,-10"/>
<text text-anchor="start" x="458.7258" y="-15.4" font-family="sans-serif" font-size="14.00" fill="#000000"> &#160;Exports</text>
<g id="clust1" class="cluster">
<title>cluster_WebModalsModule</title>
<polygon fill="none" stroke="#000000" stroke-dasharray="1,5" points="8,-70 8,-268 546,-268 546,-70 8,-70"/>
</g>
<g id="clust2" class="cluster">
<title>cluster_WebModalsModule_declarations</title>
<polygon fill="none" stroke="#000000" points="356,-78 356,-130 538,-130 538,-78 356,-78"/>
</g>
<g id="clust4" class="cluster">
<title>cluster_WebModalsModule_imports</title>
<polygon fill="none" stroke="#000000" points="214,-78 214,-130 348,-130 348,-78 214,-78"/>
</g>
<g id="clust5" class="cluster">
<title>cluster_WebModalsModule_exports</title>
<polygon fill="none" stroke="#000000" points="107,-208 107,-260 431,-260 431,-208 107,-208"/>
</g>
<g id="clust7" class="cluster">
<title>cluster_WebModalsModule_providers</title>
<polygon fill="none" stroke="#000000" points="16,-78 16,-130 206,-130 206,-78 16,-78"/>
</g>
<!-- MessageModalComponent -->
<g id="node1" class="node">
<title>MessageModalComponent</title>
<polygon fill="#ffffb3" stroke="#000000" points="530.3599,-122 363.6401,-122 363.6401,-86 530.3599,-86 530.3599,-122"/>
<text text-anchor="middle" x="447" y="-99.8" font-family="Times,serif" font-size="14.00" fill="#000000">MessageModalComponent</text>
</g>
<!-- WebModalsModule -->
<g id="node2" class="node">
<title>WebModalsModule</title>
<polygon fill="#8dd3c7" stroke="#000000" points="344.9734,-187 341.9734,-191 320.9734,-191 317.9734,-187 217.0266,-187 217.0266,-151 344.9734,-151 344.9734,-187"/>
<text text-anchor="middle" x="281" y="-164.8" font-family="Times,serif" font-size="14.00" fill="#000000">WebModalsModule</text>
</g>
<!-- MessageModalComponent&#45;&gt;WebModalsModule -->
<g id="edge1" class="edge">
<title>MessageModalComponent&#45;&gt;WebModalsModule</title>
<path fill="none" stroke="#000000" d="M393.4294,-122.1061C393.4294,-141.3391 393.4294,-169 393.4294,-169 393.4294,-169 355.0967,-169 355.0967,-169"/>
<polygon fill="#000000" stroke="#000000" points="355.0967,-165.5001 345.0967,-169 355.0967,-172.5001 355.0967,-165.5001"/>
</g>
<!-- DirectivesModule  -->
<g id="node4" class="node">
<title>DirectivesModule </title>
<polygon fill="#fb8072" stroke="#000000" points="423.0779,-252 302.9221,-252 302.9221,-216 423.0779,-216 423.0779,-252"/>
<text text-anchor="middle" x="363" y="-229.8" font-family="Times,serif" font-size="14.00" fill="#000000">DirectivesModule </text>
</g>
<!-- WebModalsModule&#45;&gt;DirectivesModule  -->
<g id="edge3" class="edge">
<title>WebModalsModule&#45;&gt;DirectivesModule </title>
<path fill="none" stroke="#000000" stroke-dasharray="5,2" d="M323.8491,-187.1061C323.8491,-187.1061 323.8491,-205.991 323.8491,-205.991"/>
<polygon fill="#000000" stroke="#000000" points="320.3491,-205.9909 323.8491,-215.991 327.3491,-205.991 320.3491,-205.9909"/>
</g>
<!-- MessageModalComponent  -->
<g id="node5" class="node">
<title>MessageModalComponent </title>
<polygon fill="#fb8072" stroke="#000000" points="285.3602,-252 114.6398,-252 114.6398,-216 285.3602,-216 285.3602,-252"/>
<text text-anchor="middle" x="200" y="-229.8" font-family="Times,serif" font-size="14.00" fill="#000000">MessageModalComponent </text>
</g>
<!-- WebModalsModule&#45;&gt;MessageModalComponent  -->
<g id="edge4" class="edge">
<title>WebModalsModule&#45;&gt;MessageModalComponent </title>
<path fill="none" stroke="#000000" stroke-dasharray="5,2" d="M251.0966,-187.1061C251.0966,-187.1061 251.0966,-205.991 251.0966,-205.991"/>
<polygon fill="#000000" stroke="#000000" points="247.5967,-205.9909 251.0966,-215.991 254.5967,-205.991 247.5967,-205.9909"/>
</g>
<!-- DirectivesModule -->
<g id="node3" class="node">
<title>DirectivesModule</title>
<polygon fill="#8dd3c7" stroke="#000000" points="339.5772,-122 336.5772,-126 315.5772,-126 312.5772,-122 222.4228,-122 222.4228,-86 339.5772,-86 339.5772,-122"/>
<text text-anchor="middle" x="281" y="-99.8" font-family="Times,serif" font-size="14.00" fill="#000000">DirectivesModule</text>
</g>
<!-- DirectivesModule&#45;&gt;WebModalsModule -->
<g id="edge2" class="edge">
<title>DirectivesModule&#45;&gt;WebModalsModule</title>
<path fill="none" stroke="#000000" d="M281,-122.1061C281,-122.1061 281,-140.991 281,-140.991"/>
<polygon fill="#000000" stroke="#000000" points="277.5001,-140.9909 281,-150.991 284.5001,-140.991 277.5001,-140.9909"/>
</g>
<!-- WebModalsService -->
<g id="node6" class="node">
<title>WebModalsService</title>
<ellipse fill="#fdb462" stroke="#000000" cx="111" cy="-104" rx="87.3789" ry="18"/>
<text text-anchor="middle" x="111" y="-99.8" font-family="Times,serif" font-size="14.00" fill="#000000">WebModalsService</text>
</g>
<!-- WebModalsService&#45;&gt;WebModalsModule -->
<g id="edge5" class="edge">
<title>WebModalsService&#45;&gt;WebModalsModule</title>
<path fill="none" stroke="#000000" d="M156.5047,-119.4041C156.5047,-138.6255 156.5047,-169 156.5047,-169 156.5047,-169 206.9289,-169 206.9289,-169"/>
<polygon fill="#000000" stroke="#000000" points="206.9289,-172.5001 216.9289,-169 206.9289,-165.5001 206.9289,-172.5001"/>
</g>
</g>
</svg>
