<?xml version="1.0" encoding="UTF-8" standalone="no"?>
<!DOCTYPE svg PUBLIC "-//W3C//DTD SVG 1.1//EN"
 "http://www.w3.org/Graphics/SVG/1.1/DTD/svg11.dtd">
<!-- Generated by graphviz version 2.40.1 (20161225.0304)
 -->
<!-- Title: dependencies Pages: 1 -->
<svg width="650pt" height="284pt"
 viewBox="0.00 0.00 650.00 284.00" xmlns="http://www.w3.org/2000/svg" xmlns:xlink="http://www.w3.org/1999/xlink">
<g id="graph0" class="graph" transform="scale(1 1) rotate(0) translate(4 280)">
<title>dependencies</title>
<polygon fill="#ffffff" stroke="transparent" points="-4,4 -4,-280 646,-280 646,4 -4,4"/>
<text text-anchor="start" x="300.0091" y="-42.4" font-family="sans-serif" font-weight="bold" font-size="14.00" fill="#000000">Legend</text>
<polygon fill="#ffffb3" stroke="transparent" points="87,-10 87,-30 107,-30 107,-10 87,-10"/>
<text text-anchor="start" x="110.629" y="-15.4" font-family="sans-serif" font-size="14.00" fill="#000000"> &#160;Declarations</text>
<polygon fill="#8dd3c7" stroke="transparent" points="200,-10 200,-30 220,-30 220,-10 200,-10"/>
<text text-anchor="start" x="223.7251" y="-15.4" font-family="sans-serif" font-size="14.00" fill="#000000"> &#160;Module</text>
<polygon fill="#80b1d3" stroke="transparent" points="286,-10 286,-30 306,-30 306,-10 286,-10"/>
<text text-anchor="start" x="309.7812" y="-15.4" font-family="sans-serif" font-size="14.00" fill="#000000"> &#160;Bootstrap</text>
<polygon fill="#fdb462" stroke="transparent" points="383,-10 383,-30 403,-30 403,-10 383,-10"/>
<text text-anchor="start" x="406.6732" y="-15.4" font-family="sans-serif" font-size="14.00" fill="#000000"> &#160;Providers</text>
<polygon fill="#fb8072" stroke="transparent" points="479,-10 479,-30 499,-30 499,-10 479,-10"/>
<text text-anchor="start" x="502.7258" y="-15.4" font-family="sans-serif" font-size="14.00" fill="#000000"> &#160;Exports</text>
<g id="clust1" class="cluster">
<title>cluster_WebAuthModalModule</title>
<polygon fill="none" stroke="#000000" stroke-dasharray="1,5" points="8,-70 8,-268 634,-268 634,-70 8,-70"/>
</g>
<g id="clust2" class="cluster">
<title>cluster_WebAuthModalModule_declarations</title>
<polygon fill="none" stroke="#000000" points="438,-78 438,-130 626,-130 626,-78 438,-78"/>
</g>
<g id="clust4" class="cluster">
<title>cluster_WebAuthModalModule_imports</title>
<polygon fill="none" stroke="#000000" points="246,-78 246,-130 430,-130 430,-78 246,-78"/>
</g>
<g id="clust5" class="cluster">
<title>cluster_WebAuthModalModule_exports</title>
<polygon fill="none" stroke="#000000" points="147,-208 147,-260 528,-260 528,-208 147,-208"/>
</g>
<g id="clust7" class="cluster">
<title>cluster_WebAuthModalModule_providers</title>
<polygon fill="none" stroke="#000000" points="16,-78 16,-130 238,-130 238,-78 16,-78"/>
</g>
<!-- WebAuthModalComponent -->
<g id="node1" class="node">
<title>WebAuthModalComponent</title>
<polygon fill="#ffffb3" stroke="#000000" points="618.3089,-122 445.6911,-122 445.6911,-86 618.3089,-86 618.3089,-122"/>
<text text-anchor="middle" x="532" y="-99.8" font-family="Times,serif" font-size="14.00" fill="#000000">WebAuthModalComponent</text>
</g>
<!-- WebAuthModalModule -->
<g id="node2" class="node">
<title>WebAuthModalModule</title>
<polygon fill="#8dd3c7" stroke="#000000" points="413.0267,-187 410.0267,-191 389.0267,-191 386.0267,-187 262.9733,-187 262.9733,-151 413.0267,-151 413.0267,-187"/>
<text text-anchor="middle" x="338" y="-164.8" font-family="Times,serif" font-size="14.00" fill="#000000">WebAuthModalModule</text>
</g>
<!-- WebAuthModalComponent&#45;&gt;WebAuthModalModule -->
<g id="edge1" class="edge">
<title>WebAuthModalComponent&#45;&gt;WebAuthModalModule</title>
<path fill="none" stroke="#000000" d="M482.7123,-122.1061C482.7123,-141.3391 482.7123,-169 482.7123,-169 482.7123,-169 423.3231,-169 423.3231,-169"/>
<polygon fill="#000000" stroke="#000000" points="423.3232,-165.5001 413.3231,-169 423.3231,-172.5001 423.3232,-165.5001"/>
</g>
<!-- PromptFormModalModule  -->
<g id="node4" class="node">
<title>PromptFormModalModule </title>
<polygon fill="#fb8072" stroke="#000000" points="519.6579,-252 348.3421,-252 348.3421,-216 519.6579,-216 519.6579,-252"/>
<text text-anchor="middle" x="434" y="-229.8" font-family="Times,serif" font-size="14.00" fill="#000000">PromptFormModalModule </text>
</g>
<!-- WebAuthModalModule&#45;&gt;PromptFormModalModule  -->
<g id="edge3" class="edge">
<title>WebAuthModalModule&#45;&gt;PromptFormModalModule </title>
<path fill="none" stroke="#000000" stroke-dasharray="5,2" d="M380.8421,-187.1061C380.8421,-187.1061 380.8421,-205.991 380.8421,-205.991"/>
<polygon fill="#000000" stroke="#000000" points="377.3421,-205.9909 380.8421,-215.991 384.3421,-205.991 377.3421,-205.9909"/>
</g>
<!-- WebAuthModalComponent  -->
<g id="node5" class="node">
<title>WebAuthModalComponent </title>
<polygon fill="#fb8072" stroke="#000000" points="330.8087,-252 155.1913,-252 155.1913,-216 330.8087,-216 330.8087,-252"/>
<text text-anchor="middle" x="243" y="-229.8" font-family="Times,serif" font-size="14.00" fill="#000000">WebAuthModalComponent </text>
</g>
<!-- WebAuthModalModule&#45;&gt;WebAuthModalComponent  -->
<g id="edge4" class="edge">
<title>WebAuthModalModule&#45;&gt;WebAuthModalComponent </title>
<path fill="none" stroke="#000000" stroke-dasharray="5,2" d="M296.8207,-187.1061C296.8207,-187.1061 296.8207,-205.991 296.8207,-205.991"/>
<polygon fill="#000000" stroke="#000000" points="293.3207,-205.9909 296.8207,-215.991 300.3207,-205.991 293.3207,-205.9909"/>
</g>
<!-- PromptFormModalModule -->
<g id="node3" class="node">
<title>PromptFormModalModule</title>
<polygon fill="#8dd3c7" stroke="#000000" points="421.6581,-122 418.6581,-126 397.6581,-126 394.6581,-122 254.3419,-122 254.3419,-86 421.6581,-86 421.6581,-122"/>
<text text-anchor="middle" x="338" y="-99.8" font-family="Times,serif" font-size="14.00" fill="#000000">PromptFormModalModule</text>
</g>
<!-- PromptFormModalModule&#45;&gt;WebAuthModalModule -->
<g id="edge2" class="edge">
<title>PromptFormModalModule&#45;&gt;WebAuthModalModule</title>
<path fill="none" stroke="#000000" d="M338,-122.1061C338,-122.1061 338,-140.991 338,-140.991"/>
<polygon fill="#000000" stroke="#000000" points="334.5001,-140.9909 338,-150.991 341.5001,-140.991 334.5001,-140.9909"/>
</g>
<!-- WebAuthModalService -->
<g id="node6" class="node">
<title>WebAuthModalService</title>
<ellipse fill="#fdb462" stroke="#000000" cx="127" cy="-104" rx="102.9918" ry="18"/>
<text text-anchor="middle" x="127" y="-99.8" font-family="Times,serif" font-size="14.00" fill="#000000">WebAuthModalService</text>
</g>
<!-- WebAuthModalService&#45;&gt;WebAuthModalModule -->
<g id="edge5" class="edge">
<title>WebAuthModalService&#45;&gt;WebAuthModalModule</title>
<path fill="none" stroke="#000000" d="M192.4207,-118.104C192.4207,-137.2211 192.4207,-169 192.4207,-169 192.4207,-169 252.6518,-169 252.6518,-169"/>
<polygon fill="#000000" stroke="#000000" points="252.6518,-172.5001 262.6518,-169 252.6518,-165.5001 252.6518,-172.5001"/>
</g>
</g>
</svg>
