<?xml version="1.0" encoding="UTF-8" standalone="no"?>
<!DOCTYPE svg PUBLIC "-//W3C//DTD SVG 1.1//EN"
 "http://www.w3.org/Graphics/SVG/1.1/DTD/svg11.dtd">
<!-- Generated by graphviz version 2.40.1 (20161225.0304)
 -->
<!-- Title: dependencies Pages: 1 -->
<svg width="534pt" height="284pt"
 viewBox="0.00 0.00 534.00 284.00" xmlns="http://www.w3.org/2000/svg" xmlns:xlink="http://www.w3.org/1999/xlink">
<g id="graph0" class="graph" transform="scale(1 1) rotate(0) translate(4 280)">
<title>dependencies</title>
<polygon fill="#ffffff" stroke="transparent" points="-4,4 -4,-280 530,-280 530,4 -4,4"/>
<text text-anchor="start" x="242.0091" y="-42.4" font-family="sans-serif" font-weight="bold" font-size="14.00" fill="#000000">Legend</text>
<polygon fill="#ffffb3" stroke="transparent" points="29,-10 29,-30 49,-30 49,-10 29,-10"/>
<text text-anchor="start" x="52.629" y="-15.4" font-family="sans-serif" font-size="14.00" fill="#000000"> &#160;Declarations</text>
<polygon fill="#8dd3c7" stroke="transparent" points="142,-10 142,-30 162,-30 162,-10 142,-10"/>
<text text-anchor="start" x="165.7251" y="-15.4" font-family="sans-serif" font-size="14.00" fill="#000000"> &#160;Module</text>
<polygon fill="#80b1d3" stroke="transparent" points="228,-10 228,-30 248,-30 248,-10 228,-10"/>
<text text-anchor="start" x="251.7812" y="-15.4" font-family="sans-serif" font-size="14.00" fill="#000000"> &#160;Bootstrap</text>
<polygon fill="#fdb462" stroke="transparent" points="325,-10 325,-30 345,-30 345,-10 325,-10"/>
<text text-anchor="start" x="348.6732" y="-15.4" font-family="sans-serif" font-size="14.00" fill="#000000"> &#160;Providers</text>
<polygon fill="#fb8072" stroke="transparent" points="421,-10 421,-30 441,-30 441,-10 421,-10"/>
<text text-anchor="start" x="444.7258" y="-15.4" font-family="sans-serif" font-size="14.00" fill="#000000"> &#160;Exports</text>
<g id="clust1" class="cluster">
<title>cluster_PromptFormModalModule</title>
<polygon fill="none" stroke="#000000" stroke-dasharray="1,5" points="8,-70 8,-268 518,-268 518,-70 8,-70"/>
</g>
<g id="clust2" class="cluster">
<title>cluster_PromptFormModalModule_declarations</title>
<polygon fill="none" stroke="#000000" points="304,-78 304,-130 510,-130 510,-78 304,-78"/>
</g>
<g id="clust4" class="cluster">
<title>cluster_PromptFormModalModule_imports</title>
<polygon fill="none" stroke="#000000" points="19,-78 19,-130 296,-130 296,-78 19,-78"/>
</g>
<g id="clust5" class="cluster">
<title>cluster_PromptFormModalModule_exports</title>
<polygon fill="none" stroke="#000000" points="16,-208 16,-260 510,-260 510,-208 16,-208"/>
</g>
<!-- PromptFormModalComponent -->
<g id="node1" class="node">
<title>PromptFormModalComponent</title>
<polygon fill="#ffffb3" stroke="#000000" points="501.9409,-122 312.0591,-122 312.0591,-86 501.9409,-86 501.9409,-122"/>
<text text-anchor="middle" x="407" y="-99.8" font-family="Times,serif" font-size="14.00" fill="#000000">PromptFormModalComponent</text>
</g>
<!-- PromptFormModalModule -->
<g id="node2" class="node">
<title>PromptFormModalModule</title>
<polygon fill="#8dd3c7" stroke="#000000" points="347.6581,-187 344.6581,-191 323.6581,-191 320.6581,-187 180.3419,-187 180.3419,-151 347.6581,-151 347.6581,-187"/>
<text text-anchor="middle" x="264" y="-164.8" font-family="Times,serif" font-size="14.00" fill="#000000">PromptFormModalModule</text>
</g>
<!-- PromptFormModalComponent&#45;&gt;PromptFormModalModule -->
<g id="edge1" class="edge">
<title>PromptFormModalComponent&#45;&gt;PromptFormModalModule</title>
<path fill="none" stroke="#000000" d="M330.0544,-122.1061C330.0544,-122.1061 330.0544,-140.991 330.0544,-140.991"/>
<polygon fill="#000000" stroke="#000000" points="326.5544,-140.9909 330.0544,-150.991 333.5544,-140.991 326.5544,-140.9909"/>
</g>
<!-- DirectivesModule  -->
<g id="node5" class="node">
<title>DirectivesModule </title>
<polygon fill="#fb8072" stroke="#000000" points="502.0779,-252 381.9221,-252 381.9221,-216 502.0779,-216 502.0779,-252"/>
<text text-anchor="middle" x="442" y="-229.8" font-family="Times,serif" font-size="14.00" fill="#000000">DirectivesModule </text>
</g>
<!-- PromptFormModalModule&#45;&gt;DirectivesModule  -->
<g id="edge4" class="edge">
<title>PromptFormModalModule&#45;&gt;DirectivesModule </title>
<path fill="none" stroke="#000000" stroke-dasharray="5,2" d="M347.914,-169C393.9282,-169 441.7158,-169 441.7158,-169 441.7158,-169 441.7158,-205.8939 441.7158,-205.8939"/>
<polygon fill="#000000" stroke="#000000" points="438.2159,-205.8938 441.7158,-215.8939 445.2159,-205.8939 438.2159,-205.8938"/>
</g>
<!-- FormGroupModule  -->
<g id="node6" class="node">
<title>FormGroupModule </title>
<polygon fill="#fb8072" stroke="#000000" points="363.6509,-252 234.3491,-252 234.3491,-216 363.6509,-216 363.6509,-252"/>
<text text-anchor="middle" x="299" y="-229.8" font-family="Times,serif" font-size="14.00" fill="#000000">FormGroupModule </text>
</g>
<!-- PromptFormModalModule&#45;&gt;FormGroupModule  -->
<g id="edge5" class="edge">
<title>PromptFormModalModule&#45;&gt;FormGroupModule </title>
<path fill="none" stroke="#000000" stroke-dasharray="5,2" d="M291.1268,-187.1061C291.1268,-187.1061 291.1268,-205.991 291.1268,-205.991"/>
<polygon fill="#000000" stroke="#000000" points="287.6268,-205.9909 291.1268,-215.991 294.6268,-205.991 287.6268,-205.9909"/>
</g>
<!-- PromptFormModalComponent  -->
<g id="node7" class="node">
<title>PromptFormModalComponent </title>
<polygon fill="#fb8072" stroke="#000000" points="216.4404,-252 23.5596,-252 23.5596,-216 216.4404,-216 216.4404,-252"/>
<text text-anchor="middle" x="120" y="-229.8" font-family="Times,serif" font-size="14.00" fill="#000000">PromptFormModalComponent </text>
</g>
<!-- PromptFormModalModule&#45;&gt;PromptFormModalComponent  -->
<g id="edge6" class="edge">
<title>PromptFormModalModule&#45;&gt;PromptFormModalComponent </title>
<path fill="none" stroke="#000000" stroke-dasharray="5,2" d="M198.3207,-187.1061C198.3207,-187.1061 198.3207,-205.991 198.3207,-205.991"/>
<polygon fill="#000000" stroke="#000000" points="194.8207,-205.9909 198.3207,-215.991 201.8207,-205.991 194.8207,-205.9909"/>
</g>
<!-- DirectivesModule -->
<g id="node3" class="node">
<title>DirectivesModule</title>
<polygon fill="#8dd3c7" stroke="#000000" points="287.5772,-122 284.5772,-126 263.5772,-126 260.5772,-122 170.4228,-122 170.4228,-86 287.5772,-86 287.5772,-122"/>
<text text-anchor="middle" x="229" y="-99.8" font-family="Times,serif" font-size="14.00" fill="#000000">DirectivesModule</text>
</g>
<!-- DirectivesModule&#45;&gt;PromptFormModalModule -->
<g id="edge2" class="edge">
<title>DirectivesModule&#45;&gt;PromptFormModalModule</title>
<path fill="none" stroke="#000000" d="M233.8549,-122.1061C233.8549,-122.1061 233.8549,-140.991 233.8549,-140.991"/>
<polygon fill="#000000" stroke="#000000" points="230.3549,-140.9909 233.8549,-150.991 237.3549,-140.991 230.3549,-140.9909"/>
</g>
<!-- FormGroupModule -->
<g id="node4" class="node">
<title>FormGroupModule</title>
<polygon fill="#8dd3c7" stroke="#000000" points="152.6513,-122 149.6513,-126 128.6513,-126 125.6513,-122 27.3487,-122 27.3487,-86 152.6513,-86 152.6513,-122"/>
<text text-anchor="middle" x="90" y="-99.8" font-family="Times,serif" font-size="14.00" fill="#000000">FormGroupModule</text>
</g>
<!-- FormGroupModule&#45;&gt;PromptFormModalModule -->
<g id="edge3" class="edge">
<title>FormGroupModule&#45;&gt;PromptFormModalModule</title>
<path fill="none" stroke="#000000" d="M90,-122.1061C90,-141.3391 90,-169 90,-169 90,-169 170.3128,-169 170.3128,-169"/>
<polygon fill="#000000" stroke="#000000" points="170.3128,-172.5001 180.3128,-169 170.3127,-165.5001 170.3128,-172.5001"/>
</g>
</g>
</svg>
