<?xml version="1.0" encoding="UTF-8" standalone="no"?>
<!DOCTYPE svg PUBLIC "-//W3C//DTD SVG 1.1//EN"
 "http://www.w3.org/Graphics/SVG/1.1/DTD/svg11.dtd">
<!-- Generated by graphviz version 2.40.1 (20161225.0304)
 -->
<!-- Title: dependencies Pages: 1 -->
<svg width="504pt" height="284pt"
 viewBox="0.00 0.00 504.00 284.00" xmlns="http://www.w3.org/2000/svg" xmlns:xlink="http://www.w3.org/1999/xlink">
<g id="graph0" class="graph" transform="scale(1 1) rotate(0) translate(4 280)">
<title>dependencies</title>
<polygon fill="#ffffff" stroke="transparent" points="-4,4 -4,-280 500,-280 500,4 -4,4"/>
<text text-anchor="start" x="227.0091" y="-42.4" font-family="sans-serif" font-weight="bold" font-size="14.00" fill="#000000">Legend</text>
<polygon fill="#ffffb3" stroke="transparent" points="14,-10 14,-30 34,-30 34,-10 14,-10"/>
<text text-anchor="start" x="37.629" y="-15.4" font-family="sans-serif" font-size="14.00" fill="#000000"> &#160;Declarations</text>
<polygon fill="#8dd3c7" stroke="transparent" points="127,-10 127,-30 147,-30 147,-10 127,-10"/>
<text text-anchor="start" x="150.7251" y="-15.4" font-family="sans-serif" font-size="14.00" fill="#000000"> &#160;Module</text>
<polygon fill="#80b1d3" stroke="transparent" points="213,-10 213,-30 233,-30 233,-10 213,-10"/>
<text text-anchor="start" x="236.7812" y="-15.4" font-family="sans-serif" font-size="14.00" fill="#000000"> &#160;Bootstrap</text>
<polygon fill="#fdb462" stroke="transparent" points="310,-10 310,-30 330,-30 330,-10 310,-10"/>
<text text-anchor="start" x="333.6732" y="-15.4" font-family="sans-serif" font-size="14.00" fill="#000000"> &#160;Providers</text>
<polygon fill="#fb8072" stroke="transparent" points="406,-10 406,-30 426,-30 426,-10 406,-10"/>
<text text-anchor="start" x="429.7258" y="-15.4" font-family="sans-serif" font-size="14.00" fill="#000000"> &#160;Exports</text>
<g id="clust1" class="cluster">
<title>cluster_PromptFormModalModule</title>
<polygon fill="none" stroke="#000000" stroke-dasharray="1,5" points="62,-70 62,-268 434,-268 434,-70 62,-70"/>
</g>
<g id="clust2" class="cluster">
<title>cluster_PromptFormModalModule_declarations</title>
<polygon fill="none" stroke="#000000" points="220,-78 220,-130 426,-130 426,-78 220,-78"/>
</g>
<g id="clust4" class="cluster">
<title>cluster_PromptFormModalModule_imports</title>
<polygon fill="none" stroke="#000000" points="70,-78 70,-130 212,-130 212,-78 70,-78"/>
</g>
<g id="clust5" class="cluster">
<title>cluster_PromptFormModalModule_exports</title>
<polygon fill="none" stroke="#000000" points="70,-208 70,-260 426,-260 426,-208 70,-208"/>
</g>
<!-- PromptFormModalComponent -->
<g id="node1" class="node">
<title>PromptFormModalComponent</title>
<polygon fill="#ffffb3" stroke="#000000" points="417.9409,-122 228.0591,-122 228.0591,-86 417.9409,-86 417.9409,-122"/>
<text text-anchor="middle" x="323" y="-99.8" font-family="Times,serif" font-size="14.00" fill="#000000">PromptFormModalComponent</text>
</g>
<!-- PromptFormModalModule -->
<g id="node2" class="node">
<title>PromptFormModalModule</title>
<polygon fill="#8dd3c7" stroke="#000000" points="331.6581,-187 328.6581,-191 307.6581,-191 304.6581,-187 164.3419,-187 164.3419,-151 331.6581,-151 331.6581,-187"/>
<text text-anchor="middle" x="248" y="-164.8" font-family="Times,serif" font-size="14.00" fill="#000000">PromptFormModalModule</text>
</g>
<!-- PromptFormModalComponent&#45;&gt;PromptFormModalModule -->
<g id="edge1" class="edge">
<title>PromptFormModalComponent&#45;&gt;PromptFormModalModule</title>
<path fill="none" stroke="#000000" d="M280.0544,-122.1061C280.0544,-122.1061 280.0544,-140.991 280.0544,-140.991"/>
<polygon fill="#000000" stroke="#000000" points="276.5544,-140.9909 280.0544,-150.991 283.5544,-140.991 276.5544,-140.9909"/>
</g>
<!-- FormGroupModule  -->
<g id="node4" class="node">
<title>FormGroupModule </title>
<polygon fill="#fb8072" stroke="#000000" points="417.6509,-252 288.3491,-252 288.3491,-216 417.6509,-216 417.6509,-252"/>
<text text-anchor="middle" x="353" y="-229.8" font-family="Times,serif" font-size="14.00" fill="#000000">FormGroupModule </text>
</g>
<!-- PromptFormModalModule&#45;&gt;FormGroupModule  -->
<g id="edge3" class="edge">
<title>PromptFormModalModule&#45;&gt;FormGroupModule </title>
<path fill="none" stroke="#000000" stroke-dasharray="5,2" d="M310.1268,-187.1061C310.1268,-187.1061 310.1268,-205.991 310.1268,-205.991"/>
<polygon fill="#000000" stroke="#000000" points="306.6268,-205.9909 310.1268,-215.991 313.6268,-205.991 306.6268,-205.9909"/>
</g>
<!-- PromptFormModalComponent  -->
<g id="node5" class="node">
<title>PromptFormModalComponent </title>
<polygon fill="#fb8072" stroke="#000000" points="270.4404,-252 77.5596,-252 77.5596,-216 270.4404,-216 270.4404,-252"/>
<text text-anchor="middle" x="174" y="-229.8" font-family="Times,serif" font-size="14.00" fill="#000000">PromptFormModalComponent </text>
</g>
<!-- PromptFormModalModule&#45;&gt;PromptFormModalComponent  -->
<g id="edge4" class="edge">
<title>PromptFormModalModule&#45;&gt;PromptFormModalComponent </title>
<path fill="none" stroke="#000000" stroke-dasharray="5,2" d="M217.3207,-187.1061C217.3207,-187.1061 217.3207,-205.991 217.3207,-205.991"/>
<polygon fill="#000000" stroke="#000000" points="213.8207,-205.9909 217.3207,-215.991 220.8207,-205.991 213.8207,-205.9909"/>
</g>
<!-- FormGroupModule -->
<g id="node3" class="node">
<title>FormGroupModule</title>
<polygon fill="#8dd3c7" stroke="#000000" points="203.6513,-122 200.6513,-126 179.6513,-126 176.6513,-122 78.3487,-122 78.3487,-86 203.6513,-86 203.6513,-122"/>
<text text-anchor="middle" x="141" y="-99.8" font-family="Times,serif" font-size="14.00" fill="#000000">FormGroupModule</text>
</g>
<!-- FormGroupModule&#45;&gt;PromptFormModalModule -->
<g id="edge2" class="edge">
<title>FormGroupModule&#45;&gt;PromptFormModalModule</title>
<path fill="none" stroke="#000000" d="M183.9982,-122.1061C183.9982,-122.1061 183.9982,-140.991 183.9982,-140.991"/>
<polygon fill="#000000" stroke="#000000" points="180.4983,-140.9909 183.9982,-150.991 187.4983,-140.991 180.4983,-140.9909"/>
</g>
</g>
</svg>
