<?xml version="1.0" encoding="UTF-8" standalone="no"?>
<!DOCTYPE svg PUBLIC "-//W3C//DTD SVG 1.1//EN"
 "http://www.w3.org/Graphics/SVG/1.1/DTD/svg11.dtd">
<!-- Generated by graphviz version 2.40.1 (20161225.0304)
 -->
<!-- Title: dependencies Pages: 1 -->
<svg width="1774pt" height="396pt"
 viewBox="0.00 0.00 1774.00 395.59" xmlns="http://www.w3.org/2000/svg" xmlns:xlink="http://www.w3.org/1999/xlink">
<g id="graph0" class="graph" transform="scale(1 1) rotate(0) translate(4 391.5901)">
<title>dependencies</title>
<polygon fill="#ffffff" stroke="transparent" points="-4,4 -4,-391.5901 1770,-391.5901 1770,4 -4,4"/>
<text text-anchor="start" x="862.0091" y="-42.4" font-family="sans-serif" font-weight="bold" font-size="14.00" fill="#000000">Legend</text>
<polygon fill="#ffffb3" stroke="transparent" points="649,-10 649,-30 669,-30 669,-10 649,-10"/>
<text text-anchor="start" x="672.629" y="-15.4" font-family="sans-serif" font-size="14.00" fill="#000000"> &#160;Declarations</text>
<polygon fill="#8dd3c7" stroke="transparent" points="762,-10 762,-30 782,-30 782,-10 762,-10"/>
<text text-anchor="start" x="785.7251" y="-15.4" font-family="sans-serif" font-size="14.00" fill="#000000"> &#160;Module</text>
<polygon fill="#80b1d3" stroke="transparent" points="848,-10 848,-30 868,-30 868,-10 848,-10"/>
<text text-anchor="start" x="871.7812" y="-15.4" font-family="sans-serif" font-size="14.00" fill="#000000"> &#160;Bootstrap</text>
<polygon fill="#fdb462" stroke="transparent" points="945,-10 945,-30 965,-30 965,-10 945,-10"/>
<text text-anchor="start" x="968.6732" y="-15.4" font-family="sans-serif" font-size="14.00" fill="#000000"> &#160;Providers</text>
<polygon fill="#fb8072" stroke="transparent" points="1041,-10 1041,-30 1061,-30 1061,-10 1041,-10"/>
<text text-anchor="start" x="1064.7258" y="-15.4" font-family="sans-serif" font-size="14.00" fill="#000000"> &#160;Exports</text>
<g id="clust1" class="cluster">
<title>cluster_ProfilePanelModule</title>
<polygon fill="none" stroke="#000000" stroke-dasharray="1,5" points="8,-70 8,-379.5901 1758,-379.5901 1758,-70 8,-70"/>
</g>
<g id="clust2" class="cluster">
<title>cluster_ProfilePanelModule_declarations</title>
<polygon fill="none" stroke="#000000" points="787,-189.5901 787,-241.5901 953,-241.5901 953,-189.5901 787,-189.5901"/>
</g>
<g id="clust3" class="cluster">
<title>cluster_ProfilePanelModule_ProfilePanelComponent_providers</title>
<polygon fill="none" stroke="#000000" points="16,-78 16,-176.5901 1750,-176.5901 1750,-78 16,-78"/>
</g>
<g id="clust4" class="cluster">
<title>cluster_ProfilePanelModule_imports</title>
<polygon fill="none" stroke="#000000" points="467,-189.5901 467,-241.5901 779,-241.5901 779,-189.5901 467,-189.5901"/>
</g>
<g id="clust5" class="cluster">
<title>cluster_ProfilePanelModule_exports</title>
<polygon fill="none" stroke="#000000" points="623,-319.5901 623,-371.5901 793,-371.5901 793,-319.5901 623,-319.5901"/>
</g>
<!-- ProfilePanelComponent -->
<g id="node1" class="node">
<title>ProfilePanelComponent</title>
<polygon fill="#ffffb3" stroke="#000000" points="945.0351,-233.5901 794.9649,-233.5901 794.9649,-197.5901 945.0351,-197.5901 945.0351,-233.5901"/>
<text text-anchor="middle" x="870" y="-211.3901" font-family="Times,serif" font-size="14.00" fill="#000000">ProfilePanelComponent</text>
</g>
<!-- ProfilePanelModule -->
<g id="node2" class="node">
<title>ProfilePanelModule</title>
<polygon fill="#8dd3c7" stroke="#000000" points="772.252,-298.5901 769.252,-302.5901 748.252,-302.5901 745.252,-298.5901 643.748,-298.5901 643.748,-262.5901 772.252,-262.5901 772.252,-298.5901"/>
<text text-anchor="middle" x="708" y="-276.3901" font-family="Times,serif" font-size="14.00" fill="#000000">ProfilePanelModule</text>
</g>
<!-- ProfilePanelComponent&#45;&gt;ProfilePanelModule -->
<g id="edge1" class="edge">
<title>ProfilePanelComponent&#45;&gt;ProfilePanelModule</title>
<path fill="none" stroke="#000000" d="M870,-233.6962C870,-252.9292 870,-280.5901 870,-280.5901 870,-280.5901 782.4922,-280.5901 782.4922,-280.5901"/>
<polygon fill="#000000" stroke="#000000" points="782.4922,-277.0902 772.4922,-280.5901 782.4921,-284.0902 782.4922,-277.0902"/>
</g>
<!-- ProfilePanelComponent  -->
<g id="node7" class="node">
<title>ProfilePanelComponent </title>
<polygon fill="#fb8072" stroke="#000000" points="785.0344,-363.5901 630.9656,-363.5901 630.9656,-327.5901 785.0344,-327.5901 785.0344,-363.5901"/>
<text text-anchor="middle" x="708" y="-341.3901" font-family="Times,serif" font-size="14.00" fill="#000000">ProfilePanelComponent </text>
</g>
<!-- ProfilePanelModule&#45;&gt;ProfilePanelComponent  -->
<g id="edge6" class="edge">
<title>ProfilePanelModule&#45;&gt;ProfilePanelComponent </title>
<path fill="none" stroke="#000000" stroke-dasharray="5,2" d="M708,-298.6962C708,-298.6962 708,-317.581 708,-317.581"/>
<polygon fill="#000000" stroke="#000000" points="704.5001,-317.581 708,-327.581 711.5001,-317.5811 704.5001,-317.581"/>
</g>
<!-- {
 &#160;&#160;&#160;provide: NG_VALUE_ACCESSOR, useExisting: forwardRef(() =&gt; ProfilePanelComponent), multi: true
} -->
<g id="node3" class="node">
<title>{
 &#160;&#160;&#160;provide: NG_VALUE_ACCESSOR, useExisting: forwardRef(() =&gt; ProfilePanelComponent), multi: true
}</title>
<ellipse fill="#fdb462" stroke="#000000" cx="1304" cy="-127.295" rx="438.3885" ry="41.0911"/>
<text text-anchor="middle" x="1304" y="-139.895" font-family="Times,serif" font-size="14.00" fill="#000000">{</text>
<text text-anchor="middle" x="1304" y="-123.095" font-family="Times,serif" font-size="14.00" fill="#000000"> &#160;&#160;&#160;provide: NG_VALUE_ACCESSOR, useExisting: forwardRef(() =&gt; ProfilePanelComponent), multi: true</text>
<text text-anchor="middle" x="1304" y="-106.295" font-family="Times,serif" font-size="14.00" fill="#000000">}</text>
</g>
<!-- {
 &#160;&#160;&#160;provide: NG_VALUE_ACCESSOR, useExisting: forwardRef(() =&gt; ProfilePanelComponent), multi: true
}&#45;&gt;ProfilePanelComponent -->
<g id="edge2" class="edge">
<title>{
 &#160;&#160;&#160;provide: NG_VALUE_ACCESSOR, useExisting: forwardRef(() =&gt; ProfilePanelComponent), multi: true
}&#45;&gt;ProfilePanelComponent</title>
<path fill="none" stroke="#000000" d="M905.4115,-144.7393C905.4115,-144.7393 905.4115,-187.5759 905.4115,-187.5759"/>
<polygon fill="#000000" stroke="#000000" points="901.9116,-187.5758 905.4115,-197.5759 908.9116,-187.5759 901.9116,-187.5758"/>
</g>
<!-- {
 &#160;&#160;&#160;provide: NG_VALIDATORS, useExisting: forwardRef(() =&gt; ProfilePanelComponent), multi: true
} -->
<g id="node4" class="node">
<title>{
 &#160;&#160;&#160;provide: NG_VALIDATORS, useExisting: forwardRef(() =&gt; ProfilePanelComponent), multi: true
}</title>
<ellipse fill="#fdb462" stroke="#000000" cx="436" cy="-127.295" rx="412.0707" ry="41.0911"/>
<text text-anchor="middle" x="436" y="-139.895" font-family="Times,serif" font-size="14.00" fill="#000000">{</text>
<text text-anchor="middle" x="436" y="-123.095" font-family="Times,serif" font-size="14.00" fill="#000000"> &#160;&#160;&#160;provide: NG_VALIDATORS, useExisting: forwardRef(() =&gt; ProfilePanelComponent), multi: true</text>
<text text-anchor="middle" x="436" y="-106.295" font-family="Times,serif" font-size="14.00" fill="#000000">}</text>
</g>
<!-- {
 &#160;&#160;&#160;provide: NG_VALIDATORS, useExisting: forwardRef(() =&gt; ProfilePanelComponent), multi: true
}&#45;&gt;ProfilePanelComponent -->
<g id="edge3" class="edge">
<title>{
 &#160;&#160;&#160;provide: NG_VALIDATORS, useExisting: forwardRef(() =&gt; ProfilePanelComponent), multi: true
}&#45;&gt;ProfilePanelComponent</title>
<path fill="none" stroke="#000000" d="M821.3841,-142.2731C821.3841,-142.2731 821.3841,-187.4808 821.3841,-187.4808"/>
<polygon fill="#000000" stroke="#000000" points="817.8842,-187.4808 821.3841,-197.4808 824.8842,-187.4809 817.8842,-187.4808"/>
</g>
<!-- FormGroupModule -->
<g id="node5" class="node">
<title>FormGroupModule</title>
<polygon fill="#8dd3c7" stroke="#000000" points="770.6513,-233.5901 767.6513,-237.5901 746.6513,-237.5901 743.6513,-233.5901 645.3487,-233.5901 645.3487,-197.5901 770.6513,-197.5901 770.6513,-233.5901"/>
<text text-anchor="middle" x="708" y="-211.3901" font-family="Times,serif" font-size="14.00" fill="#000000">FormGroupModule</text>
</g>
<!-- FormGroupModule&#45;&gt;ProfilePanelModule -->
<g id="edge4" class="edge">
<title>FormGroupModule&#45;&gt;ProfilePanelModule</title>
<path fill="none" stroke="#000000" d="M708,-233.6962C708,-233.6962 708,-252.581 708,-252.581"/>
<polygon fill="#000000" stroke="#000000" points="704.5001,-252.581 708,-262.581 711.5001,-252.5811 704.5001,-252.581"/>
</g>
<!-- UserGroupsGridModule -->
<g id="node6" class="node">
<title>UserGroupsGridModule</title>
<polygon fill="#8dd3c7" stroke="#000000" points="627.3459,-233.5901 624.3459,-237.5901 603.3459,-237.5901 600.3459,-233.5901 474.6541,-233.5901 474.6541,-197.5901 627.3459,-197.5901 627.3459,-233.5901"/>
<text text-anchor="middle" x="551" y="-211.3901" font-family="Times,serif" font-size="14.00" fill="#000000">UserGroupsGridModule</text>
</g>
<!-- UserGroupsGridModule&#45;&gt;ProfilePanelModule -->
<g id="edge5" class="edge">
<title>UserGroupsGridModule&#45;&gt;ProfilePanelModule</title>
<path fill="none" stroke="#000000" d="M551,-233.6962C551,-252.9292 551,-280.5901 551,-280.5901 551,-280.5901 633.6891,-280.5901 633.6891,-280.5901"/>
<polygon fill="#000000" stroke="#000000" points="633.6891,-284.0902 643.6891,-280.5901 633.6891,-277.0902 633.6891,-284.0902"/>
</g>
</g>
</svg>
