<?xml version="1.0" encoding="UTF-8" standalone="no"?>
<!DOCTYPE svg PUBLIC "-//W3C//DTD SVG 1.1//EN"
 "http://www.w3.org/Graphics/SVG/1.1/DTD/svg11.dtd">
<!-- Generated by graphviz version 2.40.1 (20161225.0304)
 -->
<!-- Title: dependencies Pages: 1 -->
<svg width="1774pt" height="396pt"
 viewBox="0.00 0.00 1774.00 395.59" xmlns="http://www.w3.org/2000/svg" xmlns:xlink="http://www.w3.org/1999/xlink">
<g id="graph0" class="graph" transform="scale(1 1) rotate(0) translate(4 391.5901)">
<title>dependencies</title>
<polygon fill="#ffffff" stroke="transparent" points="-4,4 -4,-391.5901 1770,-391.5901 1770,4 -4,4"/>
<text text-anchor="start" x="862.0091" y="-42.4" font-family="sans-serif" font-weight="bold" font-size="14.00" fill="#000000">Legend</text>
<polygon fill="#ffffb3" stroke="transparent" points="649,-10 649,-30 669,-30 669,-10 649,-10"/>
<text text-anchor="start" x="672.629" y="-15.4" font-family="sans-serif" font-size="14.00" fill="#000000"> &#160;Declarations</text>
<polygon fill="#8dd3c7" stroke="transparent" points="762,-10 762,-30 782,-30 782,-10 762,-10"/>
<text text-anchor="start" x="785.7251" y="-15.4" font-family="sans-serif" font-size="14.00" fill="#000000"> &#160;Module</text>
<polygon fill="#80b1d3" stroke="transparent" points="848,-10 848,-30 868,-30 868,-10 848,-10"/>
<text text-anchor="start" x="871.7812" y="-15.4" font-family="sans-serif" font-size="14.00" fill="#000000"> &#160;Bootstrap</text>
<polygon fill="#fdb462" stroke="transparent" points="945,-10 945,-30 965,-30 965,-10 945,-10"/>
<text text-anchor="start" x="968.6732" y="-15.4" font-family="sans-serif" font-size="14.00" fill="#000000"> &#160;Providers</text>
<polygon fill="#fb8072" stroke="transparent" points="1041,-10 1041,-30 1061,-30 1061,-10 1041,-10"/>
<text text-anchor="start" x="1064.7258" y="-15.4" font-family="sans-serif" font-size="14.00" fill="#000000"> &#160;Exports</text>
<g id="clust1" class="cluster">
<title>cluster_ProfilePanelModule</title>
<polygon fill="none" stroke="#000000" stroke-dasharray="1,5" points="8,-70 8,-379.5901 1758,-379.5901 1758,-70 8,-70"/>
</g>
<g id="clust2" class="cluster">
<title>cluster_ProfilePanelModule_declarations</title>
<polygon fill="none" stroke="#000000" points="846,-189.5901 846,-241.5901 1012,-241.5901 1012,-189.5901 846,-189.5901"/>
</g>
<g id="clust3" class="cluster">
<title>cluster_ProfilePanelModule_ProfilePanelComponent_providers</title>
<polygon fill="none" stroke="#000000" points="16,-78 16,-176.5901 1750,-176.5901 1750,-78 16,-78"/>
</g>
<g id="clust4" class="cluster">
<title>cluster_ProfilePanelModule_imports</title>
<polygon fill="none" stroke="#000000" points="391,-189.5901 391,-241.5901 838,-241.5901 838,-189.5901 391,-189.5901"/>
</g>
<g id="clust5" class="cluster">
<title>cluster_ProfilePanelModule_exports</title>
<polygon fill="none" stroke="#000000" points="616,-319.5901 616,-371.5901 786,-371.5901 786,-319.5901 616,-319.5901"/>
</g>
<!-- ProfilePanelComponent -->
<g id="node1" class="node">
<title>ProfilePanelComponent</title>
<polygon fill="#ffffb3" stroke="#000000" points="1004.0351,-233.5901 853.9649,-233.5901 853.9649,-197.5901 1004.0351,-197.5901 1004.0351,-233.5901"/>
<text text-anchor="middle" x="929" y="-211.3901" font-family="Times,serif" font-size="14.00" fill="#000000">ProfilePanelComponent</text>
</g>
<!-- ProfilePanelModule -->
<g id="node2" class="node">
<title>ProfilePanelModule</title>
<polygon fill="#8dd3c7" stroke="#000000" points="765.252,-298.5901 762.252,-302.5901 741.252,-302.5901 738.252,-298.5901 636.748,-298.5901 636.748,-262.5901 765.252,-262.5901 765.252,-298.5901"/>
<text text-anchor="middle" x="701" y="-276.3901" font-family="Times,serif" font-size="14.00" fill="#000000">ProfilePanelModule</text>
</g>
<!-- ProfilePanelComponent&#45;&gt;ProfilePanelModule -->
<g id="edge1" class="edge">
<title>ProfilePanelComponent&#45;&gt;ProfilePanelModule</title>
<path fill="none" stroke="#000000" d="M929,-233.6962C929,-252.9292 929,-280.5901 929,-280.5901 929,-280.5901 775.4214,-280.5901 775.4214,-280.5901"/>
<polygon fill="#000000" stroke="#000000" points="775.4215,-277.0902 765.4214,-280.5901 775.4214,-284.0902 775.4215,-277.0902"/>
</g>
<!-- ProfilePanelComponent  -->
<g id="node8" class="node">
<title>ProfilePanelComponent </title>
<polygon fill="#fb8072" stroke="#000000" points="778.0344,-363.5901 623.9656,-363.5901 623.9656,-327.5901 778.0344,-327.5901 778.0344,-363.5901"/>
<text text-anchor="middle" x="701" y="-341.3901" font-family="Times,serif" font-size="14.00" fill="#000000">ProfilePanelComponent </text>
</g>
<!-- ProfilePanelModule&#45;&gt;ProfilePanelComponent  -->
<g id="edge7" class="edge">
<title>ProfilePanelModule&#45;&gt;ProfilePanelComponent </title>
<path fill="none" stroke="#000000" stroke-dasharray="5,2" d="M701,-298.6962C701,-298.6962 701,-317.581 701,-317.581"/>
<polygon fill="#000000" stroke="#000000" points="697.5001,-317.581 701,-327.581 704.5001,-317.5811 697.5001,-317.581"/>
</g>
<!-- {
 &#160;&#160;&#160;provide: NG_VALUE_ACCESSOR, useExisting: forwardRef(() =&gt; ProfilePanelComponent), multi: true
} -->
<g id="node3" class="node">
<title>{
 &#160;&#160;&#160;provide: NG_VALUE_ACCESSOR, useExisting: forwardRef(() =&gt; ProfilePanelComponent), multi: true
}</title>
<ellipse fill="#fdb462" stroke="#000000" cx="1304" cy="-127.295" rx="438.3885" ry="41.0911"/>
<text text-anchor="middle" x="1304" y="-139.895" font-family="Times,serif" font-size="14.00" fill="#000000">{</text>
<text text-anchor="middle" x="1304" y="-123.095" font-family="Times,serif" font-size="14.00" fill="#000000"> &#160;&#160;&#160;provide: NG_VALUE_ACCESSOR, useExisting: forwardRef(() =&gt; ProfilePanelComponent), multi: true</text>
<text text-anchor="middle" x="1304" y="-106.295" font-family="Times,serif" font-size="14.00" fill="#000000">}</text>
</g>
<!-- {
 &#160;&#160;&#160;provide: NG_VALUE_ACCESSOR, useExisting: forwardRef(() =&gt; ProfilePanelComponent), multi: true
}&#45;&gt;ProfilePanelComponent -->
<g id="edge2" class="edge">
<title>{
 &#160;&#160;&#160;provide: NG_VALUE_ACCESSOR, useExisting: forwardRef(() =&gt; ProfilePanelComponent), multi: true
}&#45;&gt;ProfilePanelComponent</title>
<path fill="none" stroke="#000000" d="M934.9115,-150.0332C934.9115,-150.0332 934.9115,-187.3756 934.9115,-187.3756"/>
<polygon fill="#000000" stroke="#000000" points="931.4116,-187.3756 934.9115,-197.3756 938.4116,-187.3756 931.4116,-187.3756"/>
</g>
<!-- {
 &#160;&#160;&#160;provide: NG_VALIDATORS, useExisting: forwardRef(() =&gt; ProfilePanelComponent), multi: true
} -->
<g id="node4" class="node">
<title>{
 &#160;&#160;&#160;provide: NG_VALIDATORS, useExisting: forwardRef(() =&gt; ProfilePanelComponent), multi: true
}</title>
<ellipse fill="#fdb462" stroke="#000000" cx="436" cy="-127.295" rx="412.0707" ry="41.0911"/>
<text text-anchor="middle" x="436" y="-139.895" font-family="Times,serif" font-size="14.00" fill="#000000">{</text>
<text text-anchor="middle" x="436" y="-123.095" font-family="Times,serif" font-size="14.00" fill="#000000"> &#160;&#160;&#160;provide: NG_VALIDATORS, useExisting: forwardRef(() =&gt; ProfilePanelComponent), multi: true</text>
<text text-anchor="middle" x="436" y="-106.295" font-family="Times,serif" font-size="14.00" fill="#000000">}</text>
</g>
<!-- {
 &#160;&#160;&#160;provide: NG_VALIDATORS, useExisting: forwardRef(() =&gt; ProfilePanelComponent), multi: true
}&#45;&gt;ProfilePanelComponent -->
<g id="edge3" class="edge">
<title>{
 &#160;&#160;&#160;provide: NG_VALIDATORS, useExisting: forwardRef(() =&gt; ProfilePanelComponent), multi: true
}&#45;&gt;ProfilePanelComponent</title>
<path fill="none" stroke="#000000" d="M838.787,-136.0839C838.787,-158.4171 838.787,-215.5901 838.787,-215.5901 838.787,-215.5901 843.6838,-215.5901 843.6838,-215.5901"/>
<polygon fill="#000000" stroke="#000000" points="843.6839,-219.0902 853.6838,-215.5901 843.6838,-212.0902 843.6839,-219.0902"/>
</g>
<!-- DirectivesModule -->
<g id="node5" class="node">
<title>DirectivesModule</title>
<polygon fill="#8dd3c7" stroke="#000000" points="829.5772,-233.5901 826.5772,-237.5901 805.5772,-237.5901 802.5772,-233.5901 712.4228,-233.5901 712.4228,-197.5901 829.5772,-197.5901 829.5772,-233.5901"/>
<text text-anchor="middle" x="771" y="-211.3901" font-family="Times,serif" font-size="14.00" fill="#000000">DirectivesModule</text>
</g>
<!-- DirectivesModule&#45;&gt;ProfilePanelModule -->
<g id="edge4" class="edge">
<title>DirectivesModule&#45;&gt;ProfilePanelModule</title>
<path fill="none" stroke="#000000" d="M738.9187,-233.6962C738.9187,-233.6962 738.9187,-252.581 738.9187,-252.581"/>
<polygon fill="#000000" stroke="#000000" points="735.4187,-252.581 738.9187,-262.581 742.4187,-252.5811 735.4187,-252.581"/>
</g>
<!-- FormGroupModule -->
<g id="node6" class="node">
<title>FormGroupModule</title>
<polygon fill="#8dd3c7" stroke="#000000" points="694.6513,-233.5901 691.6513,-237.5901 670.6513,-237.5901 667.6513,-233.5901 569.3487,-233.5901 569.3487,-197.5901 694.6513,-197.5901 694.6513,-233.5901"/>
<text text-anchor="middle" x="632" y="-211.3901" font-family="Times,serif" font-size="14.00" fill="#000000">FormGroupModule</text>
</g>
<!-- FormGroupModule&#45;&gt;ProfilePanelModule -->
<g id="edge5" class="edge">
<title>FormGroupModule&#45;&gt;ProfilePanelModule</title>
<path fill="none" stroke="#000000" d="M665.7248,-233.6962C665.7248,-233.6962 665.7248,-252.581 665.7248,-252.581"/>
<polygon fill="#000000" stroke="#000000" points="662.2248,-252.581 665.7248,-262.581 669.2248,-252.5811 662.2248,-252.581"/>
</g>
<!-- UserGroupsGridModule -->
<g id="node7" class="node">
<title>UserGroupsGridModule</title>
<polygon fill="#8dd3c7" stroke="#000000" points="551.3459,-233.5901 548.3459,-237.5901 527.3459,-237.5901 524.3459,-233.5901 398.6541,-233.5901 398.6541,-197.5901 551.3459,-197.5901 551.3459,-233.5901"/>
<text text-anchor="middle" x="475" y="-211.3901" font-family="Times,serif" font-size="14.00" fill="#000000">UserGroupsGridModule</text>
</g>
<!-- UserGroupsGridModule&#45;&gt;ProfilePanelModule -->
<g id="edge6" class="edge">
<title>UserGroupsGridModule&#45;&gt;ProfilePanelModule</title>
<path fill="none" stroke="#000000" d="M475,-233.6962C475,-252.9292 475,-280.5901 475,-280.5901 475,-280.5901 626.5399,-280.5901 626.5399,-280.5901"/>
<polygon fill="#000000" stroke="#000000" points="626.54,-284.0902 636.5399,-280.5901 626.5399,-277.0902 626.54,-284.0902"/>
</g>
</g>
</svg>
