<?xml version="1.0" encoding="UTF-8" standalone="no"?>
<!DOCTYPE svg PUBLIC "-//W3C//DTD SVG 1.1//EN"
 "http://www.w3.org/Graphics/SVG/1.1/DTD/svg11.dtd">
<!-- Generated by graphviz version 2.40.1 (20161225.0304)
 -->
<!-- Title: dependencies Pages: 1 -->
<svg width="1774pt" height="396pt"
 viewBox="0.00 0.00 1774.00 395.59" xmlns="http://www.w3.org/2000/svg" xmlns:xlink="http://www.w3.org/1999/xlink">
<g id="graph0" class="graph" transform="scale(1 1) rotate(0) translate(4 391.5901)">
<title>dependencies</title>
<polygon fill="#ffffff" stroke="transparent" points="-4,4 -4,-391.5901 1770,-391.5901 1770,4 -4,4"/>
<text text-anchor="start" x="862.0091" y="-42.4" font-family="sans-serif" font-weight="bold" font-size="14.00" fill="#000000">Legend</text>
<polygon fill="#ffffb3" stroke="transparent" points="649,-10 649,-30 669,-30 669,-10 649,-10"/>
<text text-anchor="start" x="672.629" y="-15.4" font-family="sans-serif" font-size="14.00" fill="#000000"> &#160;Declarations</text>
<polygon fill="#8dd3c7" stroke="transparent" points="762,-10 762,-30 782,-30 782,-10 762,-10"/>
<text text-anchor="start" x="785.7251" y="-15.4" font-family="sans-serif" font-size="14.00" fill="#000000"> &#160;Module</text>
<polygon fill="#80b1d3" stroke="transparent" points="848,-10 848,-30 868,-30 868,-10 848,-10"/>
<text text-anchor="start" x="871.7812" y="-15.4" font-family="sans-serif" font-size="14.00" fill="#000000"> &#160;Bootstrap</text>
<polygon fill="#fdb462" stroke="transparent" points="945,-10 945,-30 965,-30 965,-10 945,-10"/>
<text text-anchor="start" x="968.6732" y="-15.4" font-family="sans-serif" font-size="14.00" fill="#000000"> &#160;Providers</text>
<polygon fill="#fb8072" stroke="transparent" points="1041,-10 1041,-30 1061,-30 1061,-10 1041,-10"/>
<text text-anchor="start" x="1064.7258" y="-15.4" font-family="sans-serif" font-size="14.00" fill="#000000"> &#160;Exports</text>
<g id="clust1" class="cluster">
<title>cluster_ProfilePanelModule</title>
<polygon fill="none" stroke="#000000" stroke-dasharray="1,5" points="8,-70 8,-379.5901 1758,-379.5901 1758,-70 8,-70"/>
</g>
<g id="clust2" class="cluster">
<title>cluster_ProfilePanelModule_declarations</title>
<polygon fill="none" stroke="#000000" points="927,-189.5901 927,-241.5901 1093,-241.5901 1093,-189.5901 927,-189.5901"/>
</g>
<g id="clust3" class="cluster">
<title>cluster_ProfilePanelModule_ProfilePanelComponent_providers</title>
<polygon fill="none" stroke="#000000" points="16,-78 16,-176.5901 1750,-176.5901 1750,-78 16,-78"/>
</g>
<g id="clust4" class="cluster">
<title>cluster_ProfilePanelModule_imports</title>
<polygon fill="none" stroke="#000000" points="309,-189.5901 309,-241.5901 919,-241.5901 919,-189.5901 309,-189.5901"/>
</g>
<g id="clust5" class="cluster">
<title>cluster_ProfilePanelModule_exports</title>
<polygon fill="none" stroke="#000000" points="628,-319.5901 628,-371.5901 798,-371.5901 798,-319.5901 628,-319.5901"/>
</g>
<!-- ProfilePanelComponent -->
<g id="node1" class="node">
<title>ProfilePanelComponent</title>
<polygon fill="#ffffb3" stroke="#000000" points="1085.0351,-233.5901 934.9649,-233.5901 934.9649,-197.5901 1085.0351,-197.5901 1085.0351,-233.5901"/>
<text text-anchor="middle" x="1010" y="-211.3901" font-family="Times,serif" font-size="14.00" fill="#000000">ProfilePanelComponent</text>
</g>
<!-- ProfilePanelModule -->
<g id="node2" class="node">
<title>ProfilePanelModule</title>
<polygon fill="#8dd3c7" stroke="#000000" points="777.252,-298.5901 774.252,-302.5901 753.252,-302.5901 750.252,-298.5901 648.748,-298.5901 648.748,-262.5901 777.252,-262.5901 777.252,-298.5901"/>
<text text-anchor="middle" x="713" y="-276.3901" font-family="Times,serif" font-size="14.00" fill="#000000">ProfilePanelModule</text>
</g>
<!-- ProfilePanelComponent&#45;&gt;ProfilePanelModule -->
<g id="edge1" class="edge">
<title>ProfilePanelComponent&#45;&gt;ProfilePanelModule</title>
<path fill="none" stroke="#000000" d="M1010,-233.8743C1010,-254.9111 1010,-286.5901 1010,-286.5901 1010,-286.5901 787.4446,-286.5901 787.4446,-286.5901"/>
<polygon fill="#000000" stroke="#000000" points="787.4446,-283.0902 777.4446,-286.5901 787.4445,-290.0902 787.4446,-283.0902"/>
</g>
<!-- ProfilePanelComponent  -->
<g id="node9" class="node">
<title>ProfilePanelComponent </title>
<polygon fill="#fb8072" stroke="#000000" points="790.0344,-363.5901 635.9656,-363.5901 635.9656,-327.5901 790.0344,-327.5901 790.0344,-363.5901"/>
<text text-anchor="middle" x="713" y="-341.3901" font-family="Times,serif" font-size="14.00" fill="#000000">ProfilePanelComponent </text>
</g>
<!-- ProfilePanelModule&#45;&gt;ProfilePanelComponent  -->
<g id="edge8" class="edge">
<title>ProfilePanelModule&#45;&gt;ProfilePanelComponent </title>
<path fill="none" stroke="#000000" stroke-dasharray="5,2" d="M713,-298.6962C713,-298.6962 713,-317.581 713,-317.581"/>
<polygon fill="#000000" stroke="#000000" points="709.5001,-317.581 713,-327.581 716.5001,-317.5811 709.5001,-317.581"/>
</g>
<!-- {
 &#160;&#160;&#160;provide: NG_VALUE_ACCESSOR, useExisting: forwardRef(() =&gt; ProfilePanelComponent), multi: true
} -->
<g id="node3" class="node">
<title>{
 &#160;&#160;&#160;provide: NG_VALUE_ACCESSOR, useExisting: forwardRef(() =&gt; ProfilePanelComponent), multi: true
}</title>
<ellipse fill="#fdb462" stroke="#000000" cx="1304" cy="-127.295" rx="438.3885" ry="41.0911"/>
<text text-anchor="middle" x="1304" y="-139.895" font-family="Times,serif" font-size="14.00" fill="#000000">{</text>
<text text-anchor="middle" x="1304" y="-123.095" font-family="Times,serif" font-size="14.00" fill="#000000"> &#160;&#160;&#160;provide: NG_VALUE_ACCESSOR, useExisting: forwardRef(() =&gt; ProfilePanelComponent), multi: true</text>
<text text-anchor="middle" x="1304" y="-106.295" font-family="Times,serif" font-size="14.00" fill="#000000">}</text>
</g>
<!-- {
 &#160;&#160;&#160;provide: NG_VALUE_ACCESSOR, useExisting: forwardRef(() =&gt; ProfilePanelComponent), multi: true
}&#45;&gt;ProfilePanelComponent -->
<g id="edge2" class="edge">
<title>{
 &#160;&#160;&#160;provide: NG_VALUE_ACCESSOR, useExisting: forwardRef(() =&gt; ProfilePanelComponent), multi: true
}&#45;&gt;ProfilePanelComponent</title>
<path fill="none" stroke="#000000" d="M1035.0891,-159.922C1035.0891,-159.922 1035.0891,-187.188 1035.0891,-187.188"/>
<polygon fill="#000000" stroke="#000000" points="1031.5892,-187.188 1035.0891,-197.188 1038.5892,-187.1881 1031.5892,-187.188"/>
</g>
<!-- {
 &#160;&#160;&#160;provide: NG_VALIDATORS, useExisting: forwardRef(() =&gt; ProfilePanelComponent), multi: true
} -->
<g id="node4" class="node">
<title>{
 &#160;&#160;&#160;provide: NG_VALIDATORS, useExisting: forwardRef(() =&gt; ProfilePanelComponent), multi: true
}</title>
<ellipse fill="#fdb462" stroke="#000000" cx="436" cy="-127.295" rx="412.0707" ry="41.0911"/>
<text text-anchor="middle" x="436" y="-139.895" font-family="Times,serif" font-size="14.00" fill="#000000">{</text>
<text text-anchor="middle" x="436" y="-123.095" font-family="Times,serif" font-size="14.00" fill="#000000"> &#160;&#160;&#160;provide: NG_VALIDATORS, useExisting: forwardRef(() =&gt; ProfilePanelComponent), multi: true</text>
<text text-anchor="middle" x="436" y="-106.295" font-family="Times,serif" font-size="14.00" fill="#000000">}</text>
</g>
<!-- {
 &#160;&#160;&#160;provide: NG_VALIDATORS, useExisting: forwardRef(() =&gt; ProfilePanelComponent), multi: true
}&#45;&gt;ProfilePanelComponent -->
<g id="edge3" class="edge">
<title>{
 &#160;&#160;&#160;provide: NG_VALIDATORS, useExisting: forwardRef(() =&gt; ProfilePanelComponent), multi: true
}&#45;&gt;ProfilePanelComponent</title>
<path fill="none" stroke="#000000" d="M820.7484,-142.0859C820.7484,-158.7651 820.7484,-183.5901 820.7484,-183.5901 820.7484,-183.5901 984.9109,-183.5901 984.9109,-183.5901 984.9109,-183.5901 984.9109,-187.3467 984.9109,-187.3467"/>
<polygon fill="#000000" stroke="#000000" points="981.411,-187.3466 984.9109,-197.3467 988.411,-187.3467 981.411,-187.3466"/>
</g>
<!-- DirectivesModule -->
<g id="node5" class="node">
<title>DirectivesModule</title>
<polygon fill="#8dd3c7" stroke="#000000" points="910.5772,-233.5901 907.5772,-237.5901 886.5772,-237.5901 883.5772,-233.5901 793.4228,-233.5901 793.4228,-197.5901 910.5772,-197.5901 910.5772,-233.5901"/>
<text text-anchor="middle" x="852" y="-211.3901" font-family="Times,serif" font-size="14.00" fill="#000000">DirectivesModule</text>
</g>
<!-- DirectivesModule&#45;&gt;ProfilePanelModule -->
<g id="edge4" class="edge">
<title>DirectivesModule&#45;&gt;ProfilePanelModule</title>
<path fill="none" stroke="#000000" d="M852,-233.6126C852,-250.9634 852,-274.5901 852,-274.5901 852,-274.5901 787.6169,-274.5901 787.6169,-274.5901"/>
<polygon fill="#000000" stroke="#000000" points="787.6169,-271.0902 777.6169,-274.5901 787.6168,-278.0902 787.6169,-271.0902"/>
</g>
<!-- FormGroupModule -->
<g id="node6" class="node">
<title>FormGroupModule</title>
<polygon fill="#8dd3c7" stroke="#000000" points="775.6513,-233.5901 772.6513,-237.5901 751.6513,-237.5901 748.6513,-233.5901 650.3487,-233.5901 650.3487,-197.5901 775.6513,-197.5901 775.6513,-233.5901"/>
<text text-anchor="middle" x="713" y="-211.3901" font-family="Times,serif" font-size="14.00" fill="#000000">FormGroupModule</text>
</g>
<!-- FormGroupModule&#45;&gt;ProfilePanelModule -->
<g id="edge5" class="edge">
<title>FormGroupModule&#45;&gt;ProfilePanelModule</title>
<path fill="none" stroke="#000000" d="M713,-233.6962C713,-233.6962 713,-252.581 713,-252.581"/>
<polygon fill="#000000" stroke="#000000" points="709.5001,-252.581 713,-262.581 716.5001,-252.5811 709.5001,-252.581"/>
</g>
<!-- MessageModalModule -->
<g id="node7" class="node">
<title>MessageModalModule</title>
<polygon fill="#8dd3c7" stroke="#000000" points="632.5772,-233.5901 629.5772,-237.5901 608.5772,-237.5901 605.5772,-233.5901 487.4228,-233.5901 487.4228,-197.5901 632.5772,-197.5901 632.5772,-233.5901"/>
<text text-anchor="middle" x="560" y="-211.3901" font-family="Times,serif" font-size="14.00" fill="#000000">MessageModalModule</text>
</g>
<!-- MessageModalModule&#45;&gt;ProfilePanelModule -->
<g id="edge6" class="edge">
<title>MessageModalModule&#45;&gt;ProfilePanelModule</title>
<path fill="none" stroke="#000000" d="M560,-233.6126C560,-250.9634 560,-274.5901 560,-274.5901 560,-274.5901 638.5577,-274.5901 638.5577,-274.5901"/>
<polygon fill="#000000" stroke="#000000" points="638.5577,-278.0902 648.5577,-274.5901 638.5576,-271.0902 638.5577,-278.0902"/>
</g>
<!-- UserGroupsGridModule -->
<g id="node8" class="node">
<title>UserGroupsGridModule</title>
<polygon fill="#8dd3c7" stroke="#000000" points="469.3459,-233.5901 466.3459,-237.5901 445.3459,-237.5901 442.3459,-233.5901 316.6541,-233.5901 316.6541,-197.5901 469.3459,-197.5901 469.3459,-233.5901"/>
<text text-anchor="middle" x="393" y="-211.3901" font-family="Times,serif" font-size="14.00" fill="#000000">UserGroupsGridModule</text>
</g>
<!-- UserGroupsGridModule&#45;&gt;ProfilePanelModule -->
<g id="edge7" class="edge">
<title>UserGroupsGridModule&#45;&gt;ProfilePanelModule</title>
<path fill="none" stroke="#000000" d="M393,-233.8743C393,-254.9111 393,-286.5901 393,-286.5901 393,-286.5901 638.6282,-286.5901 638.6282,-286.5901"/>
<polygon fill="#000000" stroke="#000000" points="638.6282,-290.0902 648.6282,-286.5901 638.6281,-283.0902 638.6282,-290.0902"/>
</g>
</g>
</svg>
