<?xml version="1.0" encoding="UTF-8" standalone="no"?>
<!DOCTYPE svg PUBLIC "-//W3C//DTD SVG 1.1//EN"
 "http://www.w3.org/Graphics/SVG/1.1/DTD/svg11.dtd">
<!-- Generated by graphviz version 2.40.1 (20161225.0304)
 -->
<!-- Title: dependencies Pages: 1 -->
<svg width="504pt" height="284pt"
 viewBox="0.00 0.00 504.00 284.00" xmlns="http://www.w3.org/2000/svg" xmlns:xlink="http://www.w3.org/1999/xlink">
<g id="graph0" class="graph" transform="scale(1 1) rotate(0) translate(4 280)">
<title>dependencies</title>
<polygon fill="#ffffff" stroke="transparent" points="-4,4 -4,-280 500,-280 500,4 -4,4"/>
<text text-anchor="start" x="227.0091" y="-42.4" font-family="sans-serif" font-weight="bold" font-size="14.00" fill="#000000">Legend</text>
<polygon fill="#ffffb3" stroke="transparent" points="14,-10 14,-30 34,-30 34,-10 14,-10"/>
<text text-anchor="start" x="37.629" y="-15.4" font-family="sans-serif" font-size="14.00" fill="#000000"> &#160;Declarations</text>
<polygon fill="#8dd3c7" stroke="transparent" points="127,-10 127,-30 147,-30 147,-10 127,-10"/>
<text text-anchor="start" x="150.7251" y="-15.4" font-family="sans-serif" font-size="14.00" fill="#000000"> &#160;Module</text>
<polygon fill="#80b1d3" stroke="transparent" points="213,-10 213,-30 233,-30 233,-10 213,-10"/>
<text text-anchor="start" x="236.7812" y="-15.4" font-family="sans-serif" font-size="14.00" fill="#000000"> &#160;Bootstrap</text>
<polygon fill="#fdb462" stroke="transparent" points="310,-10 310,-30 330,-30 330,-10 310,-10"/>
<text text-anchor="start" x="333.6732" y="-15.4" font-family="sans-serif" font-size="14.00" fill="#000000"> &#160;Providers</text>
<polygon fill="#fb8072" stroke="transparent" points="406,-10 406,-30 426,-30 426,-10 406,-10"/>
<text text-anchor="start" x="429.7258" y="-15.4" font-family="sans-serif" font-size="14.00" fill="#000000"> &#160;Exports</text>
<g id="clust1" class="cluster">
<title>cluster_EntityGridModule</title>
<polygon fill="none" stroke="#000000" stroke-dasharray="1,5" points="76,-70 76,-268 420,-268 420,-70 76,-70"/>
</g>
<g id="clust2" class="cluster">
<title>cluster_EntityGridModule_declarations</title>
<polygon fill="none" stroke="#000000" points="254,-78 254,-130 412,-130 412,-78 254,-78"/>
</g>
<g id="clust4" class="cluster">
<title>cluster_EntityGridModule_imports</title>
<polygon fill="none" stroke="#000000" points="84,-78 84,-130 246,-130 246,-78 84,-78"/>
</g>
<g id="clust5" class="cluster">
<title>cluster_EntityGridModule_exports</title>
<polygon fill="none" stroke="#000000" points="84,-208 84,-260 411,-260 411,-208 84,-208"/>
</g>
<!-- EntityGridComponent -->
<g id="node1" class="node">
<title>EntityGridComponent</title>
<polygon fill="#ffffb3" stroke="#000000" points="403.7148,-122 262.2852,-122 262.2852,-86 403.7148,-86 403.7148,-122"/>
<text text-anchor="middle" x="333" y="-99.8" font-family="Times,serif" font-size="14.00" fill="#000000">EntityGridComponent</text>
</g>
<!-- EntityGridModule -->
<g id="node2" class="node">
<title>EntityGridModule</title>
<polygon fill="#8dd3c7" stroke="#000000" points="307.9328,-187 304.9328,-191 283.9328,-191 280.9328,-187 188.0672,-187 188.0672,-151 307.9328,-151 307.9328,-187"/>
<text text-anchor="middle" x="248" y="-164.8" font-family="Times,serif" font-size="14.00" fill="#000000">EntityGridModule</text>
</g>
<!-- EntityGridComponent&#45;&gt;EntityGridModule -->
<g id="edge1" class="edge">
<title>EntityGridComponent&#45;&gt;EntityGridModule</title>
<path fill="none" stroke="#000000" d="M285.0544,-122.1061C285.0544,-122.1061 285.0544,-140.991 285.0544,-140.991"/>
<polygon fill="#000000" stroke="#000000" points="281.5544,-140.9909 285.0544,-150.991 288.5544,-140.991 281.5544,-140.9909"/>
</g>
<!-- EntityGridComponent  -->
<g id="node4" class="node">
<title>EntityGridComponent </title>
<polygon fill="#fb8072" stroke="#000000" points="403.2149,-252 258.7851,-252 258.7851,-216 403.2149,-216 403.2149,-252"/>
<text text-anchor="middle" x="331" y="-229.8" font-family="Times,serif" font-size="14.00" fill="#000000">EntityGridComponent </text>
</g>
<!-- EntityGridModule&#45;&gt;EntityGridComponent  -->
<g id="edge3" class="edge">
<title>EntityGridModule&#45;&gt;EntityGridComponent </title>
<path fill="none" stroke="#000000" stroke-dasharray="5,2" d="M283.1794,-187.1061C283.1794,-187.1061 283.1794,-205.991 283.1794,-205.991"/>
<polygon fill="#000000" stroke="#000000" points="279.6794,-205.9909 283.1794,-215.991 286.6794,-205.991 279.6794,-205.9909"/>
</g>
<!-- MessageModalModule  -->
<g id="node5" class="node">
<title>MessageModalModule </title>
<polygon fill="#fb8072" stroke="#000000" points="240.0778,-252 91.9222,-252 91.9222,-216 240.0778,-216 240.0778,-252"/>
<text text-anchor="middle" x="166" y="-229.8" font-family="Times,serif" font-size="14.00" fill="#000000">MessageModalModule </text>
</g>
<!-- EntityGridModule&#45;&gt;MessageModalModule  -->
<g id="edge4" class="edge">
<title>EntityGridModule&#45;&gt;MessageModalModule </title>
<path fill="none" stroke="#000000" stroke-dasharray="5,2" d="M214.2863,-187.1061C214.2863,-187.1061 214.2863,-205.991 214.2863,-205.991"/>
<polygon fill="#000000" stroke="#000000" points="210.7864,-205.9909 214.2863,-215.991 217.7864,-205.991 210.7864,-205.9909"/>
</g>
<!-- MessageModalModule -->
<g id="node3" class="node">
<title>MessageModalModule</title>
<polygon fill="#8dd3c7" stroke="#000000" points="237.5772,-122 234.5772,-126 213.5772,-126 210.5772,-122 92.4228,-122 92.4228,-86 237.5772,-86 237.5772,-122"/>
<text text-anchor="middle" x="165" y="-99.8" font-family="Times,serif" font-size="14.00" fill="#000000">MessageModalModule</text>
</g>
<!-- MessageModalModule&#45;&gt;EntityGridModule -->
<g id="edge2" class="edge">
<title>MessageModalModule&#45;&gt;EntityGridModule</title>
<path fill="none" stroke="#000000" d="M212.9113,-122.1061C212.9113,-122.1061 212.9113,-140.991 212.9113,-140.991"/>
<polygon fill="#000000" stroke="#000000" points="209.4114,-140.9909 212.9113,-150.991 216.4114,-140.991 209.4114,-140.9909"/>
</g>
</g>
</svg>
