<?xml version="1.0" encoding="UTF-8" standalone="no"?>
<!DOCTYPE svg PUBLIC "-//W3C//DTD SVG 1.1//EN"
 "http://www.w3.org/Graphics/SVG/1.1/DTD/svg11.dtd">
<!-- Generated by graphviz version 2.40.1 (20161225.0304)
 -->
<!-- Title: dependencies Pages: 1 -->
<svg width="504pt" height="284pt"
 viewBox="0.00 0.00 504.00 284.00" xmlns="http://www.w3.org/2000/svg" xmlns:xlink="http://www.w3.org/1999/xlink">
<g id="graph0" class="graph" transform="scale(1 1) rotate(0) translate(4 280)">
<title>dependencies</title>
<polygon fill="#ffffff" stroke="transparent" points="-4,4 -4,-280 500,-280 500,4 -4,4"/>
<text text-anchor="start" x="227.0091" y="-42.4" font-family="sans-serif" font-weight="bold" font-size="14.00" fill="#000000">Legend</text>
<polygon fill="#ffffb3" stroke="transparent" points="14,-10 14,-30 34,-30 34,-10 14,-10"/>
<text text-anchor="start" x="37.629" y="-15.4" font-family="sans-serif" font-size="14.00" fill="#000000"> &#160;Declarations</text>
<polygon fill="#8dd3c7" stroke="transparent" points="127,-10 127,-30 147,-30 147,-10 127,-10"/>
<text text-anchor="start" x="150.7251" y="-15.4" font-family="sans-serif" font-size="14.00" fill="#000000"> &#160;Module</text>
<polygon fill="#80b1d3" stroke="transparent" points="213,-10 213,-30 233,-30 233,-10 213,-10"/>
<text text-anchor="start" x="236.7812" y="-15.4" font-family="sans-serif" font-size="14.00" fill="#000000"> &#160;Bootstrap</text>
<polygon fill="#fdb462" stroke="transparent" points="310,-10 310,-30 330,-30 330,-10 310,-10"/>
<text text-anchor="start" x="333.6732" y="-15.4" font-family="sans-serif" font-size="14.00" fill="#000000"> &#160;Providers</text>
<polygon fill="#fb8072" stroke="transparent" points="406,-10 406,-30 426,-30 426,-10 406,-10"/>
<text text-anchor="start" x="429.7258" y="-15.4" font-family="sans-serif" font-size="14.00" fill="#000000"> &#160;Exports</text>
<g id="clust1" class="cluster">
<title>cluster_GroupPermissionsGridModule</title>
<polygon fill="none" stroke="#000000" stroke-dasharray="1,5" points="20,-70 20,-268 476,-268 476,-70 20,-70"/>
</g>
<g id="clust2" class="cluster">
<title>cluster_GroupPermissionsGridModule_declarations</title>
<polygon fill="none" stroke="#000000" points="242,-78 242,-130 468,-130 468,-78 242,-78"/>
</g>
<g id="clust4" class="cluster">
<title>cluster_GroupPermissionsGridModule_imports</title>
<polygon fill="none" stroke="#000000" points="28,-78 28,-130 234,-130 234,-78 28,-78"/>
</g>
<g id="clust5" class="cluster">
<title>cluster_GroupPermissionsGridModule_exports</title>
<polygon fill="none" stroke="#000000" points="28,-208 28,-260 468,-260 468,-208 28,-208"/>
</g>
<!-- GroupPermissionsGridComponent -->
<g id="node1" class="node">
<title>GroupPermissionsGridComponent</title>
<polygon fill="#ffffb3" stroke="#000000" points="460.4212,-122 249.5788,-122 249.5788,-86 460.4212,-86 460.4212,-122"/>
<text text-anchor="middle" x="355" y="-99.8" font-family="Times,serif" font-size="14.00" fill="#000000">GroupPermissionsGridComponent</text>
</g>
<!-- GroupPermissionsGridModule -->
<g id="node2" class="node">
<title>GroupPermissionsGridModule</title>
<polygon fill="#8dd3c7" stroke="#000000" points="336.1385,-187 333.1385,-191 312.1385,-191 309.1385,-187 147.8615,-187 147.8615,-151 336.1385,-151 336.1385,-187"/>
<text text-anchor="middle" x="242" y="-164.8" font-family="Times,serif" font-size="14.00" fill="#000000">GroupPermissionsGridModule</text>
</g>
<!-- GroupPermissionsGridComponent&#45;&gt;GroupPermissionsGridModule -->
<g id="edge1" class="edge">
<title>GroupPermissionsGridComponent&#45;&gt;GroupPermissionsGridModule</title>
<path fill="none" stroke="#000000" d="M293.0544,-122.1061C293.0544,-122.1061 293.0544,-140.991 293.0544,-140.991"/>
<polygon fill="#000000" stroke="#000000" points="289.5544,-140.9909 293.0544,-150.991 296.5544,-140.991 289.5544,-140.9909"/>
</g>
<!-- GroupPermissionsGridComponent  -->
<g id="node4" class="node">
<title>GroupPermissionsGridComponent </title>
<polygon fill="#fb8072" stroke="#000000" points="459.9208,-252 246.0792,-252 246.0792,-216 459.9208,-216 459.9208,-252"/>
<text text-anchor="middle" x="353" y="-229.8" font-family="Times,serif" font-size="14.00" fill="#000000">GroupPermissionsGridComponent </text>
</g>
<!-- GroupPermissionsGridModule&#45;&gt;GroupPermissionsGridComponent  -->
<g id="edge3" class="edge">
<title>GroupPermissionsGridModule&#45;&gt;GroupPermissionsGridComponent </title>
<path fill="none" stroke="#000000" stroke-dasharray="5,2" d="M291.1794,-187.1061C291.1794,-187.1061 291.1794,-205.991 291.1794,-205.991"/>
<polygon fill="#000000" stroke="#000000" points="287.6794,-205.9909 291.1794,-215.991 294.6794,-205.991 287.6794,-205.9909"/>
</g>
<!-- PermissionsGridModalModule  -->
<g id="node5" class="node">
<title>PermissionsGridModalModule </title>
<polygon fill="#fb8072" stroke="#000000" points="228.4208,-252 35.5792,-252 35.5792,-216 228.4208,-216 228.4208,-252"/>
<text text-anchor="middle" x="132" y="-229.8" font-family="Times,serif" font-size="14.00" fill="#000000">PermissionsGridModalModule </text>
</g>
<!-- GroupPermissionsGridModule&#45;&gt;PermissionsGridModalModule  -->
<g id="edge4" class="edge">
<title>GroupPermissionsGridModule&#45;&gt;PermissionsGridModalModule </title>
<path fill="none" stroke="#000000" stroke-dasharray="5,2" d="M188.0707,-187.1061C188.0707,-187.1061 188.0707,-205.991 188.0707,-205.991"/>
<polygon fill="#000000" stroke="#000000" points="184.5707,-205.9909 188.0707,-215.991 191.5707,-205.991 184.5707,-205.9909"/>
</g>
<!-- PermissionsGridModalModule -->
<g id="node3" class="node">
<title>PermissionsGridModalModule</title>
<polygon fill="#8dd3c7" stroke="#000000" points="225.9213,-122 222.9213,-126 201.9213,-126 198.9213,-122 36.0787,-122 36.0787,-86 225.9213,-86 225.9213,-122"/>
<text text-anchor="middle" x="131" y="-99.8" font-family="Times,serif" font-size="14.00" fill="#000000">PermissionsGridModalModule</text>
</g>
<!-- PermissionsGridModalModule&#45;&gt;GroupPermissionsGridModule -->
<g id="edge2" class="edge">
<title>PermissionsGridModalModule&#45;&gt;GroupPermissionsGridModule</title>
<path fill="none" stroke="#000000" d="M186.6957,-122.1061C186.6957,-122.1061 186.6957,-140.991 186.6957,-140.991"/>
<polygon fill="#000000" stroke="#000000" points="183.1957,-140.9909 186.6957,-150.991 190.1957,-140.991 183.1957,-140.9909"/>
</g>
</g>
</svg>
