<?xml version="1.0" encoding="UTF-8" standalone="no"?>
<!DOCTYPE svg PUBLIC "-//W3C//DTD SVG 1.1//EN"
 "http://www.w3.org/Graphics/SVG/1.1/DTD/svg11.dtd">
<!-- Generated by graphviz version 2.40.1 (20161225.0304)
 -->
<!-- Title: dependencies Pages: 1 -->
<svg width="1018pt" height="396pt"
 viewBox="0.00 0.00 1018.00 395.59" xmlns="http://www.w3.org/2000/svg" xmlns:xlink="http://www.w3.org/1999/xlink">
<g id="graph0" class="graph" transform="scale(1 1) rotate(0) translate(4 391.5901)">
<title>dependencies</title>
<polygon fill="#ffffff" stroke="transparent" points="-4,4 -4,-391.5901 1014,-391.5901 1014,4 -4,4"/>
<text text-anchor="start" x="484.0091" y="-42.4" font-family="sans-serif" font-weight="bold" font-size="14.00" fill="#000000">Legend</text>
<polygon fill="#ffffb3" stroke="transparent" points="271,-10 271,-30 291,-30 291,-10 271,-10"/>
<text text-anchor="start" x="294.629" y="-15.4" font-family="sans-serif" font-size="14.00" fill="#000000"> &#160;Declarations</text>
<polygon fill="#8dd3c7" stroke="transparent" points="384,-10 384,-30 404,-30 404,-10 384,-10"/>
<text text-anchor="start" x="407.7251" y="-15.4" font-family="sans-serif" font-size="14.00" fill="#000000"> &#160;Module</text>
<polygon fill="#80b1d3" stroke="transparent" points="470,-10 470,-30 490,-30 490,-10 470,-10"/>
<text text-anchor="start" x="493.7812" y="-15.4" font-family="sans-serif" font-size="14.00" fill="#000000"> &#160;Bootstrap</text>
<polygon fill="#fdb462" stroke="transparent" points="567,-10 567,-30 587,-30 587,-10 567,-10"/>
<text text-anchor="start" x="590.6732" y="-15.4" font-family="sans-serif" font-size="14.00" fill="#000000"> &#160;Providers</text>
<polygon fill="#fb8072" stroke="transparent" points="663,-10 663,-30 683,-30 683,-10 663,-10"/>
<text text-anchor="start" x="686.7258" y="-15.4" font-family="sans-serif" font-size="14.00" fill="#000000"> &#160;Exports</text>
<g id="clust1" class="cluster">
<title>cluster_GroupPermissionsGridModule</title>
<polygon fill="none" stroke="#000000" stroke-dasharray="1,5" points="8,-70 8,-379.5901 1002,-379.5901 1002,-70 8,-70"/>
</g>
<g id="clust2" class="cluster">
<title>cluster_GroupPermissionsGridModule_declarations</title>
<polygon fill="none" stroke="#000000" points="392,-189.5901 392,-241.5901 618,-241.5901 618,-189.5901 392,-189.5901"/>
</g>
<g id="clust3" class="cluster">
<title>cluster_GroupPermissionsGridModule_GroupPermissionsGridComponent_providers</title>
<polygon fill="none" stroke="#000000" points="16,-78 16,-176.5901 994,-176.5901 994,-78 16,-78"/>
</g>
<g id="clust4" class="cluster">
<title>cluster_GroupPermissionsGridModule_imports</title>
<polygon fill="none" stroke="#000000" points="178,-189.5901 178,-241.5901 384,-241.5901 384,-189.5901 178,-189.5901"/>
</g>
<g id="clust5" class="cluster">
<title>cluster_GroupPermissionsGridModule_exports</title>
<polygon fill="none" stroke="#000000" points="179,-319.5901 179,-371.5901 619,-371.5901 619,-319.5901 179,-319.5901"/>
</g>
<!-- GroupPermissionsGridComponent -->
<g id="node1" class="node">
<title>GroupPermissionsGridComponent</title>
<polygon fill="#ffffb3" stroke="#000000" points="610.4212,-233.5901 399.5788,-233.5901 399.5788,-197.5901 610.4212,-197.5901 610.4212,-233.5901"/>
<text text-anchor="middle" x="505" y="-211.3901" font-family="Times,serif" font-size="14.00" fill="#000000">GroupPermissionsGridComponent</text>
</g>
<!-- GroupPermissionsGridModule -->
<g id="node2" class="node">
<title>GroupPermissionsGridModule</title>
<polygon fill="#8dd3c7" stroke="#000000" points="487.1385,-298.5901 484.1385,-302.5901 463.1385,-302.5901 460.1385,-298.5901 298.8615,-298.5901 298.8615,-262.5901 487.1385,-262.5901 487.1385,-298.5901"/>
<text text-anchor="middle" x="393" y="-276.3901" font-family="Times,serif" font-size="14.00" fill="#000000">GroupPermissionsGridModule</text>
</g>
<!-- GroupPermissionsGridComponent&#45;&gt;GroupPermissionsGridModule -->
<g id="edge1" class="edge">
<title>GroupPermissionsGridComponent&#45;&gt;GroupPermissionsGridModule</title>
<path fill="none" stroke="#000000" d="M443.5544,-233.6962C443.5544,-233.6962 443.5544,-252.581 443.5544,-252.581"/>
<polygon fill="#000000" stroke="#000000" points="440.0544,-252.581 443.5544,-262.581 447.0544,-252.5811 440.0544,-252.581"/>
</g>
<!-- GroupPermissionsGridComponent  -->
<g id="node5" class="node">
<title>GroupPermissionsGridComponent </title>
<polygon fill="#fb8072" stroke="#000000" points="610.9208,-363.5901 397.0792,-363.5901 397.0792,-327.5901 610.9208,-327.5901 610.9208,-363.5901"/>
<text text-anchor="middle" x="504" y="-341.3901" font-family="Times,serif" font-size="14.00" fill="#000000">GroupPermissionsGridComponent </text>
</g>
<!-- GroupPermissionsGridModule&#45;&gt;GroupPermissionsGridComponent  -->
<g id="edge4" class="edge">
<title>GroupPermissionsGridModule&#45;&gt;GroupPermissionsGridComponent </title>
<path fill="none" stroke="#000000" stroke-dasharray="5,2" d="M442.1794,-298.6962C442.1794,-298.6962 442.1794,-317.581 442.1794,-317.581"/>
<polygon fill="#000000" stroke="#000000" points="438.6794,-317.581 442.1794,-327.581 445.6794,-317.5811 438.6794,-317.581"/>
</g>
<!-- PermissionsGridModalModule  -->
<g id="node6" class="node">
<title>PermissionsGridModalModule </title>
<polygon fill="#fb8072" stroke="#000000" points="379.4208,-363.5901 186.5792,-363.5901 186.5792,-327.5901 379.4208,-327.5901 379.4208,-363.5901"/>
<text text-anchor="middle" x="283" y="-341.3901" font-family="Times,serif" font-size="14.00" fill="#000000">PermissionsGridModalModule </text>
</g>
<!-- GroupPermissionsGridModule&#45;&gt;PermissionsGridModalModule  -->
<g id="edge5" class="edge">
<title>GroupPermissionsGridModule&#45;&gt;PermissionsGridModalModule </title>
<path fill="none" stroke="#000000" stroke-dasharray="5,2" d="M339.0707,-298.6962C339.0707,-298.6962 339.0707,-317.581 339.0707,-317.581"/>
<polygon fill="#000000" stroke="#000000" points="335.5707,-317.581 339.0707,-327.581 342.5707,-317.5811 335.5707,-317.581"/>
</g>
<!-- {
 &#160;&#160;&#160;provide: NG_VALUE_ACCESSOR, useExisting: forwardRef(() =&gt; GroupPermissionsGridComponent), multi: true
} -->
<g id="node3" class="node">
<title>{
 &#160;&#160;&#160;provide: NG_VALUE_ACCESSOR, useExisting: forwardRef(() =&gt; GroupPermissionsGridComponent), multi: true
}</title>
<ellipse fill="#fdb462" stroke="#000000" cx="505" cy="-127.295" rx="480.5807" ry="41.0911"/>
<text text-anchor="middle" x="505" y="-139.895" font-family="Times,serif" font-size="14.00" fill="#000000">{</text>
<text text-anchor="middle" x="505" y="-123.095" font-family="Times,serif" font-size="14.00" fill="#000000"> &#160;&#160;&#160;provide: NG_VALUE_ACCESSOR, useExisting: forwardRef(() =&gt; GroupPermissionsGridComponent), multi: true</text>
<text text-anchor="middle" x="505" y="-106.295" font-family="Times,serif" font-size="14.00" fill="#000000">}</text>
</g>
<!-- {
 &#160;&#160;&#160;provide: NG_VALUE_ACCESSOR, useExisting: forwardRef(() =&gt; GroupPermissionsGridComponent), multi: true
}&#45;&gt;GroupPermissionsGridComponent -->
<g id="edge2" class="edge">
<title>{
 &#160;&#160;&#160;provide: NG_VALUE_ACCESSOR, useExisting: forwardRef(() =&gt; GroupPermissionsGridComponent), multi: true
}&#45;&gt;GroupPermissionsGridComponent</title>
<path fill="none" stroke="#000000" d="M505,-168.5989C505,-168.5989 505,-187.2551 505,-187.2551"/>
<polygon fill="#000000" stroke="#000000" points="501.5001,-187.255 505,-197.2551 508.5001,-187.2551 501.5001,-187.255"/>
</g>
<!-- PermissionsGridModalModule -->
<g id="node4" class="node">
<title>PermissionsGridModalModule</title>
<polygon fill="#8dd3c7" stroke="#000000" points="375.9213,-233.5901 372.9213,-237.5901 351.9213,-237.5901 348.9213,-233.5901 186.0787,-233.5901 186.0787,-197.5901 375.9213,-197.5901 375.9213,-233.5901"/>
<text text-anchor="middle" x="281" y="-211.3901" font-family="Times,serif" font-size="14.00" fill="#000000">PermissionsGridModalModule</text>
</g>
<!-- PermissionsGridModalModule&#45;&gt;GroupPermissionsGridModule -->
<g id="edge3" class="edge">
<title>PermissionsGridModalModule&#45;&gt;GroupPermissionsGridModule</title>
<path fill="none" stroke="#000000" d="M337.1957,-233.6962C337.1957,-233.6962 337.1957,-252.581 337.1957,-252.581"/>
<polygon fill="#000000" stroke="#000000" points="333.6957,-252.581 337.1957,-262.581 340.6957,-252.5811 333.6957,-252.581"/>
</g>
</g>
</svg>
