<?xml version="1.0" encoding="UTF-8" standalone="no"?>
<!DOCTYPE svg PUBLIC "-//W3C//DTD SVG 1.1//EN"
 "http://www.w3.org/Graphics/SVG/1.1/DTD/svg11.dtd">
<!-- Generated by graphviz version 2.40.1 (20161225.0304)
 -->
<!-- Title: dependencies Pages: 1 -->
<svg width="504pt" height="284pt"
 viewBox="0.00 0.00 504.00 284.00" xmlns="http://www.w3.org/2000/svg" xmlns:xlink="http://www.w3.org/1999/xlink">
<g id="graph0" class="graph" transform="scale(1 1) rotate(0) translate(4 280)">
<title>dependencies</title>
<polygon fill="#ffffff" stroke="transparent" points="-4,4 -4,-280 500,-280 500,4 -4,4"/>
<text text-anchor="start" x="227.0091" y="-42.4" font-family="sans-serif" font-weight="bold" font-size="14.00" fill="#000000">Legend</text>
<polygon fill="#ffffb3" stroke="transparent" points="14,-10 14,-30 34,-30 34,-10 14,-10"/>
<text text-anchor="start" x="37.629" y="-15.4" font-family="sans-serif" font-size="14.00" fill="#000000"> &#160;Declarations</text>
<polygon fill="#8dd3c7" stroke="transparent" points="127,-10 127,-30 147,-30 147,-10 127,-10"/>
<text text-anchor="start" x="150.7251" y="-15.4" font-family="sans-serif" font-size="14.00" fill="#000000"> &#160;Module</text>
<polygon fill="#80b1d3" stroke="transparent" points="213,-10 213,-30 233,-30 233,-10 213,-10"/>
<text text-anchor="start" x="236.7812" y="-15.4" font-family="sans-serif" font-size="14.00" fill="#000000"> &#160;Bootstrap</text>
<polygon fill="#fdb462" stroke="transparent" points="310,-10 310,-30 330,-30 330,-10 310,-10"/>
<text text-anchor="start" x="333.6732" y="-15.4" font-family="sans-serif" font-size="14.00" fill="#000000"> &#160;Providers</text>
<polygon fill="#fb8072" stroke="transparent" points="406,-10 406,-30 426,-30 426,-10 406,-10"/>
<text text-anchor="start" x="429.7258" y="-15.4" font-family="sans-serif" font-size="14.00" fill="#000000"> &#160;Exports</text>
<g id="clust1" class="cluster">
<title>cluster_DirectivesModule</title>
<polygon fill="none" stroke="#000000" stroke-dasharray="1,5" points="85,-70 85,-268 411,-268 411,-70 85,-70"/>
</g>
<g id="clust2" class="cluster">
<title>cluster_DirectivesModule_declarations</title>
<polygon fill="none" stroke="#000000" points="97,-78 97,-130 399,-130 399,-78 97,-78"/>
</g>
<g id="clust6" class="cluster">
<title>cluster_DirectivesModule_exports</title>
<polygon fill="none" stroke="#000000" points="93,-208 93,-260 403,-260 403,-208 93,-208"/>
</g>
<!-- DisableControlDirective -->
<g id="node1" class="node">
<title>DisableControlDirective</title>
<polygon fill="#ffffb3" stroke="#000000" points="390.6233,-122 237.3767,-122 237.3767,-86 390.6233,-86 390.6233,-122"/>
<text text-anchor="middle" x="314" y="-99.8" font-family="Times,serif" font-size="14.00" fill="#000000">DisableControlDirective</text>
</g>
<!-- DirectivesModule -->
<g id="node3" class="node">
<title>DirectivesModule</title>
<polygon fill="#8dd3c7" stroke="#000000" points="221.5772,-187 218.5772,-191 197.5772,-191 194.5772,-187 104.4228,-187 104.4228,-151 221.5772,-151 221.5772,-187"/>
<text text-anchor="middle" x="163" y="-164.8" font-family="Times,serif" font-size="14.00" fill="#000000">DirectivesModule</text>
</g>
<!-- DisableControlDirective&#45;&gt;DirectivesModule -->
<g id="edge1" class="edge">
<title>DisableControlDirective&#45;&gt;DirectivesModule</title>
<path fill="none" stroke="#000000" d="M339.6871,-122.0225C339.6871,-139.3734 339.6871,-163 339.6871,-163 339.6871,-163 231.8343,-163 231.8343,-163"/>
<polygon fill="#000000" stroke="#000000" points="231.8343,-159.5001 221.8343,-163 231.8342,-166.5001 231.8343,-159.5001"/>
</g>
<!-- FocusedDirective -->
<g id="node2" class="node">
<title>FocusedDirective</title>
<polygon fill="#ffffb3" stroke="#000000" points="219.2395,-122 104.7605,-122 104.7605,-86 219.2395,-86 219.2395,-122"/>
<text text-anchor="middle" x="162" y="-99.8" font-family="Times,serif" font-size="14.00" fill="#000000">FocusedDirective</text>
</g>
<!-- FocusedDirective&#45;&gt;DirectivesModule -->
<g id="edge2" class="edge">
<title>FocusedDirective&#45;&gt;DirectivesModule</title>
<path fill="none" stroke="#000000" d="M162,-122.1061C162,-122.1061 162,-140.991 162,-140.991"/>
<polygon fill="#000000" stroke="#000000" points="158.5001,-140.9909 162,-150.991 165.5001,-140.991 158.5001,-140.9909"/>
</g>
<!-- DisableControlDirective  -->
<g id="node4" class="node">
<title>DisableControlDirective </title>
<polygon fill="#fb8072" stroke="#000000" points="394.6228,-252 237.3772,-252 237.3772,-216 394.6228,-216 394.6228,-252"/>
<text text-anchor="middle" x="316" y="-229.8" font-family="Times,serif" font-size="14.00" fill="#000000">DisableControlDirective </text>
</g>
<!-- DirectivesModule&#45;&gt;DisableControlDirective  -->
<g id="edge3" class="edge">
<title>DirectivesModule&#45;&gt;DisableControlDirective </title>
<path fill="none" stroke="#000000" stroke-dasharray="5,2" d="M221.7375,-175C254.4166,-175 288.5629,-175 288.5629,-175 288.5629,-175 288.5629,-205.9775 288.5629,-205.9775"/>
<polygon fill="#000000" stroke="#000000" points="285.063,-205.9774 288.5629,-215.9775 292.063,-205.9775 285.063,-205.9774"/>
</g>
<!-- FocusedDirective  -->
<g id="node5" class="node">
<title>FocusedDirective </title>
<polygon fill="#fb8072" stroke="#000000" points="219.2394,-252 100.7606,-252 100.7606,-216 219.2394,-216 219.2394,-252"/>
<text text-anchor="middle" x="160" y="-229.8" font-family="Times,serif" font-size="14.00" fill="#000000">FocusedDirective </text>
</g>
<!-- DirectivesModule&#45;&gt;FocusedDirective  -->
<g id="edge4" class="edge">
<title>DirectivesModule&#45;&gt;FocusedDirective </title>
<path fill="none" stroke="#000000" stroke-dasharray="5,2" d="M161.7905,-187.1061C161.7905,-187.1061 161.7905,-205.991 161.7905,-205.991"/>
<polygon fill="#000000" stroke="#000000" points="158.2906,-205.9909 161.7905,-215.991 165.2906,-205.991 158.2906,-205.9909"/>
</g>
</g>
</svg>
