<?xml version="1.0" encoding="UTF-8" standalone="no"?>
<!DOCTYPE svg PUBLIC "-//W3C//DTD SVG 1.1//EN"
 "http://www.w3.org/Graphics/SVG/1.1/DTD/svg11.dtd">
<!-- Generated by graphviz version 2.40.1 (20161225.0304)
 -->
<!-- Title: dependencies Pages: 1 -->
<svg width="504pt" height="284pt"
 viewBox="0.00 0.00 504.00 284.00" xmlns="http://www.w3.org/2000/svg" xmlns:xlink="http://www.w3.org/1999/xlink">
<g id="graph0" class="graph" transform="scale(1 1) rotate(0) translate(4 280)">
<title>dependencies</title>
<polygon fill="#ffffff" stroke="transparent" points="-4,4 -4,-280 500,-280 500,4 -4,4"/>
<text text-anchor="start" x="227.0091" y="-42.4" font-family="sans-serif" font-weight="bold" font-size="14.00" fill="#000000">Legend</text>
<polygon fill="#ffffb3" stroke="transparent" points="14,-10 14,-30 34,-30 34,-10 14,-10"/>
<text text-anchor="start" x="37.629" y="-15.4" font-family="sans-serif" font-size="14.00" fill="#000000"> &#160;Declarations</text>
<polygon fill="#8dd3c7" stroke="transparent" points="127,-10 127,-30 147,-30 147,-10 127,-10"/>
<text text-anchor="start" x="150.7251" y="-15.4" font-family="sans-serif" font-size="14.00" fill="#000000"> &#160;Module</text>
<polygon fill="#80b1d3" stroke="transparent" points="213,-10 213,-30 233,-30 233,-10 213,-10"/>
<text text-anchor="start" x="236.7812" y="-15.4" font-family="sans-serif" font-size="14.00" fill="#000000"> &#160;Bootstrap</text>
<polygon fill="#fdb462" stroke="transparent" points="310,-10 310,-30 330,-30 330,-10 310,-10"/>
<text text-anchor="start" x="333.6732" y="-15.4" font-family="sans-serif" font-size="14.00" fill="#000000"> &#160;Providers</text>
<polygon fill="#fb8072" stroke="transparent" points="406,-10 406,-30 426,-30 426,-10 406,-10"/>
<text text-anchor="start" x="429.7258" y="-15.4" font-family="sans-serif" font-size="14.00" fill="#000000"> &#160;Exports</text>
<g id="clust1" class="cluster">
<title>cluster_AuthModalModule</title>
<polygon fill="none" stroke="#000000" stroke-dasharray="1,5" points="62.5,-70 62.5,-268 433.5,-268 433.5,-70 62.5,-70"/>
</g>
<g id="clust2" class="cluster">
<title>cluster_AuthModalModule_declarations</title>
<polygon fill="none" stroke="#000000" points="263.5,-78 263.5,-130 425.5,-130 425.5,-78 263.5,-78"/>
</g>
<g id="clust4" class="cluster">
<title>cluster_AuthModalModule_imports</title>
<polygon fill="none" stroke="#000000" points="71.5,-78 71.5,-130 255.5,-130 255.5,-78 71.5,-78"/>
</g>
<g id="clust5" class="cluster">
<title>cluster_AuthModalModule_exports</title>
<polygon fill="none" stroke="#000000" points="70.5,-208 70.5,-260 425.5,-260 425.5,-208 70.5,-208"/>
</g>
<!-- AuthModalComponent -->
<g id="node1" class="node">
<title>AuthModalComponent</title>
<polygon fill="#ffffb3" stroke="#000000" points="417.3794,-122 271.6206,-122 271.6206,-86 417.3794,-86 417.3794,-122"/>
<text text-anchor="middle" x="344.5" y="-99.8" font-family="Times,serif" font-size="14.00" fill="#000000">AuthModalComponent</text>
</g>
<!-- AuthModalModule -->
<g id="node2" class="node">
<title>AuthModalModule</title>
<polygon fill="#8dd3c7" stroke="#000000" points="315.5968,-187 312.5968,-191 291.5968,-191 288.5968,-187 191.4032,-187 191.4032,-151 315.5968,-151 315.5968,-187"/>
<text text-anchor="middle" x="253.5" y="-164.8" font-family="Times,serif" font-size="14.00" fill="#000000">AuthModalModule</text>
</g>
<!-- AuthModalComponent&#45;&gt;AuthModalModule -->
<g id="edge1" class="edge">
<title>AuthModalComponent&#45;&gt;AuthModalModule</title>
<path fill="none" stroke="#000000" d="M293.5544,-122.1061C293.5544,-122.1061 293.5544,-140.991 293.5544,-140.991"/>
<polygon fill="#000000" stroke="#000000" points="290.0544,-140.9909 293.5544,-150.991 297.0544,-140.991 290.0544,-140.9909"/>
</g>
<!-- AuthModalComponent  -->
<g id="node4" class="node">
<title>AuthModalComponent </title>
<polygon fill="#fb8072" stroke="#000000" points="417.3799,-252 267.6201,-252 267.6201,-216 417.3799,-216 417.3799,-252"/>
<text text-anchor="middle" x="342.5" y="-229.8" font-family="Times,serif" font-size="14.00" fill="#000000">AuthModalComponent </text>
</g>
<!-- AuthModalModule&#45;&gt;AuthModalComponent  -->
<g id="edge3" class="edge">
<title>AuthModalModule&#45;&gt;AuthModalComponent </title>
<path fill="none" stroke="#000000" stroke-dasharray="5,2" d="M291.6794,-187.1061C291.6794,-187.1061 291.6794,-205.991 291.6794,-205.991"/>
<polygon fill="#000000" stroke="#000000" points="288.1794,-205.9909 291.6794,-215.991 295.1794,-205.991 288.1794,-205.9909"/>
</g>
<!-- PromptFormModalModule  -->
<g id="node5" class="node">
<title>PromptFormModalModule </title>
<polygon fill="#fb8072" stroke="#000000" points="250.1579,-252 78.8421,-252 78.8421,-216 250.1579,-216 250.1579,-252"/>
<text text-anchor="middle" x="164.5" y="-229.8" font-family="Times,serif" font-size="14.00" fill="#000000">PromptFormModalModule </text>
</g>
<!-- AuthModalModule&#45;&gt;PromptFormModalModule  -->
<g id="edge4" class="edge">
<title>AuthModalModule&#45;&gt;PromptFormModalModule </title>
<path fill="none" stroke="#000000" stroke-dasharray="5,2" d="M220.7653,-187.1061C220.7653,-187.1061 220.7653,-205.991 220.7653,-205.991"/>
<polygon fill="#000000" stroke="#000000" points="217.2653,-205.9909 220.7653,-215.991 224.2653,-205.991 217.2653,-205.9909"/>
</g>
<!-- PromptFormModalModule -->
<g id="node3" class="node">
<title>PromptFormModalModule</title>
<polygon fill="#8dd3c7" stroke="#000000" points="247.1581,-122 244.1581,-126 223.1581,-126 220.1581,-122 79.8419,-122 79.8419,-86 247.1581,-86 247.1581,-122"/>
<text text-anchor="middle" x="163.5" y="-99.8" font-family="Times,serif" font-size="14.00" fill="#000000">PromptFormModalModule</text>
</g>
<!-- PromptFormModalModule&#45;&gt;AuthModalModule -->
<g id="edge2" class="edge">
<title>PromptFormModalModule&#45;&gt;AuthModalModule</title>
<path fill="none" stroke="#000000" d="M219.3903,-122.1061C219.3903,-122.1061 219.3903,-140.991 219.3903,-140.991"/>
<polygon fill="#000000" stroke="#000000" points="215.8903,-140.9909 219.3903,-150.991 222.8903,-140.991 215.8903,-140.9909"/>
</g>
</g>
</svg>
