<?xml version="1.0" encoding="UTF-8" standalone="no"?>
<!DOCTYPE svg PUBLIC "-//W3C//DTD SVG 1.1//EN"
 "http://www.w3.org/Graphics/SVG/1.1/DTD/svg11.dtd">
<!-- Generated by graphviz version 2.40.1 (20161225.0304)
 -->
<!-- Title: dependencies Pages: 1 -->
<svg width="644pt" height="284pt"
 viewBox="0.00 0.00 644.00 284.00" xmlns="http://www.w3.org/2000/svg" xmlns:xlink="http://www.w3.org/1999/xlink">
<g id="graph0" class="graph" transform="scale(1 1) rotate(0) translate(4 280)">
<title>dependencies</title>
<polygon fill="#ffffff" stroke="transparent" points="-4,4 -4,-280 640,-280 640,4 -4,4"/>
<text text-anchor="start" x="297.0091" y="-42.4" font-family="sans-serif" font-weight="bold" font-size="14.00" fill="#000000">Legend</text>
<polygon fill="#ffffb3" stroke="transparent" points="84,-10 84,-30 104,-30 104,-10 84,-10"/>
<text text-anchor="start" x="107.629" y="-15.4" font-family="sans-serif" font-size="14.00" fill="#000000"> &#160;Declarations</text>
<polygon fill="#8dd3c7" stroke="transparent" points="197,-10 197,-30 217,-30 217,-10 197,-10"/>
<text text-anchor="start" x="220.7251" y="-15.4" font-family="sans-serif" font-size="14.00" fill="#000000"> &#160;Module</text>
<polygon fill="#80b1d3" stroke="transparent" points="283,-10 283,-30 303,-30 303,-10 283,-10"/>
<text text-anchor="start" x="306.7812" y="-15.4" font-family="sans-serif" font-size="14.00" fill="#000000"> &#160;Bootstrap</text>
<polygon fill="#fdb462" stroke="transparent" points="380,-10 380,-30 400,-30 400,-10 380,-10"/>
<text text-anchor="start" x="403.6732" y="-15.4" font-family="sans-serif" font-size="14.00" fill="#000000"> &#160;Providers</text>
<polygon fill="#fb8072" stroke="transparent" points="476,-10 476,-30 496,-30 496,-10 476,-10"/>
<text text-anchor="start" x="499.7258" y="-15.4" font-family="sans-serif" font-size="14.00" fill="#000000"> &#160;Exports</text>
<g id="clust1" class="cluster">
<title>cluster_ContentTypesGridModalModule</title>
<polygon fill="none" stroke="#000000" stroke-dasharray="1,5" points="8,-70 8,-268 628,-268 628,-70 8,-70"/>
</g>
<g id="clust2" class="cluster">
<title>cluster_ContentTypesGridModalModule_declarations</title>
<polygon fill="none" stroke="#000000" points="382,-78 382,-130 620,-130 620,-78 382,-78"/>
</g>
<g id="clust4" class="cluster">
<title>cluster_ContentTypesGridModalModule_imports</title>
<polygon fill="none" stroke="#000000" points="20,-78 20,-130 374,-130 374,-78 20,-78"/>
</g>
<g id="clust5" class="cluster">
<title>cluster_ContentTypesGridModalModule_exports</title>
<polygon fill="none" stroke="#000000" points="16,-208 16,-260 620,-260 620,-208 16,-208"/>
</g>
<!-- ContentTypesGridModalComponent -->
<g id="node1" class="node">
<title>ContentTypesGridModalComponent</title>
<polygon fill="#ffffb3" stroke="#000000" points="612.0842,-122 389.9158,-122 389.9158,-86 612.0842,-86 612.0842,-122"/>
<text text-anchor="middle" x="501" y="-99.8" font-family="Times,serif" font-size="14.00" fill="#000000">ContentTypesGridModalComponent</text>
</g>
<!-- ContentTypesGridModalModule -->
<g id="node2" class="node">
<title>ContentTypesGridModalModule</title>
<polygon fill="#8dd3c7" stroke="#000000" points="384.3018,-187 381.3018,-191 360.3018,-191 357.3018,-187 183.6982,-187 183.6982,-151 384.3018,-151 384.3018,-187"/>
<text text-anchor="middle" x="284" y="-164.8" font-family="Times,serif" font-size="14.00" fill="#000000">ContentTypesGridModalModule</text>
</g>
<!-- ContentTypesGridModalComponent&#45;&gt;ContentTypesGridModalModule -->
<g id="edge1" class="edge">
<title>ContentTypesGridModalComponent&#45;&gt;ContentTypesGridModalModule</title>
<path fill="none" stroke="#000000" d="M389.4656,-104C380.6191,-104 375.0134,-104 375.0134,-104 375.0134,-104 375.0134,-140.8939 375.0134,-140.8939"/>
<polygon fill="#000000" stroke="#000000" points="371.5134,-140.8938 375.0134,-150.8939 378.5134,-140.8939 371.5134,-140.8938"/>
</g>
<!-- ContentTypesGridModalComponent  -->
<g id="node5" class="node">
<title>ContentTypesGridModalComponent </title>
<polygon fill="#fb8072" stroke="#000000" points="611.5846,-252 386.4154,-252 386.4154,-216 611.5846,-216 611.5846,-252"/>
<text text-anchor="middle" x="499" y="-229.8" font-family="Times,serif" font-size="14.00" fill="#000000">ContentTypesGridModalComponent </text>
</g>
<!-- ContentTypesGridModalModule&#45;&gt;ContentTypesGridModalComponent  -->
<g id="edge4" class="edge">
<title>ContentTypesGridModalModule&#45;&gt;ContentTypesGridModalComponent </title>
<path fill="none" stroke="#000000" stroke-dasharray="5,2" d="M376.3884,-187.1061C376.3884,-206.3391 376.3884,-234 376.3884,-234 376.3884,-234 377.3505,-234 377.3505,-234"/>
<polygon fill="#000000" stroke="#000000" points="376.0095,-237.5001 386.0095,-234 376.0094,-230.5001 376.0095,-237.5001"/>
</g>
<!-- ContentTypesGridModule  -->
<g id="node6" class="node">
<title>ContentTypesGridModule </title>
<polygon fill="#fb8072" stroke="#000000" points="368.752,-252 201.248,-252 201.248,-216 368.752,-216 368.752,-252"/>
<text text-anchor="middle" x="285" y="-229.8" font-family="Times,serif" font-size="14.00" fill="#000000">ContentTypesGridModule </text>
</g>
<!-- ContentTypesGridModalModule&#45;&gt;ContentTypesGridModule  -->
<g id="edge5" class="edge">
<title>ContentTypesGridModalModule&#45;&gt;ContentTypesGridModule </title>
<path fill="none" stroke="#000000" stroke-dasharray="5,2" d="M285,-187.1061C285,-187.1061 285,-205.991 285,-205.991"/>
<polygon fill="#000000" stroke="#000000" points="281.5001,-205.9909 285,-215.991 288.5001,-205.991 281.5001,-205.9909"/>
</g>
<!-- EntityGridModalModule  -->
<g id="node7" class="node">
<title>EntityGridModalModule </title>
<polygon fill="#fb8072" stroke="#000000" points="183.9825,-252 24.0175,-252 24.0175,-216 183.9825,-216 183.9825,-252"/>
<text text-anchor="middle" x="104" y="-229.8" font-family="Times,serif" font-size="14.00" fill="#000000">EntityGridModalModule </text>
</g>
<!-- ContentTypesGridModalModule&#45;&gt;EntityGridModalModule  -->
<g id="edge6" class="edge">
<title>ContentTypesGridModalModule&#45;&gt;EntityGridModalModule </title>
<path fill="none" stroke="#000000" stroke-dasharray="5,2" d="M192.6117,-187.1061C192.6117,-206.3391 192.6117,-234 192.6117,-234 192.6117,-234 191.7296,-234 191.7296,-234"/>
<polygon fill="#000000" stroke="#000000" points="193.7913,-230.5001 183.7913,-234 193.7912,-237.5001 193.7913,-230.5001"/>
</g>
<!-- ContentTypesGridModule -->
<g id="node3" class="node">
<title>ContentTypesGridModule</title>
<polygon fill="#8dd3c7" stroke="#000000" points="365.752,-122 362.752,-126 341.752,-126 338.752,-122 202.248,-122 202.248,-86 365.752,-86 365.752,-122"/>
<text text-anchor="middle" x="284" y="-99.8" font-family="Times,serif" font-size="14.00" fill="#000000">ContentTypesGridModule</text>
</g>
<!-- ContentTypesGridModule&#45;&gt;ContentTypesGridModalModule -->
<g id="edge2" class="edge">
<title>ContentTypesGridModule&#45;&gt;ContentTypesGridModalModule</title>
<path fill="none" stroke="#000000" d="M284,-122.1061C284,-122.1061 284,-140.991 284,-140.991"/>
<polygon fill="#000000" stroke="#000000" points="280.5001,-140.9909 284,-150.991 287.5001,-140.991 280.5001,-140.9909"/>
</g>
<!-- EntityGridModalModule -->
<g id="node4" class="node">
<title>EntityGridModalModule</title>
<polygon fill="#8dd3c7" stroke="#000000" points="183.9818,-122 180.9818,-126 159.9818,-126 156.9818,-122 28.0182,-122 28.0182,-86 183.9818,-86 183.9818,-122"/>
<text text-anchor="middle" x="106" y="-99.8" font-family="Times,serif" font-size="14.00" fill="#000000">EntityGridModalModule</text>
</g>
<!-- EntityGridModalModule&#45;&gt;ContentTypesGridModalModule -->
<g id="edge3" class="edge">
<title>EntityGridModalModule&#45;&gt;ContentTypesGridModalModule</title>
<path fill="none" stroke="#000000" d="M184.0687,-104C189.6024,-104 193.0575,-104 193.0575,-104 193.0575,-104 193.0575,-140.8939 193.0575,-140.8939"/>
<polygon fill="#000000" stroke="#000000" points="189.5576,-140.8938 193.0575,-150.8939 196.5576,-140.8939 189.5576,-140.8938"/>
</g>
</g>
</svg>
