<?xml version="1.0" encoding="UTF-8" standalone="no"?>
<!DOCTYPE svg PUBLIC "-//W3C//DTD SVG 1.1//EN"
 "http://www.w3.org/Graphics/SVG/1.1/DTD/svg11.dtd">
<!-- Generated by graphviz version 2.40.1 (20161225.0304)
 -->
<!-- Title: dependencies Pages: 1 -->
<svg width="504pt" height="211pt"
 viewBox="0.00 0.00 504.00 211.00" xmlns="http://www.w3.org/2000/svg" xmlns:xlink="http://www.w3.org/1999/xlink">
<g id="graph0" class="graph" transform="scale(1 1) rotate(0) translate(4 207)">
<title>dependencies</title>
<polygon fill="#ffffff" stroke="transparent" points="-4,4 -4,-207 500,-207 500,4 -4,4"/>
<text text-anchor="start" x="227.0091" y="-42.4" font-family="sans-serif" font-weight="bold" font-size="14.00" fill="#000000">Legend</text>
<polygon fill="#ffffb3" stroke="transparent" points="14,-10 14,-30 34,-30 34,-10 14,-10"/>
<text text-anchor="start" x="37.629" y="-15.4" font-family="sans-serif" font-size="14.00" fill="#000000"> &#160;Declarations</text>
<polygon fill="#8dd3c7" stroke="transparent" points="127,-10 127,-30 147,-30 147,-10 127,-10"/>
<text text-anchor="start" x="150.7251" y="-15.4" font-family="sans-serif" font-size="14.00" fill="#000000"> &#160;Module</text>
<polygon fill="#80b1d3" stroke="transparent" points="213,-10 213,-30 233,-30 233,-10 213,-10"/>
<text text-anchor="start" x="236.7812" y="-15.4" font-family="sans-serif" font-size="14.00" fill="#000000"> &#160;Bootstrap</text>
<polygon fill="#fdb462" stroke="transparent" points="310,-10 310,-30 330,-30 330,-10 310,-10"/>
<text text-anchor="start" x="333.6732" y="-15.4" font-family="sans-serif" font-size="14.00" fill="#000000"> &#160;Providers</text>
<polygon fill="#fb8072" stroke="transparent" points="406,-10 406,-30 426,-30 426,-10 406,-10"/>
<text text-anchor="start" x="429.7258" y="-15.4" font-family="sans-serif" font-size="14.00" fill="#000000"> &#160;Exports</text>
<g id="clust1" class="cluster">
<title>cluster_ContentTypesFrameModule</title>
<polygon fill="none" stroke="#000000" stroke-dasharray="1,5" points="73,-70 73,-195 423,-195 423,-70 73,-70"/>
</g>
<g id="clust2" class="cluster">
<title>cluster_ContentTypesFrameModule_declarations</title>
<polygon fill="none" stroke="#000000" points="203,-78 203,-130 415,-130 415,-78 203,-78"/>
</g>
<g id="clust4" class="cluster">
<title>cluster_ContentTypesFrameModule_imports</title>
<polygon fill="none" stroke="#000000" points="81,-78 81,-130 195,-130 195,-78 81,-78"/>
</g>
<!-- ContentTypesFrameComponent -->
<g id="node1" class="node">
<title>ContentTypesFrameComponent</title>
<polygon fill="#ffffb3" stroke="#000000" points="406.6399,-122 211.3601,-122 211.3601,-86 406.6399,-86 406.6399,-122"/>
<text text-anchor="middle" x="309" y="-99.8" font-family="Times,serif" font-size="14.00" fill="#000000">ContentTypesFrameComponent</text>
</g>
<!-- ContentTypesFrameModule -->
<g id="node2" class="node">
<title>ContentTypesFrameModule</title>
<polygon fill="#8dd3c7" stroke="#000000" points="324.8571,-187 321.8571,-191 300.8571,-191 297.8571,-187 151.1429,-187 151.1429,-151 324.8571,-151 324.8571,-187"/>
<text text-anchor="middle" x="238" y="-164.8" font-family="Times,serif" font-size="14.00" fill="#000000">ContentTypesFrameModule</text>
</g>
<!-- ContentTypesFrameComponent&#45;&gt;ContentTypesFrameModule -->
<g id="edge1" class="edge">
<title>ContentTypesFrameComponent&#45;&gt;ContentTypesFrameModule</title>
<path fill="none" stroke="#000000" d="M268.0544,-122.1061C268.0544,-122.1061 268.0544,-140.991 268.0544,-140.991"/>
<polygon fill="#000000" stroke="#000000" points="264.5544,-140.9909 268.0544,-150.991 271.5544,-140.991 264.5544,-140.9909"/>
</g>
<!-- SharedModule -->
<g id="node3" class="node">
<title>SharedModule</title>
<polygon fill="#8dd3c7" stroke="#000000" points="187.4231,-122 184.4231,-126 163.4231,-126 160.4231,-122 88.5769,-122 88.5769,-86 187.4231,-86 187.4231,-122"/>
<text text-anchor="middle" x="138" y="-99.8" font-family="Times,serif" font-size="14.00" fill="#000000">SharedModule</text>
</g>
<!-- SharedModule&#45;&gt;ContentTypesFrameModule -->
<g id="edge2" class="edge">
<title>SharedModule&#45;&gt;ContentTypesFrameModule</title>
<path fill="none" stroke="#000000" d="M169.1413,-122.1061C169.1413,-122.1061 169.1413,-140.991 169.1413,-140.991"/>
<polygon fill="#000000" stroke="#000000" points="165.6414,-140.9909 169.1413,-150.991 172.6414,-140.991 165.6414,-140.9909"/>
</g>
</g>
</svg>
