<?xml version="1.0" encoding="UTF-8" standalone="no"?>
<!DOCTYPE svg PUBLIC "-//W3C//DTD SVG 1.1//EN"
 "http://www.w3.org/Graphics/SVG/1.1/DTD/svg11.dtd">
<!-- Generated by graphviz version 2.40.1 (20161225.0304)
 -->
<!-- Title: dependencies Pages: 1 -->
<svg width="504pt" height="284pt"
 viewBox="0.00 0.00 504.00 284.00" xmlns="http://www.w3.org/2000/svg" xmlns:xlink="http://www.w3.org/1999/xlink">
<g id="graph0" class="graph" transform="scale(1 1) rotate(0) translate(4 280)">
<title>dependencies</title>
<polygon fill="#ffffff" stroke="transparent" points="-4,4 -4,-280 500,-280 500,4 -4,4"/>
<text text-anchor="start" x="227.0091" y="-42.4" font-family="sans-serif" font-weight="bold" font-size="14.00" fill="#000000">Legend</text>
<polygon fill="#ffffb3" stroke="transparent" points="14,-10 14,-30 34,-30 34,-10 14,-10"/>
<text text-anchor="start" x="37.629" y="-15.4" font-family="sans-serif" font-size="14.00" fill="#000000"> &#160;Declarations</text>
<polygon fill="#8dd3c7" stroke="transparent" points="127,-10 127,-30 147,-30 147,-10 127,-10"/>
<text text-anchor="start" x="150.7251" y="-15.4" font-family="sans-serif" font-size="14.00" fill="#000000"> &#160;Module</text>
<polygon fill="#80b1d3" stroke="transparent" points="213,-10 213,-30 233,-30 233,-10 213,-10"/>
<text text-anchor="start" x="236.7812" y="-15.4" font-family="sans-serif" font-size="14.00" fill="#000000"> &#160;Bootstrap</text>
<polygon fill="#fdb462" stroke="transparent" points="310,-10 310,-30 330,-30 330,-10 310,-10"/>
<text text-anchor="start" x="333.6732" y="-15.4" font-family="sans-serif" font-size="14.00" fill="#000000"> &#160;Providers</text>
<polygon fill="#fb8072" stroke="transparent" points="406,-10 406,-30 426,-30 426,-10 406,-10"/>
<text text-anchor="start" x="429.7258" y="-15.4" font-family="sans-serif" font-size="14.00" fill="#000000"> &#160;Exports</text>
<g id="clust1" class="cluster">
<title>cluster_EntityModalModule</title>
<polygon fill="none" stroke="#000000" stroke-dasharray="1,5" points="59.5,-70 59.5,-268 436.5,-268 436.5,-70 59.5,-70"/>
</g>
<g id="clust2" class="cluster">
<title>cluster_EntityModalModule_declarations</title>
<polygon fill="none" stroke="#000000" points="260.5,-78 260.5,-130 428.5,-130 428.5,-78 260.5,-78"/>
</g>
<g id="clust4" class="cluster">
<title>cluster_EntityModalModule_imports</title>
<polygon fill="none" stroke="#000000" points="68.5,-78 68.5,-130 252.5,-130 252.5,-78 68.5,-78"/>
</g>
<g id="clust5" class="cluster">
<title>cluster_EntityModalModule_exports</title>
<polygon fill="none" stroke="#000000" points="67.5,-208 67.5,-260 428.5,-260 428.5,-208 67.5,-208"/>
</g>
<!-- EntityModalComponent -->
<g id="node1" class="node">
<title>EntityModalComponent</title>
<polygon fill="#ffffb3" stroke="#000000" points="420.6066,-122 268.3934,-122 268.3934,-86 420.6066,-86 420.6066,-122"/>
<text text-anchor="middle" x="344.5" y="-99.8" font-family="Times,serif" font-size="14.00" fill="#000000">EntityModalComponent</text>
</g>
<!-- EntityModalModule -->
<g id="node2" class="node">
<title>EntityModalModule</title>
<polygon fill="#8dd3c7" stroke="#000000" points="316.8244,-187 313.8244,-191 292.8244,-191 289.8244,-187 186.1756,-187 186.1756,-151 316.8244,-151 316.8244,-187"/>
<text text-anchor="middle" x="251.5" y="-164.8" font-family="Times,serif" font-size="14.00" fill="#000000">EntityModalModule</text>
</g>
<!-- EntityModalComponent&#45;&gt;EntityModalModule -->
<g id="edge1" class="edge">
<title>EntityModalComponent&#45;&gt;EntityModalModule</title>
<path fill="none" stroke="#000000" d="M292.5544,-122.1061C292.5544,-122.1061 292.5544,-140.991 292.5544,-140.991"/>
<polygon fill="#000000" stroke="#000000" points="289.0544,-140.9909 292.5544,-150.991 296.0544,-140.991 289.0544,-140.9909"/>
</g>
<!-- EntityModalComponent  -->
<g id="node4" class="node">
<title>EntityModalComponent </title>
<polygon fill="#fb8072" stroke="#000000" points="420.1071,-252 264.8929,-252 264.8929,-216 420.1071,-216 420.1071,-252"/>
<text text-anchor="middle" x="342.5" y="-229.8" font-family="Times,serif" font-size="14.00" fill="#000000">EntityModalComponent </text>
</g>
<!-- EntityModalModule&#45;&gt;EntityModalComponent  -->
<g id="edge3" class="edge">
<title>EntityModalModule&#45;&gt;EntityModalComponent </title>
<path fill="none" stroke="#000000" stroke-dasharray="5,2" d="M290.6794,-187.1061C290.6794,-187.1061 290.6794,-205.991 290.6794,-205.991"/>
<polygon fill="#000000" stroke="#000000" points="287.1794,-205.9909 290.6794,-215.991 294.1794,-205.991 287.1794,-205.9909"/>
</g>
<!-- PromptFormModalModule  -->
<g id="node5" class="node">
<title>PromptFormModalModule </title>
<polygon fill="#fb8072" stroke="#000000" points="247.1579,-252 75.8421,-252 75.8421,-216 247.1579,-216 247.1579,-252"/>
<text text-anchor="middle" x="161.5" y="-229.8" font-family="Times,serif" font-size="14.00" fill="#000000">PromptFormModalModule </text>
</g>
<!-- EntityModalModule&#45;&gt;PromptFormModalModule  -->
<g id="edge4" class="edge">
<title>EntityModalModule&#45;&gt;PromptFormModalModule </title>
<path fill="none" stroke="#000000" stroke-dasharray="5,2" d="M216.7084,-187.1061C216.7084,-187.1061 216.7084,-205.991 216.7084,-205.991"/>
<polygon fill="#000000" stroke="#000000" points="213.2085,-205.9909 216.7084,-215.991 220.2085,-205.991 213.2085,-205.9909"/>
</g>
<!-- PromptFormModalModule -->
<g id="node3" class="node">
<title>PromptFormModalModule</title>
<polygon fill="#8dd3c7" stroke="#000000" points="244.1581,-122 241.1581,-126 220.1581,-126 217.1581,-122 76.8419,-122 76.8419,-86 244.1581,-86 244.1581,-122"/>
<text text-anchor="middle" x="160.5" y="-99.8" font-family="Times,serif" font-size="14.00" fill="#000000">PromptFormModalModule</text>
</g>
<!-- PromptFormModalModule&#45;&gt;EntityModalModule -->
<g id="edge2" class="edge">
<title>PromptFormModalModule&#45;&gt;EntityModalModule</title>
<path fill="none" stroke="#000000" d="M215.3334,-122.1061C215.3334,-122.1061 215.3334,-140.991 215.3334,-140.991"/>
<polygon fill="#000000" stroke="#000000" points="211.8335,-140.9909 215.3334,-150.991 218.8335,-140.991 211.8335,-140.9909"/>
</g>
</g>
</svg>
