<?xml version="1.0" encoding="UTF-8" standalone="no"?>
<!DOCTYPE svg PUBLIC "-//W3C//DTD SVG 1.1//EN"
 "http://www.w3.org/Graphics/SVG/1.1/DTD/svg11.dtd">
<!-- Generated by graphviz version 2.40.1 (20161225.0304)
 -->
<!-- Title: dependencies Pages: 1 -->
<svg width="1550pt" height="295pt"
 viewBox="0.00 0.00 1550.00 295.00" xmlns="http://www.w3.org/2000/svg" xmlns:xlink="http://www.w3.org/1999/xlink">
<g id="graph0" class="graph" transform="scale(1 1) rotate(0) translate(4 291)">
<title>dependencies</title>
<polygon fill="#ffffff" stroke="transparent" points="-4,4 -4,-291 1546,-291 1546,4 -4,4"/>
<text text-anchor="start" x="750.0091" y="-42.4" font-family="sans-serif" font-weight="bold" font-size="14.00" fill="#000000">Legend</text>
<polygon fill="#ffffb3" stroke="transparent" points="537,-10 537,-30 557,-30 557,-10 537,-10"/>
<text text-anchor="start" x="560.629" y="-15.4" font-family="sans-serif" font-size="14.00" fill="#000000"> &#160;Declarations</text>
<polygon fill="#8dd3c7" stroke="transparent" points="650,-10 650,-30 670,-30 670,-10 650,-10"/>
<text text-anchor="start" x="673.7251" y="-15.4" font-family="sans-serif" font-size="14.00" fill="#000000"> &#160;Module</text>
<polygon fill="#80b1d3" stroke="transparent" points="736,-10 736,-30 756,-30 756,-10 736,-10"/>
<text text-anchor="start" x="759.7812" y="-15.4" font-family="sans-serif" font-size="14.00" fill="#000000"> &#160;Bootstrap</text>
<polygon fill="#fdb462" stroke="transparent" points="833,-10 833,-30 853,-30 853,-10 833,-10"/>
<text text-anchor="start" x="856.6732" y="-15.4" font-family="sans-serif" font-size="14.00" fill="#000000"> &#160;Providers</text>
<polygon fill="#fb8072" stroke="transparent" points="929,-10 929,-30 949,-30 949,-10 929,-10"/>
<text text-anchor="start" x="952.7258" y="-15.4" font-family="sans-serif" font-size="14.00" fill="#000000"> &#160;Exports</text>
<g id="clust1" class="cluster">
<title>cluster_AccountModule</title>
<polygon fill="none" stroke="#000000" stroke-dasharray="1,5" points="8,-70 8,-206 186,-206 186,-70 8,-70"/>
</g>
<g id="clust6" class="cluster">
<title>cluster_AccountModule_providers</title>
<polygon fill="none" stroke="#000000" points="16,-78 16,-130 178,-130 178,-78 16,-78"/>
</g>
<g id="clust7" class="cluster">
<title>cluster_AuthModalModule</title>
<polygon fill="none" stroke="#000000" stroke-dasharray="1,5" points="442,-146 442,-271 682,-271 682,-146 442,-146"/>
</g>
<g id="clust9" class="cluster">
<title>cluster_AuthModalModule_imports</title>
<polygon fill="none" stroke="#000000" points="450,-154 450,-206 674,-206 674,-154 450,-154"/>
</g>
<g id="clust13" class="cluster">
<title>cluster_AuthModule</title>
<polygon fill="none" stroke="#000000" stroke-dasharray="1,5" points="194,-70 194,-138 690,-138 690,-70 194,-70"/>
</g>
<g id="clust14" class="cluster">
<title>cluster_AuthModule_declarations</title>
<polygon fill="none" stroke="#000000" points="492,-78 492,-130 682,-130 682,-78 492,-78"/>
</g>
<g id="clust19" class="cluster">
<title>cluster_AuthModule_providers</title>
<polygon fill="none" stroke="#000000" points="202,-78 202,-130 484,-130 484,-78 202,-78"/>
</g>
<g id="clust20" class="cluster">
<title>cluster_LangModule</title>
<polygon fill="none" stroke="#000000" stroke-dasharray="1,5" points="876,-70 876,-206 1028,-206 1028,-70 876,-70"/>
</g>
<g id="clust25" class="cluster">
<title>cluster_LangModule_providers</title>
<polygon fill="none" stroke="#000000" points="884,-78 884,-130 1020,-130 1020,-78 884,-78"/>
</g>
<g id="clust26" class="cluster">
<title>cluster_ModalsModule</title>
<polygon fill="none" stroke="#000000" stroke-dasharray="1,5" points="698,-70 698,-138 868,-138 868,-70 698,-70"/>
</g>
<g id="clust31" class="cluster">
<title>cluster_ModalsModule_providers</title>
<polygon fill="none" stroke="#000000" points="706,-78 706,-130 860,-130 860,-78 706,-78"/>
</g>
<g id="clust32" class="cluster">
<title>cluster_PipesModule</title>
<polygon fill="none" stroke="#000000" stroke-dasharray="1,5" points="1036,-70 1036,-279 1534,-279 1534,-70 1036,-70"/>
</g>
<g id="clust33" class="cluster">
<title>cluster_PipesModule_declarations</title>
<polygon fill="none" stroke="#000000" points="1053,-78 1053,-130 1520,-130 1520,-78 1053,-78"/>
</g>
<g id="clust39" class="cluster">
<title>cluster_PipesModule_exports</title>
<polygon fill="none" stroke="#000000" points="1044,-219 1044,-271 1526,-271 1526,-219 1044,-219"/>
</g>
<!-- AccountService -->
<g id="node1" class="node">
<title>AccountService</title>
<ellipse fill="#fdb462" stroke="#000000" cx="97" cy="-104" rx="72.9121" ry="18"/>
<text text-anchor="middle" x="97" y="-99.8" font-family="Times,serif" font-size="14.00" fill="#000000">AccountService</text>
</g>
<!-- AccountModule -->
<g id="node2" class="node">
<title>AccountModule</title>
<polygon fill="#8dd3c7" stroke="#000000" points="150.4762,-198 147.4762,-202 126.4762,-202 123.4762,-198 43.5238,-198 43.5238,-162 150.4762,-162 150.4762,-198"/>
<text text-anchor="middle" x="97" y="-175.8" font-family="Times,serif" font-size="14.00" fill="#000000">AccountModule</text>
</g>
<!-- AccountService&#45;&gt;AccountModule -->
<g id="edge1" class="edge">
<title>AccountService&#45;&gt;AccountModule</title>
<path fill="none" stroke="#000000" d="M97,-122.0109C97,-122.0109 97,-151.855 97,-151.855"/>
<polygon fill="#000000" stroke="#000000" points="93.5001,-151.8549 97,-161.855 100.5001,-151.855 93.5001,-151.8549"/>
</g>
<!-- AuthModule -->
<g id="node3" class="node">
<title>AuthModule</title>
<polygon fill="#8dd3c7" stroke="#000000" points="545.5482,-198 542.5482,-202 521.5482,-202 518.5482,-198 458.4518,-198 458.4518,-162 545.5482,-162 545.5482,-198"/>
<text text-anchor="middle" x="502" y="-175.8" font-family="Times,serif" font-size="14.00" fill="#000000">AuthModule</text>
</g>
<!-- AuthModalModule -->
<g id="node5" class="node">
<title>AuthModalModule</title>
<polygon fill="#8dd3c7" stroke="#000000" points="624.0968,-263 621.0968,-267 600.0968,-267 597.0968,-263 499.9032,-263 499.9032,-227 624.0968,-227 624.0968,-263"/>
<text text-anchor="middle" x="562" y="-240.8" font-family="Times,serif" font-size="14.00" fill="#000000">AuthModalModule</text>
</g>
<!-- AuthModule&#45;&gt;AuthModalModule -->
<g id="edge2" class="edge">
<title>AuthModule&#45;&gt;AuthModalModule</title>
<path fill="none" stroke="#000000" d="M522.8626,-198.1061C522.8626,-198.1061 522.8626,-216.991 522.8626,-216.991"/>
<polygon fill="#000000" stroke="#000000" points="519.3626,-216.9909 522.8626,-226.991 526.3626,-216.991 519.3626,-216.9909"/>
</g>
<!-- ModalsModule -->
<g id="node4" class="node">
<title>ModalsModule</title>
<polygon fill="#8dd3c7" stroke="#000000" points="665.5452,-198 662.5452,-202 641.5452,-202 638.5452,-198 564.4548,-198 564.4548,-162 665.5452,-162 665.5452,-198"/>
<text text-anchor="middle" x="615" y="-175.8" font-family="Times,serif" font-size="14.00" fill="#000000">ModalsModule</text>
</g>
<!-- ModalsModule&#45;&gt;AuthModalModule -->
<g id="edge3" class="edge">
<title>ModalsModule&#45;&gt;AuthModalModule</title>
<path fill="none" stroke="#000000" d="M594.1382,-198.1061C594.1382,-198.1061 594.1382,-216.991 594.1382,-216.991"/>
<polygon fill="#000000" stroke="#000000" points="590.6382,-216.9909 594.1382,-226.991 597.6382,-216.991 590.6382,-216.9909"/>
</g>
<!-- AuthEmptyPageComponent -->
<g id="node6" class="node">
<title>AuthEmptyPageComponent</title>
<polygon fill="#ffffb3" stroke="#000000" points="673.8752,-122 500.1248,-122 500.1248,-86 673.8752,-86 673.8752,-122"/>
<text text-anchor="middle" x="587" y="-99.8" font-family="Times,serif" font-size="14.00" fill="#000000">AuthEmptyPageComponent</text>
</g>
<!-- AuthEmptyPageComponent&#45;&gt;AuthModule -->
<g id="edge4" class="edge">
<title>AuthEmptyPageComponent&#45;&gt;AuthModule</title>
<path fill="none" stroke="#000000" d="M522.918,-122.0109C522.918,-122.0109 522.918,-151.855 522.918,-151.855"/>
<polygon fill="#000000" stroke="#000000" points="519.418,-151.8549 522.918,-161.855 526.418,-151.855 519.418,-151.8549"/>
</g>
<!-- AuthService -->
<g id="node7" class="node">
<title>AuthService</title>
<ellipse fill="#fdb462" stroke="#000000" cx="417" cy="-104" rx="59.1083" ry="18"/>
<text text-anchor="middle" x="417" y="-99.8" font-family="Times,serif" font-size="14.00" fill="#000000">AuthService</text>
</g>
<!-- AuthService&#45;&gt;AuthModule -->
<g id="edge5" class="edge">
<title>AuthService&#45;&gt;AuthModule</title>
<path fill="none" stroke="#000000" d="M467.2652,-113.6255C467.2652,-113.6255 467.2652,-151.7493 467.2652,-151.7493"/>
<polygon fill="#000000" stroke="#000000" points="463.7653,-151.7492 467.2652,-161.7493 470.7653,-151.7493 463.7653,-151.7492"/>
</g>
<!-- TokenService -->
<g id="node8" class="node">
<title>TokenService</title>
<ellipse fill="#fdb462" stroke="#000000" cx="275" cy="-104" rx="64.8273" ry="18"/>
<text text-anchor="middle" x="275" y="-99.8" font-family="Times,serif" font-size="14.00" fill="#000000">TokenService</text>
</g>
<!-- TokenService&#45;&gt;AuthModule -->
<g id="edge6" class="edge">
<title>TokenService&#45;&gt;AuthModule</title>
<path fill="none" stroke="#000000" d="M275,-122.0109C275,-144.4852 275,-180 275,-180 275,-180 448.2321,-180 448.2321,-180"/>
<polygon fill="#000000" stroke="#000000" points="448.2322,-183.5001 458.2321,-180 448.2321,-176.5001 448.2322,-183.5001"/>
</g>
<!-- LangService -->
<g id="node9" class="node">
<title>LangService</title>
<ellipse fill="#fdb462" stroke="#000000" cx="952" cy="-104" rx="59.6704" ry="18"/>
<text text-anchor="middle" x="952" y="-99.8" font-family="Times,serif" font-size="14.00" fill="#000000">LangService</text>
</g>
<!-- LangModule -->
<g id="node10" class="node">
<title>LangModule</title>
<polygon fill="#8dd3c7" stroke="#000000" points="996.3176,-198 993.3176,-202 972.3176,-202 969.3176,-198 907.6824,-198 907.6824,-162 996.3176,-162 996.3176,-198"/>
<text text-anchor="middle" x="952" y="-175.8" font-family="Times,serif" font-size="14.00" fill="#000000">LangModule</text>
</g>
<!-- LangService&#45;&gt;LangModule -->
<g id="edge7" class="edge">
<title>LangService&#45;&gt;LangModule</title>
<path fill="none" stroke="#000000" d="M952,-122.0109C952,-122.0109 952,-151.855 952,-151.855"/>
<polygon fill="#000000" stroke="#000000" points="948.5001,-151.8549 952,-161.855 955.5001,-151.855 948.5001,-151.8549"/>
</g>
<!-- ModalsService -->
<g id="node11" class="node">
<title>ModalsService</title>
<ellipse fill="#fdb462" stroke="#000000" cx="783" cy="-104" rx="68.9177" ry="18"/>
<text text-anchor="middle" x="783" y="-99.8" font-family="Times,serif" font-size="14.00" fill="#000000">ModalsService</text>
</g>
<!-- ModalsService&#45;&gt;ModalsModule -->
<g id="edge8" class="edge">
<title>ModalsService&#45;&gt;ModalsModule</title>
<path fill="none" stroke="#000000" d="M783,-122.0109C783,-144.4852 783,-180 783,-180 783,-180 675.8615,-180 675.8615,-180"/>
<polygon fill="#000000" stroke="#000000" points="675.8615,-176.5001 665.8615,-180 675.8614,-183.5001 675.8615,-176.5001"/>
</g>
<!-- CustomTranslatePipe -->
<g id="node12" class="node">
<title>CustomTranslatePipe</title>
<polygon fill="#ffffb3" stroke="#000000" points="1512.0338,-122 1375.9662,-122 1375.9662,-86 1512.0338,-86 1512.0338,-122"/>
<text text-anchor="middle" x="1444" y="-99.8" font-family="Times,serif" font-size="14.00" fill="#000000">CustomTranslatePipe</text>
</g>
<!-- PipesModule -->
<g id="node16" class="node">
<title>PipesModule</title>
<polygon fill="#8dd3c7" stroke="#000000" points="1269.8823,-198 1266.8823,-202 1245.8823,-202 1242.8823,-198 1180.1177,-198 1180.1177,-162 1269.8823,-162 1269.8823,-198"/>
<text text-anchor="middle" x="1225" y="-175.8" font-family="Times,serif" font-size="14.00" fill="#000000">PipesModule</text>
</g>
<!-- CustomTranslatePipe&#45;&gt;PipesModule -->
<g id="edge9" class="edge">
<title>CustomTranslatePipe&#45;&gt;PipesModule</title>
<path fill="none" stroke="#000000" d="M1467.5055,-122.0449C1467.5055,-143.6623 1467.5055,-177 1467.5055,-177 1467.5055,-177 1280.0451,-177 1280.0451,-177"/>
<polygon fill="#000000" stroke="#000000" points="1280.0451,-173.5001 1270.0451,-177 1280.0451,-180.5001 1280.0451,-173.5001"/>
</g>
<!-- PermPipe -->
<g id="node13" class="node">
<title>PermPipe</title>
<polygon fill="#ffffb3" stroke="#000000" points="1358.4376,-122 1287.5624,-122 1287.5624,-86 1358.4376,-86 1358.4376,-122"/>
<text text-anchor="middle" x="1323" y="-99.8" font-family="Times,serif" font-size="14.00" fill="#000000">PermPipe</text>
</g>
<!-- PermPipe&#45;&gt;PipesModule -->
<g id="edge10" class="edge">
<title>PermPipe&#45;&gt;PipesModule</title>
<path fill="none" stroke="#000000" d="M1311.2606,-122.0348C1311.2606,-141.5762 1311.2606,-170 1311.2606,-170 1311.2606,-170 1279.8989,-170 1279.8989,-170"/>
<polygon fill="#000000" stroke="#000000" points="1279.8989,-166.5001 1269.8989,-170 1279.8989,-173.5001 1279.8989,-166.5001"/>
</g>
<!-- SafeHtmlPipe -->
<g id="node14" class="node">
<title>SafeHtmlPipe</title>
<polygon fill="#ffffb3" stroke="#000000" points="1270.0397,-122 1175.9603,-122 1175.9603,-86 1270.0397,-86 1270.0397,-122"/>
<text text-anchor="middle" x="1223" y="-99.8" font-family="Times,serif" font-size="14.00" fill="#000000">SafeHtmlPipe</text>
</g>
<!-- SafeHtmlPipe&#45;&gt;PipesModule -->
<g id="edge11" class="edge">
<title>SafeHtmlPipe&#45;&gt;PipesModule</title>
<path fill="none" stroke="#000000" d="M1225,-122.0109C1225,-122.0109 1225,-151.855 1225,-151.855"/>
<polygon fill="#000000" stroke="#000000" points="1221.5001,-151.8549 1225,-161.855 1228.5001,-151.855 1221.5001,-151.8549"/>
</g>
<!-- UserPermPipe -->
<g id="node15" class="node">
<title>UserPermPipe</title>
<polygon fill="#ffffb3" stroke="#000000" points="1157.3627,-122 1060.6373,-122 1060.6373,-86 1157.3627,-86 1157.3627,-122"/>
<text text-anchor="middle" x="1109" y="-99.8" font-family="Times,serif" font-size="14.00" fill="#000000">UserPermPipe</text>
</g>
<!-- UserPermPipe&#45;&gt;PipesModule -->
<g id="edge12" class="edge">
<title>UserPermPipe&#45;&gt;PipesModule</title>
<path fill="none" stroke="#000000" d="M1121.6438,-122.0267C1121.6438,-142.7672 1121.6438,-174 1121.6438,-174 1121.6438,-174 1169.9671,-174 1169.9671,-174"/>
<polygon fill="#000000" stroke="#000000" points="1169.9672,-177.5001 1179.9671,-174 1169.9671,-170.5001 1169.9672,-177.5001"/>
</g>
<!-- CustomTranslatePipe  -->
<g id="node17" class="node">
<title>CustomTranslatePipe </title>
<polygon fill="#fb8072" stroke="#000000" points="1518.033,-263 1377.967,-263 1377.967,-227 1518.033,-227 1518.033,-263"/>
<text text-anchor="middle" x="1448" y="-240.8" font-family="Times,serif" font-size="14.00" fill="#000000">CustomTranslatePipe </text>
</g>
<!-- PipesModule&#45;&gt;CustomTranslatePipe  -->
<g id="edge13" class="edge">
<title>PipesModule&#45;&gt;CustomTranslatePipe </title>
<path fill="none" stroke="#000000" stroke-dasharray="5,2" d="M1270.3666,-184C1328.7475,-184 1422.7445,-184 1422.7445,-184 1422.7445,-184 1422.7445,-216.698 1422.7445,-216.698"/>
<polygon fill="#000000" stroke="#000000" points="1419.2446,-216.698 1422.7445,-226.698 1426.2446,-216.698 1419.2446,-216.698"/>
</g>
<!-- PermPipe  -->
<g id="node18" class="node">
<title>PermPipe </title>
<polygon fill="#fb8072" stroke="#000000" points="1359.9362,-263 1286.0638,-263 1286.0638,-227 1359.9362,-227 1359.9362,-263"/>
<text text-anchor="middle" x="1323" y="-240.8" font-family="Times,serif" font-size="14.00" fill="#000000">PermPipe </text>
</g>
<!-- PipesModule&#45;&gt;PermPipe  -->
<g id="edge14" class="edge">
<title>PipesModule&#45;&gt;PermPipe </title>
<path fill="none" stroke="#000000" stroke-dasharray="5,2" d="M1269.9518,-191C1300.2579,-191 1334.7394,-191 1334.7394,-191 1334.7394,-191 1334.7394,-216.7181 1334.7394,-216.7181"/>
<polygon fill="#000000" stroke="#000000" points="1331.2395,-216.718 1334.7394,-226.7181 1338.2395,-216.7181 1331.2395,-216.718"/>
</g>
<!-- SafeHtmlPipe  -->
<g id="node19" class="node">
<title>SafeHtmlPipe </title>
<polygon fill="#fb8072" stroke="#000000" points="1268.0386,-263 1169.9614,-263 1169.9614,-227 1268.0386,-227 1268.0386,-263"/>
<text text-anchor="middle" x="1219" y="-240.8" font-family="Times,serif" font-size="14.00" fill="#000000">SafeHtmlPipe </text>
</g>
<!-- PipesModule&#45;&gt;SafeHtmlPipe  -->
<g id="edge15" class="edge">
<title>PipesModule&#45;&gt;SafeHtmlPipe </title>
<path fill="none" stroke="#000000" stroke-dasharray="5,2" d="M1224.0391,-198.1061C1224.0391,-198.1061 1224.0391,-216.991 1224.0391,-216.991"/>
<polygon fill="#000000" stroke="#000000" points="1220.5392,-216.9909 1224.0391,-226.991 1227.5392,-216.991 1220.5392,-216.9909"/>
</g>
<!-- UserPermPipe  -->
<g id="node20" class="node">
<title>UserPermPipe </title>
<polygon fill="#fb8072" stroke="#000000" points="1152.3633,-263 1051.6367,-263 1051.6367,-227 1152.3633,-227 1152.3633,-263"/>
<text text-anchor="middle" x="1102" y="-240.8" font-family="Times,serif" font-size="14.00" fill="#000000">UserPermPipe </text>
</g>
<!-- PipesModule&#45;&gt;UserPermPipe  -->
<g id="edge16" class="edge">
<title>PipesModule&#45;&gt;UserPermPipe </title>
<path fill="none" stroke="#000000" stroke-dasharray="5,2" d="M1180.0428,-186C1141.1453,-186 1091.1062,-186 1091.1062,-186 1091.1062,-186 1091.1062,-216.9775 1091.1062,-216.9775"/>
<polygon fill="#000000" stroke="#000000" points="1087.6063,-216.9774 1091.1062,-226.9775 1094.6063,-216.9775 1087.6063,-216.9774"/>
</g>
</g>
</svg>
