<?xml version="1.0" encoding="UTF-8" standalone="no"?>
<!DOCTYPE svg PUBLIC "-//W3C//DTD SVG 1.1//EN"
 "http://www.w3.org/Graphics/SVG/1.1/DTD/svg11.dtd">
<!-- Generated by graphviz version 2.40.1 (20161225.0304)
 -->
<!-- Title: dependencies Pages: 1 -->
<svg width="838pt" height="211pt"
 viewBox="0.00 0.00 838.00 211.00" xmlns="http://www.w3.org/2000/svg" xmlns:xlink="http://www.w3.org/1999/xlink">
<g id="graph0" class="graph" transform="scale(1 1) rotate(0) translate(4 207)">
<title>dependencies</title>
<polygon fill="#ffffff" stroke="transparent" points="-4,4 -4,-207 834,-207 834,4 -4,4"/>
<text text-anchor="start" x="394.0091" y="-42.4" font-family="sans-serif" font-weight="bold" font-size="14.00" fill="#000000">Legend</text>
<polygon fill="#ffffb3" stroke="transparent" points="181,-10 181,-30 201,-30 201,-10 181,-10"/>
<text text-anchor="start" x="204.629" y="-15.4" font-family="sans-serif" font-size="14.00" fill="#000000"> &#160;Declarations</text>
<polygon fill="#8dd3c7" stroke="transparent" points="294,-10 294,-30 314,-30 314,-10 294,-10"/>
<text text-anchor="start" x="317.7251" y="-15.4" font-family="sans-serif" font-size="14.00" fill="#000000"> &#160;Module</text>
<polygon fill="#80b1d3" stroke="transparent" points="380,-10 380,-30 400,-30 400,-10 380,-10"/>
<text text-anchor="start" x="403.7812" y="-15.4" font-family="sans-serif" font-size="14.00" fill="#000000"> &#160;Bootstrap</text>
<polygon fill="#fdb462" stroke="transparent" points="477,-10 477,-30 497,-30 497,-10 477,-10"/>
<text text-anchor="start" x="500.6732" y="-15.4" font-family="sans-serif" font-size="14.00" fill="#000000"> &#160;Providers</text>
<polygon fill="#fb8072" stroke="transparent" points="573,-10 573,-30 593,-30 593,-10 573,-10"/>
<text text-anchor="start" x="596.7258" y="-15.4" font-family="sans-serif" font-size="14.00" fill="#000000"> &#160;Exports</text>
<g id="clust1" class="cluster">
<title>cluster_AccountModule</title>
<polygon fill="none" stroke="#000000" stroke-dasharray="1,5" points="8,-70 8,-195 186,-195 186,-70 8,-70"/>
</g>
<g id="clust6" class="cluster">
<title>cluster_AccountModule_providers</title>
<polygon fill="none" stroke="#000000" points="16,-78 16,-130 178,-130 178,-78 16,-78"/>
</g>
<g id="clust7" class="cluster">
<title>cluster_AuthModule</title>
<polygon fill="none" stroke="#000000" stroke-dasharray="1,5" points="194,-70 194,-195 662,-195 662,-70 194,-70"/>
</g>
<g id="clust8" class="cluster">
<title>cluster_AuthModule_declarations</title>
<polygon fill="none" stroke="#000000" points="492,-78 492,-130 654,-130 654,-78 492,-78"/>
</g>
<g id="clust13" class="cluster">
<title>cluster_AuthModule_providers</title>
<polygon fill="none" stroke="#000000" points="202,-78 202,-130 484,-130 484,-78 202,-78"/>
</g>
<g id="clust14" class="cluster">
<title>cluster_LangModule</title>
<polygon fill="none" stroke="#000000" stroke-dasharray="1,5" points="670,-70 670,-195 822,-195 822,-70 670,-70"/>
</g>
<g id="clust19" class="cluster">
<title>cluster_LangModule_providers</title>
<polygon fill="none" stroke="#000000" points="678,-78 678,-130 814,-130 814,-78 678,-78"/>
</g>
<!-- AccountService -->
<g id="node1" class="node">
<title>AccountService</title>
<ellipse fill="#fdb462" stroke="#000000" cx="97" cy="-104" rx="72.9121" ry="18"/>
<text text-anchor="middle" x="97" y="-99.8" font-family="Times,serif" font-size="14.00" fill="#000000">AccountService</text>
</g>
<!-- AccountModule -->
<g id="node2" class="node">
<title>AccountModule</title>
<polygon fill="#8dd3c7" stroke="#000000" points="150.4762,-187 147.4762,-191 126.4762,-191 123.4762,-187 43.5238,-187 43.5238,-151 150.4762,-151 150.4762,-187"/>
<text text-anchor="middle" x="97" y="-164.8" font-family="Times,serif" font-size="14.00" fill="#000000">AccountModule</text>
</g>
<!-- AccountService&#45;&gt;AccountModule -->
<g id="edge1" class="edge">
<title>AccountService&#45;&gt;AccountModule</title>
<path fill="none" stroke="#000000" d="M97,-122.1061C97,-122.1061 97,-140.991 97,-140.991"/>
<polygon fill="#000000" stroke="#000000" points="93.5001,-140.9909 97,-150.991 100.5001,-140.991 93.5001,-140.9909"/>
</g>
<!-- AuthEmptyComponent -->
<g id="node3" class="node">
<title>AuthEmptyComponent</title>
<polygon fill="#ffffb3" stroke="#000000" points="646.1638,-122 499.8362,-122 499.8362,-86 646.1638,-86 646.1638,-122"/>
<text text-anchor="middle" x="573" y="-99.8" font-family="Times,serif" font-size="14.00" fill="#000000">AuthEmptyComponent</text>
</g>
<!-- AuthModule -->
<g id="node4" class="node">
<title>AuthModule</title>
<polygon fill="#8dd3c7" stroke="#000000" points="460.5482,-187 457.5482,-191 436.5482,-191 433.5482,-187 373.4518,-187 373.4518,-151 460.5482,-151 460.5482,-187"/>
<text text-anchor="middle" x="417" y="-164.8" font-family="Times,serif" font-size="14.00" fill="#000000">AuthModule</text>
</g>
<!-- AuthEmptyComponent&#45;&gt;AuthModule -->
<g id="edge2" class="edge">
<title>AuthEmptyComponent&#45;&gt;AuthModule</title>
<path fill="none" stroke="#000000" d="M573,-122.1061C573,-141.3391 573,-169 573,-169 573,-169 470.8698,-169 470.8698,-169"/>
<polygon fill="#000000" stroke="#000000" points="470.8699,-165.5001 460.8698,-169 470.8698,-172.5001 470.8699,-165.5001"/>
</g>
<!-- AuthService -->
<g id="node5" class="node">
<title>AuthService</title>
<ellipse fill="#fdb462" stroke="#000000" cx="417" cy="-104" rx="59.1083" ry="18"/>
<text text-anchor="middle" x="417" y="-99.8" font-family="Times,serif" font-size="14.00" fill="#000000">AuthService</text>
</g>
<!-- AuthService&#45;&gt;AuthModule -->
<g id="edge3" class="edge">
<title>AuthService&#45;&gt;AuthModule</title>
<path fill="none" stroke="#000000" d="M417,-122.1061C417,-122.1061 417,-140.991 417,-140.991"/>
<polygon fill="#000000" stroke="#000000" points="413.5001,-140.9909 417,-150.991 420.5001,-140.991 413.5001,-140.9909"/>
</g>
<!-- TokenService -->
<g id="node6" class="node">
<title>TokenService</title>
<ellipse fill="#fdb462" stroke="#000000" cx="275" cy="-104" rx="64.8273" ry="18"/>
<text text-anchor="middle" x="275" y="-99.8" font-family="Times,serif" font-size="14.00" fill="#000000">TokenService</text>
</g>
<!-- TokenService&#45;&gt;AuthModule -->
<g id="edge4" class="edge">
<title>TokenService&#45;&gt;AuthModule</title>
<path fill="none" stroke="#000000" d="M275,-122.1061C275,-141.3391 275,-169 275,-169 275,-169 363.2366,-169 363.2366,-169"/>
<polygon fill="#000000" stroke="#000000" points="363.2367,-172.5001 373.2366,-169 363.2366,-165.5001 363.2367,-172.5001"/>
</g>
<!-- LangService -->
<g id="node7" class="node">
<title>LangService</title>
<ellipse fill="#fdb462" stroke="#000000" cx="746" cy="-104" rx="59.6704" ry="18"/>
<text text-anchor="middle" x="746" y="-99.8" font-family="Times,serif" font-size="14.00" fill="#000000">LangService</text>
</g>
<!-- LangModule -->
<g id="node8" class="node">
<title>LangModule</title>
<polygon fill="#8dd3c7" stroke="#000000" points="790.3176,-187 787.3176,-191 766.3176,-191 763.3176,-187 701.6824,-187 701.6824,-151 790.3176,-151 790.3176,-187"/>
<text text-anchor="middle" x="746" y="-164.8" font-family="Times,serif" font-size="14.00" fill="#000000">LangModule</text>
</g>
<!-- LangService&#45;&gt;LangModule -->
<g id="edge5" class="edge">
<title>LangService&#45;&gt;LangModule</title>
<path fill="none" stroke="#000000" d="M746,-122.1061C746,-122.1061 746,-140.991 746,-140.991"/>
<polygon fill="#000000" stroke="#000000" points="742.5001,-140.9909 746,-150.991 749.5001,-140.991 742.5001,-140.9909"/>
</g>
</g>
</svg>
