<?xml version="1.0" encoding="UTF-8" standalone="no"?>
<!DOCTYPE svg PUBLIC "-//W3C//DTD SVG 1.1//EN"
 "http://www.w3.org/Graphics/SVG/1.1/DTD/svg11.dtd">
<!-- Generated by graphviz version 2.40.1 (20161225.0304)
 -->
<!-- Title: dependencies Pages: 1 -->
<svg width="2248pt" height="295pt"
 viewBox="0.00 0.00 2248.00 295.00" xmlns="http://www.w3.org/2000/svg" xmlns:xlink="http://www.w3.org/1999/xlink">
<g id="graph0" class="graph" transform="scale(1 1) rotate(0) translate(4 291)">
<title>dependencies</title>
<polygon fill="#ffffff" stroke="transparent" points="-4,4 -4,-291 2244,-291 2244,4 -4,4"/>
<text text-anchor="start" x="1099.0091" y="-42.4" font-family="sans-serif" font-weight="bold" font-size="14.00" fill="#000000">Legend</text>
<polygon fill="#ffffb3" stroke="transparent" points="886,-10 886,-30 906,-30 906,-10 886,-10"/>
<text text-anchor="start" x="909.629" y="-15.4" font-family="sans-serif" font-size="14.00" fill="#000000"> &#160;Declarations</text>
<polygon fill="#8dd3c7" stroke="transparent" points="999,-10 999,-30 1019,-30 1019,-10 999,-10"/>
<text text-anchor="start" x="1022.7251" y="-15.4" font-family="sans-serif" font-size="14.00" fill="#000000"> &#160;Module</text>
<polygon fill="#80b1d3" stroke="transparent" points="1085,-10 1085,-30 1105,-30 1105,-10 1085,-10"/>
<text text-anchor="start" x="1108.7812" y="-15.4" font-family="sans-serif" font-size="14.00" fill="#000000"> &#160;Bootstrap</text>
<polygon fill="#fdb462" stroke="transparent" points="1182,-10 1182,-30 1202,-30 1202,-10 1182,-10"/>
<text text-anchor="start" x="1205.6732" y="-15.4" font-family="sans-serif" font-size="14.00" fill="#000000"> &#160;Providers</text>
<polygon fill="#fb8072" stroke="transparent" points="1278,-10 1278,-30 1298,-30 1298,-10 1278,-10"/>
<text text-anchor="start" x="1301.7258" y="-15.4" font-family="sans-serif" font-size="14.00" fill="#000000"> &#160;Exports</text>
<g id="clust1" class="cluster">
<title>cluster_AccountModule</title>
<polygon fill="none" stroke="#000000" stroke-dasharray="1,5" points="8,-70 8,-206 186,-206 186,-70 8,-70"/>
</g>
<g id="clust6" class="cluster">
<title>cluster_AccountModule_providers</title>
<polygon fill="none" stroke="#000000" points="16,-78 16,-130 178,-130 178,-78 16,-78"/>
</g>
<g id="clust7" class="cluster">
<title>cluster_AuthModalModule</title>
<polygon fill="none" stroke="#000000" stroke-dasharray="1,5" points="442,-146 442,-271 682,-271 682,-146 442,-146"/>
</g>
<g id="clust9" class="cluster">
<title>cluster_AuthModalModule_imports</title>
<polygon fill="none" stroke="#000000" points="450,-154 450,-206 674,-206 674,-154 450,-154"/>
</g>
<g id="clust13" class="cluster">
<title>cluster_AuthModule</title>
<polygon fill="none" stroke="#000000" stroke-dasharray="1,5" points="194,-70 194,-138 690,-138 690,-70 194,-70"/>
</g>
<g id="clust14" class="cluster">
<title>cluster_AuthModule_declarations</title>
<polygon fill="none" stroke="#000000" points="492,-78 492,-130 682,-130 682,-78 492,-78"/>
</g>
<g id="clust19" class="cluster">
<title>cluster_AuthModule_providers</title>
<polygon fill="none" stroke="#000000" points="202,-78 202,-130 484,-130 484,-78 202,-78"/>
</g>
<g id="clust20" class="cluster">
<title>cluster_DirectivesModule</title>
<polygon fill="none" stroke="#000000" stroke-dasharray="1,5" points="876,-70 876,-279 1202,-279 1202,-70 876,-70"/>
</g>
<g id="clust21" class="cluster">
<title>cluster_DirectivesModule_declarations</title>
<polygon fill="none" stroke="#000000" points="888,-78 888,-130 1190,-130 1190,-78 888,-78"/>
</g>
<g id="clust25" class="cluster">
<title>cluster_DirectivesModule_exports</title>
<polygon fill="none" stroke="#000000" points="884,-219 884,-271 1194,-271 1194,-219 884,-219"/>
</g>
<g id="clust28" class="cluster">
<title>cluster_LangModule</title>
<polygon fill="none" stroke="#000000" stroke-dasharray="1,5" points="1210,-70 1210,-206 1362,-206 1362,-70 1210,-70"/>
</g>
<g id="clust33" class="cluster">
<title>cluster_LangModule_providers</title>
<polygon fill="none" stroke="#000000" points="1218,-78 1218,-130 1354,-130 1354,-78 1218,-78"/>
</g>
<g id="clust34" class="cluster">
<title>cluster_ModalsModule</title>
<polygon fill="none" stroke="#000000" stroke-dasharray="1,5" points="698,-70 698,-138 868,-138 868,-70 698,-70"/>
</g>
<g id="clust39" class="cluster">
<title>cluster_ModalsModule_providers</title>
<polygon fill="none" stroke="#000000" points="706,-78 706,-130 860,-130 860,-78 706,-78"/>
</g>
<g id="clust40" class="cluster">
<title>cluster_PipesModule</title>
<polygon fill="none" stroke="#000000" stroke-dasharray="1,5" points="1370,-70 1370,-279 1868,-279 1868,-70 1370,-70"/>
</g>
<g id="clust41" class="cluster">
<title>cluster_PipesModule_declarations</title>
<polygon fill="none" stroke="#000000" points="1387,-78 1387,-130 1854,-130 1854,-78 1387,-78"/>
</g>
<g id="clust47" class="cluster">
<title>cluster_PipesModule_exports</title>
<polygon fill="none" stroke="#000000" points="1378,-219 1378,-271 1860,-271 1860,-219 1378,-219"/>
</g>
<g id="clust50" class="cluster">
<title>cluster_RuckenCoreModule</title>
<polygon fill="none" stroke="#000000" stroke-dasharray="1,5" points="1876,-70 1876,-206 2232,-206 2232,-70 1876,-70"/>
</g>
<g id="clust55" class="cluster">
<title>cluster_RuckenCoreModule_providers</title>
<polygon fill="none" stroke="#000000" points="1884,-78 1884,-130 2224,-130 2224,-78 1884,-78"/>
</g>
<!-- AccountService -->
<g id="node1" class="node">
<title>AccountService</title>
<ellipse fill="#fdb462" stroke="#000000" cx="97" cy="-104" rx="72.9121" ry="18"/>
<text text-anchor="middle" x="97" y="-99.8" font-family="Times,serif" font-size="14.00" fill="#000000">AccountService</text>
</g>
<!-- AccountModule -->
<g id="node2" class="node">
<title>AccountModule</title>
<polygon fill="#8dd3c7" stroke="#000000" points="150.4762,-198 147.4762,-202 126.4762,-202 123.4762,-198 43.5238,-198 43.5238,-162 150.4762,-162 150.4762,-198"/>
<text text-anchor="middle" x="97" y="-175.8" font-family="Times,serif" font-size="14.00" fill="#000000">AccountModule</text>
</g>
<!-- AccountService&#45;&gt;AccountModule -->
<g id="edge1" class="edge">
<title>AccountService&#45;&gt;AccountModule</title>
<path fill="none" stroke="#000000" d="M97,-122.0109C97,-122.0109 97,-151.855 97,-151.855"/>
<polygon fill="#000000" stroke="#000000" points="93.5001,-151.8549 97,-161.855 100.5001,-151.855 93.5001,-151.8549"/>
</g>
<!-- AuthModule -->
<g id="node3" class="node">
<title>AuthModule</title>
<polygon fill="#8dd3c7" stroke="#000000" points="545.5482,-198 542.5482,-202 521.5482,-202 518.5482,-198 458.4518,-198 458.4518,-162 545.5482,-162 545.5482,-198"/>
<text text-anchor="middle" x="502" y="-175.8" font-family="Times,serif" font-size="14.00" fill="#000000">AuthModule</text>
</g>
<!-- AuthModalModule -->
<g id="node5" class="node">
<title>AuthModalModule</title>
<polygon fill="#8dd3c7" stroke="#000000" points="624.0968,-263 621.0968,-267 600.0968,-267 597.0968,-263 499.9032,-263 499.9032,-227 624.0968,-227 624.0968,-263"/>
<text text-anchor="middle" x="562" y="-240.8" font-family="Times,serif" font-size="14.00" fill="#000000">AuthModalModule</text>
</g>
<!-- AuthModule&#45;&gt;AuthModalModule -->
<g id="edge2" class="edge">
<title>AuthModule&#45;&gt;AuthModalModule</title>
<path fill="none" stroke="#000000" d="M522.8626,-198.1061C522.8626,-198.1061 522.8626,-216.991 522.8626,-216.991"/>
<polygon fill="#000000" stroke="#000000" points="519.3626,-216.9909 522.8626,-226.991 526.3626,-216.991 519.3626,-216.9909"/>
</g>
<!-- ModalsModule -->
<g id="node4" class="node">
<title>ModalsModule</title>
<polygon fill="#8dd3c7" stroke="#000000" points="665.5452,-198 662.5452,-202 641.5452,-202 638.5452,-198 564.4548,-198 564.4548,-162 665.5452,-162 665.5452,-198"/>
<text text-anchor="middle" x="615" y="-175.8" font-family="Times,serif" font-size="14.00" fill="#000000">ModalsModule</text>
</g>
<!-- ModalsModule&#45;&gt;AuthModalModule -->
<g id="edge3" class="edge">
<title>ModalsModule&#45;&gt;AuthModalModule</title>
<path fill="none" stroke="#000000" d="M594.1382,-198.1061C594.1382,-198.1061 594.1382,-216.991 594.1382,-216.991"/>
<polygon fill="#000000" stroke="#000000" points="590.6382,-216.9909 594.1382,-226.991 597.6382,-216.991 590.6382,-216.9909"/>
</g>
<!-- AuthEmptyPageComponent -->
<g id="node6" class="node">
<title>AuthEmptyPageComponent</title>
<polygon fill="#ffffb3" stroke="#000000" points="673.8752,-122 500.1248,-122 500.1248,-86 673.8752,-86 673.8752,-122"/>
<text text-anchor="middle" x="587" y="-99.8" font-family="Times,serif" font-size="14.00" fill="#000000">AuthEmptyPageComponent</text>
</g>
<!-- AuthEmptyPageComponent&#45;&gt;AuthModule -->
<g id="edge4" class="edge">
<title>AuthEmptyPageComponent&#45;&gt;AuthModule</title>
<path fill="none" stroke="#000000" d="M522.918,-122.0109C522.918,-122.0109 522.918,-151.855 522.918,-151.855"/>
<polygon fill="#000000" stroke="#000000" points="519.418,-151.8549 522.918,-161.855 526.418,-151.855 519.418,-151.8549"/>
</g>
<!-- AuthService -->
<g id="node7" class="node">
<title>AuthService</title>
<ellipse fill="#fdb462" stroke="#000000" cx="417" cy="-104" rx="59.1083" ry="18"/>
<text text-anchor="middle" x="417" y="-99.8" font-family="Times,serif" font-size="14.00" fill="#000000">AuthService</text>
</g>
<!-- AuthService&#45;&gt;AuthModule -->
<g id="edge5" class="edge">
<title>AuthService&#45;&gt;AuthModule</title>
<path fill="none" stroke="#000000" d="M467.2652,-113.6255C467.2652,-113.6255 467.2652,-151.7493 467.2652,-151.7493"/>
<polygon fill="#000000" stroke="#000000" points="463.7653,-151.7492 467.2652,-161.7493 470.7653,-151.7493 463.7653,-151.7492"/>
</g>
<!-- TokenService -->
<g id="node8" class="node">
<title>TokenService</title>
<ellipse fill="#fdb462" stroke="#000000" cx="275" cy="-104" rx="64.8273" ry="18"/>
<text text-anchor="middle" x="275" y="-99.8" font-family="Times,serif" font-size="14.00" fill="#000000">TokenService</text>
</g>
<!-- TokenService&#45;&gt;AuthModule -->
<g id="edge6" class="edge">
<title>TokenService&#45;&gt;AuthModule</title>
<path fill="none" stroke="#000000" d="M275,-122.0109C275,-144.4852 275,-180 275,-180 275,-180 448.2321,-180 448.2321,-180"/>
<polygon fill="#000000" stroke="#000000" points="448.2322,-183.5001 458.2321,-180 448.2321,-176.5001 448.2322,-183.5001"/>
</g>
<!-- DisableControlDirective -->
<g id="node9" class="node">
<title>DisableControlDirective</title>
<polygon fill="#ffffb3" stroke="#000000" points="1181.6233,-122 1028.3767,-122 1028.3767,-86 1181.6233,-86 1181.6233,-122"/>
<text text-anchor="middle" x="1105" y="-99.8" font-family="Times,serif" font-size="14.00" fill="#000000">DisableControlDirective</text>
</g>
<!-- DirectivesModule -->
<g id="node11" class="node">
<title>DirectivesModule</title>
<polygon fill="#8dd3c7" stroke="#000000" points="1012.5772,-198 1009.5772,-202 988.5772,-202 985.5772,-198 895.4228,-198 895.4228,-162 1012.5772,-162 1012.5772,-198"/>
<text text-anchor="middle" x="954" y="-175.8" font-family="Times,serif" font-size="14.00" fill="#000000">DirectivesModule</text>
</g>
<!-- DisableControlDirective&#45;&gt;DirectivesModule -->
<g id="edge7" class="edge">
<title>DisableControlDirective&#45;&gt;DirectivesModule</title>
<path fill="none" stroke="#000000" d="M1079.5629,-122.0267C1079.5629,-142.7672 1079.5629,-174 1079.5629,-174 1079.5629,-174 1022.7375,-174 1022.7375,-174"/>
<polygon fill="#000000" stroke="#000000" points="1022.7375,-170.5001 1012.7375,-174 1022.7374,-177.5001 1022.7375,-170.5001"/>
</g>
<!-- FocusedDirective -->
<g id="node10" class="node">
<title>FocusedDirective</title>
<polygon fill="#ffffb3" stroke="#000000" points="1010.2395,-122 895.7605,-122 895.7605,-86 1010.2395,-86 1010.2395,-122"/>
<text text-anchor="middle" x="953" y="-99.8" font-family="Times,serif" font-size="14.00" fill="#000000">FocusedDirective</text>
</g>
<!-- FocusedDirective&#45;&gt;DirectivesModule -->
<g id="edge8" class="edge">
<title>FocusedDirective&#45;&gt;DirectivesModule</title>
<path fill="none" stroke="#000000" d="M953,-122.0109C953,-122.0109 953,-151.855 953,-151.855"/>
<polygon fill="#000000" stroke="#000000" points="949.5001,-151.8549 953,-161.855 956.5001,-151.855 949.5001,-151.8549"/>
</g>
<!-- DisableControlDirective  -->
<g id="node12" class="node">
<title>DisableControlDirective </title>
<polygon fill="#fb8072" stroke="#000000" points="1185.6228,-263 1028.3772,-263 1028.3772,-227 1185.6228,-227 1185.6228,-263"/>
<text text-anchor="middle" x="1107" y="-240.8" font-family="Times,serif" font-size="14.00" fill="#000000">DisableControlDirective </text>
</g>
<!-- DirectivesModule&#45;&gt;DisableControlDirective  -->
<g id="edge9" class="edge">
<title>DirectivesModule&#45;&gt;DisableControlDirective </title>
<path fill="none" stroke="#000000" stroke-dasharray="5,2" d="M1012.8343,-186C1064.2326,-186 1130.6871,-186 1130.6871,-186 1130.6871,-186 1130.6871,-216.9775 1130.6871,-216.9775"/>
<polygon fill="#000000" stroke="#000000" points="1127.1872,-216.9774 1130.6871,-226.9775 1134.1872,-216.9775 1127.1872,-216.9774"/>
</g>
<!-- FocusedDirective  -->
<g id="node13" class="node">
<title>FocusedDirective </title>
<polygon fill="#fb8072" stroke="#000000" points="1010.2394,-263 891.7606,-263 891.7606,-227 1010.2394,-227 1010.2394,-263"/>
<text text-anchor="middle" x="951" y="-240.8" font-family="Times,serif" font-size="14.00" fill="#000000">FocusedDirective </text>
</g>
<!-- DirectivesModule&#45;&gt;FocusedDirective  -->
<g id="edge10" class="edge">
<title>DirectivesModule&#45;&gt;FocusedDirective </title>
<path fill="none" stroke="#000000" stroke-dasharray="5,2" d="M952.7905,-198.1061C952.7905,-198.1061 952.7905,-216.991 952.7905,-216.991"/>
<polygon fill="#000000" stroke="#000000" points="949.2906,-216.9909 952.7905,-226.991 956.2906,-216.991 949.2906,-216.9909"/>
</g>
<!-- LangService -->
<g id="node14" class="node">
<title>LangService</title>
<ellipse fill="#fdb462" stroke="#000000" cx="1286" cy="-104" rx="59.6704" ry="18"/>
<text text-anchor="middle" x="1286" y="-99.8" font-family="Times,serif" font-size="14.00" fill="#000000">LangService</text>
</g>
<!-- LangModule -->
<g id="node15" class="node">
<title>LangModule</title>
<polygon fill="#8dd3c7" stroke="#000000" points="1330.3176,-198 1327.3176,-202 1306.3176,-202 1303.3176,-198 1241.6824,-198 1241.6824,-162 1330.3176,-162 1330.3176,-198"/>
<text text-anchor="middle" x="1286" y="-175.8" font-family="Times,serif" font-size="14.00" fill="#000000">LangModule</text>
</g>
<!-- LangService&#45;&gt;LangModule -->
<g id="edge11" class="edge">
<title>LangService&#45;&gt;LangModule</title>
<path fill="none" stroke="#000000" d="M1286,-122.0109C1286,-122.0109 1286,-151.855 1286,-151.855"/>
<polygon fill="#000000" stroke="#000000" points="1282.5001,-151.8549 1286,-161.855 1289.5001,-151.855 1282.5001,-151.8549"/>
</g>
<!-- ModalsService -->
<g id="node16" class="node">
<title>ModalsService</title>
<ellipse fill="#fdb462" stroke="#000000" cx="783" cy="-104" rx="68.9177" ry="18"/>
<text text-anchor="middle" x="783" y="-99.8" font-family="Times,serif" font-size="14.00" fill="#000000">ModalsService</text>
</g>
<!-- ModalsService&#45;&gt;ModalsModule -->
<g id="edge12" class="edge">
<title>ModalsService&#45;&gt;ModalsModule</title>
<path fill="none" stroke="#000000" d="M783,-122.0109C783,-144.4852 783,-180 783,-180 783,-180 675.8615,-180 675.8615,-180"/>
<polygon fill="#000000" stroke="#000000" points="675.8615,-176.5001 665.8615,-180 675.8614,-183.5001 675.8615,-176.5001"/>
</g>
<!-- CustomTranslatePipe -->
<g id="node17" class="node">
<title>CustomTranslatePipe</title>
<polygon fill="#ffffb3" stroke="#000000" points="1846.0338,-122 1709.9662,-122 1709.9662,-86 1846.0338,-86 1846.0338,-122"/>
<text text-anchor="middle" x="1778" y="-99.8" font-family="Times,serif" font-size="14.00" fill="#000000">CustomTranslatePipe</text>
</g>
<!-- PipesModule -->
<g id="node21" class="node">
<title>PipesModule</title>
<polygon fill="#8dd3c7" stroke="#000000" points="1603.8823,-198 1600.8823,-202 1579.8823,-202 1576.8823,-198 1514.1177,-198 1514.1177,-162 1603.8823,-162 1603.8823,-198"/>
<text text-anchor="middle" x="1559" y="-175.8" font-family="Times,serif" font-size="14.00" fill="#000000">PipesModule</text>
</g>
<!-- CustomTranslatePipe&#45;&gt;PipesModule -->
<g id="edge13" class="edge">
<title>CustomTranslatePipe&#45;&gt;PipesModule</title>
<path fill="none" stroke="#000000" d="M1801.5055,-122.0449C1801.5055,-143.6623 1801.5055,-177 1801.5055,-177 1801.5055,-177 1614.0451,-177 1614.0451,-177"/>
<polygon fill="#000000" stroke="#000000" points="1614.0451,-173.5001 1604.0451,-177 1614.0451,-180.5001 1614.0451,-173.5001"/>
</g>
<!-- PermPipe -->
<g id="node18" class="node">
<title>PermPipe</title>
<polygon fill="#ffffb3" stroke="#000000" points="1692.4376,-122 1621.5624,-122 1621.5624,-86 1692.4376,-86 1692.4376,-122"/>
<text text-anchor="middle" x="1657" y="-99.8" font-family="Times,serif" font-size="14.00" fill="#000000">PermPipe</text>
</g>
<!-- PermPipe&#45;&gt;PipesModule -->
<g id="edge14" class="edge">
<title>PermPipe&#45;&gt;PipesModule</title>
<path fill="none" stroke="#000000" d="M1645.2606,-122.0348C1645.2606,-141.5762 1645.2606,-170 1645.2606,-170 1645.2606,-170 1613.8989,-170 1613.8989,-170"/>
<polygon fill="#000000" stroke="#000000" points="1613.8989,-166.5001 1603.8989,-170 1613.8989,-173.5001 1613.8989,-166.5001"/>
</g>
<!-- SafeHtmlPipe -->
<g id="node19" class="node">
<title>SafeHtmlPipe</title>
<polygon fill="#ffffb3" stroke="#000000" points="1604.0397,-122 1509.9603,-122 1509.9603,-86 1604.0397,-86 1604.0397,-122"/>
<text text-anchor="middle" x="1557" y="-99.8" font-family="Times,serif" font-size="14.00" fill="#000000">SafeHtmlPipe</text>
</g>
<!-- SafeHtmlPipe&#45;&gt;PipesModule -->
<g id="edge15" class="edge">
<title>SafeHtmlPipe&#45;&gt;PipesModule</title>
<path fill="none" stroke="#000000" d="M1559,-122.0109C1559,-122.0109 1559,-151.855 1559,-151.855"/>
<polygon fill="#000000" stroke="#000000" points="1555.5001,-151.8549 1559,-161.855 1562.5001,-151.855 1555.5001,-151.8549"/>
</g>
<!-- UserPermPipe -->
<g id="node20" class="node">
<title>UserPermPipe</title>
<polygon fill="#ffffb3" stroke="#000000" points="1491.3627,-122 1394.6373,-122 1394.6373,-86 1491.3627,-86 1491.3627,-122"/>
<text text-anchor="middle" x="1443" y="-99.8" font-family="Times,serif" font-size="14.00" fill="#000000">UserPermPipe</text>
</g>
<!-- UserPermPipe&#45;&gt;PipesModule -->
<g id="edge16" class="edge">
<title>UserPermPipe&#45;&gt;PipesModule</title>
<path fill="none" stroke="#000000" d="M1455.6438,-122.0267C1455.6438,-142.7672 1455.6438,-174 1455.6438,-174 1455.6438,-174 1503.9671,-174 1503.9671,-174"/>
<polygon fill="#000000" stroke="#000000" points="1503.9672,-177.5001 1513.9671,-174 1503.9671,-170.5001 1503.9672,-177.5001"/>
</g>
<!-- CustomTranslatePipe  -->
<g id="node22" class="node">
<title>CustomTranslatePipe </title>
<polygon fill="#fb8072" stroke="#000000" points="1852.033,-263 1711.967,-263 1711.967,-227 1852.033,-227 1852.033,-263"/>
<text text-anchor="middle" x="1782" y="-240.8" font-family="Times,serif" font-size="14.00" fill="#000000">CustomTranslatePipe </text>
</g>
<!-- PipesModule&#45;&gt;CustomTranslatePipe  -->
<g id="edge17" class="edge">
<title>PipesModule&#45;&gt;CustomTranslatePipe </title>
<path fill="none" stroke="#000000" stroke-dasharray="5,2" d="M1604.3666,-184C1662.7475,-184 1756.7445,-184 1756.7445,-184 1756.7445,-184 1756.7445,-216.698 1756.7445,-216.698"/>
<polygon fill="#000000" stroke="#000000" points="1753.2446,-216.698 1756.7445,-226.698 1760.2446,-216.698 1753.2446,-216.698"/>
</g>
<!-- PermPipe  -->
<g id="node23" class="node">
<title>PermPipe </title>
<polygon fill="#fb8072" stroke="#000000" points="1693.9362,-263 1620.0638,-263 1620.0638,-227 1693.9362,-227 1693.9362,-263"/>
<text text-anchor="middle" x="1657" y="-240.8" font-family="Times,serif" font-size="14.00" fill="#000000">PermPipe </text>
</g>
<!-- PipesModule&#45;&gt;PermPipe  -->
<g id="edge18" class="edge">
<title>PipesModule&#45;&gt;PermPipe </title>
<path fill="none" stroke="#000000" stroke-dasharray="5,2" d="M1603.9518,-191C1634.2579,-191 1668.7394,-191 1668.7394,-191 1668.7394,-191 1668.7394,-216.7181 1668.7394,-216.7181"/>
<polygon fill="#000000" stroke="#000000" points="1665.2395,-216.718 1668.7394,-226.7181 1672.2395,-216.7181 1665.2395,-216.718"/>
</g>
<!-- SafeHtmlPipe  -->
<g id="node24" class="node">
<title>SafeHtmlPipe </title>
<polygon fill="#fb8072" stroke="#000000" points="1602.0386,-263 1503.9614,-263 1503.9614,-227 1602.0386,-227 1602.0386,-263"/>
<text text-anchor="middle" x="1553" y="-240.8" font-family="Times,serif" font-size="14.00" fill="#000000">SafeHtmlPipe </text>
</g>
<!-- PipesModule&#45;&gt;SafeHtmlPipe  -->
<g id="edge19" class="edge">
<title>PipesModule&#45;&gt;SafeHtmlPipe </title>
<path fill="none" stroke="#000000" stroke-dasharray="5,2" d="M1558.0391,-198.1061C1558.0391,-198.1061 1558.0391,-216.991 1558.0391,-216.991"/>
<polygon fill="#000000" stroke="#000000" points="1554.5392,-216.9909 1558.0391,-226.991 1561.5392,-216.991 1554.5392,-216.9909"/>
</g>
<!-- UserPermPipe  -->
<g id="node25" class="node">
<title>UserPermPipe </title>
<polygon fill="#fb8072" stroke="#000000" points="1486.3633,-263 1385.6367,-263 1385.6367,-227 1486.3633,-227 1486.3633,-263"/>
<text text-anchor="middle" x="1436" y="-240.8" font-family="Times,serif" font-size="14.00" fill="#000000">UserPermPipe </text>
</g>
<!-- PipesModule&#45;&gt;UserPermPipe  -->
<g id="edge20" class="edge">
<title>PipesModule&#45;&gt;UserPermPipe </title>
<path fill="none" stroke="#000000" stroke-dasharray="5,2" d="M1514.0428,-186C1475.1453,-186 1425.1062,-186 1425.1062,-186 1425.1062,-186 1425.1062,-216.9775 1425.1062,-216.9775"/>
<polygon fill="#000000" stroke="#000000" points="1421.6063,-216.9774 1425.1062,-226.9775 1428.6063,-216.9775 1421.6063,-216.9774"/>
</g>
<!-- ErrorsExtractor -->
<g id="node26" class="node">
<title>ErrorsExtractor</title>
<ellipse fill="#fdb462" stroke="#000000" cx="2145" cy="-104" rx="71.1823" ry="18"/>
<text text-anchor="middle" x="2145" y="-99.8" font-family="Times,serif" font-size="14.00" fill="#000000">ErrorsExtractor</text>
</g>
<!-- RuckenCoreModule -->
<g id="node28" class="node">
<title>RuckenCoreModule</title>
<polygon fill="#8dd3c7" stroke="#000000" points="2123.5283,-198 2120.5283,-202 2099.5283,-202 2096.5283,-198 1994.4717,-198 1994.4717,-162 2123.5283,-162 2123.5283,-198"/>
<text text-anchor="middle" x="2059" y="-175.8" font-family="Times,serif" font-size="14.00" fill="#000000">RuckenCoreModule</text>
</g>
<!-- ErrorsExtractor&#45;&gt;RuckenCoreModule -->
<g id="edge21" class="edge">
<title>ErrorsExtractor&#45;&gt;RuckenCoreModule</title>
<path fill="none" stroke="#000000" d="M2098.8363,-117.9396C2098.8363,-117.9396 2098.8363,-151.8444 2098.8363,-151.8444"/>
<polygon fill="#000000" stroke="#000000" points="2095.3364,-151.8444 2098.8363,-161.8444 2102.3364,-151.8444 2095.3364,-151.8444"/>
</g>
<!-- PermissionsGuard -->
<g id="node27" class="node">
<title>PermissionsGuard</title>
<ellipse fill="#fdb462" stroke="#000000" cx="1974" cy="-104" rx="81.6789" ry="18"/>
<text text-anchor="middle" x="1974" y="-99.8" font-family="Times,serif" font-size="14.00" fill="#000000">PermissionsGuard</text>
</g>
<!-- PermissionsGuard&#45;&gt;RuckenCoreModule -->
<g id="edge22" class="edge">
<title>PermissionsGuard&#45;&gt;RuckenCoreModule</title>
<path fill="none" stroke="#000000" d="M2025.0378,-118.295C2025.0378,-118.295 2025.0378,-151.7342 2025.0378,-151.7342"/>
<polygon fill="#000000" stroke="#000000" points="2021.5379,-151.7341 2025.0378,-161.7342 2028.5379,-151.7342 2021.5379,-151.7341"/>
</g>
</g>
</svg>
