<?xml version="1.0" encoding="UTF-8" standalone="no"?>
<!DOCTYPE svg PUBLIC "-//W3C//DTD SVG 1.1//EN"
 "http://www.w3.org/Graphics/SVG/1.1/DTD/svg11.dtd">
<!-- Generated by graphviz version 2.40.1 (20161225.0304)
 -->
<!-- Title: dependencies Pages: 1 -->
<svg width="675pt" height="284pt"
 viewBox="0.00 0.00 675.00 284.00" xmlns="http://www.w3.org/2000/svg" xmlns:xlink="http://www.w3.org/1999/xlink">
<g id="graph0" class="graph" transform="scale(1 1) rotate(0) translate(4 280)">
<title>dependencies</title>
<polygon fill="#ffffff" stroke="transparent" points="-4,4 -4,-280 671,-280 671,4 -4,4"/>
<text text-anchor="start" x="312.5091" y="-42.4" font-family="sans-serif" font-weight="bold" font-size="14.00" fill="#000000">Legend</text>
<polygon fill="#ffffb3" stroke="transparent" points="99.5,-10 99.5,-30 119.5,-30 119.5,-10 99.5,-10"/>
<text text-anchor="start" x="123.129" y="-15.4" font-family="sans-serif" font-size="14.00" fill="#000000"> &#160;Declarations</text>
<polygon fill="#8dd3c7" stroke="transparent" points="212.5,-10 212.5,-30 232.5,-30 232.5,-10 212.5,-10"/>
<text text-anchor="start" x="236.2251" y="-15.4" font-family="sans-serif" font-size="14.00" fill="#000000"> &#160;Module</text>
<polygon fill="#80b1d3" stroke="transparent" points="298.5,-10 298.5,-30 318.5,-30 318.5,-10 298.5,-10"/>
<text text-anchor="start" x="322.2812" y="-15.4" font-family="sans-serif" font-size="14.00" fill="#000000"> &#160;Bootstrap</text>
<polygon fill="#fdb462" stroke="transparent" points="395.5,-10 395.5,-30 415.5,-30 415.5,-10 395.5,-10"/>
<text text-anchor="start" x="419.1732" y="-15.4" font-family="sans-serif" font-size="14.00" fill="#000000"> &#160;Providers</text>
<polygon fill="#fb8072" stroke="transparent" points="491.5,-10 491.5,-30 511.5,-30 511.5,-10 491.5,-10"/>
<text text-anchor="start" x="515.2258" y="-15.4" font-family="sans-serif" font-size="14.00" fill="#000000"> &#160;Exports</text>
<g id="clust1" class="cluster">
<title>cluster_EntityGridModalModule</title>
<polygon fill="none" stroke="#000000" stroke-dasharray="1,5" points="8,-70 8,-268 659,-268 659,-70 8,-70"/>
</g>
<g id="clust2" class="cluster">
<title>cluster_EntityGridModalModule_declarations</title>
<polygon fill="none" stroke="#000000" points="455,-78 455,-130 649,-130 649,-78 455,-78"/>
</g>
<g id="clust4" class="cluster">
<title>cluster_EntityGridModalModule_imports</title>
<polygon fill="none" stroke="#000000" points="21,-78 21,-130 447,-130 447,-78 21,-78"/>
</g>
<g id="clust5" class="cluster">
<title>cluster_EntityGridModalModule_exports</title>
<polygon fill="none" stroke="#000000" points="16,-208 16,-260 651,-260 651,-208 16,-208"/>
</g>
<!-- EntityGridModalComponent -->
<g id="node1" class="node">
<title>EntityGridModalComponent</title>
<polygon fill="#ffffb3" stroke="#000000" points="640.7646,-122 463.2354,-122 463.2354,-86 640.7646,-86 640.7646,-122"/>
<text text-anchor="middle" x="552" y="-99.8" font-family="Times,serif" font-size="14.00" fill="#000000">EntityGridModalComponent</text>
</g>
<!-- EntityGridModalModule -->
<g id="node2" class="node">
<title>EntityGridModalModule</title>
<polygon fill="#8dd3c7" stroke="#000000" points="317.9818,-187 314.9818,-191 293.9818,-191 290.9818,-187 162.0182,-187 162.0182,-151 317.9818,-151 317.9818,-187"/>
<text text-anchor="middle" x="240" y="-164.8" font-family="Times,serif" font-size="14.00" fill="#000000">EntityGridModalModule</text>
</g>
<!-- EntityGridModalComponent&#45;&gt;EntityGridModalModule -->
<g id="edge1" class="edge">
<title>EntityGridModalComponent&#45;&gt;EntityGridModalModule</title>
<path fill="none" stroke="#000000" d="M483.875,-122.0225C483.875,-139.3734 483.875,-163 483.875,-163 483.875,-163 328.1699,-163 328.1699,-163"/>
<polygon fill="#000000" stroke="#000000" points="328.1699,-159.5001 318.1699,-163 328.1698,-166.5001 328.1699,-159.5001"/>
</g>
<!-- DirectivesModule  -->
<g id="node6" class="node">
<title>DirectivesModule </title>
<polygon fill="#fb8072" stroke="#000000" points="643.0779,-252 522.9221,-252 522.9221,-216 643.0779,-216 643.0779,-252"/>
<text text-anchor="middle" x="583" y="-229.8" font-family="Times,serif" font-size="14.00" fill="#000000">DirectivesModule </text>
</g>
<!-- EntityGridModalModule&#45;&gt;DirectivesModule  -->
<g id="edge5" class="edge">
<title>EntityGridModalModule&#45;&gt;DirectivesModule </title>
<path fill="none" stroke="#000000" stroke-dasharray="5,2" d="M317.9867,-175C418.8646,-175 581.7968,-175 581.7968,-175 581.7968,-175 581.7968,-205.9775 581.7968,-205.9775"/>
<polygon fill="#000000" stroke="#000000" points="578.2969,-205.9774 581.7968,-215.9775 585.2969,-205.9775 578.2969,-205.9774"/>
</g>
<!-- EntityGridModalComponent  -->
<g id="node7" class="node">
<title>EntityGridModalComponent </title>
<polygon fill="#fb8072" stroke="#000000" points="504.7646,-252 323.2354,-252 323.2354,-216 504.7646,-216 504.7646,-252"/>
<text text-anchor="middle" x="414" y="-229.8" font-family="Times,serif" font-size="14.00" fill="#000000">EntityGridModalComponent </text>
</g>
<!-- EntityGridModalModule&#45;&gt;EntityGridModalComponent  -->
<g id="edge6" class="edge">
<title>EntityGridModalModule&#45;&gt;EntityGridModalComponent </title>
<path fill="none" stroke="#000000" stroke-dasharray="5,2" d="M311.4515,-187.1061C311.4515,-206.3391 311.4515,-234 311.4515,-234 311.4515,-234 313.2151,-234 313.2151,-234"/>
<polygon fill="#000000" stroke="#000000" points="313.2151,-237.5001 323.2151,-234 313.215,-230.5001 313.2151,-237.5001"/>
</g>
<!-- EntityModalModule  -->
<g id="node8" class="node">
<title>EntityModalModule </title>
<polygon fill="#fb8072" stroke="#000000" points="304.8241,-252 171.1759,-252 171.1759,-216 304.8241,-216 304.8241,-252"/>
<text text-anchor="middle" x="238" y="-229.8" font-family="Times,serif" font-size="14.00" fill="#000000">EntityModalModule </text>
</g>
<!-- EntityGridModalModule&#45;&gt;EntityModalModule  -->
<g id="edge7" class="edge">
<title>EntityGridModalModule&#45;&gt;EntityModalModule </title>
<path fill="none" stroke="#000000" stroke-dasharray="5,2" d="M238,-187.1061C238,-187.1061 238,-205.991 238,-205.991"/>
<polygon fill="#000000" stroke="#000000" points="234.5001,-205.9909 238,-215.991 241.5001,-205.991 234.5001,-205.9909"/>
</g>
<!-- FormGroupModule  -->
<g id="node9" class="node">
<title>FormGroupModule </title>
<polygon fill="#fb8072" stroke="#000000" points="153.6509,-252 24.3491,-252 24.3491,-216 153.6509,-216 153.6509,-252"/>
<text text-anchor="middle" x="89" y="-229.8" font-family="Times,serif" font-size="14.00" fill="#000000">FormGroupModule </text>
</g>
<!-- EntityGridModalModule&#45;&gt;FormGroupModule  -->
<g id="edge8" class="edge">
<title>EntityGridModalModule&#45;&gt;FormGroupModule </title>
<path fill="none" stroke="#000000" stroke-dasharray="5,2" d="M166.5486,-187.1061C166.5486,-206.3391 166.5486,-234 166.5486,-234 166.5486,-234 163.743,-234 163.743,-234"/>
<polygon fill="#000000" stroke="#000000" points="163.743,-230.5001 153.743,-234 163.7429,-237.5001 163.743,-230.5001"/>
</g>
<!-- DirectivesModule -->
<g id="node3" class="node">
<title>DirectivesModule</title>
<polygon fill="#8dd3c7" stroke="#000000" points="438.5772,-122 435.5772,-126 414.5772,-126 411.5772,-122 321.4228,-122 321.4228,-86 438.5772,-86 438.5772,-122"/>
<text text-anchor="middle" x="380" y="-99.8" font-family="Times,serif" font-size="14.00" fill="#000000">DirectivesModule</text>
</g>
<!-- DirectivesModule&#45;&gt;EntityGridModalModule -->
<g id="edge2" class="edge">
<title>DirectivesModule&#45;&gt;EntityGridModalModule</title>
<path fill="none" stroke="#000000" d="M321.4239,-104C314.9154,-104 310.5765,-104 310.5765,-104 310.5765,-104 310.5765,-140.8939 310.5765,-140.8939"/>
<polygon fill="#000000" stroke="#000000" points="307.0765,-140.8938 310.5765,-150.8939 314.0765,-140.8939 307.0765,-140.8938"/>
</g>
<!-- EntityModalModule -->
<g id="node4" class="node">
<title>EntityModalModule</title>
<polygon fill="#8dd3c7" stroke="#000000" points="303.3244,-122 300.3244,-126 279.3244,-126 276.3244,-122 172.6756,-122 172.6756,-86 303.3244,-86 303.3244,-122"/>
<text text-anchor="middle" x="238" y="-99.8" font-family="Times,serif" font-size="14.00" fill="#000000">EntityModalModule</text>
</g>
<!-- EntityModalModule&#45;&gt;EntityGridModalModule -->
<g id="edge3" class="edge">
<title>EntityModalModule&#45;&gt;EntityGridModalModule</title>
<path fill="none" stroke="#000000" d="M238,-122.1061C238,-122.1061 238,-140.991 238,-140.991"/>
<polygon fill="#000000" stroke="#000000" points="234.5001,-140.9909 238,-150.991 241.5001,-140.991 234.5001,-140.9909"/>
</g>
<!-- FormGroupModule -->
<g id="node5" class="node">
<title>FormGroupModule</title>
<polygon fill="#8dd3c7" stroke="#000000" points="154.6513,-122 151.6513,-126 130.6513,-126 127.6513,-122 29.3487,-122 29.3487,-86 154.6513,-86 154.6513,-122"/>
<text text-anchor="middle" x="92" y="-99.8" font-family="Times,serif" font-size="14.00" fill="#000000">FormGroupModule</text>
</g>
<!-- FormGroupModule&#45;&gt;EntityGridModalModule -->
<g id="edge4" class="edge">
<title>FormGroupModule&#45;&gt;EntityGridModalModule</title>
<path fill="none" stroke="#000000" d="M154.9689,-104C162.4104,-104 167.4236,-104 167.4236,-104 167.4236,-104 167.4236,-140.8939 167.4236,-140.8939"/>
<polygon fill="#000000" stroke="#000000" points="163.9236,-140.8938 167.4236,-150.8939 170.9236,-140.8939 163.9236,-140.8938"/>
</g>
</g>
</svg>
