<?xml version="1.0" encoding="UTF-8" standalone="no"?>
<!DOCTYPE svg PUBLIC "-//W3C//DTD SVG 1.1//EN"
 "http://www.w3.org/Graphics/SVG/1.1/DTD/svg11.dtd">
<!-- Generated by graphviz version 2.40.1 (20161225.0304)
 -->
<!-- Title: dependencies Pages: 1 -->
<svg width="537pt" height="284pt"
 viewBox="0.00 0.00 537.00 284.00" xmlns="http://www.w3.org/2000/svg" xmlns:xlink="http://www.w3.org/1999/xlink">
<g id="graph0" class="graph" transform="scale(1 1) rotate(0) translate(4 280)">
<title>dependencies</title>
<polygon fill="#ffffff" stroke="transparent" points="-4,4 -4,-280 533,-280 533,4 -4,4"/>
<text text-anchor="start" x="243.5091" y="-42.4" font-family="sans-serif" font-weight="bold" font-size="14.00" fill="#000000">Legend</text>
<polygon fill="#ffffb3" stroke="transparent" points="30.5,-10 30.5,-30 50.5,-30 50.5,-10 30.5,-10"/>
<text text-anchor="start" x="54.129" y="-15.4" font-family="sans-serif" font-size="14.00" fill="#000000"> &#160;Declarations</text>
<polygon fill="#8dd3c7" stroke="transparent" points="143.5,-10 143.5,-30 163.5,-30 163.5,-10 143.5,-10"/>
<text text-anchor="start" x="167.2251" y="-15.4" font-family="sans-serif" font-size="14.00" fill="#000000"> &#160;Module</text>
<polygon fill="#80b1d3" stroke="transparent" points="229.5,-10 229.5,-30 249.5,-30 249.5,-10 229.5,-10"/>
<text text-anchor="start" x="253.2812" y="-15.4" font-family="sans-serif" font-size="14.00" fill="#000000"> &#160;Bootstrap</text>
<polygon fill="#fdb462" stroke="transparent" points="326.5,-10 326.5,-30 346.5,-30 346.5,-10 326.5,-10"/>
<text text-anchor="start" x="350.1732" y="-15.4" font-family="sans-serif" font-size="14.00" fill="#000000"> &#160;Providers</text>
<polygon fill="#fb8072" stroke="transparent" points="422.5,-10 422.5,-30 442.5,-30 442.5,-10 422.5,-10"/>
<text text-anchor="start" x="446.2258" y="-15.4" font-family="sans-serif" font-size="14.00" fill="#000000"> &#160;Exports</text>
<g id="clust1" class="cluster">
<title>cluster_EntityGridModalModule</title>
<polygon fill="none" stroke="#000000" stroke-dasharray="1,5" points="8,-70 8,-268 521,-268 521,-70 8,-70"/>
</g>
<g id="clust2" class="cluster">
<title>cluster_EntityGridModalModule_declarations</title>
<polygon fill="none" stroke="#000000" points="319,-78 319,-130 513,-130 513,-78 319,-78"/>
</g>
<g id="clust4" class="cluster">
<title>cluster_EntityGridModalModule_imports</title>
<polygon fill="none" stroke="#000000" points="21,-78 21,-130 311,-130 311,-78 21,-78"/>
</g>
<g id="clust5" class="cluster">
<title>cluster_EntityGridModalModule_exports</title>
<polygon fill="none" stroke="#000000" points="16,-208 16,-260 513,-260 513,-208 16,-208"/>
</g>
<!-- EntityGridModalComponent -->
<g id="node1" class="node">
<title>EntityGridModalComponent</title>
<polygon fill="#ffffb3" stroke="#000000" points="504.7646,-122 327.2354,-122 327.2354,-86 504.7646,-86 504.7646,-122"/>
<text text-anchor="middle" x="416" y="-99.8" font-family="Times,serif" font-size="14.00" fill="#000000">EntityGridModalComponent</text>
</g>
<!-- EntityGridModalModule -->
<g id="node2" class="node">
<title>EntityGridModalModule</title>
<polygon fill="#8dd3c7" stroke="#000000" points="315.9818,-187 312.9818,-191 291.9818,-191 288.9818,-187 160.0182,-187 160.0182,-151 315.9818,-151 315.9818,-187"/>
<text text-anchor="middle" x="238" y="-164.8" font-family="Times,serif" font-size="14.00" fill="#000000">EntityGridModalModule</text>
</g>
<!-- EntityGridModalComponent&#45;&gt;EntityGridModalModule -->
<g id="edge1" class="edge">
<title>EntityGridModalComponent&#45;&gt;EntityGridModalModule</title>
<path fill="none" stroke="#000000" d="M327.1501,-104C316.6501,-104 309.5765,-104 309.5765,-104 309.5765,-104 309.5765,-140.8939 309.5765,-140.8939"/>
<polygon fill="#000000" stroke="#000000" points="306.0765,-140.8938 309.5765,-150.8939 313.0765,-140.8939 306.0765,-140.8938"/>
</g>
<!-- EntityGridModalComponent  -->
<g id="node5" class="node">
<title>EntityGridModalComponent </title>
<polygon fill="#fb8072" stroke="#000000" points="504.7646,-252 323.2354,-252 323.2354,-216 504.7646,-216 504.7646,-252"/>
<text text-anchor="middle" x="414" y="-229.8" font-family="Times,serif" font-size="14.00" fill="#000000">EntityGridModalComponent </text>
</g>
<!-- EntityGridModalModule&#45;&gt;EntityGridModalComponent  -->
<g id="edge4" class="edge">
<title>EntityGridModalModule&#45;&gt;EntityGridModalComponent </title>
<path fill="none" stroke="#000000" stroke-dasharray="5,2" d="M310.4515,-187.1061C310.4515,-206.3391 310.4515,-234 310.4515,-234 310.4515,-234 313.1485,-234 313.1485,-234"/>
<polygon fill="#000000" stroke="#000000" points="313.1486,-237.5001 323.1485,-234 313.1485,-230.5001 313.1486,-237.5001"/>
</g>
<!-- EntityModalModule  -->
<g id="node6" class="node">
<title>EntityModalModule </title>
<polygon fill="#fb8072" stroke="#000000" points="304.8241,-252 171.1759,-252 171.1759,-216 304.8241,-216 304.8241,-252"/>
<text text-anchor="middle" x="238" y="-229.8" font-family="Times,serif" font-size="14.00" fill="#000000">EntityModalModule </text>
</g>
<!-- EntityGridModalModule&#45;&gt;EntityModalModule  -->
<g id="edge5" class="edge">
<title>EntityGridModalModule&#45;&gt;EntityModalModule </title>
<path fill="none" stroke="#000000" stroke-dasharray="5,2" d="M238,-187.1061C238,-187.1061 238,-205.991 238,-205.991"/>
<polygon fill="#000000" stroke="#000000" points="234.5001,-205.9909 238,-215.991 241.5001,-205.991 234.5001,-205.9909"/>
</g>
<!-- FormGroupModule  -->
<g id="node7" class="node">
<title>FormGroupModule </title>
<polygon fill="#fb8072" stroke="#000000" points="153.6509,-252 24.3491,-252 24.3491,-216 153.6509,-216 153.6509,-252"/>
<text text-anchor="middle" x="89" y="-229.8" font-family="Times,serif" font-size="14.00" fill="#000000">FormGroupModule </text>
</g>
<!-- EntityGridModalModule&#45;&gt;FormGroupModule  -->
<g id="edge6" class="edge">
<title>EntityGridModalModule&#45;&gt;FormGroupModule </title>
<path fill="none" stroke="#000000" stroke-dasharray="5,2" d="M165.5486,-187.1061C165.5486,-206.3391 165.5486,-234 165.5486,-234 165.5486,-234 163.5878,-234 163.5878,-234"/>
<polygon fill="#000000" stroke="#000000" points="163.5879,-230.5001 153.5878,-234 163.5878,-237.5001 163.5879,-230.5001"/>
</g>
<!-- EntityModalModule -->
<g id="node3" class="node">
<title>EntityModalModule</title>
<polygon fill="#8dd3c7" stroke="#000000" points="303.3244,-122 300.3244,-126 279.3244,-126 276.3244,-122 172.6756,-122 172.6756,-86 303.3244,-86 303.3244,-122"/>
<text text-anchor="middle" x="238" y="-99.8" font-family="Times,serif" font-size="14.00" fill="#000000">EntityModalModule</text>
</g>
<!-- EntityModalModule&#45;&gt;EntityGridModalModule -->
<g id="edge2" class="edge">
<title>EntityModalModule&#45;&gt;EntityGridModalModule</title>
<path fill="none" stroke="#000000" d="M238,-122.1061C238,-122.1061 238,-140.991 238,-140.991"/>
<polygon fill="#000000" stroke="#000000" points="234.5001,-140.9909 238,-150.991 241.5001,-140.991 234.5001,-140.9909"/>
</g>
<!-- FormGroupModule -->
<g id="node4" class="node">
<title>FormGroupModule</title>
<polygon fill="#8dd3c7" stroke="#000000" points="154.6513,-122 151.6513,-126 130.6513,-126 127.6513,-122 29.3487,-122 29.3487,-86 154.6513,-86 154.6513,-122"/>
<text text-anchor="middle" x="92" y="-99.8" font-family="Times,serif" font-size="14.00" fill="#000000">FormGroupModule</text>
</g>
<!-- FormGroupModule&#45;&gt;EntityGridModalModule -->
<g id="edge3" class="edge">
<title>FormGroupModule&#45;&gt;EntityGridModalModule</title>
<path fill="none" stroke="#000000" d="M154.7949,-104C161.7721,-104 166.4236,-104 166.4236,-104 166.4236,-104 166.4236,-140.8939 166.4236,-140.8939"/>
<polygon fill="#000000" stroke="#000000" points="162.9236,-140.8938 166.4236,-150.8939 169.9236,-140.8939 162.9236,-140.8938"/>
</g>
</g>
</svg>
