<?xml version="1.0" encoding="UTF-8" standalone="no"?>
<!DOCTYPE svg PUBLIC "-//W3C//DTD SVG 1.1//EN"
 "http://www.w3.org/Graphics/SVG/1.1/DTD/svg11.dtd">
<!-- Generated by graphviz version 2.40.1 (20161225.0304)
 -->
<!-- Title: dependencies Pages: 1 -->
<svg width="504pt" height="284pt"
 viewBox="0.00 0.00 504.00 284.00" xmlns="http://www.w3.org/2000/svg" xmlns:xlink="http://www.w3.org/1999/xlink">
<g id="graph0" class="graph" transform="scale(1 1) rotate(0) translate(4 280)">
<title>dependencies</title>
<polygon fill="#ffffff" stroke="transparent" points="-4,4 -4,-280 500,-280 500,4 -4,4"/>
<text text-anchor="start" x="227.0091" y="-42.4" font-family="sans-serif" font-weight="bold" font-size="14.00" fill="#000000">Legend</text>
<polygon fill="#ffffb3" stroke="transparent" points="14,-10 14,-30 34,-30 34,-10 14,-10"/>
<text text-anchor="start" x="37.629" y="-15.4" font-family="sans-serif" font-size="14.00" fill="#000000"> &#160;Declarations</text>
<polygon fill="#8dd3c7" stroke="transparent" points="127,-10 127,-30 147,-30 147,-10 127,-10"/>
<text text-anchor="start" x="150.7251" y="-15.4" font-family="sans-serif" font-size="14.00" fill="#000000"> &#160;Module</text>
<polygon fill="#80b1d3" stroke="transparent" points="213,-10 213,-30 233,-30 233,-10 213,-10"/>
<text text-anchor="start" x="236.7812" y="-15.4" font-family="sans-serif" font-size="14.00" fill="#000000"> &#160;Bootstrap</text>
<polygon fill="#fdb462" stroke="transparent" points="310,-10 310,-30 330,-30 330,-10 310,-10"/>
<text text-anchor="start" x="333.6732" y="-15.4" font-family="sans-serif" font-size="14.00" fill="#000000"> &#160;Providers</text>
<polygon fill="#fb8072" stroke="transparent" points="406,-10 406,-30 426,-30 426,-10 406,-10"/>
<text text-anchor="start" x="429.7258" y="-15.4" font-family="sans-serif" font-size="14.00" fill="#000000"> &#160;Exports</text>
<g id="clust1" class="cluster">
<title>cluster_ContentTypeModalModule</title>
<polygon fill="none" stroke="#000000" stroke-dasharray="1,5" points="40,-70 40,-268 456,-268 456,-70 40,-70"/>
</g>
<g id="clust2" class="cluster">
<title>cluster_ContentTypeModalModule_declarations</title>
<polygon fill="none" stroke="#000000" points="241,-78 241,-130 447,-130 447,-78 241,-78"/>
</g>
<g id="clust4" class="cluster">
<title>cluster_ContentTypeModalModule_imports</title>
<polygon fill="none" stroke="#000000" points="49,-78 49,-130 233,-130 233,-78 49,-78"/>
</g>
<g id="clust5" class="cluster">
<title>cluster_ContentTypeModalModule_exports</title>
<polygon fill="none" stroke="#000000" points="48,-208 48,-260 448,-260 448,-208 48,-208"/>
</g>
<!-- ContentTypeModalComponent -->
<g id="node1" class="node">
<title>ContentTypeModalComponent</title>
<polygon fill="#ffffb3" stroke="#000000" points="439.4818,-122 248.5182,-122 248.5182,-86 439.4818,-86 439.4818,-122"/>
<text text-anchor="middle" x="344" y="-99.8" font-family="Times,serif" font-size="14.00" fill="#000000">ContentTypeModalComponent</text>
</g>
<!-- ContentTypeModalModule -->
<g id="node2" class="node">
<title>ContentTypeModalModule</title>
<polygon fill="#8dd3c7" stroke="#000000" points="326.6993,-187 323.6993,-191 302.6993,-191 299.6993,-187 157.3007,-187 157.3007,-151 326.6993,-151 326.6993,-187"/>
<text text-anchor="middle" x="242" y="-164.8" font-family="Times,serif" font-size="14.00" fill="#000000">ContentTypeModalModule</text>
</g>
<!-- ContentTypeModalComponent&#45;&gt;ContentTypeModalModule -->
<g id="edge1" class="edge">
<title>ContentTypeModalComponent&#45;&gt;ContentTypeModalModule</title>
<path fill="none" stroke="#000000" d="M287.5544,-122.1061C287.5544,-122.1061 287.5544,-140.991 287.5544,-140.991"/>
<polygon fill="#000000" stroke="#000000" points="284.0544,-140.9909 287.5544,-150.991 291.0544,-140.991 284.0544,-140.9909"/>
</g>
<!-- ContentTypeModalComponent  -->
<g id="node4" class="node">
<title>ContentTypeModalComponent </title>
<polygon fill="#fb8072" stroke="#000000" points="440.4824,-252 245.5176,-252 245.5176,-216 440.4824,-216 440.4824,-252"/>
<text text-anchor="middle" x="343" y="-229.8" font-family="Times,serif" font-size="14.00" fill="#000000">ContentTypeModalComponent </text>
</g>
<!-- ContentTypeModalModule&#45;&gt;ContentTypeModalComponent  -->
<g id="edge3" class="edge">
<title>ContentTypeModalModule&#45;&gt;ContentTypeModalComponent </title>
<path fill="none" stroke="#000000" stroke-dasharray="5,2" d="M286.1794,-187.1061C286.1794,-187.1061 286.1794,-205.991 286.1794,-205.991"/>
<polygon fill="#000000" stroke="#000000" points="282.6794,-205.9909 286.1794,-215.991 289.6794,-205.991 282.6794,-205.9909"/>
</g>
<!-- PromptFormModalModule  -->
<g id="node5" class="node">
<title>PromptFormModalModule </title>
<polygon fill="#fb8072" stroke="#000000" points="227.6579,-252 56.3421,-252 56.3421,-216 227.6579,-216 227.6579,-252"/>
<text text-anchor="middle" x="142" y="-229.8" font-family="Times,serif" font-size="14.00" fill="#000000">PromptFormModalModule </text>
</g>
<!-- ContentTypeModalModule&#45;&gt;PromptFormModalModule  -->
<g id="edge4" class="edge">
<title>ContentTypeModalModule&#45;&gt;PromptFormModalModule </title>
<path fill="none" stroke="#000000" stroke-dasharray="5,2" d="M192.4896,-187.1061C192.4896,-187.1061 192.4896,-205.991 192.4896,-205.991"/>
<polygon fill="#000000" stroke="#000000" points="188.9897,-205.9909 192.4896,-215.991 195.9897,-205.991 188.9897,-205.9909"/>
</g>
<!-- PromptFormModalModule -->
<g id="node3" class="node">
<title>PromptFormModalModule</title>
<polygon fill="#8dd3c7" stroke="#000000" points="224.6581,-122 221.6581,-126 200.6581,-126 197.6581,-122 57.3419,-122 57.3419,-86 224.6581,-86 224.6581,-122"/>
<text text-anchor="middle" x="141" y="-99.8" font-family="Times,serif" font-size="14.00" fill="#000000">PromptFormModalModule</text>
</g>
<!-- PromptFormModalModule&#45;&gt;ContentTypeModalModule -->
<g id="edge2" class="edge">
<title>PromptFormModalModule&#45;&gt;ContentTypeModalModule</title>
<path fill="none" stroke="#000000" d="M191.1146,-122.1061C191.1146,-122.1061 191.1146,-140.991 191.1146,-140.991"/>
<polygon fill="#000000" stroke="#000000" points="187.6147,-140.9909 191.1146,-150.991 194.6147,-140.991 187.6147,-140.9909"/>
</g>
</g>
</svg>
