<?xml version="1.0" encoding="UTF-8" standalone="no"?>
<!DOCTYPE svg PUBLIC "-//W3C//DTD SVG 1.1//EN"
 "http://www.w3.org/Graphics/SVG/1.1/DTD/svg11.dtd">
<!-- Generated by graphviz version 2.40.1 (20161225.0304)
 -->
<!-- Title: dependencies Pages: 1 -->
<svg width="597pt" height="284pt"
 viewBox="0.00 0.00 597.00 284.00" xmlns="http://www.w3.org/2000/svg" xmlns:xlink="http://www.w3.org/1999/xlink">
<g id="graph0" class="graph" transform="scale(1 1) rotate(0) translate(4 280)">
<title>dependencies</title>
<polygon fill="#ffffff" stroke="transparent" points="-4,4 -4,-280 593,-280 593,4 -4,4"/>
<text text-anchor="start" x="273.5091" y="-42.4" font-family="sans-serif" font-weight="bold" font-size="14.00" fill="#000000">Legend</text>
<polygon fill="#ffffb3" stroke="transparent" points="60.5,-10 60.5,-30 80.5,-30 80.5,-10 60.5,-10"/>
<text text-anchor="start" x="84.129" y="-15.4" font-family="sans-serif" font-size="14.00" fill="#000000"> &#160;Declarations</text>
<polygon fill="#8dd3c7" stroke="transparent" points="173.5,-10 173.5,-30 193.5,-30 193.5,-10 173.5,-10"/>
<text text-anchor="start" x="197.2251" y="-15.4" font-family="sans-serif" font-size="14.00" fill="#000000"> &#160;Module</text>
<polygon fill="#80b1d3" stroke="transparent" points="259.5,-10 259.5,-30 279.5,-30 279.5,-10 259.5,-10"/>
<text text-anchor="start" x="283.2812" y="-15.4" font-family="sans-serif" font-size="14.00" fill="#000000"> &#160;Bootstrap</text>
<polygon fill="#fdb462" stroke="transparent" points="356.5,-10 356.5,-30 376.5,-30 376.5,-10 356.5,-10"/>
<text text-anchor="start" x="380.1732" y="-15.4" font-family="sans-serif" font-size="14.00" fill="#000000"> &#160;Providers</text>
<polygon fill="#fb8072" stroke="transparent" points="452.5,-10 452.5,-30 472.5,-30 472.5,-10 452.5,-10"/>
<text text-anchor="start" x="476.2258" y="-15.4" font-family="sans-serif" font-size="14.00" fill="#000000"> &#160;Exports</text>
<g id="clust1" class="cluster">
<title>cluster_PermissionSelectModule</title>
<polygon fill="none" stroke="#000000" stroke-dasharray="1,5" points="8,-70 8,-268 581,-268 581,-70 8,-70"/>
</g>
<g id="clust2" class="cluster">
<title>cluster_PermissionSelectModule_declarations</title>
<polygon fill="none" stroke="#000000" points="379,-78 379,-130 573,-130 573,-78 379,-78"/>
</g>
<g id="clust4" class="cluster">
<title>cluster_PermissionSelectModule_imports</title>
<polygon fill="none" stroke="#000000" points="19,-78 19,-130 371,-130 371,-78 19,-78"/>
</g>
<g id="clust5" class="cluster">
<title>cluster_PermissionSelectModule_exports</title>
<polygon fill="none" stroke="#000000" points="16,-208 16,-260 573,-260 573,-208 16,-208"/>
</g>
<!-- PermissionSelectComponent -->
<g id="node1" class="node">
<title>PermissionSelectComponent</title>
<polygon fill="#ffffb3" stroke="#000000" points="564.759,-122 387.241,-122 387.241,-86 564.759,-86 564.759,-122"/>
<text text-anchor="middle" x="476" y="-99.8" font-family="Times,serif" font-size="14.00" fill="#000000">PermissionSelectComponent</text>
</g>
<!-- PermissionSelectModule -->
<g id="node2" class="node">
<title>PermissionSelectModule</title>
<polygon fill="#8dd3c7" stroke="#000000" points="389.9762,-187 386.9762,-191 365.9762,-191 362.9762,-187 234.0238,-187 234.0238,-151 389.9762,-151 389.9762,-187"/>
<text text-anchor="middle" x="312" y="-164.8" font-family="Times,serif" font-size="14.00" fill="#000000">PermissionSelectModule</text>
</g>
<!-- PermissionSelectComponent&#45;&gt;PermissionSelectModule -->
<g id="edge1" class="edge">
<title>PermissionSelectComponent&#45;&gt;PermissionSelectModule</title>
<path fill="none" stroke="#000000" d="M402.8088,-122.0225C402.8088,-139.3734 402.8088,-163 402.8088,-163 402.8088,-163 400.1822,-163 400.1822,-163"/>
<polygon fill="#000000" stroke="#000000" points="400.1822,-159.5001 390.1822,-163 400.1821,-166.5001 400.1822,-159.5001"/>
</g>
<!-- EntitySelectModule  -->
<g id="node5" class="node">
<title>EntitySelectModule </title>
<polygon fill="#fb8072" stroke="#000000" points="564.9827,-252 433.0173,-252 433.0173,-216 564.9827,-216 564.9827,-252"/>
<text text-anchor="middle" x="499" y="-229.8" font-family="Times,serif" font-size="14.00" fill="#000000">EntitySelectModule </text>
</g>
<!-- PermissionSelectModule&#45;&gt;EntitySelectModule  -->
<g id="edge4" class="edge">
<title>PermissionSelectModule&#45;&gt;EntitySelectModule </title>
<path fill="none" stroke="#000000" stroke-dasharray="5,2" d="M390.2213,-175C441.4642,-175 499,-175 499,-175 499,-175 499,-205.9775 499,-205.9775"/>
<polygon fill="#000000" stroke="#000000" points="495.5001,-205.9774 499,-215.9775 502.5001,-205.9775 495.5001,-205.9774"/>
</g>
<!-- PermissionSelectComponent  -->
<g id="node6" class="node">
<title>PermissionSelectComponent </title>
<polygon fill="#fb8072" stroke="#000000" points="415.759,-252 234.241,-252 234.241,-216 415.759,-216 415.759,-252"/>
<text text-anchor="middle" x="325" y="-229.8" font-family="Times,serif" font-size="14.00" fill="#000000">PermissionSelectComponent </text>
</g>
<!-- PermissionSelectModule&#45;&gt;PermissionSelectComponent  -->
<g id="edge5" class="edge">
<title>PermissionSelectModule&#45;&gt;PermissionSelectComponent </title>
<path fill="none" stroke="#000000" stroke-dasharray="5,2" d="M312.1794,-187.1061C312.1794,-187.1061 312.1794,-205.991 312.1794,-205.991"/>
<polygon fill="#000000" stroke="#000000" points="308.6794,-205.9909 312.1794,-215.991 315.6794,-205.991 308.6794,-205.9909"/>
</g>
<!-- PermissionsGridModalModule  -->
<g id="node7" class="node">
<title>PermissionsGridModalModule </title>
<polygon fill="#fb8072" stroke="#000000" points="216.4208,-252 23.5792,-252 23.5792,-216 216.4208,-216 216.4208,-252"/>
<text text-anchor="middle" x="120" y="-229.8" font-family="Times,serif" font-size="14.00" fill="#000000">PermissionsGridModalModule </text>
</g>
<!-- PermissionSelectModule&#45;&gt;PermissionsGridModalModule  -->
<g id="edge6" class="edge">
<title>PermissionSelectModule&#45;&gt;PermissionsGridModalModule </title>
<path fill="none" stroke="#000000" stroke-dasharray="5,2" d="M233.8533,-175C170.0379,-175 90.3465,-175 90.3465,-175 90.3465,-175 90.3465,-205.9775 90.3465,-205.9775"/>
<polygon fill="#000000" stroke="#000000" points="86.8466,-205.9774 90.3465,-215.9775 93.8466,-205.9775 86.8466,-205.9774"/>
</g>
<!-- EntitySelectModule -->
<g id="node3" class="node">
<title>EntitySelectModule</title>
<polygon fill="#8dd3c7" stroke="#000000" points="362.9818,-122 359.9818,-126 338.9818,-126 335.9818,-122 235.0182,-122 235.0182,-86 362.9818,-86 362.9818,-122"/>
<text text-anchor="middle" x="299" y="-99.8" font-family="Times,serif" font-size="14.00" fill="#000000">EntitySelectModule</text>
</g>
<!-- EntitySelectModule&#45;&gt;PermissionSelectModule -->
<g id="edge2" class="edge">
<title>EntitySelectModule&#45;&gt;PermissionSelectModule</title>
<path fill="none" stroke="#000000" d="M299,-122.1061C299,-122.1061 299,-140.991 299,-140.991"/>
<polygon fill="#000000" stroke="#000000" points="295.5001,-140.9909 299,-150.991 302.5001,-140.991 295.5001,-140.9909"/>
</g>
<!-- PermissionsGridModalModule -->
<g id="node4" class="node">
<title>PermissionsGridModalModule</title>
<polygon fill="#8dd3c7" stroke="#000000" points="216.9213,-122 213.9213,-126 192.9213,-126 189.9213,-122 27.0787,-122 27.0787,-86 216.9213,-86 216.9213,-122"/>
<text text-anchor="middle" x="122" y="-99.8" font-family="Times,serif" font-size="14.00" fill="#000000">PermissionsGridModalModule</text>
</g>
<!-- PermissionsGridModalModule&#45;&gt;PermissionSelectModule -->
<g id="edge3" class="edge">
<title>PermissionsGridModalModule&#45;&gt;PermissionSelectModule</title>
<path fill="none" stroke="#000000" d="M153.4035,-122.0225C153.4035,-139.3734 153.4035,-163 153.4035,-163 153.4035,-163 223.631,-163 223.631,-163"/>
<polygon fill="#000000" stroke="#000000" points="223.631,-166.5001 233.631,-163 223.631,-159.5001 223.631,-166.5001"/>
</g>
</g>
</svg>
