<?xml version="1.0" encoding="UTF-8" standalone="no"?>
<!DOCTYPE svg PUBLIC "-//W3C//DTD SVG 1.1//EN"
 "http://www.w3.org/Graphics/SVG/1.1/DTD/svg11.dtd">
<!-- Generated by graphviz version 2.40.1 (20161225.0304)
 -->
<!-- Title: dependencies Pages: 1 -->
<svg width="623pt" height="284pt"
 viewBox="0.00 0.00 623.00 284.00" xmlns="http://www.w3.org/2000/svg" xmlns:xlink="http://www.w3.org/1999/xlink">
<g id="graph0" class="graph" transform="scale(1 1) rotate(0) translate(4 280)">
<title>dependencies</title>
<polygon fill="#ffffff" stroke="transparent" points="-4,4 -4,-280 619,-280 619,4 -4,4"/>
<text text-anchor="start" x="286.5091" y="-42.4" font-family="sans-serif" font-weight="bold" font-size="14.00" fill="#000000">Legend</text>
<polygon fill="#ffffb3" stroke="transparent" points="73.5,-10 73.5,-30 93.5,-30 93.5,-10 73.5,-10"/>
<text text-anchor="start" x="97.129" y="-15.4" font-family="sans-serif" font-size="14.00" fill="#000000"> &#160;Declarations</text>
<polygon fill="#8dd3c7" stroke="transparent" points="186.5,-10 186.5,-30 206.5,-30 206.5,-10 186.5,-10"/>
<text text-anchor="start" x="210.2251" y="-15.4" font-family="sans-serif" font-size="14.00" fill="#000000"> &#160;Module</text>
<polygon fill="#80b1d3" stroke="transparent" points="272.5,-10 272.5,-30 292.5,-30 292.5,-10 272.5,-10"/>
<text text-anchor="start" x="296.2812" y="-15.4" font-family="sans-serif" font-size="14.00" fill="#000000"> &#160;Bootstrap</text>
<polygon fill="#fdb462" stroke="transparent" points="369.5,-10 369.5,-30 389.5,-30 389.5,-10 369.5,-10"/>
<text text-anchor="start" x="393.1732" y="-15.4" font-family="sans-serif" font-size="14.00" fill="#000000"> &#160;Providers</text>
<polygon fill="#fb8072" stroke="transparent" points="465.5,-10 465.5,-30 485.5,-30 485.5,-10 465.5,-10"/>
<text text-anchor="start" x="489.2258" y="-15.4" font-family="sans-serif" font-size="14.00" fill="#000000"> &#160;Exports</text>
<g id="clust1" class="cluster">
<title>cluster_PermissionsGridModalModule</title>
<polygon fill="none" stroke="#000000" stroke-dasharray="1,5" points="8,-70 8,-268 607,-268 607,-70 8,-70"/>
</g>
<g id="clust2" class="cluster">
<title>cluster_PermissionsGridModalModule_declarations</title>
<polygon fill="none" stroke="#000000" points="371,-78 371,-130 599,-130 599,-78 371,-78"/>
</g>
<g id="clust4" class="cluster">
<title>cluster_PermissionsGridModalModule_imports</title>
<polygon fill="none" stroke="#000000" points="21,-78 21,-130 363,-130 363,-78 21,-78"/>
</g>
<g id="clust5" class="cluster">
<title>cluster_PermissionsGridModalModule_exports</title>
<polygon fill="none" stroke="#000000" points="16,-208 16,-260 599,-260 599,-208 16,-208"/>
</g>
<!-- PermissionsGridModalComponent -->
<g id="node1" class="node">
<title>PermissionsGridModalComponent</title>
<polygon fill="#ffffb3" stroke="#000000" points="590.7035,-122 379.2965,-122 379.2965,-86 590.7035,-86 590.7035,-122"/>
<text text-anchor="middle" x="485" y="-99.8" font-family="Times,serif" font-size="14.00" fill="#000000">PermissionsGridModalComponent</text>
</g>
<!-- PermissionsGridModalModule -->
<g id="node2" class="node">
<title>PermissionsGridModalModule</title>
<polygon fill="#8dd3c7" stroke="#000000" points="385.9213,-187 382.9213,-191 361.9213,-191 358.9213,-187 196.0787,-187 196.0787,-151 385.9213,-151 385.9213,-187"/>
<text text-anchor="middle" x="291" y="-164.8" font-family="Times,serif" font-size="14.00" fill="#000000">PermissionsGridModalModule</text>
</g>
<!-- PermissionsGridModalComponent&#45;&gt;PermissionsGridModalModule -->
<g id="edge1" class="edge">
<title>PermissionsGridModalComponent&#45;&gt;PermissionsGridModalModule</title>
<path fill="none" stroke="#000000" d="M379.3581,-104C371.8701,-104 367.1946,-104 367.1946,-104 367.1946,-104 367.1946,-140.8939 367.1946,-140.8939"/>
<polygon fill="#000000" stroke="#000000" points="363.6947,-140.8938 367.1946,-150.8939 370.6947,-140.8939 363.6947,-140.8938"/>
</g>
<!-- EntityGridModalModule  -->
<g id="node5" class="node">
<title>EntityGridModalModule </title>
<polygon fill="#fb8072" stroke="#000000" points="590.9825,-252 431.0175,-252 431.0175,-216 590.9825,-216 590.9825,-252"/>
<text text-anchor="middle" x="511" y="-229.8" font-family="Times,serif" font-size="14.00" fill="#000000">EntityGridModalModule </text>
</g>
<!-- PermissionsGridModalModule&#45;&gt;EntityGridModalModule  -->
<g id="edge4" class="edge">
<title>PermissionsGridModalModule&#45;&gt;EntityGridModalModule </title>
<path fill="none" stroke="#000000" stroke-dasharray="5,2" d="M385.866,-169C445.39,-169 510.9304,-169 510.9304,-169 510.9304,-169 510.9304,-205.8939 510.9304,-205.8939"/>
<polygon fill="#000000" stroke="#000000" points="507.4305,-205.8938 510.9304,-215.8939 514.4305,-205.8939 507.4305,-205.8938"/>
</g>
<!-- PermissionsGridModalComponent  -->
<g id="node6" class="node">
<title>PermissionsGridModalComponent </title>
<polygon fill="#fb8072" stroke="#000000" points="413.2036,-252 198.7964,-252 198.7964,-216 413.2036,-216 413.2036,-252"/>
<text text-anchor="middle" x="306" y="-229.8" font-family="Times,serif" font-size="14.00" fill="#000000">PermissionsGridModalComponent </text>
</g>
<!-- PermissionsGridModalModule&#45;&gt;PermissionsGridModalComponent  -->
<g id="edge5" class="edge">
<title>PermissionsGridModalModule&#45;&gt;PermissionsGridModalComponent </title>
<path fill="none" stroke="#000000" stroke-dasharray="5,2" d="M292.1794,-187.1061C292.1794,-187.1061 292.1794,-205.991 292.1794,-205.991"/>
<polygon fill="#000000" stroke="#000000" points="288.6794,-205.9909 292.1794,-215.991 295.6794,-205.991 288.6794,-205.9909"/>
</g>
<!-- PermissionsGridModule  -->
<g id="node7" class="node">
<title>PermissionsGridModule </title>
<polygon fill="#fb8072" stroke="#000000" points="180.3714,-252 23.6286,-252 23.6286,-216 180.3714,-216 180.3714,-252"/>
<text text-anchor="middle" x="102" y="-229.8" font-family="Times,serif" font-size="14.00" fill="#000000">PermissionsGridModule </text>
</g>
<!-- PermissionsGridModalModule&#45;&gt;PermissionsGridModule  -->
<g id="edge6" class="edge">
<title>PermissionsGridModalModule&#45;&gt;PermissionsGridModule </title>
<path fill="none" stroke="#000000" stroke-dasharray="5,2" d="M196.2082,-175C139.79,-175 79.1048,-175 79.1048,-175 79.1048,-175 79.1048,-205.9775 79.1048,-205.9775"/>
<polygon fill="#000000" stroke="#000000" points="75.6047,-205.9775 79.1048,-215.9775 82.6047,-205.9774 75.6047,-205.9775"/>
</g>
<!-- EntityGridModalModule -->
<g id="node3" class="node">
<title>EntityGridModalModule</title>
<polygon fill="#8dd3c7" stroke="#000000" points="354.9818,-122 351.9818,-126 330.9818,-126 327.9818,-122 199.0182,-122 199.0182,-86 354.9818,-86 354.9818,-122"/>
<text text-anchor="middle" x="277" y="-99.8" font-family="Times,serif" font-size="14.00" fill="#000000">EntityGridModalModule</text>
</g>
<!-- EntityGridModalModule&#45;&gt;PermissionsGridModalModule -->
<g id="edge2" class="edge">
<title>EntityGridModalModule&#45;&gt;PermissionsGridModalModule</title>
<path fill="none" stroke="#000000" d="M277,-122.1061C277,-122.1061 277,-140.991 277,-140.991"/>
<polygon fill="#000000" stroke="#000000" points="273.5001,-140.9909 277,-150.991 280.5001,-140.991 273.5001,-140.9909"/>
</g>
<!-- PermissionsGridModule -->
<g id="node4" class="node">
<title>PermissionsGridModule</title>
<polygon fill="#8dd3c7" stroke="#000000" points="181.3711,-122 178.3711,-126 157.3711,-126 154.3711,-122 28.6289,-122 28.6289,-86 181.3711,-86 181.3711,-122"/>
<text text-anchor="middle" x="105" y="-99.8" font-family="Times,serif" font-size="14.00" fill="#000000">PermissionsGridModule</text>
</g>
<!-- PermissionsGridModule&#45;&gt;PermissionsGridModalModule -->
<g id="edge3" class="edge">
<title>PermissionsGridModule&#45;&gt;PermissionsGridModalModule</title>
<path fill="none" stroke="#000000" d="M129.6452,-122.0225C129.6452,-139.3734 129.6452,-163 129.6452,-163 129.6452,-163 186.2059,-163 186.2059,-163"/>
<polygon fill="#000000" stroke="#000000" points="186.206,-166.5001 196.2059,-163 186.2059,-159.5001 186.206,-166.5001"/>
</g>
</g>
</svg>
